<?xml version="1.0" encoding="UTF-8"?>
<svg width="1440px" height="707px" viewBox="0 0 1440 707" version="1.1" xmlns="http://www.w3.org/2000/svg" xmlns:xlink="http://www.w3.org/1999/xlink">
    <!-- Generator: Sketch 49.2 (51160) - http://www.bohemiancoding.com/sketch -->
    <title>bg</title>
    <desc>Created with Sketch.</desc>
    <defs>
        <linearGradient x1="22.398966%" y1="25.9912853%" x2="111.248784%" y2="100%" id="linearGradient-1">
            <stop stop-color="#5A84FF" offset="0%"></stop>
            <stop stop-color="#1ACBFE" offset="100%"></stop>
        </linearGradient>
        <rect id="path-2" x="0" y="0" width="1440" height="707"></rect>
    </defs>
    <g id="web" stroke="none" stroke-width="1" fill="none" fill-rule="evenodd">
        <g id="Desktop-HD-Copy-4" transform="translate(0.000000, -342.000000)">
            <g id="Group-3" transform="translate(0.000000, 342.000000)">
                <g id="bg">
                    <mask id="mask-3" fill="white">
                        <use xlink:href="#path-2"></use>
                    </mask>
                    <use id="Mask" fill="url(#linearGradient-1)" xlink:href="#path-2"></use>
                    <path d="M-37.9627947,643.584574 L223.42581,806.825317 C250.595266,823.793013 258.865427,859.573244 241.897732,886.7427 C231.301018,903.710646 212.708117,914.01997 192.703079,914.01997 L-68.6855252,914.01997 C-100.718041,914.01997 -126.685525,888.052485 -126.685525,856.01997 L-126.685525,692.779227 C-126.685525,660.746711 -100.718041,634.779227 -68.6855252,634.779227 C-57.8220786,634.779227 -47.1769926,637.830182 -37.9627947,643.584574 Z" id="Rectangle-5-Copy-3" fill-opacity="0.0495923913" fill="#FFFFFF" mask="url(#mask-3)" transform="translate(62.012668, 774.399598) rotate(148.000000) translate(-62.012668, -774.399598) "></path>
                    <path d="M1058.17828,541.105698 L1533.44568,837.916665 C1560.61514,854.88436 1568.8853,890.664591 1551.9176,917.834048 C1541.32089,934.801994 1522.72799,945.111317 1502.72295,945.111317 L1027.45555,945.111317 C995.423031,945.111317 969.455547,919.143833 969.455547,887.111317 L969.455547,590.30035 C969.455547,558.267835 995.423031,532.30035 1027.45555,532.30035 C1038.31899,532.30035 1048.96408,535.351306 1058.17828,541.105698 Z" id="Rectangle-5-Copy-4" fill-opacity="0.0495923913" fill="#FFFFFF" mask="url(#mask-3)" transform="translate(1265.093141, 738.705834) rotate(148.000000) translate(-1265.093141, -738.705834) "></path>
                    <path d="M-52.3436743,-225.367727 L422.923731,71.4432397 C450.093187,88.4109352 458.363349,124.191166 441.395653,151.360623 C430.79894,168.328569 412.206038,178.637892 392.201001,178.637892 L-83.0664048,178.637892 C-115.09892,178.637892 -141.066405,152.670408 -141.066405,120.637892 L-141.066405,-176.173075 C-141.066405,-208.20559 -115.09892,-234.173075 -83.0664048,-234.173075 C-72.2029582,-234.173075 -61.5578722,-231.12212 -52.3436743,-225.367727 Z" id="Rectangle-5-Copy-5" fill-opacity="0.03" fill="#FFFFFF" mask="url(#mask-3)" transform="translate(154.571189, -27.767591) rotate(-60.000000) translate(-154.571189, 27.767591) "></path>
                    <path d="M1026.02975,-275.50342 L1501.29716,21.3075471 C1528.46661,38.2752426 1536.73677,74.0554737 1519.76908,101.22493 C1509.17236,118.192876 1490.57946,128.5022 1470.57443,128.5022 L995.30702,128.5022 C963.274505,128.5022 937.30702,102.534715 937.30702,70.5021996 L937.30702,-226.308768 C937.30702,-258.341283 963.274505,-284.308768 995.30702,-284.308768 C1006.17047,-284.308768 1016.81555,-281.257812 1026.02975,-275.50342 Z" id="Rectangle-5-Copy-6" fill-opacity="0.03" fill="#FFFFFF" mask="url(#mask-3)" transform="translate(1232.944614, -77.903284) scale(-1, 1) rotate(-386.000000) translate(-1232.944614, 77.903284) "></path>
                </g>
            </g>
        </g>
    </g>
</svg>