<?xml version="1.0" encoding="UTF-8" standalone="no"?>
<svg width="607px" height="563px" viewBox="0 0 607 563" version="1.1" xmlns="http://www.w3.org/2000/svg" xmlns:xlink="http://www.w3.org/1999/xlink">
    <!-- Generator: Sketch 49.3 (51167) - http://www.bohemiancoding.com/sketch -->
    <title>Group 4</title>
    <desc>Created with Sketch.</desc>
    <defs>
        <linearGradient x1="22.398966%" y1="25.9912853%" x2="111.248784%" y2="100%" id="linearGradient-1">
            <stop stop-color="#5A84FF" offset="0%"></stop>
            <stop stop-color="#1ACBFE" offset="100%"></stop>
        </linearGradient>
    </defs>
    <g id="Page-1" stroke="none" stroke-width="1" fill="none" fill-rule="evenodd">
        <g id="Desktop-HD-Copy-4" transform="translate(-828.000000, -482.000000)">
            <g id="Group-4" transform="translate(781.000000, 416.000000)">
                <path d="M649.126794,562.452443 C825.305629,562.452443 420.317042,381.022292 420.317042,204.843457 C420.317042,28.6646214 415.288361,48.5978437 366.282764,69.5812646 C317.277168,90.5646855 -25.2945783,308.269588 69.521738,400.272233 C164.338054,492.274878 0.204309829,676.473751 177.240431,671.088669 C180.102569,671.001609 646.323831,562.452443 649.126794,562.452443 Z" id="Oval" fill="url(#linearGradient-1)" transform="translate(373.273503, 363.677231) rotate(11.000000) translate(-373.273503, -363.677231) "></path>
                <g id="bus" transform="translate(343.000000, 407.500000) scale(-1, 1) translate(-343.000000, -407.500000) translate(142.000000, 294.000000)" fill-rule="nonzero">
                    <path d="M400.452388,81.7865412 L371.42124,12.3290507 C368.312807,4.8555634 360.989656,-0.013277783 352.868786,2.72001436e-05 L20.0999965,2.72001436e-05 C8.99788906,2.72001436e-05 0,8.96915113 0,20.0357665 L0,166.964261 C0,178.030876 8.99788906,187 20.0999965,187 L381.899934,187 C393.002041,187 401.99993,178.030876 401.99993,166.964261 L401.99993,89.4924744 C402.006997,86.8494786 401.477016,84.2244837 400.452388,81.7865412 Z" id="Shape" fill="#FDC536"></path>
                    <rect id="Rectangle-path" fill="#FEE8AF" x="168" y="34" width="66" height="154"></rect>
                    <path d="M400.459779,82.7985525 L373.91463,19 C342.83498,96.6488178 280.928857,157.869667 203,188 L381.995932,188 C393.045016,188 401.999931,179.032033 401.999931,167.966846 L401.999931,90.5050564 C402.006963,87.8608366 401.479514,85.2361804 400.459779,82.7985525 Z" id="Shape" fill="#FDD15E"></path>
                    <g id="Group" transform="translate(41.000000, 40.000000)" fill="#3CB2CA">
                        <polygon id="Shape" points="347.947486 41.4685385 281.064865 41.4685385 281.064865 0.114692308 330.926054 0.114692308"></polygon>
                        <rect id="Rectangle-path" x="0.156756757" y="0.108230769" width="40.1297297" height="41.3538462"></rect>
                    </g>
                    <g id="Group" transform="translate(61.000000, 140.000000)" fill="#42210B">
                        <path d="M40.8777778,0.110291262 C63.1082139,0.110291262 81.1266667,17.9130097 81.1266667,39.8772816 C81.1266667,61.8415534 63.1082139,79.6442718 40.8777778,79.6442718 C18.6473417,79.6442718 0.628888889,61.8415534 0.628888889,39.8772816 C0.628888889,17.9130097 18.6473417,0.110291262 40.8777778,0.110291262 Z" id="Shape"></path>
                        <path d="M242.122222,0.110291262 C264.352658,0.110291262 282.371111,17.9130097 282.371111,39.8772816 C282.371111,61.8415534 264.352658,79.6442718 242.122222,79.6442718 C219.891786,79.6442718 201.873333,61.8415534 201.873333,39.8772816 C201.873333,17.9130097 219.891786,0.110291262 242.122222,0.110291262 Z" id="Shape"></path>
                    </g>
                    <g id="Group" transform="translate(86.000000, 167.000000)" fill="#FDC536">
                        <path d="M14.1164384,0.212914286 C21.5110993,0.212914286 27.5011747,6.10431429 27.5011747,13.3788857 C27.5011747,20.6526857 21.5118836,26.5448571 14.1164384,26.5448571 C6.7217774,26.5448571 0.731702055,20.6534571 0.731702055,13.3788857 C0.731702055,6.10431429 6.7217774,0.212914286 14.1164384,0.212914286 Z" id="Shape"></path>
                        <path d="M214.883562,0.212914286 C222.278223,0.212914286 228.268298,6.10431429 228.268298,13.3788857 C228.268298,20.6526857 222.279007,26.5448571 214.883562,26.5448571 C207.488901,26.5448571 201.498825,20.6534571 201.498825,13.3788857 C201.498825,6.10431429 207.488901,0.212914286 214.883562,0.212914286 Z" id="Shape"></path>
                    </g>
                    <g id="Group" transform="translate(0.000000, 107.000000)" fill="#E65848">
                        <rect id="Rectangle-path" x="0" y="0.337277778" width="167.499738" height="12.3261667"></rect>
                        <rect id="Rectangle-path" x="234.500262" y="0.337277778" width="167.499738" height="12.3261667"></rect>
                    </g>
                    <path d="M48,80 L82,80 L82,40 L75.5915466,40 C68.733804,54.7 59.4114588,68.2132812 48,80 Z" id="Shape" fill="#0B9FBD"></path>
                    <rect id="Rectangle-path" fill="#3CB2CA" x="93" y="40" width="41" height="40"></rect>
                    <path d="M100,80 L134,80 L134,40 L127.591547,40 C120.733804,54.7 111.41227,68.2132812 100,80 Z" id="Shape" fill="#0B9FBD"></path>
                    <rect id="Rectangle-path" fill="#3CB2CA" x="268" y="40" width="41" height="40"></rect>
                    <g id="Group" transform="translate(275.000000, 40.000000)" fill="#0B9FBD">
                        <path d="M0.4788,41.4685385 L33.4397379,41.4685385 L33.4397379,0.114692308 L27.227131,0.114692308 C20.5789655,15.3122308 11.5423034,29.2828846 0.4788,41.4685385 Z" id="Shape"></path>
                        <path d="M89.1983172,0.114692308 C82.220731,14.5198846 74.1566069,28.3459615 65.0861379,41.4685385 L113.947324,41.4685385 L96.873269,0.114692308 L89.1983172,0.114692308 Z" id="Shape"></path>
                    </g>
                    <path d="M168,157.617477 L168,187 L234,187 L234,71 C223.123879,107.09527 199.647639,137.901685 168,157.617477 Z" id="Shape" fill="#FDF5C9"></path>
                    <path d="M100.503203,161 C91.8452408,161.033591 84.1442027,166.372938 81.2606176,174.332354 C79.5797941,178.624923 79.5797941,183.371357 81.2606176,187.664708 C84.9714016,198.03015 96.587421,203.503079 107.213684,199.883884 C113.083354,197.88407 117.689402,193.391519 119.739382,187.664708 C121.420206,183.372138 121.420206,178.625705 119.739382,174.332354 C116.854997,166.372938 109.153958,161.03984 100.503203,161 Z M100.503203,187.664708 C96.7315602,187.664708 93.6702034,184.678267 93.6702034,180.998921 C93.6702034,177.319576 96.7315602,174.333135 100.503203,174.333135 C104.274846,174.333135 107.336203,177.319576 107.336203,180.998921 C107.336203,184.678267 104.274846,187.664708 100.503203,187.664708 Z" id="Shape" fill="#000000"></path>
                    <path d="M80.3335938,27 L27,27 L27,93 L147,93 L147,27 L80.3335938,27 Z M80.3335937,79.7996906 L40.3335938,79.7996906 L40.3335938,40.1995359 L80.3335937,40.1995359 L80.3335937,79.7996906 Z M133.667187,79.7996906 L93.6671875,79.7996906 L93.6671875,40.1995359 L133.667187,40.1995359 L133.667187,79.7996906 Z" id="Shape" fill="#000000"></path>
                    <path d="M400.458668,81.7656905 L371.427521,12.3259076 C368.319088,4.84806598 360.98887,-0.0132743631 352.868786,2.72280954e-05 L20.0999965,2.72280954e-05 C8.99788904,2.72280954e-05 0,8.96686456 0,20.0306586 L0,166.921695 C0,177.985489 8.99788904,186.952326 20.0999965,186.952326 L54.1357288,186.952326 C57.8141851,212.471037 81.5518099,230.184845 107.159676,226.519865 C127.741759,223.575519 143.908908,207.464162 146.864236,186.952326 L255.136479,186.952326 C258.814935,212.471037 282.55256,230.184845 308.160426,226.519865 C328.742509,223.575519 344.909658,207.464162 347.864986,186.952326 L381.899933,186.952326 C393.00204,186.952326 401.999929,177.985489 401.999929,166.921695 L401.999929,89.4696591 C402.006996,86.8273372 401.484082,84.2030115 400.458668,81.7656905 Z M368.499673,40.0620725 L385.249409,80.1233352 L321.599943,80.1233352 L321.599943,40.0620725 L368.499673,40.0620725 Z M133.329715,186.953891 C129.644977,205.021364 111.963262,216.699379 93.8332218,213.027357 C75.703182,209.355335 63.984727,191.734639 67.6694647,173.667166 C71.3542023,155.599693 89.0359179,143.921679 107.165958,147.5937 C122.763869,150.751655 133.986105,164.412389 133.999453,180.277275 C134.000238,182.519766 133.778824,184.756781 133.329715,186.953891 Z M160.799972,173.599876 L146.864236,173.599876 C143.18578,148.081164 119.448155,130.367357 93.8402882,134.032337 C73.2582059,136.976683 57.0910564,153.08804 54.1357288,173.599876 L20.0999965,173.599876 C16.4019112,173.599876 13.4002594,170.608583 13.4002594,166.92326 L13.4002594,120.18538 L160.799972,120.18538 L160.799972,173.599876 Z M227.799698,106.831365 L227.799698,173.599876 L174.199446,173.599876 L174.199446,40.0620725 L227.799698,40.0620725 L227.799698,106.831365 Z M334.32968,186.953891 C330.644942,205.021364 312.963226,216.699379 294.833186,213.027357 C276.703147,209.355335 264.984692,191.734639 268.669429,173.667166 C272.354167,155.599693 290.035883,143.921679 308.165922,147.5937 C323.763834,150.751655 334.98607,164.412389 334.999418,180.277275 C335.000203,182.519766 334.778789,184.756781 334.32968,186.953891 Z M388.59967,166.92326 C388.59967,170.608583 385.598018,173.599876 381.899933,173.599876 L347.864201,173.599876 C344.185744,148.081164 320.448119,130.367357 294.840253,134.032337 C274.258171,136.976683 258.091021,153.08804 255.135693,173.599876 L241.199958,173.599876 L241.199958,120.184598 L388.59967,120.184598 L388.59967,166.92326 Z M388.600455,106.831365 L241.199958,106.831365 L241.199958,26.7088398 L160.799972,26.7088398 L160.799972,106.831365 L13.4002594,106.831365 L13.4002594,20.0314411 C13.4002594,16.3461179 16.4019112,13.3548248 20.0999965,13.3548248 L352.868786,13.3548248 C355.575219,13.3548248 358.014699,14.9776189 359.052675,17.4611042 L362.918784,26.7088398 L254.600217,26.7088398 L254.600217,93.4773503 L388.600455,93.4773503 L388.600455,106.831365 Z M308.199684,40.0620725 L308.199684,80.1233352 L267.999691,80.1233352 L267.999691,40.0620725 L308.199684,40.0620725 Z" id="Shape" fill="#000000"></path>
                    <path d="M302.503203,161 C293.845241,161.033591 286.144203,166.372938 283.260618,174.332354 C281.579794,178.624923 281.579794,183.371357 283.260618,187.664708 C286.971402,198.03015 298.587421,203.503079 309.213684,199.883884 C315.083354,197.88407 319.689402,193.391519 321.739382,187.664708 C323.420206,183.372138 323.420206,178.625705 321.739382,174.332354 C318.854997,166.372938 311.153958,161.03984 302.503203,161 Z M302.503203,187.664708 C298.73156,187.664708 295.670203,184.678267 295.670203,180.998921 C295.670203,177.319576 298.73156,174.333135 302.503203,174.333135 C306.274846,174.333135 309.336203,177.319576 309.336203,180.998921 C309.336203,184.678267 306.274846,187.664708 302.503203,187.664708 Z" id="Shape" fill="#000000"></path>
                </g>
            </g>
        </g>
    </g>
</svg>