<svg xmlns="http://www.w3.org/2000/svg" width="1440" height="426" viewBox="0 0 1440 426">
    <path fill="#D7EAE7" fill-rule="evenodd" d="M1581.948 233.33c-30.734-63.886-93.84-105.047-164.687-107.418-50.624-1.688-98.889 16.412-135.889 50.982-36.5 34.102-57.714 80.202-59.91 129.999a114.75 114.75 0 0 0-45.136-9.238 114.73 114.73 0 0 0-66.304 21.065c-31.535-42.483-81.852-67.83-134.743-67.83-74.254 0-140.164 49.435-160.93 120.436-21.918-16.385-48.732-25.467-76.538-25.467-43.55 0-83.33 21.922-106.679 57.367-15.27-21.972-40.24-35.063-67.025-35.063a83.75 83.75 0 0 0-6.257.253c-31.326-92.543-130.693-145.06-225.516-117.6a184.367 184.367 0 0 0-53.592 25.47c-31.913-60.877-94.315-98.662-163.1-98.662-2.04 0-4.099.042-6.144.11.147-3.02.225-6.044.225-9.07 0-101.378-82.552-183.855-184.022-183.855-33.587 0-66.453 9.124-95.046 26.388a1.217 1.217 0 1 0 1.26 2.083c28.212-17.034 60.643-26.039 93.786-26.039 100.128 0 181.588 81.387 181.588 181.424 0 12.309-1.242 24.611-3.69 36.565a1.216 1.216 0 0 0 1.194 1.46c.566 0 1.074-.396 1.19-.972a184.323 184.323 0 0 0 3.37-25.547 187.24 187.24 0 0 1 6.29-.115c67.974 0 129.634 37.393 161.083 97.62a182.74 182.74 0 0 0-28.326 24.923 1.216 1.216 0 1 0 1.788 1.651c22.352-24.21 50.992-41.88 82.823-51.097 93.75-27.147 191.993 24.924 222.706 116.566 0 .029-.012.056-.01.086.02.222.112.411.231.582a182.21 182.21 0 0 1 2.036 6.51 182.596 182.596 0 0 1 6.646 36.143 1.218 1.218 0 0 0 2.426-.194 184.988 184.988 0 0 0-6.734-36.627 182.756 182.756 0 0 0-1.671-5.418 81.054 81.054 0 0 1 5.466-.205c26.325 0 50.851 13.029 65.61 34.852a128.437 128.437 0 0 0-9.6 18.353 1.216 1.216 0 0 0 1.12 1.69c.475 0 .927-.278 1.123-.743 19.663-46.446 64.98-76.456 115.45-76.456 27.839 0 54.661 9.277 76.401 25.98.04.036.084.068.13.098a125.356 125.356 0 0 1 17.47 16.333 1.217 1.217 0 0 0 1.826-1.61 127.915 127.915 0 0 0-17.212-16.191c20.169-70.45 85.367-119.58 158.854-119.58 52.112 0 101.688 24.97 132.768 66.821a115.038 115.038 0 0 0-26.909 28.077 1.218 1.218 0 0 0 2.018 1.36c20.956-30.99 55.787-49.492 93.17-49.492 15.746 0 31.1 3.274 45.207 9.471.201.364.564.626 1.01.641l.042.001c.088 0 .167-.031.25-.05a112.23 112.23 0 0 1 29.534 19.553 1.216 1.216 0 1 0 1.648-1.79 114.73 114.73 0 0 0-30.167-19.974c1.94-49.52 22.927-95.392 59.185-129.269 36.525-34.126 84.178-51.991 134.144-50.327 69.94 2.34 132.233 42.972 162.574 106.04a1.218 1.218 0 0 0 2.195-1.053"/>
</svg>
