<svg height="369" viewBox="0 0 1401 369" width="1401" xmlns="http://www.w3.org/2000/svg" xmlns:xlink="http://www.w3.org/1999/xlink"><linearGradient id="a" x1="50%" x2="29.22%" y1="0%" y2="11.316%"><stop offset="0" stop-color="#4e3219"/><stop offset="1" stop-color="#91815a"/></linearGradient><linearGradient id="b"><stop offset="0" stop-color="#ff5d5d"/><stop offset="1" stop-color="#ffbbab" stop-opacity="0"/></linearGradient><linearGradient id="c" x1="111.598%" x2="31.906%" xlink:href="#b" y1="7.351%" y2="87.885%"/><linearGradient id="d" x1="115.866%" x2="31.906%" xlink:href="#b" y1="-38.736%" y2="87.885%"/><linearGradient id="e" x1="182.607%" x2="31.906%" xlink:href="#b" y1="-37.901%" y2="87.885%"/><linearGradient id="f" x1="73.791%" x2="31.906%" xlink:href="#b" y1="44.436%" y2="87.885%"/><g fill="none" fill-rule="evenodd" opacity=".1"><path d="m193.937 244.437h.482v-2.028l-.482-.206zm1.479 1.994h-2.476a.997.997 0 0 1 -.997-.997v-4.737a.997.997 0 0 1 1.387-.918l2.477 1.051a.997.997 0 0 1 .606.919v3.685a.996.996 0 0 1 -.997.997zm3.013-.001h-.747a.997.997 0 0 1 -.997-.996v-3.148a.997.997 0 0 1 1.5-.861l.746.436a.994.994 0 0 1 .495.86v2.713a.997.997 0 0 1 -.997.997" fill="url(#a)"/><path d="m145.04 244.949h57.806v82h-57.806z" fill="url(#c)" opacity=".4"/><path d="m202.988 365.707a.997.997 0 0 1 -.997-.997v-118.28h-55.938v118.28a.996.996 0 1 1 -1.994 0v-119.277c0-.55.447-.997.997-.997h57.932c.55 0 .997.446.997.997v119.277a.997.997 0 0 1 -.997.997z" fill="url(#a)"/><path d="m151.1 257.353h4.465v-4.465h-4.465zm5.462 1.994h-6.46a.997.997 0 0 1 -.997-.997v-6.458c0-.551.447-.997.997-.997h6.46c.55 0 .997.446.997.997v6.458a.997.997 0 0 1 -.997.997zm-5.462 8.93h4.465v-4.465h-4.465zm5.462 1.994h-6.46a.997.997 0 0 1 -.997-.997v-6.458c0-.551.447-.997.997-.997h6.46c.55 0 .997.446.997.997v6.458a.997.997 0 0 1 -.997.997zm-5.462 8.93h4.465v-4.465h-4.465zm5.462 1.994h-6.46a.997.997 0 0 1 -.997-.997v-6.458c0-.551.447-.997.997-.997h6.46c.55 0 .997.446.997.997v6.458a.997.997 0 0 1 -.997.997zm-5.462 8.931h4.465v-4.465h-4.465zm5.462 1.994h-6.46a.997.997 0 0 1 -.997-.997v-6.458c0-.552.447-.997.997-.997h6.46c.55 0 .997.445.997.997v6.458a.997.997 0 0 1 -.997.997zm-5.462 8.93h4.465v-4.465h-4.465zm5.462 1.994h-6.46a.997.997 0 0 1 -.997-.997v-6.458c0-.552.447-.997.997-.997h6.46c.55 0 .997.445.997.997v6.458a.997.997 0 0 1 -.997.997zm-5.462 8.93h4.465v-4.465h-4.465zm5.462 1.994h-6.46a.997.997 0 0 1 -.997-.997v-6.458c0-.551.447-.997.997-.997h6.46c.55 0 .997.446.997.997v6.458a.997.997 0 0 1 -.997.997zm-5.462 8.931h4.465v-4.466h-4.465zm5.462 1.994h-6.46a.997.997 0 0 1 -.997-.997v-6.459c0-.551.447-.997.997-.997h6.46c.55 0 .997.446.997.997v6.459a.997.997 0 0 1 -.997.997zm-5.462 8.931h4.465v-4.465h-4.465zm5.462 1.994h-6.46a.997.997 0 0 1 -.997-.997v-6.459c0-.551.447-.997.997-.997h6.46c.55 0 .997.446.997.997v6.459c0 .55-.447.997-.997.997zm-5.462 8.93h4.465v-4.465h-4.465zm5.462 1.994h-6.46a.997.997 0 0 1 -.997-.997v-6.459c0-.55.447-.997.997-.997h6.46c.55 0 .997.446.997.997v6.459c0 .55-.447.997-.997.997zm-5.462 8.93h4.465v-4.464h-4.465zm5.462 1.994h-6.46a.997.997 0 0 1 -.997-.997v-6.458c0-.552.447-.997.997-.997h6.46c.55 0 .997.445.997.997v6.458c0 .55-.447.997-.997.997zm4.831-100.313h4.465v-4.465h-4.465zm5.462 1.994h-6.459a.996.996 0 0 1 -.997-.997v-6.458c0-.551.446-.997.997-.997h6.459c.55 0 .997.446.997.997v6.458a.997.997 0 0 1 -.997.997zm-5.462 8.93h4.465v-4.465h-4.465zm5.462 1.994h-6.459a.996.996 0 0 1 -.997-.997v-6.458c0-.551.446-.997.997-.997h6.459c.55 0 .997.446.997.997v6.458a.997.997 0 0 1 -.997.997zm-5.462 8.93h4.465v-4.465h-4.465zm5.462 1.994h-6.459a.996.996 0 0 1 -.997-.997v-6.458c0-.551.446-.997.997-.997h6.459c.55 0 .997.446.997.997v6.458a.997.997 0 0 1 -.997.997zm-5.462 8.931h4.465v-4.465h-4.465zm5.462 1.994h-6.459a.996.996 0 0 1 -.997-.997v-6.458c0-.552.446-.997.997-.997h6.459c.55 0 .997.445.997.997v6.458a.997.997 0 0 1 -.997.997zm-5.462 8.93h4.465v-4.465h-4.465zm5.462 1.994h-6.459a.996.996 0 0 1 -.997-.997v-6.458c0-.552.446-.997.997-.997h6.459c.55 0 .997.445.997.997v6.458a.997.997 0 0 1 -.997.997zm-5.462 8.93h4.465v-4.465h-4.465zm5.462 1.994h-6.459a.996.996 0 0 1 -.997-.997v-6.458c0-.551.446-.997.997-.997h6.459c.55 0 .997.446.997.997v6.458a.997.997 0 0 1 -.997.997zm-5.462 8.931h4.465v-4.466h-4.465zm5.462 1.994h-6.459a.996.996 0 0 1 -.997-.997v-6.459c0-.551.446-.997.997-.997h6.459c.55 0 .997.446.997.997v6.459a.997.997 0 0 1 -.997.997zm-5.462 8.931h4.465v-4.465h-4.465zm5.462 1.994h-6.459a.997.997 0 0 1 -.997-.997v-6.459c0-.551.446-.997.997-.997h6.459c.55 0 .997.446.997.997v6.459c0 .55-.447.997-.997.997zm-5.462 8.93h4.465v-4.465h-4.465zm5.462 1.994h-6.459a.997.997 0 0 1 -.997-.997v-6.459c0-.55.446-.997.997-.997h6.459c.55 0 .997.446.997.997v6.459c0 .55-.447.997-.997.997zm-5.462 8.93h4.465v-4.464h-4.465zm5.462 1.994h-6.459a.997.997 0 0 1 -.997-.997v-6.458c0-.552.446-.997.997-.997h6.459c.55 0 .997.445.997.997v6.458c0 .55-.447.997-.997.997zm4.935-100.313h4.465v-4.465h-4.465zm5.462 1.994h-6.46a.997.997 0 0 1 -.997-.997v-6.458c0-.551.447-.997.997-.997h6.46c.55 0 .997.446.997.997v6.458a.997.997 0 0 1 -.997.997zm-5.462 8.93h4.465v-4.465h-4.465zm5.462 1.994h-6.46a.997.997 0 0 1 -.997-.997v-6.458c0-.551.447-.997.997-.997h6.46c.55 0 .997.446.997.997v6.458a.997.997 0 0 1 -.997.997zm-5.462 8.93h4.465v-4.465h-4.465zm5.462 1.994h-6.46a.997.997 0 0 1 -.997-.997v-6.458c0-.551.447-.997.997-.997h6.46c.55 0 .997.446.997.997v6.458a.997.997 0 0 1 -.997.997zm-5.462 8.931h4.465v-4.465h-4.465zm5.462 1.994h-6.46a.997.997 0 0 1 -.997-.997v-6.458c0-.552.447-.997.997-.997h6.46c.55 0 .997.445.997.997v6.458a.997.997 0 0 1 -.997.997zm-5.462 8.93h4.465v-4.465h-4.465zm5.462 1.994h-6.46a.997.997 0 0 1 -.997-.997v-6.458c0-.552.447-.997.997-.997h6.46c.55 0 .997.445.997.997v6.458a.997.997 0 0 1 -.997.997zm-5.462 8.93h4.465v-4.465h-4.465zm5.462 1.994h-6.46a.997.997 0 0 1 -.997-.997v-6.458c0-.551.447-.997.997-.997h6.46c.55 0 .997.446.997.997v6.458a.997.997 0 0 1 -.997.997zm-5.462 8.931h4.465v-4.466h-4.465zm5.462 1.994h-6.46a.997.997 0 0 1 -.997-.997v-6.459c0-.551.447-.997.997-.997h6.46c.55 0 .997.446.997.997v6.459a.997.997 0 0 1 -.997.997zm-5.462 8.931h4.465v-4.465h-4.465zm5.462 1.994h-6.46a.997.997 0 0 1 -.997-.997v-6.459c0-.551.447-.997.997-.997h6.46c.55 0 .997.446.997.997v6.459c0 .55-.447.997-.997.997zm-5.462 8.93h4.465v-4.465h-4.465zm5.462 1.994h-6.46a.997.997 0 0 1 -.997-.997v-6.459c0-.55.447-.997.997-.997h6.46c.55 0 .997.446.997.997v6.459c0 .55-.447.997-.997.997zm-5.462 8.93h4.465v-4.464h-4.465zm5.462 1.994h-6.46a.997.997 0 0 1 -.997-.997v-6.458c0-.552.447-.997.997-.997h6.46c.55 0 .997.445.997.997v6.458c0 .55-.447.997-.997.997zm5.294-100.313h4.465v-4.465h-4.465zm5.461 1.994h-6.458a.997.997 0 0 1 -.997-.997v-6.458c0-.551.446-.997.997-.997h6.458c.552 0 .997.446.997.997v6.458a.996.996 0 0 1 -.997.997zm-5.461 8.93h4.465v-4.465h-4.465zm5.461 1.994h-6.458a.997.997 0 0 1 -.997-.997v-6.458c0-.551.446-.997.997-.997h6.458c.552 0 .997.446.997.997v6.458a.996.996 0 0 1 -.997.997zm-5.461 8.93h4.465v-4.465h-4.465zm5.461 1.994h-6.458a.997.997 0 0 1 -.997-.997v-6.458c0-.551.446-.997.997-.997h6.458c.552 0 .997.446.997.997v6.458a.996.996 0 0 1 -.997.997zm-5.461 8.931h4.465v-4.465h-4.465zm5.461 1.994h-6.458a.997.997 0 0 1 -.997-.997v-6.458c0-.552.446-.997.997-.997h6.458c.552 0 .997.445.997.997v6.458a.996.996 0 0 1 -.997.997zm-5.461 8.93h4.465v-4.465h-4.465zm5.461 1.994h-6.458a.997.997 0 0 1 -.997-.997v-6.458c0-.552.446-.997.997-.997h6.458c.552 0 .997.445.997.997v6.458a.996.996 0 0 1 -.997.997zm-5.461 8.93h4.465v-4.465h-4.465zm5.461 1.994h-6.458a.997.997 0 0 1 -.997-.997v-6.458c0-.551.446-.997.997-.997h6.458c.552 0 .997.446.997.997v6.458a.996.996 0 0 1 -.997.997zm-5.461 8.931h4.465v-4.466h-4.465zm5.461 1.994h-6.458a.997.997 0 0 1 -.997-.997v-6.459c0-.551.446-.997.997-.997h6.458c.552 0 .997.446.997.997v6.459a.996.996 0 0 1 -.997.997zm-5.461 8.931h4.465v-4.465h-4.465zm5.461 1.994h-6.458a.997.997 0 0 1 -.997-.997v-6.459c0-.551.446-.997.997-.997h6.458c.552 0 .997.446.997.997v6.459c0 .55-.445.997-.997.997zm-5.461 8.93h4.465v-4.465h-4.465zm5.461 1.994h-6.458a.997.997 0 0 1 -.997-.997v-6.459c0-.55.446-.997.997-.997h6.458c.552 0 .997.446.997.997v6.459c0 .55-.445.997-.997.997zm-5.461 8.93h4.465v-4.464h-4.465zm5.461 1.994h-6.458a.997.997 0 0 1 -.997-.997v-6.458c0-.552.446-.997.997-.997h6.458c.552 0 .997.445.997.997v6.458c0 .55-.445.997-.997.997zm4.96-100.313h4.465v-4.465h-4.465zm5.461 1.994h-6.458a.996.996 0 0 1 -.997-.997v-6.458c0-.551.445-.997.997-.997h6.458c.55 0 .998.446.998.997v6.458a.997.997 0 0 1 -.998.997zm-5.461 8.93h4.465v-4.465h-4.465zm5.461 1.994h-6.458a.996.996 0 0 1 -.997-.997v-6.458c0-.551.445-.997.997-.997h6.458c.55 0 .998.446.998.997v6.458a.997.997 0 0 1 -.998.997zm-5.461 8.93h4.465v-4.465h-4.465zm5.461 1.994h-6.458a.996.996 0 0 1 -.997-.997v-6.458c0-.551.445-.997.997-.997h6.458c.55 0 .998.446.998.997v6.458a.997.997 0 0 1 -.998.997zm-5.461 8.931h4.465v-4.465h-4.465zm5.461 1.994h-6.458a.996.996 0 0 1 -.997-.997v-6.458c0-.552.445-.997.997-.997h6.458c.55 0 .998.445.998.997v6.458a.997.997 0 0 1 -.998.997zm-5.461 8.93h4.465v-4.465h-4.465zm5.461 1.994h-6.458a.996.996 0 0 1 -.997-.997v-6.458c0-.552.445-.997.997-.997h6.458c.55 0 .998.445.998.997v6.458a.997.997 0 0 1 -.998.997zm-5.461 8.93h4.465v-4.465h-4.465zm5.461 1.994h-6.458a.996.996 0 0 1 -.997-.997v-6.458c0-.551.445-.997.997-.997h6.458c.55 0 .998.446.998.997v6.458a.997.997 0 0 1 -.998.997zm-5.461 8.931h4.465v-4.466h-4.465zm5.461 1.994h-6.458a.996.996 0 0 1 -.997-.997v-6.459c0-.551.445-.997.997-.997h6.458c.55 0 .998.446.998.997v6.459a.997.997 0 0 1 -.998.997zm-5.461 8.931h4.465v-4.465h-4.465zm5.461 1.994h-6.458a.997.997 0 0 1 -.997-.997v-6.459c0-.551.445-.997.997-.997h6.458c.55 0 .998.446.998.997v6.459c0 .55-.447.997-.998.997zm-5.461 8.93h4.465v-4.465h-4.465zm5.461 1.994h-6.458a.997.997 0 0 1 -.997-.997v-6.459c0-.55.445-.997.997-.997h6.458c.55 0 .998.446.998.997v6.459c0 .55-.447.997-.998.997zm-5.461 8.93h4.465v-4.464h-4.465zm5.461 1.994h-6.458a.997.997 0 0 1 -.997-.997v-6.458c0-.552.445-.997.997-.997h6.458c.55 0 .998.445.998.997v6.458c0 .55-.447.997-.998.997zm-11.198-111.236a.997.997 0 0 1 -.997-.996c0-6.348-5.851-11.514-13.043-11.514-7.191 0-13.042 5.166-13.042 11.514a.997.997 0 1 1 -1.994 0c0-7.449 6.745-13.508 15.036-13.508s15.037 6.059 15.037 13.508a.997.997 0 0 1 -.997.997m-36.74-1.994h.481v-2.028l-.481-.206zm1.479 1.994h-2.476a.997.997 0 0 1 -.998-.997v-4.737a.997.997 0 0 1 1.387-.918l2.477 1.051a.997.997 0 0 1 .607.919v3.685a.996.996 0 0 1 -.997.997zm3.012-.001h-.747a.997.997 0 0 1 -.997-.996v-3.148a.997.997 0 0 1 1.5-.861l.747.436a.994.994 0 0 1 .494.86v2.713a.997.997 0 0 1 -.997.997" fill="url(#a)"/><path d="m234.376 175.564h28.687v15.556h-28.687zm-19.137 131.547h66.772v56.249h-66.772z" fill="url(#d)" opacity=".4"/><path d="m263.492 192.44a.997.997 0 0 1 -.997-.997v-15.665h-28.109v15.665a.997.997 0 1 1 -1.994 0v-16.663c0-.552.447-.997.997-.997h30.103c.55 0 .997.445.997.997v16.662a.997.997 0 0 1 -.997.997" fill="url(#a)"/><path d="m269.078 204.822a.997.997 0 0 1 -.997-.997v-11.385h-39.28v11.385a.997.997 0 1 1 -1.995 0v-12.383c0-.55.447-.997.997-.997h41.275c.55 0 .998.446.998.997v12.383a.997.997 0 0 1 -.998.997m-20.638-29.044a.997.997 0 0 1 -.997-.997v-12.272a.997.997 0 0 1 1.995 0v12.272a.997.997 0 0 1 -.997.997" fill="url(#a)"/><path d="m222.815 208.154h51.5v97.769h-51.5z" fill="url(#e)" opacity=".4"/><g fill="url(#a)"><path d="m274.78 307.51a.997.997 0 0 1 -.996-.997v-101.69h-50.687v101.69a.997.997 0 1 1 -1.994 0v-102.688c0-.551.447-.997.997-.997h52.68c.551 0 .998.446.998.997v102.688a.997.997 0 0 1 -.997.997"/><path d="m282.844 365.707a.997.997 0 0 1 -.997-.997v-57.2h-66.813v57.2a.997.997 0 1 1 -1.994 0v-58.197c0-.551.446-.997.997-.997h68.807c.55 0 .998.446.998.997v58.197a.997.997 0 0 1 -.998.997m-8.064-156.799h-52.68a.997.997 0 1 1 0-1.994h52.68a.997.997 0 1 1 0 1.994"/><path d="m223.097 206.913h4.152v-2.092h-4.152zm5.15 1.994h-6.147a.997.997 0 0 1 -.997-.997v-4.085c0-.55.446-.997.997-.997h6.146c.552 0 .997.446.997.997v4.085a.996.996 0 0 1 -.997.997z"/><path d="m228.8 206.913h4.153v-2.092h-4.153zm5.15 1.994h-6.146a.996.996 0 0 1 -.998-.997v-4.085c0-.55.446-.997.998-.997h6.146c.55 0 .997.446.997.997v4.085a.997.997 0 0 1 -.997.997z"/><path d="m234.947 206.913h4.153v-2.092h-4.153zm5.15 1.994h-6.147a.996.996 0 0 1 -.997-.997v-4.085c0-.55.446-.997.997-.997h6.147c.55 0 .997.446.997.997v4.085a.997.997 0 0 1 -.998.997z"/><path d="m241.094 206.913h4.152v-2.092h-4.152zm5.149 1.994h-6.147a.997.997 0 0 1 -.997-.997v-4.085c0-.55.447-.997.998-.997h6.146c.551 0 .997.446.997.997v4.085a.996.996 0 0 1 -.997.997z"/><path d="m247.24 206.913h4.152v-2.092h-4.152zm5.15 1.994h-6.147a.997.997 0 0 1 -.997-.997v-4.085c0-.55.447-.997.997-.997h6.146c.552 0 .998.446.998.997v4.085a.996.996 0 0 1 -.998.997z"/><path d="m253.387 206.913h4.152v-2.092h-4.152zm5.149 1.994h-6.147a.997.997 0 0 1 -.997-.997v-4.085c0-.55.447-.997.997-.997h6.147c.551 0 .997.446.997.997v4.085a.996.996 0 0 1 -.997.997z"/><path d="m259.533 206.913h4.152v-2.092h-4.152zm5.15 1.994h-6.147a.997.997 0 0 1 -.997-.997v-4.085c0-.55.446-.997.997-.997h6.146c.552 0 .997.446.997.997v4.085a.996.996 0 0 1 -.997.997z"/><path d="m265.68 206.913h4.153v-2.092h-4.154v2.092zm5.15 1.994h-6.148a.997.997 0 0 1 -.997-.997v-4.085c0-.55.447-.997.997-.997h6.148c.55 0 .997.446.997.997v4.085a.997.997 0 0 1 -.997.997z"/><path d="m271.827 206.913h1.956v-2.092h-1.956zm2.953 1.994h-3.95a.997.997 0 0 1 -.997-.997v-4.085c0-.55.446-.997.997-.997h3.95c.552 0 .998.446.998.997v4.085a.996.996 0 0 1 -.998.997zm-34.625 14.303h5.43v-9.36h-5.43zm6.428 1.993h-7.425a.997.997 0 0 1 -.997-.997v-11.353c0-.551.447-.997.997-.997h7.425c.55 0 .997.446.997.997v11.353a.997.997 0 0 1 -.997.997zm4.48-1.993h5.43v-9.36h-5.43zm6.428 1.993h-7.425a.997.997 0 0 1 -.997-.997v-11.353c0-.551.447-.997.997-.997h7.425c.55 0 .997.446.997.997v11.353a.997.997 0 0 1 -.997.997zm4.48-1.993h5.43v-9.36h-5.43zm6.428 1.993h-7.425a.997.997 0 0 1 -.997-.997v-11.353c0-.551.446-.997.997-.997h7.425c.55 0 .997.446.997.997v11.353a.997.997 0 0 1 -.997.997z"/><path d="m270.735 225.203h-44.59a.997.997 0 1 1 0-1.994h44.59a.997.997 0 1 1 0 1.994"/><path d="m229.247 223.21h5.431v-9.36h-5.43v9.36zm6.428 1.993h-7.425a.997.997 0 0 1 -.997-.997v-11.353c0-.551.447-.997.997-.997h7.425c.55 0 .997.446.997.997v11.353a.997.997 0 0 1 -.997.997zm4.48 13.727h5.43v-9.359h-5.43zm6.428 1.994h-7.425a.997.997 0 0 1 -.997-.997v-11.353c0-.551.447-.997.997-.997h7.425c.55 0 .997.446.997.997v11.353a.997.997 0 0 1 -.997.997zm4.48-1.994h5.43v-9.359h-5.43zm6.428 1.994h-7.425a.997.997 0 0 1 -.997-.997v-11.353c0-.551.447-.997.997-.997h7.425c.55 0 .997.446.997.997v11.353a.997.997 0 0 1 -.997.997zm4.48-1.994h5.43v-9.359h-5.43zm6.428 1.994h-7.425a.997.997 0 0 1 -.997-.997v-11.353c0-.551.446-.997.997-.997h7.425c.55 0 .997.446.997.997v11.353a.997.997 0 0 1 -.997.997z"/><path d="m270.735 240.924h-44.59a.997.997 0 1 1 0-1.994h44.59a.997.997 0 1 1 0 1.994"/><path d="m229.247 238.93h5.431v-9.359h-5.43v9.359zm6.428 1.994h-7.425a.997.997 0 0 1 -.997-.997v-11.353c0-.551.447-.997.997-.997h7.425c.55 0 .997.446.997.997v11.353a.997.997 0 0 1 -.997.997zm4.48 13.292h5.43v-9.359h-5.43v9.36zm6.428 1.994h-7.425a.997.997 0 0 1 -.997-.997v-11.353c0-.551.447-.997.997-.997h7.425c.55 0 .997.446.997.997v11.353a.997.997 0 0 1 -.997.997zm4.48-1.994h5.43v-9.359h-5.43v9.36zm6.428 1.994h-7.425a.997.997 0 0 1 -.997-.997v-11.353c0-.551.447-.997.997-.997h7.425c.55 0 .997.446.997.997v11.353a.997.997 0 0 1 -.997.997zm4.48-1.994h5.43v-9.359h-5.43v9.36zm6.428 1.994h-7.425a.997.997 0 0 1 -.997-.997v-11.353c0-.551.446-.997.997-.997h7.425c.55 0 .997.446.997.997v11.353a.997.997 0 0 1 -.997.997z"/><path d="m270.735 256.21h-44.59a.997.997 0 1 1 0-1.994h44.59a.997.997 0 1 1 0 1.994"/><path d="m229.247 254.216h5.431v-9.359h-5.43v9.36zm6.428 1.994h-7.425a.997.997 0 0 1 -.997-.997v-11.353c0-.551.447-.997.997-.997h7.425c.55 0 .997.446.997.997v11.353a.997.997 0 0 1 -.997.997zm4.48 13.726h5.43v-9.36h-5.43zm6.428 1.994h-7.425a.997.997 0 0 1 -.997-.997v-11.353c0-.551.447-.997.997-.997h7.425c.55 0 .997.446.997.997v11.352a.997.997 0 0 1 -.997.997zm4.48-1.994h5.43v-9.36h-5.43zm6.428 1.994h-7.425a.997.997 0 0 1 -.997-.997v-11.353c0-.551.447-.997.997-.997h7.425c.55 0 .997.446.997.997v11.352a.997.997 0 0 1 -.997.997zm4.48-1.994h5.43v-9.36h-5.43zm6.428 1.994h-7.425a.997.997 0 0 1 -.997-.997v-11.353c0-.551.446-.997.997-.997h7.425c.55 0 .997.446.997.997v11.352a.997.997 0 0 1 -.997.997zm-28.244 13.613h5.43v-9.359h-5.43zm6.428 1.994h-7.425a.997.997 0 0 1 -.997-.997v-11.353c0-.551.447-.997.997-.997h7.425c.55 0 .997.446.997.997v11.353c0 .55-.447.997-.997.997zm4.48-1.994h5.43v-9.359h-5.43zm6.428 1.994h-7.425a.997.997 0 0 1 -.997-.997v-11.353c0-.551.447-.997.997-.997h7.425c.55 0 .997.446.997.997v11.353c0 .55-.447.997-.997.997zm4.48-1.994h5.43v-9.359h-5.43zm6.428 1.994h-7.425a.997.997 0 0 1 -.997-.997v-11.353c0-.551.446-.997.997-.997h7.425c.55 0 .997.446.997.997v11.353c0 .55-.447.997-.997.997z"/><path d="m270.735 271.93h-44.59a.997.997 0 1 1 0-1.994h44.59a.997.997 0 1 1 0 1.994"/><path d="m229.247 269.936h5.431v-9.36h-5.43v9.36zm6.428 1.994h-7.425a.997.997 0 0 1 -.997-.997v-11.353c0-.551.447-.997.997-.997h7.425c.55 0 .997.446.997.997v11.352a.997.997 0 0 1 -.997.997zm35.06 15.607h-44.59a.997.997 0 1 1 0-1.994h44.59a.997.997 0 1 1 0 1.994"/><path d="m229.247 285.543h5.431v-9.359h-5.43v9.359zm6.428 1.994h-7.425a.997.997 0 0 1 -.997-.997v-11.353c0-.551.447-.997.997-.997h7.425c.55 0 .997.446.997.997v11.353c0 .55-.446.997-.997.997zm4.48 13.726h5.43v-9.36h-5.43zm6.428 1.994h-7.425a.997.997 0 0 1 -.997-.997v-11.352c0-.552.447-.997.997-.997h7.425c.55 0 .997.445.997.997v11.352a.997.997 0 0 1 -.997.997zm4.48-1.994h5.43v-9.36h-5.43zm6.428 1.994h-7.425a.997.997 0 0 1 -.997-.997v-11.352c0-.552.447-.997.997-.997h7.425c.55 0 .997.445.997.997v11.352a.997.997 0 0 1 -.997.997zm4.48-1.994h5.43v-9.36h-5.43zm6.428 1.994h-7.425a.997.997 0 0 1 -.997-.997v-11.352c0-.552.446-.997.997-.997h7.425c.55 0 .997.445.997.997v11.352a.997.997 0 0 1 -.997.997z"/><path d="m270.735 303.257h-44.59a.997.997 0 1 1 0-1.994h44.59a.997.997 0 1 1 0 1.994"/><path d="m229.247 301.263h5.431v-9.36h-5.43v9.36zm6.428 1.994h-7.425a.997.997 0 0 1 -.997-.997v-11.352c0-.552.447-.997.997-.997h7.425c.55 0 .997.445.997.997v11.352a.997.997 0 0 1 -.997.997zm.595 62.45a.997.997 0 0 1 -.998-.997v-9.725c0-3.01-2.45-5.46-5.462-5.46a5.468 5.468 0 0 0 -5.463 5.46v9.725a.996.996 0 1 1 -1.994 0v-9.725c0-4.11 3.345-7.454 7.457-7.454s7.456 3.344 7.456 7.454v9.725a.997.997 0 0 1 -.997.997m-11.949-27.417h4.465v-5.074a2.235 2.235 0 0 0 -2.232-2.233 2.235 2.235 0 0 0 -2.233 2.233v5.073zm5.462 1.993h-6.46a.997.997 0 0 1 -.996-.997v-6.07a4.231 4.231 0 0 1 4.227-4.227 4.23 4.23 0 0 1 4.227 4.227v6.07a.997.997 0 0 1 -.998.997zm5.482-1.993h4.466v-5.074a2.236 2.236 0 0 0 -2.233-2.233 2.235 2.235 0 0 0 -2.233 2.233v5.073zm5.463 1.993h-6.46a.997.997 0 0 1 -.997-.997v-6.07a4.23 4.23 0 0 1 4.227-4.227 4.231 4.231 0 0 1 4.227 4.227v6.07a.997.997 0 0 1 -.997.997zm5.481-1.993h4.465v-5.074a2.235 2.235 0 0 0 -2.232-2.233 2.235 2.235 0 0 0 -2.233 2.233v5.073zm5.463 1.993h-6.46a.997.997 0 0 1 -.997-.997v-6.07a4.23 4.23 0 0 1 4.227-4.227 4.231 4.231 0 0 1 4.227 4.227v6.07a.997.997 0 0 1 -.997.997zm5.481-1.993h4.465v-5.074a2.235 2.235 0 0 0 -2.232-2.233 2.235 2.235 0 0 0 -2.233 2.233v5.073zm5.462 1.993h-6.46a.997.997 0 0 1 -.996-.997v-6.07a4.231 4.231 0 0 1 4.227-4.227 4.23 4.23 0 0 1 4.227 4.227v6.07a.997.997 0 0 1 -.998.997zm5.482-1.993h4.466v-5.074a2.236 2.236 0 0 0 -2.233-2.233 2.235 2.235 0 0 0 -2.233 2.233v5.073zm5.463 1.993h-6.46a.997.997 0 0 1 -.997-.997v-6.07a4.23 4.23 0 0 1 4.227-4.227 4.231 4.231 0 0 1 4.227 4.227v6.07a.997.997 0 0 1 -.997.997zm-49.239-19.611h4.465v-5.072a2.234 2.234 0 0 0 -2.232-2.232 2.234 2.234 0 0 0 -2.233 2.232v5.073zm5.462 1.994h-6.46a.997.997 0 0 1 -.996-.997v-6.07a4.231 4.231 0 0 1 4.227-4.226 4.23 4.23 0 0 1 4.227 4.226v6.07a.997.997 0 0 1 -.998.997zm5.482-1.994h4.466v-5.072a2.235 2.235 0 0 0 -2.233-2.232 2.234 2.234 0 0 0 -2.233 2.232v5.073zm5.463 1.994h-6.46a.997.997 0 0 1 -.997-.997v-6.07a4.23 4.23 0 0 1 4.227-4.226 4.231 4.231 0 0 1 4.227 4.226v6.07a.997.997 0 0 1 -.997.997zm5.481-1.994h4.465v-5.072a2.234 2.234 0 0 0 -2.232-2.232 2.234 2.234 0 0 0 -2.233 2.232v5.073zm5.463 1.994h-6.46a.997.997 0 0 1 -.997-.997v-6.07a4.23 4.23 0 0 1 4.227-4.226 4.231 4.231 0 0 1 4.227 4.226v6.07a.997.997 0 0 1 -.997.997zm5.481-1.994h4.465v-5.072a2.234 2.234 0 0 0 -2.232-2.232 2.234 2.234 0 0 0 -2.233 2.232v5.073zm5.462 1.994h-6.46a.997.997 0 0 1 -.996-.997v-6.07a4.231 4.231 0 0 1 4.227-4.226 4.23 4.23 0 0 1 4.227 4.226v6.07a.997.997 0 0 1 -.998.997zm5.482-1.994h4.466v-5.072a2.235 2.235 0 0 0 -2.233-2.232 2.234 2.234 0 0 0 -2.233 2.232v5.073zm5.463 1.994h-6.46a.997.997 0 0 1 -.997-.997v-6.07a4.23 4.23 0 0 1 4.227-4.226 4.231 4.231 0 0 1 4.227 4.226v6.07a.997.997 0 0 1 -.997.997zm.328 43.041a.997.997 0 0 1 -.997-.997v-9.725a5.468 5.468 0 0 0 -5.463-5.46 5.467 5.467 0 0 0 -5.462 5.46v9.725a.996.996 0 1 1 -1.994 0v-9.725c0-4.11 3.345-7.454 7.456-7.454 4.113 0 7.457 3.344 7.457 7.454v9.725a.997.997 0 0 1 -.997.997m-18.987-9.725h-12.029a.996.996 0 1 1 0-1.994h12.03a.997.997 0 1 1 0 1.994"/><path d="m248.444 365.707a.997.997 0 0 1 -.997-.997v-16.182a.997.997 0 1 1 1.995 0v16.182a.997.997 0 0 1 -.998.997"/><path d="m254.9 365.707a.997.997 0 0 1 -.997-.997v-9.725a5.468 5.468 0 0 0 -5.462-5.46 5.467 5.467 0 0 0 -5.463 5.46v9.725a.996.996 0 1 1 -1.994 0v-9.725c0-4.11 3.345-7.454 7.457-7.454s7.456 3.344 7.456 7.454v9.725a.997.997 0 0 1 -.997.997m896.528 0a.997.997 0 0 1 -.997-.997v-117.552h-7.773v117.552a.997.997 0 1 1 -1.994 0v-118.549c0-.551.445-.997.997-.997h9.767c.551 0 .997.446.997.997v118.549a.996.996 0 0 1 -.997.997"/><path d="m1153.908 286.008h-14.728a.997.997 0 0 1 0-1.994h14.728a.997.997 0 1 1 0 1.994m0-3.743h-14.728a.997.997 0 0 1 0-1.994h14.728a.997.997 0 1 1 0 1.994m0-35.329h-14.728a.997.997 0 0 1 0-1.994h14.728a.997.997 0 1 1 0 1.994m0 67.141h-14.728a.997.997 0 0 1 0-1.994h14.728a.997.997 0 1 1 0 1.994m0-3.743h-14.728a.997.997 0 0 1 0-1.994h14.728a.997.997 0 1 1 0 1.994"/><path d="m1142.882 245.147h7.325l-3.662-32.605zm8.44 1.994h-9.556a.994.994 0 0 1 -.99-1.107l4.778-42.534a.997.997 0 0 1 1.982 0l4.777 42.534a.997.997 0 0 1 -.99 1.107zm-4.919-46.727a.997.997 0 0 1 -.997-.997v-5.528a.997.997 0 1 1 1.994 0v5.528a.996.996 0 0 1 -.997.997m20.933 141.902a.997.997 0 0 1 -.998-.997v-117.551h-7.772v117.551a.997.997 0 1 1 -1.995 0v-118.548c0-.552.446-.997.998-.997h9.767c.551 0 .997.445.997.997v118.548a.996.996 0 0 1 -.997.997"/><path d="m1169.816 253.262h-14.728a.997.997 0 0 1 0-1.994h14.728a.996.996 0 1 1 0 1.994m0-3.742h-14.728a.997.997 0 0 1 0-1.995h14.728a.996.996 0 1 1 0 1.994m0-25.974h-14.728a.997.997 0 0 1 0-1.994h14.728a.996.996 0 1 1 0 1.994m0 52.172h-14.728a.997.997 0 0 1 0-1.994h14.728a.996.996 0 1 1 0 1.994m0-3.743h-14.728a.997.997 0 0 1 0-1.994h14.728a.996.996 0 1 1 0 1.994"/><path d="m1158.79 221.757h7.326l-3.663-32.605zm8.44 1.994h-9.555a.996.996 0 0 1 -.991-1.108l4.779-42.534a.996.996 0 0 1 1.981 0l4.778 42.534a1 1 0 0 1 -.991 1.108zm-4.918-46.728a.996.996 0 0 1 -.997-.997v-5.527a.996.996 0 1 1 1.994 0v5.527a.997.997 0 0 1 -.997.997m14.908 141.903a.997.997 0 0 1 -.998-.997v-96.095c0-.55.447-.997.998-.997h9.768c.55 0 .997.446.997.997v86.739a.997.997 0 1 1 -1.995 0v-85.743h-7.773v95.098a.996.996 0 0 1 -.997.997"/><path d="m1189.467 242.97h-14.727a.997.997 0 1 1 0-1.995h14.727a.996.996 0 1 1 0 1.994m0-3.742h-14.727a.997.997 0 1 1 0-1.994h14.727a.996.996 0 1 1 0 1.994m0-16.617h-14.727a.997.997 0 1 1 0-1.994h14.727a.996.996 0 1 1 0 1.994m0 52.171h-14.727a.997.997 0 1 1 0-1.994h14.727a.996.996 0 1 1 0 1.994m0-3.743h-14.727a.997.997 0 1 1 0-1.994h14.727a.996.996 0 1 1 0 1.994"/><path d="m1178.44 220.821h7.327l-3.663-32.605-3.663 32.605zm8.442 1.994h-9.556a.996.996 0 0 1 -.991-1.108l4.779-42.534a.997.997 0 0 1 1.981 0l4.778 42.534a1 1 0 0 1 -.991 1.108zm-4.919-46.728a.996.996 0 0 1 -.997-.997v-5.527a.996.996 0 1 1 1.994 0v5.527a.997.997 0 0 1 -.997.997m156.413 189.62a.996.996 0 0 1 -.998-.997v-117.552h-7.773v117.552a.996.996 0 1 1 -1.995 0v-118.549c0-.551.447-.997.997-.997h9.769c.55 0 .997.446.997.997v118.549a.997.997 0 0 1 -.997.997"/><path d="m1340.855 286.008h-14.728a.997.997 0 0 1 0-1.994h14.728a.996.996 0 1 1 0 1.994m0-3.743h-14.728a.997.997 0 0 1 0-1.994h14.728a.996.996 0 1 1 0 1.994m0-35.329h-14.728a.997.997 0 0 1 0-1.994h14.728a.996.996 0 1 1 0 1.994m0 67.141h-14.728a.997.997 0 0 1 0-1.994h14.728a.996.996 0 1 1 0 1.994m0-3.743h-14.728a.997.997 0 0 1 0-1.994h14.728a.996.996 0 1 1 0 1.994"/><path d="m1329.828 245.148h7.327l-3.665-32.606zm8.442 1.994h-9.557a.996.996 0 0 1 -.991-1.107l4.778-42.535a.996.996 0 0 1 1.981 0l4.78 42.535a1 1 0 0 1 -.991 1.107zm-4.638-46.728a.996.996 0 0 1 -.997-.997v-5.528a.996.996 0 1 1 1.994 0v5.528a.997.997 0 0 1 -.997.997m-11.165 141.902a.997.997 0 0 1 -.997-.997v-117.551h-7.773v117.551a.997.997 0 1 1 -1.994 0v-118.548c0-.552.445-.997.997-.997h9.767c.551 0 .997.445.997.997v118.548a.996.996 0 0 1 -.997.997"/><path d="m1324.947 253.262h-14.728a.997.997 0 0 1 0-1.994h14.728a.997.997 0 1 1 0 1.994m0-3.742h-14.728a.997.997 0 0 1 0-1.995h14.728a.997.997 0 1 1 0 1.994m0-25.974h-14.728a.997.997 0 0 1 0-1.994h14.728a.997.997 0 1 1 0 1.994m0 52.172h-14.728a.997.997 0 0 1 0-1.994h14.728a.997.997 0 1 1 0 1.994m0-3.743h-14.728a.997.997 0 0 1 0-1.994h14.728a.997.997 0 1 1 0 1.994"/><path d="m1313.92 221.757h7.326l-3.663-32.606zm8.442 1.994h-9.558a.994.994 0 0 1 -.99-1.108l4.778-42.534a.996.996 0 0 1 1.982 0l4.778 42.534a.997.997 0 0 1 -.99 1.108zm-4.638-46.728a.997.997 0 0 1 -.998-.997v-5.527a.997.997 0 1 1 1.995 0v5.527a.996.996 0 0 1 -.997.997m-14.908 141.903a.996.996 0 0 1 -.997-.997v-95.099h-7.774v84.807a.997.997 0 1 1 -1.994 0v-85.804c0-.55.446-.997.997-.997h9.768c.55 0 .997.446.997.997v96.095a.997.997 0 0 1 -.997.997"/><path d="m1305.295 242.97h-14.727a.997.997 0 1 1 0-1.995h14.727a.996.996 0 1 1 0 1.994m0-3.742h-14.727a.997.997 0 1 1 0-1.994h14.727a.996.996 0 1 1 0 1.994m0-16.617h-14.727a.997.997 0 1 1 0-1.994h14.727a.996.996 0 1 1 0 1.994m0 52.171h-14.727a.997.997 0 1 1 0-1.994h14.727a.996.996 0 1 1 0 1.994m0-3.743h-14.727a.997.997 0 1 1 0-1.994h14.727a.996.996 0 1 1 0 1.994"/><path d="m1294.27 220.822h7.325l-3.663-32.606-3.663 32.606zm8.44 1.994h-9.557a.994.994 0 0 1 -.99-1.108l4.777-42.535a.997.997 0 0 1 1.982 0l4.78 42.535a1 1 0 0 1 -.992 1.108zm-4.637-46.729a.997.997 0 0 1 -.997-.997v-5.527a.997.997 0 1 1 1.994 0v5.527a.996.996 0 0 1 -.997.997m29.48 178.638h-175.479a.996.996 0 1 1 0-1.994h175.479a.996.996 0 1 1 0 1.994m0-12.163h-175.479a.996.996 0 1 1 0-1.994h175.479a.996.996 0 1 1 0 1.994m-12.168-15.394h-150.418a.997.997 0 1 1 0-1.994h150.418a.996.996 0 1 1 0 1.994m-18.715-24.327h-112.988a.997.997 0 0 1 0-1.994h112.987a.997.997 0 1 1 0 1.994"/><path d="m1170.063 354.238a.999.999 0 0 1 -.983-.84c-.456-2.846-2.97-4.994-5.85-4.994a5.903 5.903 0 0 0 -5.85 4.994.991.991 0 0 1 -1.14.827.996.996 0 0 1 -.828-1.142 7.886 7.886 0 0 1 7.818-6.673c3.912 0 7.2 2.807 7.818 6.673a.996.996 0 0 1 -.985 1.155"/><path d="m1170.434 354.238a.996.996 0 0 1 -.985-1.155 7.886 7.886 0 0 1 7.819-6.673c3.91 0 7.2 2.807 7.816 6.673a.996.996 0 1 1 -1.968.315c-.455-2.846-2.97-4.994-5.848-4.994a5.901 5.901 0 0 0 -5.85 4.994.999.999 0 0 1 -.984.84"/><path d="m1198.136 354.238a.997.997 0 0 1 -.983-.84 5.903 5.903 0 0 0 -5.85-4.994 5.903 5.903 0 0 0 -5.85 4.994.991.991 0 0 1 -1.14.827.996.996 0 0 1 -.828-1.142 7.886 7.886 0 0 1 7.818-6.673c3.912 0 7.2 2.807 7.818 6.673a.996.996 0 0 1 -.985 1.155"/><path d="m1212.172 354.238a.999.999 0 0 1 -.983-.84 5.901 5.901 0 0 0 -5.85-4.994 5.9 5.9 0 0 0 -5.848 4.994.993.993 0 0 1 -1.142.827.996.996 0 0 1 -.827-1.142 7.885 7.885 0 0 1 7.817-6.673c3.913 0 7.2 2.807 7.819 6.673a.996.996 0 0 1 -.986 1.155m-29.625-11.918a.997.997 0 0 1 -.982-.84 6.21 6.21 0 0 0 -6.158-5.254 6.21 6.21 0 0 0 -6.157 5.254.998.998 0 0 1 -1.97-.315 8.196 8.196 0 0 1 8.127-6.933 8.194 8.194 0 0 1 8.126 6.933.996.996 0 0 1 -.986 1.154"/><path d="m1197.215 342.32a.997.997 0 0 1 -.982-.84 6.21 6.21 0 0 0 -6.157-5.254 6.21 6.21 0 0 0 -6.158 5.254.998.998 0 0 1 -1.97-.315 8.196 8.196 0 0 1 8.128-6.933 8.194 8.194 0 0 1 8.125 6.933.996.996 0 0 1 -.986 1.154"/><path d="m1211.883 342.32a.999.999 0 0 1 -.983-.84 6.21 6.21 0 0 0 -6.156-5.254 6.21 6.21 0 0 0 -6.158 5.254.997.997 0 0 1 -1.97-.315 8.196 8.196 0 0 1 8.128-6.933 8.193 8.193 0 0 1 8.124 6.933.996.996 0 0 1 -.985 1.154"/><path d="m1226.551 342.32a.999.999 0 0 1 -.983-.84 6.21 6.21 0 0 0 -6.156-5.254 6.21 6.21 0 0 0 -6.158 5.254.998.998 0 0 1 -1.97-.315 8.196 8.196 0 0 1 8.128-6.933 8.193 8.193 0 0 1 8.124 6.933.996.996 0 0 1 -.985 1.154m41.838.001a.999.999 0 0 1 -.983-.84 6.21 6.21 0 0 0 -6.157-5.254 6.21 6.21 0 0 0 -6.157 5.254.997.997 0 0 1 -1.97-.315 8.196 8.196 0 0 1 8.127-6.933 8.193 8.193 0 0 1 8.125 6.933.996.996 0 0 1 -.985 1.154"/><path d="m1283.057 342.32a.999.999 0 0 1 -.983-.84 6.21 6.21 0 0 0 -6.157-5.254 6.21 6.21 0 0 0 -6.157 5.254.998.998 0 0 1 -1.97-.315 8.196 8.196 0 0 1 8.127-6.933 8.193 8.193 0 0 1 8.125 6.933.996.996 0 0 1 -.985 1.154"/><path d="m1297.725 342.32a.999.999 0 0 1 -.983-.84 6.21 6.21 0 0 0 -6.157-5.254 6.21 6.21 0 0 0 -6.157 5.254.997.997 0 0 1 -1.97-.315 8.196 8.196 0 0 1 8.127-6.933 8.193 8.193 0 0 1 8.125 6.933.996.996 0 0 1 -.985 1.154"/><path d="m1312.393 342.32a.999.999 0 0 1 -.983-.84 6.21 6.21 0 0 0 -6.157-5.254 6.21 6.21 0 0 0 -6.157 5.254.998.998 0 0 1 -1.97-.315 8.196 8.196 0 0 1 8.127-6.933 8.193 8.193 0 0 1 8.125 6.933.996.996 0 0 1 -.985 1.154m-85.453.001a.996.996 0 0 1 -.986-1.155c1.132-7.087 7.16-12.23 14.33-12.23s13.197 5.143 14.332 12.23a.996.996 0 1 1 -1.97.315 12.47 12.47 0 0 0 -12.361-10.551 12.47 12.47 0 0 0 -12.363 10.55.997.997 0 0 1 -.982.84m-.73 11.919a.997.997 0 0 1 -.984-.84 5.903 5.903 0 0 0 -5.85-4.994c-2.879 0-5.394 2.148-5.85 4.994a.991.991 0 0 1 -1.14.827.996.996 0 0 1 -.828-1.142 7.886 7.886 0 0 1 7.818-6.673c3.912 0 7.2 2.807 7.819 6.673a.996.996 0 0 1 -.986 1.155"/><path d="m1240.246 354.238a.999.999 0 0 1 -.984-.84 5.901 5.901 0 0 0 -5.85-4.994c-2.879 0-5.394 2.148-5.85 4.994a.996.996 0 1 1 -1.968-.315 7.886 7.886 0 0 1 7.818-6.673c3.913 0 7.2 2.807 7.819 6.673a.996.996 0 0 1 -.985 1.155"/><path d="m1254.283 354.238a.997.997 0 0 1 -.983-.84 5.903 5.903 0 0 0 -5.85-4.994c-2.88 0-5.394 2.148-5.85 4.994a.992.992 0 0 1 -1.142.827.996.996 0 0 1 -.826-1.142 7.886 7.886 0 0 1 7.817-6.673c3.912 0 7.2 2.807 7.819 6.673a.996.996 0 0 1 -.985 1.155"/><path d="m1268.319 354.238a.999.999 0 0 1 -.983-.84c-.456-2.846-2.971-4.994-5.85-4.994-2.88 0-5.394 2.148-5.85 4.994a.996.996 0 1 1 -1.968-.315 7.886 7.886 0 0 1 7.817-6.673c3.913 0 7.2 2.807 7.819 6.673a.996.996 0 0 1 -.985 1.155"/><path d="m1282.356 354.238a.997.997 0 0 1 -.983-.84c-.456-2.846-2.97-4.994-5.85-4.994s-5.394 2.148-5.85 4.994a.992.992 0 0 1 -1.142.827.996.996 0 0 1 -.826-1.142 7.886 7.886 0 0 1 7.817-6.673c3.912 0 7.2 2.807 7.819 6.673a.996.996 0 0 1 -.985 1.155"/><path d="m1296.392 354.238a.999.999 0 0 1 -.983-.84c-.456-2.846-2.97-4.994-5.85-4.994a5.903 5.903 0 0 0 -5.85 4.994.996.996 0 1 1 -1.968-.315 7.886 7.886 0 0 1 7.817-6.673c3.913 0 7.2 2.807 7.82 6.673a.996.996 0 0 1 -.986 1.155"/><path d="m1310.429 354.238a.997.997 0 0 1 -.983-.84c-.456-2.846-2.97-4.994-5.85-4.994a5.901 5.901 0 0 0 -5.85 4.994.992.992 0 0 1 -1.142.827.996.996 0 0 1 -.826-1.142 7.886 7.886 0 0 1 7.817-6.673c3.912 0 7.2 2.807 7.82 6.673a.996.996 0 0 1 -.986 1.155"/><path d="m1324.465 354.238a.997.997 0 0 1 -.983-.84 5.903 5.903 0 0 0 -5.85-4.994 5.903 5.903 0 0 0 -5.85 4.994.996.996 0 1 1 -1.968-.315 7.886 7.886 0 0 1 7.818-6.673c3.911 0 7.2 2.807 7.818 6.673a.996.996 0 0 1 -.985 1.155m-120.075-34.885h-39.417a.997.997 0 1 1 0-1.994h39.417a.997.997 0 1 1 0 1.994m110.832 0h-39.415a.996.996 0 1 1 0-1.994h39.415a.996.996 0 1 1 0 1.994m-47.489-4.719h-53.728a.997.997 0 1 1 0-1.994h53.728a.996.996 0 1 1 0 1.994"/><path d="m1212.668 326.984a.997.997 0 0 1 -.997-.997v-23.32a.997.997 0 0 1 1.994 0v23.32a.996.996 0 0 1 -.997.997m-7.331 0a.996.996 0 0 1 -.997-.997v-23.32a.997.997 0 1 1 1.995 0v23.32a.997.997 0 0 1 -.998.997"/><path d="m1213.604 302.693a.997.997 0 0 1 -.997-.997v-11.066a.997.997 0 0 1 1.994 0v11.066a.996.996 0 0 1 -.997.997m-9.202 0a.996.996 0 0 1 -.998-.992l-.056-12.015a.998.998 0 0 1 .992-1.002h.005c.55 0 .995.444.997.992l.057 12.015a.997.997 0 0 1 -.992 1.002zm-22.229 23.807a.996.996 0 0 1 -.997-.996v-7.415a.997.997 0 1 1 1.994 0v7.415a.997.997 0 0 1 -.997.997m93.192.483a.996.996 0 0 1 -.997-.997v-23.32a.997.997 0 1 1 1.994 0v23.32a.997.997 0 0 1 -.997.997m-7.332 0a.997.997 0 0 1 -.997-.997v-23.32a.997.997 0 0 1 1.995 0v23.32a.996.996 0 0 1 -.998.997"/><path d="m1276.3 302.783a.996.996 0 0 1 -.996-.997v-12.066a.997.997 0 1 1 1.994 0v12.065a.997.997 0 0 1 -.997.997m-9.203.015a.997.997 0 0 1 -.998-.997v-11.143a.997.997 0 0 1 1.995 0v11.143a.996.996 0 0 1 -.997.997m-61.766 15.634a.998.998 0 0 1 -.995-.934c-.345-5.54-4.96-9.878-10.506-9.878-5.547 0-10.163 4.339-10.507 9.878a.996.996 0 1 1 -1.99-.125c.41-6.587 5.9-11.747 12.497-11.747 6.598 0 12.087 5.16 12.497 11.747a.997.997 0 0 1 -.996 1.06m94.305-.001a.997.997 0 0 1 -.995-.934c-.346-5.54-4.96-9.878-10.506-9.878-5.548 0-10.163 4.339-10.508 9.878a.996.996 0 1 1 -1.99-.125c.411-6.587 5.9-11.747 12.498-11.747 6.597 0 12.086 5.16 12.497 11.747a.997.997 0 0 1 -.996 1.06m-83.772-7.329a.997.997 0 0 1 -.997-.997v-5.034a.997.997 0 1 1 1.994 0v5.034a.996.996 0 0 1 -.997.997m3.743 0a.996.996 0 0 1 -.997-.997v-5.034a.996.996 0 1 1 1.994 0v5.034a.997.997 0 0 1 -.997.997m3.743 0a.996.996 0 0 1 -.997-.997v-5.034a.996.996 0 1 1 1.995 0v5.034a.997.997 0 0 1 -.998.997m3.744 0a.996.996 0 0 1 -.998-.997v-5.034a.996.996 0 1 1 1.995 0v5.034a.997.997 0 0 1 -.997.997m3.743 0a.996.996 0 0 1 -.997-.997v-5.034a.996.996 0 1 1 1.994 0v5.034a.997.997 0 0 1 -.997.997m3.742 0a.997.997 0 0 1 -.997-.997v-5.034a.997.997 0 1 1 1.994 0v5.034a.996.996 0 0 1 -.997.997m3.743 0a.997.997 0 0 1 -.997-.997v-5.034a.997.997 0 1 1 1.995 0v5.034a.996.996 0 0 1 -.998.997m3.744 0a.997.997 0 0 1 -.998-.997v-5.034a.997.997 0 1 1 1.995 0v5.034a.996.996 0 0 1 -.997.997m3.743 0a.996.996 0 0 1 -.997-.997v-5.034a.996.996 0 1 1 1.994 0v5.034a.997.997 0 0 1 -.997.997m3.743 0a.996.996 0 0 1 -.997-.997v-5.034a.996.996 0 1 1 1.994 0v5.034a.997.997 0 0 1 -.997.997m3.743 0a.996.996 0 0 1 -.997-.997v-5.034a.996.996 0 1 1 1.994 0v5.034a.997.997 0 0 1 -.997.997m3.742 0a.997.997 0 0 1 -.997-.997v-5.034a.997.997 0 1 1 1.995 0v5.034a.996.996 0 0 1 -.998.997m3.744 0a.997.997 0 0 1 -.998-.997v-5.034a.997.997 0 1 1 1.995 0v5.034a.996.996 0 0 1 -.997.997m3.743 0a.997.997 0 0 1 -.997-.997v-5.034a.997.997 0 1 1 1.994 0v5.034a.996.996 0 0 1 -.997.997m-48.66 14.969a.997.997 0 0 1 -.997-.997v-5.034a.997.997 0 1 1 1.994 0v5.034a.996.996 0 0 1 -.997.997m3.743 0a.996.996 0 0 1 -.997-.997v-5.034a.996.996 0 1 1 1.994 0v5.034a.997.997 0 0 1 -.997.997m3.743 0a.996.996 0 0 1 -.997-.997v-5.034a.996.996 0 1 1 1.995 0v5.034a.997.997 0 0 1 -.998.997m3.744 0a.996.996 0 0 1 -.998-.997v-5.034a.996.996 0 1 1 1.995 0v5.034a.997.997 0 0 1 -.997.997m3.743 0a.996.996 0 0 1 -.997-.997v-5.034a.996.996 0 1 1 1.994 0v5.034a.997.997 0 0 1 -.997.997m3.742 0a.997.997 0 0 1 -.997-.997v-5.034a.997.997 0 1 1 1.994 0v5.034a.996.996 0 0 1 -.997.997m3.743 0a.997.997 0 0 1 -.997-.997v-5.034a.997.997 0 1 1 1.995 0v5.034a.996.996 0 0 1 -.998.997m3.744 0a.997.997 0 0 1 -.998-.997v-5.034a.997.997 0 1 1 1.995 0v5.034a.996.996 0 0 1 -.997.997m3.743 0a.996.996 0 0 1 -.997-.997v-5.034a.996.996 0 1 1 1.994 0v5.034a.997.997 0 0 1 -.997.997m3.743 0a.996.996 0 0 1 -.997-.997v-5.034a.996.996 0 1 1 1.994 0v5.034a.997.997 0 0 1 -.997.997m3.743 0a.996.996 0 0 1 -.997-.997v-5.034a.996.996 0 1 1 1.994 0v5.034a.997.997 0 0 1 -.997.997m3.742 0a.997.997 0 0 1 -.997-.997v-5.034a.997.997 0 1 1 1.995 0v5.034a.996.996 0 0 1 -.998.997m3.744 0a.997.997 0 0 1 -.998-.997v-5.034a.997.997 0 1 1 1.995 0v5.034a.996.996 0 0 1 -.997.997m-38.366-35.389a.996.996 0 0 1 -.997-.997v-5.033a.996.996 0 1 1 1.994 0v5.033a.997.997 0 0 1 -.997.997m3.743 0a.996.996 0 0 1 -.997-.997v-5.033a.996.996 0 1 1 1.994 0v5.033a.997.997 0 0 1 -.997.997m3.743 0a.996.996 0 0 1 -.997-.997v-5.033a.996.996 0 1 1 1.994 0v5.033a.997.997 0 0 1 -.997.997m3.742 0a.997.997 0 0 1 -.997-.997v-5.033a.997.997 0 1 1 1.994 0v5.033a.996.996 0 0 1 -.997.997m3.744 0a.997.997 0 0 1 -.998-.997v-5.033a.997.997 0 1 1 1.995 0v5.033a.996.996 0 0 1 -.997.997m3.742 0a.997.997 0 0 1 -.996-.997v-5.033a.997.997 0 1 1 1.994 0v5.033a.996.996 0 0 1 -.997.997m3.743 0a.996.996 0 0 1 -.997-.997v-5.033a.996.996 0 1 1 1.994 0v5.033a.997.997 0 0 1 -.997.997m3.743 0a.996.996 0 0 1 -.997-.997v-5.033a.996.996 0 1 1 1.994 0v5.033a.997.997 0 0 1 -.997.997m3.743 0a.996.996 0 0 1 -.997-.997v-5.033a.996.996 0 1 1 1.995 0v5.033a.997.997 0 0 1 -.998.997m3.744 0a.996.996 0 0 1 -.998-.997v-5.033a.996.996 0 1 1 1.995 0v5.033a.997.997 0 0 1 -.997.997m3.742 0a.997.997 0 0 1 -.997-.997v-5.033a.997.997 0 1 1 1.994 0v5.033a.996.996 0 0 1 -.997.997m11.995-3.878a.997.997 0 0 1 -.997-.997v-10.39a.997.997 0 1 1 1.994 0v10.39a.996.996 0 0 1 -.997.997m-29.945-23.391a.997.997 0 0 1 -.997-.997v-10.39a.997.997 0 1 1 1.994 0v10.39a.996.996 0 0 1 -.997.997m0-14.035a.997.997 0 0 1 -.997-.997v-1.97a.997.997 0 0 1 1.994 0v1.97a.996.996 0 0 1 -.997.997m-32.751 37.426a.996.996 0 0 1 -.997-.997v-10.39a.996.996 0 1 1 1.994 0v10.39a.997.997 0 0 1 -.997.997m55.38 39.267a.997.997 0 0 1 -.997-.997v-5.034a.997.997 0 1 1 1.994 0v5.034a.996.996 0 0 1 -.997.997m-4.569-23.662a.998.998 0 0 1 -.708-.293c-4.987-5.02-10.834-7.46-17.879-7.46-7.043 0-12.89 2.44-17.877 7.46a.995.995 0 0 1 -1.41.004.995.995 0 0 1 -.005-1.41c5.38-5.416 11.69-8.048 19.292-8.048s13.913 2.632 19.294 8.048a.996.996 0 0 1 -.707 1.7"/><path d="m1276.215 291.413h-71.647a.997.997 0 1 1 0-1.994h71.647a.997.997 0 1 1 0 1.994m-5.178-12.605h-61.353a.996.996 0 1 1 0-1.994h61.353a.996.996 0 1 1 0 1.994m-84.417 23.791a.996.996 0 0 1 -.78-1.616c6.772-8.539 14.904-9.518 18.085-9.542h.008a.997.997 0 0 1 .008 1.994c-2.895.022-10.302.923-16.539 8.786a.994.994 0 0 1 -.782.378m107.148 0a.994.994 0 0 1 -.782-.378c-6.237-7.863-13.644-8.764-16.539-8.786a.997.997 0 0 1 .008-1.994h.008c3.18.024 11.313 1.003 18.085 9.542a.996.996 0 0 1 -.78 1.616"/><path d="m1267.028 290.704a.998.998 0 0 1 -.974-1.215c.584-2.598 2.94-4.483 5.6-4.483s5.016 1.885 5.6 4.482a.998.998 0 0 1 -1.946.438 3.773 3.773 0 0 0 -3.654-2.926 3.771 3.771 0 0 0 -3.653 2.925.997.997 0 0 1 -.973.779m-53.412 0a.998.998 0 0 1 -.973-.778 3.773 3.773 0 0 0 -3.653-2.926 3.772 3.772 0 0 0 -3.654 2.925.998.998 0 0 1 -1.945-.437c.583-2.597 2.937-4.482 5.599-4.482 2.66 0 5.015 1.885 5.6 4.482a.998.998 0 0 1 -.974 1.216m.78-12.037a.995.995 0 0 1 -.824-1.557c9.7-14.243 23.987-15.35 28.137-15.35 4.147 0 18.433 1.107 28.135 15.35a.997.997 0 0 1 -1.648 1.122c-9.15-13.434-22.588-14.477-26.487-14.477-3.901 0-17.339 1.043-26.489 14.476a.996.996 0 0 1 -.824.436m-.336-60.158a.997.997 0 0 1 -.998-.997v-2.947a.997.997 0 1 1 1.995 0v2.947a.996.996 0 0 1 -.997.997"/><path d="m1215.534 217.036h-2.948a.996.996 0 1 1 0-1.994h2.948a.997.997 0 1 1 0 1.994m54.672 32.349a.996.996 0 0 1 -.997-.997v-2.947a.996.996 0 1 1 1.994 0v2.947a.997.997 0 0 1 -.997.997"/><path d="m1271.68 247.91h-2.948a.997.997 0 1 1 0-1.993h2.947a.996.996 0 1 1 0 1.994m7.75-23.276a.996.996 0 0 1 -.9-.568 38.898 38.898 0 0 0 -2.082-3.809.998.998 0 0 1 1.694-1.05 40.712 40.712 0 0 1 2.188 4.001.997.997 0 0 1 -.9 1.426m-3.436-5.869a.996.996 0 0 1 -.816-.422c-6.683-9.463-17.115-15.42-28.619-16.343a.999.999 0 0 1 .16-1.989c12.095.972 23.062 7.233 30.088 17.182a.996.996 0 0 1 -.813 1.572m-40.22-16.162a.997.997 0 0 1 -.188-1.975 41.119 41.119 0 0 1 7.82-.747.997.997 0 1 1 0 1.994c-2.506 0-5.01.239-7.441.71a.964.964 0 0 1 -.191.018m-30.611 50.446a.997.997 0 0 1 -.956-.714 40.929 40.929 0 0 1 -1.67-11.595.997.997 0 0 1 1.995 0c0 3.753.534 7.465 1.587 11.03a.997.997 0 0 1 -.956 1.28m2.36 6.085a.995.995 0 0 1 -.897-.562 40.42 40.42 0 0 1 -1.498-3.487.996.996 0 0 1 .585-1.283c.513-.19 1.09.07 1.283.584a38.42 38.42 0 0 0 1.423 3.315.995.995 0 0 1 -.896 1.433"/></g><path d="m129.8 217.09v120.897h-77.775v-120.897z" fill="url(#c)" opacity=".2"/><path d="m130.461 365.707a.997.997 0 0 1 -.997-.997v-182.594h-44.696l-31.297-.035v182.629a.997.997 0 1 1 -1.994 0v-182.631l-3.944-.005a.997.997 0 0 1 0-1.994h4.94c.037 0 .072.002.107.006l37.37.036h45.834a.997.997 0 1 1 0 1.994h-4.326v182.594a.997.997 0 0 1 -.997.997" fill="url(#a)"/><path d="m135.52 217.347h-87.723a.997.997 0 1 1 0-1.994h87.725a.997.997 0 1 1 0 1.994m-13.85-37.067v-19.05h-60.144v19.05a.997.997 0 1 1 -1.994 0v-19.05h-4.556a.997.997 0 1 1 0-1.994h73.362a.997.997 0 1 1 0 1.994h-4.674v19.05a.997.997 0 1 1 -1.994 0zm-57.478 10.635a4.308 4.308 0 0 0 -4.304 4.302v12.787c0 .609.496 1.104 1.105 1.104h6.396c.61 0 1.105-.495 1.105-1.104v-12.787a4.307 4.307 0 0 0 -4.302-4.302m3.197 20.187h-6.396c-1.709 0-3.099-1.39-3.099-3.098v-12.787a6.304 6.304 0 0 1 6.298-6.296 6.303 6.303 0 0 1 6.296 6.296v12.787a3.102 3.102 0 0 1 -3.099 3.098m14.774-20.187a4.308 4.308 0 0 0 -4.304 4.302v12.787c0 .609.496 1.104 1.105 1.104h6.396c.609 0 1.105-.495 1.105-1.104v-12.787a4.307 4.307 0 0 0 -4.302-4.302m3.197 20.187h-6.396c-1.71 0-3.1-1.39-3.1-3.098v-12.787a6.304 6.304 0 0 1 6.299-6.296 6.303 6.303 0 0 1 6.296 6.296v12.787a3.102 3.102 0 0 1 -3.1 3.098m14.775-20.187a4.308 4.308 0 0 0 -4.304 4.302v12.787c0 .609.495 1.104 1.105 1.104h6.395c.61 0 1.105-.495 1.105-1.104v-12.787a4.307 4.307 0 0 0 -4.301-4.302m3.196 20.187h-6.395c-1.71 0-3.1-1.39-3.1-3.098v-12.787a6.304 6.304 0 0 1 6.299-6.296 6.303 6.303 0 0 1 6.296 6.296v12.787a3.102 3.102 0 0 1 -3.1 3.098m14.774-20.187a4.308 4.308 0 0 0 -4.304 4.302v12.787c0 .609.496 1.104 1.105 1.104h6.396c.61 0 1.105-.495 1.105-1.104v-12.787a4.307 4.307 0 0 0 -4.302-4.302m3.197 20.187h-6.396c-1.709 0-3.099-1.39-3.099-3.098v-12.787a6.304 6.304 0 0 1 6.298-6.296 6.303 6.303 0 0 1 6.296 6.296v12.787a3.102 3.102 0 0 1 -3.099 3.098" fill="url(#a)"/><path d="m74.299 182.041a.997.997 0 0 1 -.998-.997v-8.883a3.166 3.166 0 0 0 -3.163-3.163 3.167 3.167 0 0 0 -3.165 3.163v8.883a.997.997 0 1 1 -1.994 0v-8.883a5.164 5.164 0 0 1 5.16-5.157 5.163 5.163 0 0 1 5.157 5.157v8.883a.997.997 0 0 1 -.997.997m14.376 0a.997.997 0 0 1 -.997-.997v-8.883a3.166 3.166 0 0 0 -3.163-3.163 3.167 3.167 0 0 0 -3.165 3.163v8.883a.996.996 0 1 1 -1.994 0v-8.883a5.164 5.164 0 0 1 5.159-5.157 5.163 5.163 0 0 1 5.157 5.157v8.883a.997.997 0 0 1 -.997.997m14.376 0a.997.997 0 0 1 -.997-.997v-8.883a3.166 3.166 0 0 0 -3.163-3.163 3.167 3.167 0 0 0 -3.165 3.163v8.883a.996.996 0 1 1 -1.994 0v-8.883a5.164 5.164 0 0 1 5.16-5.157 5.163 5.163 0 0 1 5.157 5.157v8.883a.997.997 0 0 1 -.998.997m14.377 0a.997.997 0 0 1 -.997-.997v-8.883a3.166 3.166 0 0 0 -3.163-3.163 3.167 3.167 0 0 0 -3.165 3.163v8.883a.997.997 0 1 1 -1.994 0v-8.883a5.164 5.164 0 0 1 5.16-5.157 5.163 5.163 0 0 1 5.157 5.157v8.883a.997.997 0 0 1 -.998.997" fill="url(#a)"/><path d="m91.964 91.462 27.326 68.333h-55.178z" fill="url(#f)" opacity=".2"/><path d="m119.874 159.98a.994.994 0 0 1 -.925-.623l-27.03-66.77-27.028 66.77a.996.996 0 1 1 -1.85-.747l27.955-69.055a.995.995 0 0 1 1.848 0l27.953 69.055a.996.996 0 0 1 -.923 1.37" fill="url(#a)"/><path d="m91.927 86.245c-.736 0-1.336.6-1.336 1.336 0 .737.6 1.336 1.336 1.336a1.337 1.337 0 0 0 0-2.672m0 4.666a3.334 3.334 0 0 1 -3.33-3.33 3.334 3.334 0 0 1 3.33-3.33 3.333 3.333 0 0 1 3.33 3.33 3.333 3.333 0 0 1 -3.33 3.33" fill="url(#a)"/><path d="m91.92 86.245a.997.997 0 0 1 -.997-.997v-10.614a.997.997 0 0 1 1.994 0v10.614a.997.997 0 0 1 -.997.997m869.72 279.462a1.264 1.264 0 0 1 -1.265-1.264v-158.103h-69.619v158.102a1.263 1.263 0 1 1 -2.528 0v-159.364c0-.698.565-1.264 1.264-1.264h72.148c.698 0 1.264.566 1.264 1.264v159.365c0 .699-.566 1.264-1.264 1.264" fill="url(#a)"/><path d="m957.689 206.6a1.26 1.26 0 0 1 -.974-.457l-14.506-17.482h-33.286l-14.506 17.482a1.264 1.264 0 0 1 -1.945-1.614l14.884-17.939c.24-.288.596-.456.973-.456h34.474c.375 0 .733.168.973.456l14.884 17.938a1.264 1.264 0 0 1 -.971 2.071" fill="url(#a)"/><path d="m909.593 186.134h31.996v-8.81h-31.996zm33.26 2.527h-34.524a1.263 1.263 0 0 1 -1.264-1.264v-11.337c0-.698.566-1.263 1.264-1.263h34.523c.7 0 1.263.565 1.263 1.263v11.337c0 .699-.564 1.264-1.263 1.264z" fill="url(#a)"/><path d="m931.116 177.324c-.405 0-.805-.194-1.05-.558l-4.174-6.202-1.843.192-.574 5.436a1.265 1.265 0 0 1 -1.388 1.124 1.262 1.262 0 0 1 -1.125-1.388l.68-6.454a1.262 1.262 0 0 1 1.125-1.124l3.619-.378c.46-.052.918.164 1.18.55l4.598 6.832a1.265 1.265 0 0 1 -1.048 1.97" fill="url(#a)"/><path d="m922.534 154.699c-.598 0-1.36.32-2.155.923-1.318.996-2.603 2.668-3.525 4.586-1.875 3.9-1.718 7.562-.324 8.233 1.397.68 4.355-1.498 6.228-5.396.921-1.918 1.425-3.964 1.38-5.617-.036-1.337-.43-2.314-1.057-2.615a1.254 1.254 0 0 0 -.547-.114m-5.444 16.391c-.578 0-1.135-.12-1.656-.372-2.98-1.433-3.35-6.422-.858-11.605 1.107-2.302 2.626-4.258 4.28-5.508 1.89-1.43 3.781-1.809 5.32-1.07 1.54.74 2.426 2.455 2.49 4.826.056 2.07-.524 4.478-1.63 6.781-2.057 4.274-5.226 6.948-7.946 6.948" fill="url(#a)"/><path d="m920.743 171.572c-1.081 0-2.156-.23-3.166-.715a1.265 1.265 0 0 1 1.097-2.278c2.82 1.362 6.461-.325 8.11-3.752 1.647-3.425.69-7.317-2.135-8.675a1.265 1.265 0 0 1 1.096-2.278c4.079 1.961 5.569 7.367 3.317 12.05-1.694 3.523-5.032 5.648-8.32 5.648" fill="url(#a)"/><path d="m919.552 160.364a.215.215 0 0 0 -.215.213c0 .238.43.238.43 0a.215.215 0 0 0 -.215-.213m0 2.527a2.316 2.316 0 0 1 -2.313-2.314 2.316 2.316 0 0 1 2.313-2.312 2.316 2.316 0 0 1 1.636 3.949 2.294 2.294 0 0 1 -1.636.677" fill="url(#a)"/><path d="m922.857 166.714c-.423 0-.836-.212-1.075-.597l-2.562-4.13a1.267 1.267 0 0 1 -.004-1.327c.25-.405.703-.647 1.184-.599l3.65.308a1.262 1.262 0 0 1 1.154 1.365c-.059.696-.668 1.227-1.366 1.153l-1.145-.097 1.237 1.994a1.265 1.265 0 0 1 -1.073 1.93m-26.31 49.038h58v-3.22h-58zm59.265 2.527h-60.53a1.263 1.263 0 0 1 -1.263-1.264v-5.746c0-.699.565-1.264 1.264-1.264h60.53c.697 0 1.262.565 1.262 1.264v5.746c0 .699-.565 1.264-1.263 1.264zm-59.265 9.461h58v-3.219h-58zm59.265 2.527h-60.53a1.262 1.262 0 0 1 -1.263-1.263v-5.746c0-.699.565-1.264 1.264-1.264h60.53c.697 0 1.262.565 1.262 1.264v5.746c0 .699-.565 1.263-1.263 1.263zm-59.265 9.463h58v-3.22h-58zm59.265 2.527h-60.53a1.263 1.263 0 0 1 -1.263-1.264v-5.748c0-.698.565-1.263 1.264-1.263h60.53c.697 0 1.262.565 1.262 1.263v5.748c0 .698-.565 1.264-1.263 1.264zm-59.265 9.461h58v-3.22h-58zm59.265 2.527h-60.53a1.262 1.262 0 0 1 -1.263-1.263v-5.747c0-.699.565-1.264 1.264-1.264h60.53c.697 0 1.262.565 1.262 1.264v5.747c0 .699-.565 1.263-1.263 1.263zm-59.265 9.461h58v-3.22h-58zm59.265 2.527h-60.53a1.262 1.262 0 0 1 -1.263-1.263v-5.747c0-.698.565-1.263 1.264-1.263h60.53c.697 0 1.262.565 1.262 1.263v5.747c0 .698-.565 1.263-1.263 1.263zm-59.265 9.462h58v-3.219h-58zm59.265 2.527h-60.53a1.262 1.262 0 0 1 -1.263-1.264v-5.745c0-.699.565-1.264 1.264-1.264h60.53c.697 0 1.262.565 1.262 1.264v5.745c0 .7-.565 1.264-1.263 1.264zm-59.265 9.461h58v-3.219h-58v3.22zm59.265 2.528h-60.53a1.262 1.262 0 0 1 -1.263-1.263v-5.748c0-.698.565-1.263 1.264-1.263h60.53c.697 0 1.262.565 1.262 1.263v5.747c0 .698-.565 1.263-1.263 1.263zm-59.265 9.461h58v-3.219h-58v3.22zm59.265 2.528h-60.53a1.263 1.263 0 0 1 -1.263-1.264v-5.746c0-.7.565-1.264 1.264-1.264h60.53c.697 0 1.262.564 1.262 1.264v5.746c0 .699-.565 1.264-1.263 1.264zm-59.265 9.461h58v-3.219h-58v3.22zm59.265 2.528h-60.53a1.262 1.262 0 0 1 -1.263-1.263v-5.748c0-.698.565-1.264 1.264-1.264h60.53c.697 0 1.262.566 1.262 1.264v5.748c0 .698-.565 1.263-1.263 1.263zm-59.265 9.461h58v-3.22h-58zm59.265 2.528h-60.53a1.263 1.263 0 0 1 -1.263-1.264v-5.747c0-.699.565-1.263 1.264-1.263h60.53c.697 0 1.262.564 1.262 1.263v5.747c0 .699-.565 1.264-1.263 1.264zm-59.265 9.46h58v-3.219h-58v3.22zm59.265 2.527h-60.53a1.262 1.262 0 0 1 -1.263-1.263v-5.746c0-.698.565-1.264 1.264-1.264h60.53c.697 0 1.262.566 1.262 1.264v5.746c0 .698-.565 1.263-1.263 1.263zm-59.265 9.461h58v-3.218h-58zm59.265 2.528h-60.53a1.262 1.262 0 0 1 -1.263-1.263v-5.746c0-.7.565-1.263 1.264-1.263h60.53c.697 0 1.262.564 1.262 1.263v5.746c0 .697-.565 1.263-1.263 1.263zm-415.891 15.553a1.263 1.263 0 0 1 -1.264-1.264v-109.175h-101.999v109.175a1.263 1.263 0 1 1 -2.528 0v-110.438c0-.698.566-1.265 1.264-1.265h104.526c.698 0 1.264.567 1.264 1.265v110.438c0 .699-.566 1.264-1.264 1.264" fill="url(#a)"/><path d="m524.704 255.268a1.263 1.263 0 0 1 -1.264-1.264v-31.126h-71.564v31.126a1.263 1.263 0 1 1 -2.528 0v-32.39c0-.698.566-1.263 1.265-1.263h74.091c.699 0 1.264.565 1.264 1.264v32.39c0 .698-.565 1.263-1.264 1.263" fill="url(#a)"/><path d="m451.935 222.872h71.469v29.436h-71.469z" fill="url(#e)" opacity=".4"/><path d="m433.398 255.208h104.511v112.967h-104.511z" fill="url(#e)" opacity=".6"/><path d="m509.417 222.877a1.263 1.263 0 0 1 -1.265-1.263v-31.126h-40.99v31.126c0 .7-.565 1.263-1.264 1.263a1.262 1.262 0 0 1 -1.263-1.263v-32.39c0-.698.565-1.264 1.263-1.264h43.519c.699 0 1.264.566 1.264 1.264v32.39c0 .7-.565 1.263-1.264 1.263m16.551 137.955h4.176v-18.505h-4.176zm5.44 2.528h-6.704a1.263 1.263 0 0 1 -1.263-1.264v-21.032c0-.699.564-1.263 1.263-1.263h6.705c.698 0 1.263.564 1.263 1.263v21.032c0 .699-.565 1.264-1.263 1.264zm-18.908-2.528h4.179v-18.505h-4.179zm5.443 2.528h-6.706a1.263 1.263 0 0 1 -1.264-1.264v-21.032c0-.699.565-1.263 1.264-1.263h6.706c.698 0 1.264.564 1.264 1.263v21.032c0 .699-.566 1.264-1.264 1.264zm-18.908-2.528h4.176v-18.505h-4.176zm5.442 2.528h-6.705a1.263 1.263 0 0 1 -1.265-1.264v-21.032c0-.699.566-1.263 1.265-1.263h6.705c.698 0 1.263.564 1.263 1.263v21.032c0 .699-.565 1.264-1.263 1.264zm-18.908-2.528h4.178v-18.505h-4.178zm5.441 2.528h-6.706a1.263 1.263 0 0 1 -1.263-1.264v-21.032c0-.699.565-1.263 1.263-1.263h6.706c.7 0 1.265.564 1.265 1.263v21.032c0 .699-.566 1.264-1.265 1.264zm-18.907-2.528h4.178v-18.505h-4.178zm5.442 2.528h-6.705a1.263 1.263 0 0 1 -1.265-1.264v-21.032c0-.699.566-1.263 1.265-1.263h6.705c.699 0 1.264.564 1.264 1.263v21.032c0 .699-.565 1.264-1.264 1.264zm-18.908-2.528h4.177v-18.505h-4.177zm5.441 2.528h-6.706a1.263 1.263 0 0 1 -1.263-1.264v-21.032c0-.699.565-1.263 1.263-1.263h6.706c.699 0 1.263.564 1.263 1.263v21.032c0 .699-.564 1.264-1.263 1.264zm-18.908-2.528h4.178v-18.505h-4.178zm5.442 2.528h-6.705a1.263 1.263 0 0 1 -1.264-1.264v-21.032c0-.699.566-1.263 1.264-1.263h6.705c.7 0 1.265.564 1.265 1.263v21.032c0 .699-.566 1.264-1.265 1.264zm75.356-29.51h4.176v-18.506h-4.176zm5.44 2.527h-6.704a1.263 1.263 0 0 1 -1.263-1.264v-21.032c0-.698.564-1.264 1.263-1.264h6.705c.698 0 1.263.566 1.263 1.264v21.032c0 .699-.565 1.264-1.263 1.264zm-18.908-2.527h4.179v-18.506h-4.179zm5.443 2.527h-6.706a1.263 1.263 0 0 1 -1.264-1.264v-21.032c0-.698.565-1.264 1.264-1.264h6.706c.698 0 1.264.566 1.264 1.264v21.032c0 .699-.566 1.264-1.264 1.264zm-18.908-2.527h4.176v-18.506h-4.176zm5.442 2.527h-6.705a1.263 1.263 0 0 1 -1.265-1.264v-21.032c0-.698.566-1.264 1.265-1.264h6.705c.698 0 1.263.566 1.263 1.264v21.032c0 .699-.565 1.264-1.263 1.264zm-18.908-2.527h4.178v-18.506h-4.178zm5.441 2.527h-6.706a1.263 1.263 0 0 1 -1.263-1.264v-21.032c0-.698.565-1.264 1.263-1.264h6.706c.7 0 1.265.566 1.265 1.264v21.032c0 .699-.566 1.264-1.265 1.264zm-18.907-2.527h4.178v-18.506h-4.178zm5.442 2.527h-6.705a1.263 1.263 0 0 1 -1.265-1.264v-21.032c0-.698.566-1.264 1.265-1.264h6.705c.699 0 1.264.566 1.264 1.264v21.032c0 .699-.565 1.264-1.264 1.264zm-18.908-2.527h4.177v-18.506h-4.177zm5.441 2.527h-6.706a1.263 1.263 0 0 1 -1.263-1.264v-21.032c0-.698.565-1.264 1.263-1.264h6.706c.699 0 1.263.566 1.263 1.264v21.032c0 .699-.564 1.264-1.263 1.264zm-18.908-2.527h4.178v-18.506h-4.178zm5.442 2.527h-6.705a1.263 1.263 0 0 1 -1.264-1.264v-21.032c0-.698.566-1.264 1.264-1.264h6.705c.7 0 1.265.566 1.265 1.264v21.032c0 .699-.566 1.264-1.265 1.264zm75.356-29.51h4.176v-18.507h-4.176v18.506zm5.44 2.527h-6.704a1.262 1.262 0 0 1 -1.263-1.263v-21.033c0-.698.564-1.263 1.263-1.263h6.705c.698 0 1.263.565 1.263 1.263v21.033c0 .698-.565 1.263-1.263 1.263zm-18.908-2.527h4.179v-18.507h-4.179v18.506zm5.443 2.527h-6.706a1.263 1.263 0 0 1 -1.264-1.263v-21.033c0-.698.565-1.263 1.264-1.263h6.706c.698 0 1.264.565 1.264 1.263v21.033c0 .698-.566 1.263-1.264 1.263zm-18.908-2.527h4.176v-18.507h-4.176v18.506zm5.442 2.527h-6.705a1.263 1.263 0 0 1 -1.265-1.263v-21.033c0-.698.566-1.263 1.265-1.263h6.705c.698 0 1.263.565 1.263 1.263v21.033c0 .698-.565 1.263-1.263 1.263zm-18.908-2.527h4.178v-18.507h-4.178v18.506zm5.441 2.527h-6.706a1.263 1.263 0 0 1 -1.263-1.263v-21.033c0-.698.565-1.263 1.263-1.263h6.706c.7 0 1.265.565 1.265 1.263v21.033c0 .698-.566 1.263-1.265 1.263zm-18.907-2.527h4.178v-18.507h-4.178v18.506zm5.442 2.527h-6.705a1.263 1.263 0 0 1 -1.265-1.263v-21.033c0-.698.566-1.263 1.265-1.263h6.705c.699 0 1.264.565 1.264 1.263v21.033c0 .698-.565 1.263-1.264 1.263zm-18.908-2.527h4.177v-18.507h-4.177v18.506zm5.441 2.527h-6.706a1.263 1.263 0 0 1 -1.263-1.263v-21.033c0-.698.565-1.263 1.263-1.263h6.706c.699 0 1.263.565 1.263 1.263v21.033c0 .698-.564 1.263-1.263 1.263zm-18.908-2.527h4.178v-18.507h-4.178v18.506zm5.442 2.527h-6.705a1.263 1.263 0 0 1 -1.264-1.263v-21.033c0-.698.566-1.263 1.264-1.263h6.705c.7 0 1.265.565 1.265 1.263v21.033c0 .698-.566 1.263-1.265 1.263zm75.356-29.51h4.176v-18.505h-4.176zm5.44 2.527h-6.704a1.262 1.262 0 0 1 -1.263-1.263v-21.032c0-.699.564-1.264 1.263-1.264h6.705c.698 0 1.263.565 1.263 1.264v21.032c0 .699-.565 1.263-1.263 1.263zm-18.908-2.527h4.179v-18.505h-4.179zm5.443 2.527h-6.706a1.263 1.263 0 0 1 -1.264-1.263v-21.032c0-.699.565-1.264 1.264-1.264h6.706c.698 0 1.264.565 1.264 1.264v21.032c0 .699-.566 1.263-1.264 1.263zm-18.908-2.527h4.176v-18.505h-4.176zm5.442 2.527h-6.705a1.263 1.263 0 0 1 -1.265-1.263v-21.032c0-.699.566-1.264 1.265-1.264h6.705c.698 0 1.263.565 1.263 1.264v21.032c0 .699-.565 1.263-1.263 1.263zm-18.908-2.527h4.178v-18.505h-4.178zm5.441 2.527h-6.706a1.262 1.262 0 0 1 -1.263-1.263v-21.032c0-.699.565-1.264 1.263-1.264h6.706c.7 0 1.265.565 1.265 1.264v21.032c0 .699-.566 1.263-1.265 1.263zm-18.907-2.527h4.178v-18.505h-4.178zm5.442 2.527h-6.705a1.263 1.263 0 0 1 -1.265-1.263v-21.032c0-.699.566-1.264 1.265-1.264h6.705c.699 0 1.264.565 1.264 1.264v21.032c0 .699-.565 1.263-1.264 1.263zm-18.908-2.527h4.177v-18.505h-4.177zm5.441 2.527h-6.706a1.262 1.262 0 0 1 -1.263-1.263v-21.032c0-.699.565-1.264 1.263-1.264h6.706c.699 0 1.263.565 1.263 1.264v21.032c0 .699-.564 1.263-1.263 1.263zm-18.908-2.527h4.178v-18.505h-4.178zm5.442 2.527h-6.705a1.262 1.262 0 0 1 -1.264-1.263v-21.032c0-.699.566-1.264 1.264-1.264h6.705c.7 0 1.265.565 1.265 1.264v21.032c0 .699-.566 1.263-1.265 1.263zm61.888-48.863h4.179v-4.662h-4.179zm5.443 2.528h-6.706a1.263 1.263 0 0 1 -1.264-1.264v-7.189c0-.698.565-1.264 1.264-1.264h6.706c.698 0 1.264.566 1.264 1.264v7.19c0 .698-.566 1.263-1.264 1.263zm-18.908-2.528h4.176v-4.662h-4.176zm5.442 2.528h-6.705a1.263 1.263 0 0 1 -1.265-1.264v-7.189c0-.698.566-1.264 1.265-1.264h6.705c.698 0 1.263.566 1.263 1.264v7.19c0 .698-.565 1.263-1.263 1.263zm-18.908-2.528h4.178v-4.662h-4.178zm5.441 2.528h-6.706a1.262 1.262 0 0 1 -1.263-1.264v-7.189c0-.698.565-1.264 1.263-1.264h6.706c.7 0 1.265.566 1.265 1.264v7.19c0 .698-.566 1.263-1.265 1.263zm-18.907-2.528h4.178v-4.662h-4.178zm5.442 2.528h-6.705a1.263 1.263 0 0 1 -1.265-1.264v-7.189c0-.698.566-1.264 1.265-1.264h6.705c.699 0 1.264.566 1.264 1.264v7.19c0 .698-.565 1.263-1.264 1.263zm-18.908-2.528h4.177v-4.662h-4.177zm5.441 2.528h-6.706a1.262 1.262 0 0 1 -1.263-1.264v-7.189c0-.698.565-1.264 1.263-1.264h6.706c.699 0 1.263.566 1.263 1.264v7.19c0 .698-.564 1.263-1.263 1.263zm48.422 10.666h4.179v-4.664h-4.179zm5.443 2.526h-6.706a1.263 1.263 0 0 1 -1.264-1.263v-7.192c0-.698.565-1.263 1.264-1.263h6.706c.698 0 1.264.565 1.264 1.263v7.192c0 .699-.566 1.263-1.264 1.263zm-18.908-2.526h4.176v-4.664h-4.176zm5.442 2.526h-6.705a1.263 1.263 0 0 1 -1.265-1.263v-7.192c0-.698.566-1.263 1.265-1.263h6.705c.698 0 1.263.565 1.263 1.263v7.192c0 .699-.565 1.263-1.263 1.263zm-18.908-2.526h4.178v-4.664h-4.178zm5.441 2.526h-6.706a1.262 1.262 0 0 1 -1.263-1.263v-7.192c0-.698.565-1.263 1.263-1.263h6.706c.7 0 1.265.565 1.265 1.263v7.192c0 .699-.566 1.263-1.265 1.263zm-18.907-2.526h4.178v-4.664h-4.178zm5.442 2.526h-6.705a1.263 1.263 0 0 1 -1.265-1.263v-7.192c0-.698.566-1.263 1.265-1.263h6.705c.699 0 1.264.565 1.264 1.263v7.192c0 .699-.565 1.263-1.264 1.263zm-18.908-2.526h4.177v-4.664h-4.177zm5.441 2.526h-6.706a1.262 1.262 0 0 1 -1.263-1.263v-7.192c0-.698.565-1.263 1.263-1.263h6.706c.699 0 1.263.565 1.263 1.263v7.192c0 .699-.564 1.263-1.263 1.263z" fill="url(#a)"/><path d="m504.476 215.112h-33.636a1.262 1.262 0 0 1 -1.263-1.265c0-.697.564-1.263 1.263-1.263h33.637a1.264 1.264 0 1 1 0 2.528" fill="url(#a)"/><path d="m500.38 212.596a.097.097 0 0 0 -.1.099c0 .11.198.11.198 0a.097.097 0 0 0 -.099-.1m0 2.528c-1.339 0-2.429-1.09-2.429-2.428a2.431 2.431 0 0 1 2.43-2.428c1.339 0 2.429 1.089 2.429 2.428a2.433 2.433 0 0 1 -2.43 2.428" fill="url(#a)"/><path d="m500.38 213.958a1.263 1.263 0 0 1 -1.265-1.264v-5.695c0-.7.565-1.264 1.264-1.264.7 0 1.265.564 1.265 1.264v5.695c0 .7-.566 1.264-1.265 1.264m-6.202-1.362c-.055 0-.1.044-.1.099 0 .11.2.112.2 0a.097.097 0 0 0 -.1-.1m0 2.528c-1.339 0-2.429-1.09-2.429-2.428a2.431 2.431 0 0 1 2.43-2.428 2.43 2.43 0 0 1 2.428 2.428 2.432 2.432 0 0 1 -2.429 2.428" fill="url(#a)"/><path d="m494.177 213.958a1.263 1.263 0 0 1 -1.264-1.264v-5.695c0-.7.565-1.264 1.264-1.264.7 0 1.265.564 1.265 1.264v5.695c0 .7-.566 1.264-1.265 1.264m-6.203-1.362a.097.097 0 0 0 -.099.099c0 .112.2.11.2 0a.1.1 0 0 0 -.101-.1m0 2.528a2.432 2.432 0 0 1 -2.428-2.428 2.43 2.43 0 0 1 2.428-2.428c1.34 0 2.429 1.089 2.429 2.428a2.433 2.433 0 0 1 -2.429 2.428" fill="url(#a)"/><path d="m487.974 213.958a1.263 1.263 0 0 1 -1.263-1.264v-5.695a1.263 1.263 0 1 1 2.528 0v5.695c0 .7-.566 1.264-1.265 1.264m-6.202-1.362c-.056 0-.1.044-.1.099 0 .11.199.112.199 0a.097.097 0 0 0 -.099-.1m0 2.528c-1.34 0-2.43-1.09-2.43-2.428a2.431 2.431 0 0 1 2.43-2.428 2.43 2.43 0 0 1 2.428 2.428 2.432 2.432 0 0 1 -2.428 2.428" fill="url(#a)"/><path d="m481.772 213.958a1.263 1.263 0 0 1 -1.264-1.264v-5.695c0-.7.565-1.264 1.264-1.264s1.264.564 1.264 1.264v5.695c0 .7-.565 1.264-1.264 1.264m-6.202-1.362c-.056 0-.1.044-.1.099 0 .11.199.112.199 0a.098.098 0 0 0 -.1-.1m0 2.528c-1.338 0-2.428-1.09-2.428-2.428a2.431 2.431 0 0 1 2.429-2.428 2.43 2.43 0 0 1 2.428 2.428 2.432 2.432 0 0 1 -2.428 2.428" fill="url(#a)"/><path d="m475.57 213.958a1.263 1.263 0 0 1 -1.264-1.264v-5.695c0-.7.565-1.264 1.264-1.264s1.264.564 1.264 1.264v5.695c0 .7-.565 1.264-1.264 1.264m28.906-11.478h-33.636a1.262 1.262 0 0 1 -1.263-1.264c0-.698.564-1.263 1.263-1.263h33.637a1.263 1.263 0 1 1 0 2.527" fill="url(#a)"/><path d="m500.38 199.964a.097.097 0 0 0 -.1.099c0 .11.198.11.198 0a.097.097 0 0 0 -.099-.1m0 2.528c-1.339 0-2.429-1.09-2.429-2.428a2.432 2.432 0 0 1 2.43-2.43c1.339 0 2.429 1.09 2.429 2.43a2.432 2.432 0 0 1 -2.43 2.428" fill="url(#a)"/><path d="m500.38 201.326a1.263 1.263 0 0 1 -1.265-1.264v-5.695c0-.7.565-1.264 1.264-1.264.7 0 1.265.564 1.265 1.264v5.695c0 .7-.566 1.264-1.265 1.264m-6.202-1.362a.1.1 0 0 0 -.1.099c0 .108.2.11.2 0a.097.097 0 0 0 -.1-.1m0 2.528c-1.339 0-2.429-1.09-2.429-2.428a2.432 2.432 0 0 1 2.43-2.43c1.339 0 2.428 1.09 2.428 2.43a2.431 2.431 0 0 1 -2.429 2.428" fill="url(#a)"/><path d="m494.177 201.326a1.263 1.263 0 0 1 -1.264-1.264v-5.695c0-.7.565-1.264 1.264-1.264.7 0 1.265.564 1.265 1.264v5.695c0 .7-.566 1.264-1.265 1.264m-6.203-1.362a.097.097 0 0 0 -.099.099c0 .11.2.108.2 0a.1.1 0 0 0 -.101-.1m0 2.528a2.431 2.431 0 0 1 -2.428-2.428 2.431 2.431 0 0 1 2.428-2.43c1.34 0 2.429 1.09 2.429 2.43a2.432 2.432 0 0 1 -2.429 2.428" fill="url(#a)"/><path d="m487.974 201.326a1.263 1.263 0 0 1 -1.263-1.264v-5.695a1.263 1.263 0 1 1 2.528 0v5.695c0 .7-.566 1.264-1.265 1.264m-6.202-1.362a.1.1 0 0 0 -.1.099c0 .108.199.11.199 0a.097.097 0 0 0 -.099-.1m0 2.528c-1.34 0-2.43-1.09-2.43-2.428a2.432 2.432 0 0 1 2.43-2.43c1.34 0 2.428 1.09 2.428 2.43a2.431 2.431 0 0 1 -2.428 2.428" fill="url(#a)"/><path d="m481.772 201.326a1.263 1.263 0 0 1 -1.264-1.264v-5.695c0-.7.565-1.264 1.264-1.264s1.264.564 1.264 1.264v5.695c0 .7-.565 1.264-1.264 1.264m-6.202-1.362a.1.1 0 0 0 -.1.099c0 .107.199.11.199 0a.099.099 0 0 0 -.1-.1m0 2.528c-1.338 0-2.428-1.09-2.428-2.428a2.432 2.432 0 0 1 2.429-2.43c1.34 0 2.428 1.09 2.428 2.43a2.431 2.431 0 0 1 -2.428 2.428" fill="url(#a)"/><path d="m475.57 201.326a1.263 1.263 0 0 1 -1.264-1.264v-5.695c0-.7.565-1.264 1.264-1.264s1.264.564 1.264 1.264v5.695c0 .7-.565 1.264-1.264 1.264m12.404-10.839a1.263 1.263 0 0 1 -1.263-1.264v-22.648a1.263 1.263 0 1 1 2.527 0v22.648c0 .7-.565 1.264-1.264 1.264m138.546 175.22a1.263 1.263 0 0 1 -1.264-1.264v-172.528h-3.348v8.147c0 .7-.565 1.264-1.264 1.264h-25.325a1.263 1.263 0 0 1 -1.263-1.264v-8.147h-3.35v172.528a1.263 1.263 0 1 1 -2.528 0v-173.79c0-.7.565-1.265 1.264-1.265h5.877c.699 0 1.264.565 1.264 1.264v8.147h22.796v-8.147c0-.699.566-1.264 1.265-1.264h5.876c.698 0 1.263.565 1.263 1.264v173.79c0 .7-.565 1.265-1.263 1.265" fill="url(#a)"/><path d="m596.583 228.39h22.797v-22.792h-22.797zm24.06 2.527h-25.323a1.264 1.264 0 0 1 -1.265-1.264v-25.319c0-.699.566-1.264 1.265-1.264h25.324c.699 0 1.264.565 1.264 1.264v25.319c0 .698-.565 1.264-1.264 1.264zm-24.06 26.766h22.797v-22.793h-22.797zm24.06 2.528h-25.323a1.263 1.263 0 0 1 -1.265-1.264v-25.321c0-.698.566-1.263 1.265-1.263h25.324c.699 0 1.264.565 1.264 1.263v25.32c0 .7-.565 1.265-1.264 1.265zm-24.06 26.767h22.797v-22.794h-22.797zm24.06 2.527h-25.323a1.263 1.263 0 0 1 -1.265-1.263v-25.322c0-.699.566-1.263 1.265-1.263h25.324c.699 0 1.264.564 1.264 1.263v25.32c0 .699-.565 1.264-1.264 1.264zm.001 76.202a1.263 1.263 0 0 1 -1.265-1.264v-70.964h-22.796v70.964a1.263 1.263 0 1 1 -2.527 0v-72.228c0-.698.565-1.263 1.264-1.263h25.324c.699 0 1.264.565 1.264 1.263v72.228c0 .699-.565 1.264-1.264 1.264m214.004 0a1.264 1.264 0 0 1 -1.265-1.264v-172.528h-3.348v8.147c0 .7-.565 1.264-1.264 1.264h-25.324a1.263 1.263 0 0 1 -1.265-1.264v-8.147h-3.349v172.528a1.263 1.263 0 1 1 -2.528 0v-173.79c0-.7.565-1.265 1.264-1.265h5.878c.698 0 1.263.565 1.263 1.264v8.147h22.797v-8.147c0-.699.565-1.264 1.264-1.264h5.877c.699 0 1.264.565 1.264 1.264v173.79c0 .7-.565 1.265-1.264 1.265" fill="url(#a)"/><path d="m804.71 228.39h22.796v-22.792h-22.796zm24.06 2.527h-25.323a1.264 1.264 0 0 1 -1.264-1.264v-25.319c0-.699.565-1.264 1.264-1.264h25.324c.698 0 1.264.565 1.264 1.264v25.319c0 .698-.566 1.264-1.264 1.264zm-24.06 26.766h22.796v-22.793h-22.796zm24.06 2.528h-25.323a1.263 1.263 0 0 1 -1.264-1.264v-25.321c0-.698.565-1.263 1.264-1.263h25.324c.698 0 1.264.565 1.264 1.263v25.32c0 .7-.566 1.265-1.264 1.265zm-24.06 26.767h22.796v-22.794h-22.796zm24.06 2.527h-25.323a1.263 1.263 0 0 1 -1.264-1.263v-25.322c0-.699.565-1.263 1.264-1.263h25.324c.698 0 1.264.564 1.264 1.263v25.32c0 .699-.566 1.264-1.264 1.264zm.001 76.202a1.263 1.263 0 0 1 -1.264-1.264v-70.964h-22.797v70.964a1.262 1.262 0 1 1 -2.527 0v-72.228c0-.698.564-1.263 1.264-1.263h25.324c.698 0 1.264.565 1.264 1.263v72.228c0 .699-.566 1.264-1.264 1.264" fill="url(#a)"/><path d="m654.087 265.164c-18.509-23.522-28.474-47.596-28.595-47.836a1.264 1.264 0 0 1 2.256-1.14c.476.941 46.054 94.318 97.882 94.318.22.019 17.836.55 39.8-12.121 20.3-11.712 48.58-37.435 68.024-93.464a1.265 1.265 0 0 1 2.457.413c.002.582.771 58.475 53.99 76.671a1.265 1.265 0 0 1 -.817 2.392c-44.544-15.23-53.472-57.323-55.256-73.04-11.376 30.617-31.942 68.992-67.294 89.31-20.335 11.686-36.678 12.376-40.253 12.376-23.128-.01-47.198-16.116-72.194-47.88z" fill="url(#a)"/><path d="m694.957 312.279c-2.627 0-4.278-.19-4.713-.248-22.452-.04-46.495-16.146-71.458-47.87-14.848-18.87-25.6-37.945-29.334-44.874-3.312 9.98-16.254 42.699-48.865 62.935a1.264 1.264 0 0 1 -1.332-2.149c37.76-23.431 48.557-63.99 48.662-64.398a1.267 1.267 0 0 1 1.088-.941c.53-.06 1.028.217 1.265.687.476.94 48.231 94.083 100.06 94.083.06 0 .12.004.178.012.167.025 17.309 2.274 38.796-8.688 19.871-10.14 47.64-33.979 67.072-89.974a1.258 1.258 0 0 1 1.608-.778 1.26 1.26 0 0 1 .778 1.608c-10.898 31.406-31.625 72.77-68.475 91.478-15.51 7.874-28.613 9.117-35.33 9.117m191.42-13.774c-13.744 0-26.768-5.907-35.535-11.077-10.186-6.008-16.784-12.163-17.059-12.422a1.265 1.265 0 0 1 1.73-1.842c.262.245 26.542 24.586 53.892 22.71.697-.017 1.299.478 1.349 1.175.046.696-.478 1.3-1.176 1.348a47.126 47.126 0 0 1 -3.201.108" fill="url(#a)"/><path d="m540.96 298.878a1.264 1.264 0 0 1 -.014-2.528c.188-.002 19.235-.507 46.682-21.767a1.263 1.263 0 1 1 1.549 1.997c-28.197 21.842-47.4 22.289-48.203 22.298h-.013zm346.308 24.851h-347.346a1.263 1.263 0 1 1 0-2.527h347.346a1.263 1.263 0 1 1 0 2.527m-324.091 41.978c-9.984 0-18.106-8.12-18.106-18.103a1.264 1.264 0 1 1 2.528 0c0 8.589 6.988 15.576 15.578 15.576s15.577-6.987 15.577-15.576a1.264 1.264 0 1 1 2.528 0c0 9.982-8.122 18.103-18.105 18.103" fill="url(#a)"/><path d="m529.496 365.707a1.263 1.263 0 1 1 0-2.527c8.589 0 15.576-6.987 15.576-15.576a1.263 1.263 0 1 1 2.527 0c0 9.982-8.121 18.103-18.103 18.103m67.362 0c-9.983 0-18.103-8.12-18.103-18.103a1.264 1.264 0 1 1 2.526 0c0 8.589 6.988 15.576 15.577 15.576 8.59 0 15.577-6.987 15.577-15.576a1.264 1.264 0 1 1 2.528 0c0 9.982-8.12 18.103-18.105 18.103" fill="url(#a)"/><path d="m630.54 365.707c-9.983 0-18.105-8.12-18.105-18.103a1.264 1.264 0 1 1 2.528 0c0 8.589 6.987 15.576 15.577 15.576 8.589 0 15.577-6.987 15.577-15.576a1.264 1.264 0 1 1 2.528 0c0 9.982-8.122 18.103-18.105 18.103" fill="url(#a)"/><path d="m664.22 365.707c-9.982 0-18.103-8.12-18.103-18.103a1.264 1.264 0 1 1 2.527 0c0 8.589 6.987 15.576 15.577 15.576s15.577-6.987 15.577-15.576a1.264 1.264 0 1 1 2.528 0c0 9.982-8.122 18.103-18.105 18.103" fill="url(#a)"/><path d="m697.903 365.707c-9.983 0-18.105-8.12-18.105-18.103a1.264 1.264 0 1 1 2.528 0c0 8.589 6.988 15.576 15.577 15.576s15.577-6.987 15.577-15.576a1.263 1.263 0 1 1 2.527 0c0 9.982-8.121 18.103-18.104 18.103" fill="url(#a)"/><path d="m731.585 365.707c-9.984 0-18.105-8.12-18.105-18.103a1.263 1.263 0 1 1 2.527 0c0 8.589 6.99 15.576 15.578 15.576 8.589 0 15.576-6.987 15.576-15.576a1.263 1.263 0 1 1 2.528 0c0 9.982-8.121 18.103-18.104 18.103" fill="url(#a)"/><path d="m765.266 365.707c-9.984 0-18.105-8.12-18.105-18.103a1.263 1.263 0 1 1 2.528 0c0 8.589 6.988 15.576 15.577 15.576 8.59 0 15.577-6.987 15.577-15.576a1.264 1.264 0 1 1 2.528 0c0 9.982-8.12 18.103-18.105 18.103" fill="url(#a)"/><path d="m798.948 365.707c-9.984 0-18.104-8.12-18.104-18.103a1.264 1.264 0 1 1 2.527 0c0 8.589 6.987 15.576 15.577 15.576 8.588 0 15.576-6.987 15.576-15.576a1.264 1.264 0 1 1 2.528 0c0 9.982-8.12 18.103-18.104 18.103" fill="url(#a)"/><path d="m832.949 365.707c-9.983 0-18.104-8.12-18.104-18.103a1.263 1.263 0 1 1 2.528 0c0 8.589 6.987 15.576 15.576 15.576 8.588 0 15.577-6.987 15.577-15.576a1.263 1.263 0 1 1 2.528 0c0 9.982-8.121 18.103-18.105 18.103" fill="url(#a)"/><path d="m866.632 365.707c-9.985 0-18.106-8.12-18.106-18.103a1.263 1.263 0 1 1 2.528 0c0 8.589 6.988 15.576 15.578 15.576 8.588 0 15.575-6.987 15.575-15.576a1.264 1.264 0 1 1 2.528 0c0 9.982-8.12 18.103-18.103 18.103" fill="url(#a)"/><path d="m900.313 365.707c-9.985 0-18.105-8.12-18.105-18.103a1.264 1.264 0 1 1 2.527 0c0 8.589 6.988 15.576 15.578 15.576a1.264 1.264 0 1 1 0 2.527m-671.073-240.822a.997.997 0 0 1 -.998-.997c0-5.509-4.482-9.991-9.991-9.991a9.993 9.993 0 0 0 -8.286 4.405.996.996 0 1 1 -1.652-1.116 11.983 11.983 0 0 1 9.938-5.283c6.609 0 11.986 5.377 11.986 11.985a.997.997 0 0 1 -.998.997" fill="url(#a)"/><path d="m229.24 124.885a.997.997 0 0 1 -.998-.997c0-6.608 5.377-11.985 11.986-11.985 3.988 0 7.703 1.975 9.939 5.283a.996.996 0 1 1 -1.653 1.116 9.993 9.993 0 0 0 -8.286-4.405c-5.51 0-9.991 4.482-9.991 9.99a.997.997 0 0 1 -.998.998m689.213-32.502a.996.996 0 0 1 -.997-.997c0-5.508-4.482-9.99-9.992-9.99a9.988 9.988 0 0 0 -8.284 4.405.998.998 0 0 1 -1.653-1.116 11.981 11.981 0 0 1 9.937-5.283c6.609 0 11.987 5.376 11.987 11.984a.996.996 0 0 1 -.998.997" fill="url(#a)"/><path d="m918.452 92.383a.996.996 0 0 1 -.997-.997c0-6.608 5.377-11.984 11.986-11.984 3.989 0 7.703 1.975 9.939 5.283a.998.998 0 1 1 -1.654 1.116 9.989 9.989 0 0 0 -8.285-4.405c-5.51 0-9.991 4.482-9.991 9.99a.996.996 0 0 1 -.998.997m172.588 32.502a.996.996 0 0 1 -.996-.997c0-5.509-4.482-9.991-9.992-9.991a.997.997 0 1 1 0-1.994c6.61 0 11.986 5.377 11.986 11.985a.996.996 0 0 1 -.997.997" fill="url(#a)"/><path d="m1091.04 124.885a.996.996 0 0 1 -.996-.997c0-6.608 5.377-11.985 11.986-11.985a.997.997 0 1 1 0 1.994c-5.509 0-9.992 4.482-9.992 9.99a.996.996 0 0 1 -.997.998" fill="url(#a)"/><g fill="#4e3219"><path d="m41.773 12.98a.997.997 0 0 1 -.997-.996c0-5.508-4.483-9.99-9.992-9.99a.997.997 0 1 1 0-1.994c6.61 0 11.986 5.376 11.986 11.984a.997.997 0 0 1 -.997.997"/><path d="m41.773 12.98a.997.997 0 0 1 -.997-.996c0-6.608 5.376-11.984 11.984-11.984a.997.997 0 0 1 0 1.994c-5.509 0-9.991 4.482-9.991 9.99a.997.997 0 0 1 -.997.997"/></g><path d="m703.662 224.883a.996.996 0 0 1 -.997-.997c0-5.508-4.483-9.99-9.992-9.99a.997.997 0 1 1 0-1.995c6.609 0 11.987 5.377 11.987 11.985a.997.997 0 0 1 -.998.997" fill="url(#a)"/><path d="m703.662 224.883a.996.996 0 0 1 -.997-.997c0-6.608 5.377-11.985 11.986-11.985a.997.997 0 0 1 0 1.994c-5.51 0-9.991 4.483-9.991 9.991a.997.997 0 0 1 -.998.997m-364.147 140.824a.996.996 0 0 1 -.947-1.31l8.995-27.21a.997.997 0 0 1 .947-.684h.003c.432.002.814.28.946.69l8.764 27.21a.997.997 0 1 1 -1.898.613l-7.828-24.302-8.035 24.308a.998.998 0 0 1 -.947.685" fill="url(#a)"/><path d="m375.032 365.693a.998.998 0 0 1 -.949-.69l-7.827-24.304-8.035 24.31a.993.993 0 0 1 -1.26.634.996.996 0 0 1 -.634-1.259l8.994-27.21a.998.998 0 0 1 .947-.686h.004c.431.002.813.28.946.691l8.764 27.211a.998.998 0 0 1 -.95 1.303m7.848.014a.996.996 0 0 1 -.947-1.31l8.995-27.21a.997.997 0 0 1 .948-.684h.003c.432.002.813.28.945.69l8.764 27.21a.997.997 0 1 1 -1.898.613l-7.827-24.302-8.035 24.308a.998.998 0 0 1 -.948.685" fill="url(#a)"/><path d="m418.398 365.693a.998.998 0 0 1 -.95-.69l-7.826-24.304-8.035 24.31a.996.996 0 1 1 -1.895-.624l8.994-27.212a.998.998 0 0 1 .948-.685h.004c.43.002.812.28.945.691l8.764 27.211a.998.998 0 0 1 -.95 1.303m-110.628-26.313c-4.52 0-8.195 3.677-8.195 8.195s3.676 8.194 8.195 8.194 8.195-3.676 8.195-8.194-3.676-8.194-8.195-8.194m0 18.382c-5.618 0-10.19-4.57-10.19-10.188s4.572-10.188 10.19-10.188c5.619 0 10.19 4.57 10.19 10.188 0 5.617-4.571 10.188-10.19 10.188" fill="url(#a)"/><path d="m307.769 365.693a.997.997 0 0 1 -.997-.997v-11.974a.997.997 0 1 1 1.994 0v11.974a.997.997 0 0 1 -.997.997m21.394-26.313c-4.519 0-8.194 3.677-8.194 8.195s3.675 8.194 8.194 8.194c4.52 0 8.195-3.676 8.195-8.194s-3.676-8.194-8.195-8.194m0 18.382c-5.618 0-10.189-4.57-10.189-10.188s4.571-10.188 10.19-10.188c5.617 0 10.188 4.57 10.188 10.188 0 5.617-4.57 10.188-10.189 10.188" fill="url(#a)"/><path d="m329.163 365.693a.997.997 0 0 1 -.997-.997v-11.974a.997.997 0 1 1 1.994 0v11.974a.997.997 0 0 1 -.997.997m-318.973-26.299c-4.52 0-8.195 3.676-8.195 8.195 0 4.517 3.675 8.193 8.194 8.193 4.52 0 8.196-3.676 8.196-8.193 0-4.519-3.677-8.195-8.196-8.195m0 18.382c-5.618 0-10.189-4.57-10.189-10.186 0-5.62 4.571-10.19 10.19-10.19 5.618 0 10.19 4.57 10.19 10.189 0 5.617-4.572 10.187-10.19 10.187" fill="url(#a)"/><path d="m10.19 365.707a.997.997 0 0 1 -.998-.997v-11.974a.997.997 0 1 1 1.994 0v11.974a.997.997 0 0 1 -.997.997m21.395-26.313c-4.52 0-8.195 3.676-8.195 8.195 0 4.517 3.676 8.193 8.195 8.193s8.194-3.676 8.194-8.193c0-4.519-3.675-8.195-8.194-8.195m0 18.382c-5.618 0-10.19-4.57-10.19-10.187 0-5.618 4.572-10.189 10.19-10.189s10.189 4.57 10.189 10.189c0 5.617-4.571 10.187-10.19 10.187" fill="url(#a)"/><path d="m31.584 365.707a.997.997 0 0 1 -.998-.997v-11.974a.997.997 0 1 1 1.995 0v11.974a.997.997 0 0 1 -.997.997m1336.961-26.313c-4.519 0-8.195 3.676-8.195 8.195 0 4.517 3.676 8.193 8.195 8.193 4.518 0 8.196-3.676 8.196-8.193 0-4.519-3.678-8.195-8.196-8.195m0 18.382c-5.619 0-10.19-4.57-10.19-10.187 0-5.618 4.571-10.189 10.19-10.189 5.62 0 10.19 4.57 10.19 10.189 0 5.617-4.57 10.187-10.19 10.187" fill="url(#a)"/><path d="m1368.545 365.707a.996.996 0 0 1 -.997-.997v-11.974a.996.996 0 1 1 1.994 0v11.974a.997.997 0 0 1 -.997.997m21.395-26.313c-4.519 0-8.196 3.676-8.196 8.195 0 4.517 3.677 8.193 8.195 8.193s8.196-3.676 8.196-8.193c0-4.519-3.678-8.195-8.196-8.195m0 18.382c-5.619 0-10.19-4.57-10.19-10.187 0-5.618 4.571-10.189 10.19-10.189 5.62 0 10.19 4.57 10.19 10.189 0 5.617-4.57 10.187-10.19 10.187" fill="url(#a)"/><path d="m1389.94 365.707a.996.996 0 0 1 -.998-.997v-11.974a.996.996 0 1 1 1.994 0v11.974a.996.996 0 0 1 -.997.997m-329.752-26.736c-4.59 0-8.327 3.735-8.327 8.327 0 4.59 3.737 8.325 8.327 8.325 4.591 0 8.328-3.735 8.328-8.325 0-4.592-3.737-8.327-8.328-8.327m0 18.678c-5.71 0-10.353-4.644-10.353-10.351 0-5.709 4.644-10.353 10.353-10.353 5.71 0 10.354 4.644 10.354 10.353 0 5.707-4.645 10.35-10.354 10.35" fill="url(#a)"/><path d="m1060.187 365.707c-.56 0-1.014-.453-1.014-1.013v-12.164a1.013 1.013 0 0 1 2.028 0v12.165c0 .56-.453 1.013-1.014 1.013m-31.395-3.528h-2.424a1.013 1.013 0 0 1 0-2.026h1.41v-13.874h-55.66v13.873h6.549a1.012 1.012 0 1 1 0 2.026h-7.563c-.559 0-1.013-.454-1.013-1.014v-15.898c0-.559.454-1.014 1.013-1.014h57.688c.56 0 1.014.455 1.014 1.014v15.898c0 .56-.454 1.014-1.014 1.014" fill="url(#a)"/><path d="m1023.023 359.765a1.96 1.96 0 0 0 -1.957 1.958 1.96 1.96 0 0 0 1.957 1.958 1.961 1.961 0 0 0 1.958-1.958c0-1.079-.88-1.958-1.958-1.958m0 5.942a3.989 3.989 0 0 1 -3.984-3.984 3.99 3.99 0 0 1 3.984-3.984 3.99 3.99 0 0 1 3.985 3.984 3.99 3.99 0 0 1 -3.985 3.984m-41.359-5.942a1.96 1.96 0 0 0 -1.958 1.958 1.96 1.96 0 0 0 1.958 1.958 1.96 1.96 0 0 0 1.958-1.958 1.961 1.961 0 0 0 -1.958-1.958m0 5.942a3.99 3.99 0 0 1 -3.984-3.984 3.99 3.99 0 0 1 3.984-3.984 3.99 3.99 0 0 1 3.984 3.984 3.989 3.989 0 0 1 -3.984 3.984" fill="url(#a)"/><path d="m1020.105 362.18h-35.47a1.014 1.014 0 1 1 0-2.026h35.47a1.013 1.013 0 1 1 0 2.026" fill="url(#a)"/><path d="m1012.994 360.154h3.61v-10.779h-3.61zm4.624 2.026h-5.636c-.56 0-1.014-.454-1.014-1.014v-12.803c0-.56.453-1.014 1.014-1.014h5.636c.559 0 1.013.454 1.013 1.014v12.803c0 .56-.454 1.014-1.013 1.014zm-13.847-9.195h3.61v-3.61h-3.61zm4.624 2.026h-5.637c-.56 0-1.013-.452-1.013-1.012v-5.636c0-.56.454-1.014 1.013-1.014h5.637c.558 0 1.013.454 1.013 1.014v5.637c0 .56-.455 1.012-1.013 1.012zm20.397.001h-7.702c-.56 0-1.013-.453-1.013-1.013v-5.636c0-.56.453-1.014 1.013-1.014h7.702a1.014 1.014 0 0 1 0 2.027h-6.69v3.61h6.69a1.013 1.013 0 1 1 0 2.026m-34.471-2.027h3.61v-3.61h-3.61zm4.622 2.026h-5.636a1.013 1.013 0 0 1 -1.013-1.012v-5.636c0-.56.455-1.014 1.013-1.014h5.636c.56 0 1.014.454 1.014 1.014v5.637c0 .56-.454 1.012-1.014 1.012zm-14.073-2.026h3.61v-3.61h-3.61zm4.623 2.026h-5.636c-.56 0-1.013-.452-1.013-1.012v-5.636c0-.56.453-1.014 1.013-1.014h5.636c.56 0 1.013.454 1.013 1.014v5.637c0 .56-.454 1.012-1.013 1.012zm-14.073-2.026h3.61v-3.61h-3.61zm4.622 2.026h-5.636c-.56 0-1.014-.452-1.014-1.012v-5.636c0-.56.454-1.014 1.014-1.014h5.636c.56 0 1.014.454 1.014 1.014v5.637c0 .56-.454 1.012-1.014 1.012zm55.025-.646h7.264v-15.727h-7.264zm8.278 2.026h-9.292a1.013 1.013 0 0 1 -1.012-1.013v-17.754c0-.56.453-1.013 1.012-1.013h9.292c.559 0 1.012.453 1.012 1.013v17.754c0 .56-.453 1.013-1.012 1.013z" fill="url(#a)"/><path d="m1038.699 341.062a.27.27 0 0 0 -.27.27c0 .297.54.296.54 0a.27.27 0 0 0 -.27-.27m0 2.565a2.297 2.297 0 0 1 -2.295-2.295 2.298 2.298 0 0 1 2.295-2.296 2.298 2.298 0 0 1 2.295 2.296 2.297 2.297 0 0 1 -2.295 2.295m0 2.318a.27.27 0 0 0 -.27.27c0 .294.54.293.54 0a.27.27 0 0 0 -.27-.27m0 2.562a2.296 2.296 0 0 1 -2.295-2.293 2.297 2.297 0 0 1 2.295-2.295 2.297 2.297 0 0 1 2.295 2.295 2.296 2.296 0 0 1 -2.295 2.293m0 2.319a.27.27 0 0 0 -.27.27c0 .296.54.295.54 0a.27.27 0 0 0 -.27-.27m0 2.564a2.298 2.298 0 0 1 -2.295-2.295 2.298 2.298 0 0 1 2.295-2.295 2.298 2.298 0 0 1 2.295 2.295 2.298 2.298 0 0 1 -2.295 2.295m0 12.317c-.56 0-1.014-.453-1.014-1.013v-9.316a1.013 1.013 0 1 1 2.027 0v9.316c0 .56-.454 1.013-1.013 1.013m0-27.069c-.56 0-1.014-.454-1.014-1.014v-2.582a1.013 1.013 0 1 1 2.027 0v2.582c0 .56-.454 1.014-1.013 1.014m86.616 28.066a.996.996 0 0 1 -.997-.997v-168.43h-42.688v168.43a.996.996 0 1 1 -1.995 0v-169.428c0-.55.447-.997.997-.997h44.683c.551 0 .997.447.997.997v169.428a.996.996 0 0 1 -.997.997" fill="url(#a)"/><path d="m1120.781 197.277a.992.992 0 0 1 -.736-.324l-17.02-18.633-17.123 18.635a.997.997 0 1 1 -1.469-1.35l17.86-19.436a.996.996 0 0 1 .735-.322h.002c.28 0 .545.118.735.324l17.752 19.436a.997.997 0 0 1 -.736 1.67m7.468 143.71h-50.443a.996.996 0 1 1 0-1.994h50.443a.996.996 0 1 1 0 1.994m0-35.927h-50.443a.996.996 0 1 1 0-1.995h50.443a.996.996 0 1 1 0 1.994m0-35.927h-50.443a.996.996 0 1 1 0-1.994h50.443a.996.996 0 1 1 0 1.994m0-35.928h-50.443a.996.996 0 1 1 0-1.994h50.443a.996.996 0 1 1 0 1.994m-40.373 97.103h3.28v-17.417h-3.28v17.418zm4.277 1.994h-5.274a.996.996 0 0 1 -.997-.997v-19.412c0-.55.445-.997.997-.997h5.274c.551 0 .997.446.997.997v19.412a.996.996 0 0 1 -.997.997zm4.561-1.994h3.28v-17.417h-3.28v17.418zm4.277 1.994h-5.274a.996.996 0 0 1 -.998-.997v-19.412c0-.55.446-.997.998-.997h5.274c.551 0 .997.446.997.997v19.412a.996.996 0 0 1 -.997.997zm5.063-1.994h3.28v-17.417h-3.28v17.418zm4.277 1.994h-5.274a.997.997 0 0 1 -.997-.997v-19.412c0-.55.447-.997.997-.997h5.274c.551 0 .997.446.997.997v19.412a.996.996 0 0 1 -.997.997zm4.461-1.994h3.279v-17.417h-3.279v17.418zm4.276 1.994h-5.273a.996.996 0 0 1 -.997-.997v-19.412c0-.55.446-.997.997-.997h5.273c.551 0 .997.446.997.997v19.412a.996.996 0 0 1 -.997.997zm-31.192-37.733h3.28v-17.419h-3.28zm4.277 1.994h-5.274a.996.996 0 0 1 -.997-.997v-19.412c0-.551.445-.997.997-.997h5.274c.551 0 .997.446.997.997v19.412a.996.996 0 0 1 -.997.997zm4.561-1.994h3.28v-17.419h-3.28zm4.277 1.994h-5.274a.996.996 0 0 1 -.998-.997v-19.412c0-.551.446-.997.998-.997h5.274c.551 0 .997.446.997.997v19.412a.996.996 0 0 1 -.997.997zm5.063-1.994h3.28v-17.419h-3.28zm4.277 1.994h-5.274a.997.997 0 0 1 -.997-.997v-19.412c0-.551.447-.997.997-.997h5.274c.551 0 .997.446.997.997v19.412a.996.996 0 0 1 -.997.997zm4.461-1.994h3.279v-17.419h-3.279zm4.276 1.994h-5.273a.996.996 0 0 1 -.997-.997v-19.412c0-.551.446-.997.997-.997h5.273c.551 0 .997.446.997.997v19.412a.996.996 0 0 1 -.997.997zm-31.192-37.732h3.28v-17.42h-3.28zm4.277 1.993h-5.274a.996.996 0 0 1 -.997-.997v-19.413c0-.552.445-.997.997-.997h5.274c.551 0 .997.445.997.997v19.413a.996.996 0 0 1 -.997.997zm4.561-1.993h3.28v-17.42h-3.28zm4.277 1.993h-5.274a.996.996 0 0 1 -.998-.997v-19.413c0-.552.446-.997.998-.997h5.274c.551 0 .997.445.997.997v19.413a.996.996 0 0 1 -.997.997zm5.063-1.993h3.28v-17.42h-3.28zm4.277 1.993h-5.274a.997.997 0 0 1 -.997-.997v-19.413c0-.552.447-.997.997-.997h5.274c.551 0 .997.445.997.997v19.413a.996.996 0 0 1 -.997.997zm4.461-1.993h3.279v-17.42h-3.279zm4.276 1.993h-5.273a.996.996 0 0 1 -.997-.997v-19.413c0-.552.446-.997.997-.997h5.273c.551 0 .997.445.997.997v19.413a.996.996 0 0 1 -.997.997zm-31.192-37.733h3.28v-17.42h-3.28zm4.277 1.994h-5.274a.996.996 0 0 1 -.997-.997v-19.414c0-.55.445-.997.997-.997h5.274c.551 0 .997.447.997.997v19.414a.996.996 0 0 1 -.997.997zm4.561-1.994h3.28v-17.42h-3.28zm4.277 1.994h-5.274a.996.996 0 0 1 -.998-.997v-19.414c0-.55.446-.997.998-.997h5.274c.551 0 .997.447.997.997v19.414a.996.996 0 0 1 -.997.997zm5.063-1.994h3.28v-17.42h-3.28zm4.277 1.994h-5.274a.997.997 0 0 1 -.997-.997v-19.414c0-.55.447-.997.997-.997h5.274c.551 0 .997.447.997.997v19.414a.996.996 0 0 1 -.997.997zm4.461-1.994h3.279v-17.42h-3.279zm4.276 1.994h-5.273a.996.996 0 0 1 -.997-.997v-19.414c0-.55.446-.997.997-.997h5.273c.551 0 .997.447.997.997v19.414a.996.996 0 0 1 -.997.997zm-26.915 141.62a.996.996 0 0 1 -.997-.997v-15.757h-3.28v15.757a.996.996 0 1 1 -1.994 0v-16.754c0-.55.445-.997.997-.997h5.274c.551 0 .997.447.997.997v16.754a.996.996 0 0 1 -.997.997m26.915 0a.996.996 0 0 1 -.997-.997v-15.757h-3.279v15.757a.996.996 0 1 1 -1.994 0v-16.754c0-.55.446-.997.997-.997h5.273c.552 0 .997.447.997.997v16.754a.996.996 0 0 1 -.997.997m-8.737 0a.996.996 0 0 1 -.997-.997v-15.757h-12.243v15.757a.997.997 0 1 1 -1.994 0v-16.754c0-.55.446-.997.997-.997h14.237c.552 0 .998.447.998.997v16.754a.996.996 0 0 1 -.998.997" fill="url(#a)"/><path d="m1110.331 358.831h-14.237a.996.996 0 1 1 0-1.994h14.237a.996.996 0 1 1 0 1.994" fill="url(#a)"/><path d="m1103.212 366.704a.996.996 0 0 1 -.997-.997v-16.754a.997.997 0 1 1 1.994 0v16.754a.996.996 0 0 1 -.997.997" fill="url(#a)"/></g></svg>