<svg height="42" viewBox="0 0 167 42" width="167" xmlns="http://www.w3.org/2000/svg"><g fill="none" fill-rule="evenodd"><path d="m66.526 32.891-5.957-.126 11.338-25.741h5.935l-2.032 4.276s2.407-3.456 4.5-4.326c1.983-.842 4.094-.076 4.715.496l-3.002 5.443s-2.479-.901-4.342.545c-1.862 1.446-3.437 2.46-5.237 6.065-1.8 3.604-5.917 13.368-5.917 13.368zm52.734-.049h6.053l13.947-32.032h-6.007zm34.886-17.843 6.182-14.189h-5.98l-13.998 32.032h6.03l5.237-12.026 1.814 12.174 5.43.072-2.407-14.112 9.805-7.754-1.418-5.069-10.695 8.873z" fill="#1d1d1b"/><path d="m0 12.687s16.648-.9 26.354-11.714l7.519 20.785s-10.475 11.205-27.323 10.71l-6.55-19.78z" fill="#e30613"/><path d="m141.84 5.483h5.88l2.012-4.574h-5.908zm-12.037 27.359h6.03l11.217-25.769h-5.98l-11.249 25.769zm-49.999 4.248s3.325-.247 5.485-2.433l1.553 4.344a7.59 7.59 0 0 1 -5.656 2.253l-1.39-4.15.008-.013zm-.9-10.534v-.153a16.758 16.758 0 0 1 1.35-6.065c2.358-5.69 8.365-12.273 12.828-13.445 4.464-1.171 7.024.225 8.289 1.613.819.901 1.165 2.785 1.165 4.474.014.784-.062 1.567-.225 2.334l-5.336.87s1.214-3.23-.594-4.177c-1.935-.996-5.09.45-8.487 5.407-3.397 4.956-4.144 9.367-2.73 10.287 1.736 1.094 5.088.594 9.628-5.989l2.133 4.722s-5.359 7.85-12.086 6.953c-4.243-.572-5.908-3.38-5.93-6.835zm-22.426-5.443a18.927 18.927 0 0 0 -5.012.523 8.247 8.247 0 0 0 -2.952 1.352c-2.731 2.135-2.25 4.447-1.413 5.096.67.545 2.606.946 4.37-.226.394-.25.753-.553 1.066-.9 1.984-2.254 3.028-3.353 3.946-5.858zm-5.012-3.604a37.819 37.819 0 0 1 7.028-.82s.225-2.735.248-3.528a1.767 1.767 0 0 0 -1.859-1.803c-.944.027-3.176.82-5.399 2.361v-5.353c2.605-1.563 6.056-2.906 9.107-1.59 2.308.996 3.276 3.082 3.474 5.515v1.888a20.791 20.791 0 0 1 -2.83 8.746c-2.38 3.852-4.667 8.222-9.751 9.84-.47.156-.951.273-1.44.347-5.872 1.122-8.828-2.758-8.95-6.168v-.541c.176-3.555 3.55-6.66 6.678-7.827 1.2-.459 2.438-.816 3.698-1.067zm57.666.928a18.927 18.927 0 0 0 5.013-.505 8.251 8.251 0 0 0 2.952-1.352c2.73-2.135 2.25-4.447 1.412-5.096-.67-.545-2.605-.946-4.369.226a5.14 5.14 0 0 0 -1.066.9c-1.984 2.254-3.028 3.358-3.946 5.858zm5.013 3.604a37.81 37.81 0 0 1 -7.024.82s-.225 2.735-.247 3.528a1.767 1.767 0 0 0 1.862 1.803c.945-.027 3.177-.82 5.4-2.361v5.353c-2.605 1.563-6.057 2.906-9.107 1.59-2.309-.996-3.276-3.082-3.474-5.515v-1.888c.28-3.09 1.25-6.079 2.835-8.745 2.38-3.853 4.666-8.223 9.75-9.841a8.71 8.71 0 0 1 1.44-.347c5.85-1.117 8.81 2.758 8.932 6.186v.523c-.176 3.555-3.55 6.66-6.678 7.827-1.2.458-2.438.816-3.698 1.067z" fill="#1d1d1b"/></g></svg>