<svg height="35" viewBox="0 0 140 35" width="140" xmlns="http://www.w3.org/2000/svg"><path d="m.334 26.866c.077-1.239.148-3.074.148-4.691v-21.92h3.258v11.393h.077c1.161-2.022 3.286-3.338 6.177-3.338 4.497 0 7.667 3.748 7.667 9.255 0 6.483-4.08 9.705-8.127 9.705-2.623 0-4.72-1.014-6.068-3.408h-.136l-.148 3.003h-2.848zm3.406-7.272c.01.404.06.806.148 1.2a5.088 5.088 0 0 0 4.929 3.836c3.445 0 5.504-2.811 5.504-6.97 0-3.634-1.873-6.746-5.394-6.746a5.258 5.258 0 0 0 -5.017 4.05 6.514 6.514 0 0 0 -.186 1.347zm27.443 7.272-.263-2.285h-.115a6.75 6.75 0 0 1 -5.542 2.696c-3.67 0-5.542-2.587-5.542-5.212 0-4.384 3.893-6.784 10.898-6.745v-.373c0-1.496-.411-4.198-4.119-4.198a9.026 9.026 0 0 0 -4.72 1.348l-.75-2.192a11.243 11.243 0 0 1 5.958-1.594c5.542 0 6.89 3.786 6.89 7.42v6.784a25.553 25.553 0 0 0 .3 4.345h-2.995zm-.488-9.261c-3.598-.077-7.667.548-7.667 4.082a2.916 2.916 0 0 0 3.111 3.146 4.513 4.513 0 0 0 4.381-3.036c.116-.337.179-.69.186-1.047l-.01-3.145zm7.552-17.35h3.297v26.605h-3.297zm7.251 23.235a8.632 8.632 0 0 0 4.343 1.31c2.399 0 3.521-1.2 3.521-2.696s-.936-2.433-3.373-3.338c-3.259-1.161-4.792-2.959-4.792-5.134 0-2.921 2.36-5.321 6.254-5.321a9.042 9.042 0 0 1 4.458 1.123l-.81 2.4a7.05 7.05 0 0 0 -3.708-1.052c-1.95 0-3.034 1.123-3.034 2.472 0 1.496 1.095 2.192 3.445 3.074 3.148 1.2 4.753 2.773 4.753 5.48 0 3.184-2.47 5.436-6.78 5.436a10.334 10.334 0 0 1 -5.082-1.233l.822-2.51m24.753 3.365-.263-2.285h-.12a6.75 6.75 0 0 1 -5.542 2.696c-3.67 0-5.543-2.587-5.543-5.212 0-4.384 3.894-6.784 10.899-6.745v-.373c0-1.496-.411-4.198-4.119-4.198a9.026 9.026 0 0 0 -4.72 1.348l-.75-2.192a11.243 11.243 0 0 1 5.941-1.594c5.542 0 6.89 3.786 6.89 7.42v6.784a25.487 25.487 0 0 0 .3 4.345h-2.973zm-.487-9.261c-3.598-.077-7.667.548-7.667 4.082a2.922 2.922 0 0 0 3.11 3.146 4.513 4.513 0 0 0 4.381-3.036 3.46 3.46 0 0 0 .187-1.047zm7.524-3.968c0-1.874-.038-3.408-.148-4.932h2.887l.147 2.921h.099a6.248 6.248 0 0 1 5.69-3.337 5.362 5.362 0 0 1 5.131 3.633h.077a7.462 7.462 0 0 1 2.037-2.351 6.18 6.18 0 0 1 4.01-1.277c2.398 0 5.952 1.573 5.952 7.87v10.702h-3.22v-10.27c0-3.485-1.276-5.584-3.932-5.584a4.267 4.267 0 0 0 -3.894 2.998 5.428 5.428 0 0 0 -.263 1.644v11.212h-3.22v-10.872c0-2.888-1.276-4.987-3.784-4.987-2.06 0-3.56 1.644-4.08 3.288a4.546 4.546 0 0 0 -.263 1.61v10.96h-3.22v-13.227m33.943-10.008a2.043 2.043 0 0 1 -4.08 0 2.012 2.012 0 0 1 2.059-2.06 1.954 1.954 0 0 1 2.02 2.06zm-3.67 5.097h3.286v18.139h-3.285v-18.139zm20.296 15.328h-.076c-.975 1.797-2.996 3.222-5.92 3.222-4.234 0-7.667-3.672-7.667-9.185 0-6.784 4.38-9.781 8.214-9.781 2.81 0 4.683 1.386 5.58 3.15h.077l.11-2.74h3.11a97.932 97.932 0 0 0 -.115 4.987v20.578h-3.285v-10.231zm.028-7.985a5.615 5.615 0 0 0 -.148-1.386 4.82 4.82 0 0 0 -4.754-3.748c-3.406 0-5.476 2.887-5.476 6.97 0 3.6 1.725 6.746 5.356 6.746a4.93 4.93 0 0 0 4.731-3.573 5.543 5.543 0 0 0 .263-1.573zm11.812-5.211a2.737 2.737 0 1 1 -4.656 2.004 2.741 2.741 0 0 1 1.918-4.695 2.699 2.699 0 0 1 2.738 2.69zm-4.835 0a2.083 2.083 0 0 0 2.097 2.148 2.059 2.059 0 0 0 2.048-2.132 2.077 2.077 0 0 0 -3.141-1.887 2.077 2.077 0 0 0 -1.004 1.887zm1.643 1.408h-.625v-2.696a5.44 5.44 0 0 1 1.035-.082c.323-.026.647.043.931.197.173.147.27.365.263.592a.685.685 0 0 1 -.548.625v.033c.274.11.464.363.493.657.028.234.094.462.198.674h-.674a2.341 2.341 0 0 1 -.214-.657c-.049-.296-.213-.428-.547-.428h-.296zm0-1.523h.295c.345 0 .625-.115.625-.395s-.181-.41-.548-.41a1.489 1.489 0 0 0 -.345.032z" fill="#cf0a2c"/></svg>