<svg height="31" viewBox="0 0 161 31" width="161" xmlns="http://www.w3.org/2000/svg"><g fill="none"><path d="m151.961 26.397a4.233 4.233 0 1 1 7.23-2.996 4.24 4.24 0 0 1 -2.995 7.233 4.236 4.236 0 0 1 -4.235-4.237" fill="#87bd27"/><path d="m16.913 15.174c0-2.683-.518-4.673-1.555-5.97-1.036-1.298-2.61-1.946-4.722-1.946h-2.25v16.4h1.719c2.348.008 4.072-.686 5.174-2.084 1.101-1.397 1.649-3.53 1.643-6.4m8.018-.28c0 4.891-1.314 8.658-3.943 11.303-2.628 2.645-6.32 3.974-11.074 3.99h-9.262v-29.321h9.896c4.589 0 8.133 1.202 10.63 3.607 2.5 2.406 3.747 5.88 3.744 10.42m25.621 15.271h7.363v-29.422h-7.363zm17.701-10.974c0 1.876.246 3.306.736 4.29a2.542 2.542 0 0 0 2.467 1.476 2.472 2.472 0 0 0 2.419-1.476c.47-.984.704-2.414.704-4.29 0-1.877-.238-3.285-.713-4.224a2.8 2.8 0 0 0 -4.873 0c-.49.945-.735 2.356-.735 4.232m13.816 0c0 3.573-.938 6.36-2.813 8.36s-4.5 3-7.876 3c-3.248 0-5.823-1.022-7.725-3.067-1.902-2.044-2.859-4.809-2.87-8.293 0-3.563.937-6.332 2.812-8.306s4.505-2.963 7.89-2.97c1.938-.038 3.852.434 5.55 1.37a9.244 9.244 0 0 1 3.716 3.927 12.922 12.922 0 0 1 1.33 5.97m2.905 10.975h7.362v-21.851h-7.362zm-.004-24.497h7.366v-4.925h-7.365zm22.277 18.921a10.719 10.719 0 0 0 3.544-.753v5.5c-.909.41-1.857.724-2.831.935-1.04.2-2.096.294-3.154.28-2.472 0-4.254-.62-5.347-1.862-1.092-1.241-1.637-3.147-1.634-5.718v-9.006h-2.565v-5.651h2.578v-5.58l7.42-1.29v6.87h4.695v5.65h-4.695v8.498c0 1.415.664 2.123 1.993 2.123m17.032.004a10.719 10.719 0 0 0 3.544-.753v5.5a14.2 14.2 0 0 1 -2.83.935c-1.04.2-2.096.294-3.154.28-2.472 0-4.254-.62-5.347-1.862-1.093-1.241-1.639-3.147-1.639-5.718v-9.006h-2.578v-5.651h2.578v-5.665l7.415-1.205v6.87h4.7v5.65h-4.682v8.498c0 1.415.664 2.123 1.993 2.123m12.851-8.058c.1-1.182.441-2.06 1.023-2.633a3.024 3.024 0 0 1 2.175-.838c.855-.038 1.681.31 2.25.949.593.706.908 1.604.886 2.526h-6.334zm10.379-6.033c-1.749-1.716-4.23-2.575-7.442-2.575-3.376 0-5.974.987-7.796 2.961-1.823 1.974-2.732 4.808-2.73 8.501 0 3.573.983 6.328 2.947 8.266 1.963 1.939 4.722 2.907 8.274 2.904 1.476.018 2.95-.1 4.403-.35a12.735 12.735 0 0 0 3.544-1.242l-1.13-4.924c-.77.322-1.566.581-2.378.776a15.778 15.778 0 0 1 -3.544.377 5.039 5.039 0 0 1 -3.358-1.042 3.786 3.786 0 0 1 -1.329-2.877h13.157v-3.35c0-3.227-.876-5.699-2.627-7.416l.009-.009zm-112.834 6.033c.1-1.182.442-2.06 1.024-2.633a3.024 3.024 0 0 1 2.175-.838c.854-.038 1.68.31 2.25.949.592.707.906 1.604.886 2.526h-6.335zm10.384-6.033c-1.752-1.716-4.234-2.575-7.447-2.575-3.378 0-5.975.987-7.791 2.961-1.817 1.974-2.726 4.808-2.73 8.501 0 3.573.984 6.328 2.951 8.266 1.967 1.939 4.716 2.907 8.248 2.904 1.484.02 2.967-.098 4.43-.35a12.757 12.757 0 0 0 3.544-1.242l-1.134-4.924c-.771.322-1.567.581-2.38.776a15.8 15.8 0 0 1 -3.565.377 5.043 5.043 0 0 1 -3.358-1.042 3.782 3.782 0 0 1 -1.329-2.877h13.156v-3.35c0-3.227-.874-5.699-2.622-7.416l.027-.009z" fill="#0e0c0c"/></g></svg>