<svg height="33" viewBox="0 0 149 33" width="149" xmlns="http://www.w3.org/2000/svg" xmlns:xlink="http://www.w3.org/1999/xlink"><linearGradient id="a" x1="10.978%" x2="110.71%" y1="53.459%" y2="53.459%"><stop offset="0" stop-color="#f4f1ee"/><stop offset="1" stop-color="#e6dfd8"/></linearGradient><linearGradient id="b" x1="-4.2%" x2="95.554%" y1="48.75%" y2="48.75%"><stop offset="0" stop-color="#2e2e2e"/><stop offset="1" stop-color="#010101"/></linearGradient><g fill="none" transform="translate(.514 .255)"><path d="m45.131 8.538h1.419v14.001h8.297v1.238h-9.717v-15.24zm11.944 0h1.31v2.153h-1.31zm0 4.225h1.31v11.014h-1.31zm6.928 0h2.19v1.129h-2.19v7.43c-.016.354.043.708.175 1.036.117.249.411.387.882.417a9.851 9.851 0 0 0 1.095-.066v1.129h-1.16a2.534 2.534 0 0 1 -1.824-.548c-.347-.366-.513-1.009-.499-1.93v-7.463h-1.867v-1.134h1.867v-3.288h1.31zm7.174 0h2.19v1.129h-2.19v7.43c-.016.354.044.708.176 1.036.116.249.41.387.881.417a9.851 9.851 0 0 0 1.096-.066v1.129h-1.161a2.534 2.534 0 0 1 -1.824-.548c-.347-.366-.513-1.009-.498-1.93v-7.463h-1.868v-1.134h1.868v-3.288h1.347zm5.12-4.225h1.31v15.24h-1.31v-15.241zm12.547 8.965a4.984 4.984 0 0 0 -.257-1.474 4.067 4.067 0 0 0 -.674-1.233 3.358 3.358 0 0 0 -1.057-.877 2.956 2.956 0 0 0 -1.413-.329 3 3 0 0 0 -1.429.33 3.358 3.358 0 0 0 -1.057.876c-.3.379-.535.805-.695 1.26-.171.473-.285.964-.34 1.463zm-6.922 1.129a6.13 6.13 0 0 0 .197 1.507c.122.5.336.974.63 1.397.29.414.663.763 1.095 1.025a3.005 3.005 0 0 0 1.6.405 3.12 3.12 0 0 0 2.24-.767 4.072 4.072 0 0 0 1.095-2.05h1.308a5.415 5.415 0 0 1 -1.522 2.905 4.461 4.461 0 0 1 -3.133 1.02 4.86 4.86 0 0 1 -2.19-.46 4.053 4.053 0 0 1 -1.506-1.261c-.4-.56-.691-1.19-.86-1.858a8.675 8.675 0 0 1 -.28-2.23c0-.72.094-1.437.28-2.132a5.805 5.805 0 0 1 .876-1.885c.39-.543.9-.989 1.49-1.304a4.516 4.516 0 0 1 2.19-.505 4.28 4.28 0 0 1 2.191.548 4.426 4.426 0 0 1 1.484 1.398c.393.605.672 1.278.822 1.984a8.96 8.96 0 0 1 .208 2.274zm11.364-10.094v15.24h2.59v-5.848h3.938a6.18 6.18 0 0 0 2.574-.46 3.982 3.982 0 0 0 1.533-1.162 4.04 4.04 0 0 0 .74-1.512 6.58 6.58 0 0 0 .196-1.524 6.706 6.706 0 0 0 -.197-1.534 4.034 4.034 0 0 0 -.734-1.534 4.07 4.07 0 0 0 -1.533-1.173 6.054 6.054 0 0 0 -2.574-.471zm2.59 7.211v-5.036h3.834c.327-.003.654.032.974.104a1.906 1.906 0 0 1 1.37 1.173c.15.395.22.816.208 1.239.013.415-.07.827-.241 1.205a2.12 2.12 0 0 1 -.625.767c-.25.19-.535.331-.838.417-.29.083-.59.125-.892.126zm11.66-7.211v15.24h2.365v-15.241h-2.366zm14.589 12.784v-5.677a2.785 2.785 0 0 0 -.373-1.485 3.03 3.03 0 0 0 -.986-.992 4.347 4.347 0 0 0 -1.38-.564 7.148 7.148 0 0 0 -1.555-.17c-.581 0-1.16.056-1.73.17a4.462 4.462 0 0 0 -1.523.597 3.49 3.49 0 0 0 -1.095 1.13 3.74 3.74 0 0 0 -.499 1.77h2.366a1.677 1.677 0 0 1 .718-1.305 2.907 2.907 0 0 1 1.643-.428c.249.002.498.02.744.055.25.031.492.104.718.214.217.106.405.264.547.46.154.226.23.495.22.767.023.29-.07.579-.258.8a1.56 1.56 0 0 1 -.706.395 5.594 5.594 0 0 1 -1.024.18c-.41.04-.818.1-1.222.182-.498.057-.994.14-1.484.246-.47.106-.918.292-1.325.548a2.74 2.74 0 0 0 -.975.965 3.356 3.356 0 0 0 -.361 1.644c-.011.49.092.976.3 1.42.19.391.468.734.811 1.002.351.27.748.472 1.172.597.451.137.92.205 1.391.203a6.645 6.645 0 0 0 1.983-.318 4.156 4.156 0 0 0 1.73-1.025c.05.422.277.803.625 1.047.365.213.782.317 1.204.301h.351c.14-.014.279-.036.416-.065l.405-.099.324-.099v-1.676a1.51 1.51 0 0 1 -.335.043h-.246a.476.476 0 0 1 -.444-.191c-.09-.201-.13-.422-.115-.642zm-2.366-3.074v1.814c.011.343-.082.682-.269.97-.17.26-.392.481-.651.652-.264.168-.555.29-.86.362a3.75 3.75 0 0 1 -.849.104 4.258 4.258 0 0 1 -.695-.066 2.49 2.49 0 0 1 -.707-.224 1.643 1.643 0 0 1 -.548-.439 1.042 1.042 0 0 1 -.23-.685 1.87 1.87 0 0 1 .154-.8c.094-.216.24-.404.427-.548.19-.139.4-.246.624-.318.238-.078.482-.139.729-.18a18.002 18.002 0 0 1 1.577-.225 2.814 2.814 0 0 0 1.325-.439zm5.608-5.48v11.01h2.365v-6.51a3.4 3.4 0 0 1 .187-1.13c.115-.337.292-.651.52-.926.22-.264.494-.478.805-.624a2.507 2.507 0 0 1 1.095-.225c.58-.05 1.152.166 1.556.586a3.06 3.06 0 0 1 .547 1.89v6.938h2.366v-7.577a3.651 3.651 0 0 0 -1.019-2.817 3.936 3.936 0 0 0 -2.776-.937c-.681 0-1.348.19-1.928.548a4.021 4.021 0 0 0 -1.413 1.441l-.044-.044v-1.644l-2.261.022zm19.956 4.543h-5.493c.011-.395.093-.784.24-1.15.138-.342.334-.655.581-.927.244-.265.541-.475.871-.619a2.77 2.77 0 0 1 1.128-.225c.38-.006.755.079 1.096.247.314.148.597.357.832.614.237.273.423.586.548.926.13.352.212.721.24 1.096zm-5.515 1.6h7.88a6.492 6.492 0 0 0 -.153-2.4 5.904 5.904 0 0 0 -.964-2.06 5.023 5.023 0 0 0 -1.643-1.442 4.696 4.696 0 0 0 -2.272-.548 4.817 4.817 0 0 0 -2.158.472c-.63.303-1.19.736-1.643 1.271a5.75 5.75 0 0 0 -1.035 1.858 6.816 6.816 0 0 0 -.361 2.23 7.677 7.677 0 0 0 .34 2.345c.21.675.559 1.298 1.023 1.83a4.633 4.633 0 0 0 1.643 1.195 5.54 5.54 0 0 0 2.24.428c.557 0 1.11-.084 1.643-.247a4.692 4.692 0 0 0 1.44-.723 4.547 4.547 0 0 0 1.096-1.184 4.665 4.665 0 0 0 .64-1.6h-2.24a2.74 2.74 0 0 1 -.941 1.376 2.78 2.78 0 0 1 -1.643.46 2.874 2.874 0 0 1 -1.287-.269 2.563 2.563 0 0 1 -.893-.712 3.08 3.08 0 0 1 -.548-1.047 4.354 4.354 0 0 1 -.175-1.238z" fill="#010101"/><path d="m15.23.986a4.926 4.926 0 0 1 2.136 0l5.634 1.518c.688.217 1.32.582 1.851 1.069l4.173 4.148a4.933 4.933 0 0 1 1.068 1.852l1.517 5.667a4.935 4.935 0 0 1 0 2.137l-1.522 5.639a4.933 4.933 0 0 1 -1.063 1.874l-4.151 4.154a4.928 4.928 0 0 1 -1.873 1.063l-5.635 1.518a4.926 4.926 0 0 1 -2.136 0l-5.663-1.518a4.928 4.928 0 0 1 -1.85-1.063l-4.146-4.154a4.933 4.933 0 0 1 -1.068-1.874l-1.517-5.64a4.935 4.935 0 0 1 0-2.136l1.517-5.667c.216-.688.58-1.32 1.068-1.852l4.145-4.148a4.928 4.928 0 0 1 1.851-1.069z" fill="url(#a)"/><path d="m16.594 1.59 6.801 1.824c.19.065.364.165.515.296l4.978 4.981c.13.151.231.326.296.515l1.824 6.8c.038.198.038.401 0 .598l-1.824 6.806c-.065.19-.165.364-.296.515l-4.978 4.982c-.15.13-.326.231-.515.296l-6.801 1.824c-.198.039-.4.039-.597 0l-6.797-1.824a1.555 1.555 0 0 1 -.514-.296l-4.978-4.982a1.557 1.557 0 0 1 -.296-.515l-1.824-6.806a1.557 1.557 0 0 1 0-.597l1.824-6.8c.064-.19.165-.365.296-.516l4.978-4.981c.15-.13.325-.231.514-.296l6.797-1.825c.197-.038.4-.038.597 0zm-7.799.317c-.454.136-.87.376-1.216.701l-4.972 4.976a3.047 3.047 0 0 0 -.701 1.217l-1.824 6.806a3.049 3.049 0 0 0 0 1.38l1.824 6.823c.136.455.376.872.7 1.217l4.979 4.981c.346.317.76.55 1.21.68l6.796 1.825c.461.109.941.109 1.402 0l6.802-1.825c.454-.136.87-.376 1.216-.702l4.978-4.981c.314-.341.547-.75.68-1.195l1.845-6.822a3.049 3.049 0 0 0 0-1.403l-1.846-6.784a3.047 3.047 0 0 0 -.7-1.217l-4.958-4.976a3.044 3.044 0 0 0 -1.216-.701l-6.817-1.825a3.043 3.043 0 0 0 -1.402 0z" fill="url(#b)"/><g fill="#010101"><ellipse cx="16.298" cy="16.308" rx="2.081" ry="2.082"/><path d="m16.55 11.727 4.469 4.472c.098.1.098.261 0 .361l-4.47 4.472a.257.257 0 0 1 -.36 0l-4.47-4.472a.258.258 0 0 1 0-.361l4.47-4.472a.257.257 0 0 1 .36 0zm-5.197 4.105a.773.773 0 0 0 0 1.096l4.468 4.471a.772.772 0 0 0 1.096 0l4.468-4.471a.773.773 0 0 0 0-1.096l-4.463-4.472a.772.772 0 0 0 -1.095 0z"/><path d="m16.621 8.993 5.832 3.375a.745.745 0 0 1 .324.548v6.768a.745.745 0 0 1 -.324.548l-5.832 3.392a.744.744 0 0 1 -.646 0l-5.85-3.381a.745.745 0 0 1 -.322-.548v-6.768a.745.745 0 0 1 .323-.548l5.843-3.375a.744.744 0 0 1 .652-.011zm-6.763 2.926a1.26 1.26 0 0 0 -.548 1.008v6.757c.008.407.212.784.548 1.014l5.843 3.375c.365.191.801.191 1.166 0l5.86-3.375c.35-.221.57-.6.586-1.014v-6.757a1.26 1.26 0 0 0 -.586-1.014l-5.849-3.37a1.259 1.259 0 0 0 -1.166 0l-5.854 3.377z"/><path d="m16.681 6.346 6.386 2.647c.239.116.431.309.547.548l2.646 6.39c.085.248.085.518 0 .766l-2.651 6.385a1.183 1.183 0 0 1 -.548.548l-6.38 2.64a1.182 1.182 0 0 1 -.766 0l-6.386-2.646a1.183 1.183 0 0 1 -.548-.548l-2.64-6.384a1.184 1.184 0 0 1 0-.767l2.646-6.39c.116-.239.309-.432.547-.548l6.386-2.647c.247-.082.515-.08.761.006zm-7.371 2.164c-.362.169-.653.46-.822.822l-2.628 6.395a1.694 1.694 0 0 0 0 1.162l2.645 6.39c.162.364.447.658.805.833l6.407 2.641c.375.137.786.137 1.161 0l6.386-2.641c.362-.169.653-.46.821-.822l2.645-6.39a1.694 1.694 0 0 0 0-1.162l-2.634-6.422a1.693 1.693 0 0 0 -.821-.822l-6.397-2.63a1.691 1.691 0 0 0 -1.16 0z"/><path d="m9.31 6.121c-.212.082-.4.216-.548.39l-4.102 5.664a1.365 1.365 0 0 0 -.202.625v7.009c.016.222.085.436.202.625l4.102 5.671c.148.174.336.308.548.39l6.66 2.192c.215.053.44.053.656 0l6.66-2.192c.212-.082.4-.216.547-.39l4.097-5.671c.117-.189.187-.403.202-.625v-7.009a1.365 1.365 0 0 0 -.202-.625l-4.113-5.665a1.364 1.364 0 0 0 -.548-.389l-6.659-2.191a1.363 1.363 0 0 0 -.657 0zm7.475-2.658 6.66 2.192c.311.117.585.316.794.576l4.118 5.671c.182.278.286.6.301.932v6.976c-.015.332-.12.654-.301.932l-4.118 5.671c-.209.26-.483.459-.794.576l-6.66 2.192c-.32.088-.66.088-.98 0l-6.66-2.192a1.857 1.857 0 0 1 -.793-.576l-4.113-5.671a1.859 1.859 0 0 1 -.301-.932v-7.009c.015-.332.119-.653.3-.931l4.119-5.672c.208-.26.483-.458.794-.576l6.66-2.192c.322-.076.658-.064.974.033z"/></g></g></svg>