<svg height="43" viewBox="0 0 117 43" width="117" xmlns="http://www.w3.org/2000/svg"><g fill="none"><path d="m9.942 42.629v-13.732l-9.146-24.6h4.6l6.742 18.972 7.768-22.939h4.227l-9.964 28.728v13.57z" fill="#e41f13"/><path d="m37.07 42.629h-3.533a12.769 12.769 0 0 1 -.373-2.142h-.267a5.978 5.978 0 0 1 -5.03 2.52c-3.854 0-6.476-2.894-6.476-8.201 0-5.788 2.942-9.435 10.484-9.435h.587v-1.616c0-3.54-1.178-5.04-3.53-5.04-2.141 0-3.959 1.126-5.332 2.36l-.805-3.7a10.725 10.725 0 0 1 6.422-2.142c4.76 0 7.382 2.035 7.382 8.575v12.703a38.944 38.944 0 0 0 .471 6.118zm-4.604-14.106h-.48c-5.19 0-6.31 2.307-6.31 5.789 0 3.116 1.017 5.147 3.155 5.147a4.598 4.598 0 0 0 3.64-2.146zm13.484 14.107h-4.173v-27.077h4.173v2.36h.267a7.08 7.08 0 0 1 5.298-2.671c3.533 0 5.404 1.981 5.404 6.108v21.28h-4.227v-20.928c0-2.035-.889-2.734-2.515-2.734-1.778 0-3.262 1.336-4.227 2.672v20.989zm15.09-12.468c0-10.023 3.746-14.902 9.146-14.902a6.165 6.165 0 0 1 3.422 1.02v-11.983h4.174v38.33h-3.112l-.32-2.14h-.267c-1.178 1.5-2.667 2.52-4.889 2.52-5.289-.014-8.155-4.516-8.155-12.877v.03zm12.573-10.183a4.067 4.067 0 0 0 -3.156-1.287c-3.368 0-4.977 5.094-4.977 10.615 0 6.323 1.177 10.183 4.226 10.183a4.331 4.331 0 0 0 3.907-2.093v-17.417zm17.333 23.046c-5.565 0-8.987-4.452-8.987-12.756 0-8.683 2.41-15.01 8.133-15.01 4.494 0 7.436 3.375 7.436 12.543v2.306h-11.236c0 6.11 1.71 9.328 5.03 9.328a8.776 8.776 0 0 0 5.138-1.82l.965 3.214a10.139 10.139 0 0 1 -6.48 2.164v.031zm-4.6-16.376h6.893c0-4.608-.751-7.988-3.155-7.988-2.56 0-3.471 3.161-3.738 7.988zm29.333-11.042-5.045 12.65 5.618 14.372h-4.347l-4.173-11.131-4.066 11.13h-4.12l5.617-13.989-5.07-13.032h4.332l3.476 9.795 3.693-9.795z" fill="#1d1d1b"/></g></svg>