<svg viewBox="0 0 563.19 222.14" xmlns="http://www.w3.org/2000/svg"><g fill="#2196f3"><g transform="translate(-2.04 -2.86)"><path d="m25.81 193.86h-7.06v30.67h-12.86v-30.67h-3.89v-9.86h3.89v-3.69a11.79 11.79 0 0 1 3.68-9.06 13.35 13.35 0 0 1 9.43-3.44h6.82v10.83h-4.48a2.29 2.29 0 0 0 -2.59 2.58v2.78h7.06z"/><path d="m65 185.78-9.73 9.88a6.54 6.54 0 0 0 -4.63-2.2 4.66 4.66 0 0 0 -3.8 1.65 6.27 6.27 0 0 0 -1.38 4.16v25.26h-12.82v-42.21h12.55v3.46a13.5 13.5 0 0 1 10-3.93 13.4 13.4 0 0 1 9.81 3.93z"/><path d="m104.81 203.43a40.7 40.7 0 0 1 -.7 8.63 16.33 16.33 0 0 1 -3.92 7.53q-5 5.41-13.58 5.41t-13.61-5.41a16.33 16.33 0 0 1 -3.92-7.53 52.8 52.8 0 0 1 0-17.26 16.33 16.33 0 0 1 3.92-7.53q5-5.42 13.57-5.42t13.58 5.42a16.33 16.33 0 0 1 3.92 7.53 40.64 40.64 0 0 1 .74 8.63zm-12.86 0a25.66 25.66 0 0 0 -.55-6.52 5 5 0 0 0 -9.57 0 25.19 25.19 0 0 0 -.55 6.52 25 25 0 0 0 .55 6.51 5 5 0 0 0 9.57 0 25.51 25.51 0 0 0 .6-6.51z"/><path d="m149.14 224.53h-12.87v-25.26a6.32 6.32 0 0 0 -1.37-4.16 5.21 5.21 0 0 0 -7.61 0 6.26 6.26 0 0 0 -1.37 4.16v25.26h-12.87v-42.21h12.55v3.46a13.31 13.31 0 0 1 9.81-3.93q6.75 0 10.43 4.55 3.3 4.24 3.3 11.14z"/><path d="m179 224.53h-6.43a13.35 13.35 0 0 1 -9.42-3.41 11.79 11.79 0 0 1 -3.68-9.06v-18.2h-3.85v-9.86h3.85v-12.11h12.86v12.11h6.67v9.89h-6.67v17.26a2.29 2.29 0 0 0 2.59 2.58h4.08z"/><path d="m223 207.58h-25.3a5.87 5.87 0 0 0 2.2 4.79 8 8 0 0 0 5.25 1.81 11.8 11.8 0 0 0 8.71-3.54l7.69 7.69a22.28 22.28 0 0 1 -16.4 6.67q-20.09 0-20.08-21.57 0-9.42 4.63-15.22 5-6.36 14.28-6.36 8.78 0 13.88 5.57t5.1 14.44zm-12.75-8.58a6.73 6.73 0 0 0 -1.68-4.78 6 6 0 0 0 -4.59-1.81q-4.08 0-5.57 3.3a8 8 0 0 0 -.71 3.29z"/><path d="m266.9 224.53h-12.9v-25.26a6.32 6.32 0 0 0 -1.37-4.16 5.21 5.21 0 0 0 -7.61 0 6.27 6.27 0 0 0 -1.38 4.16v25.26h-12.83v-42.21h12.55v3.46a13.3 13.3 0 0 1 9.81-3.93q6.75 0 10.43 4.55 3.3 4.24 3.3 11.14z"/><path d="m311.14 224.53h-12.47v-3.45a13.24 13.24 0 0 1 -9.73 3.92q-12.07 0-13.81-11.92a78.76 78.76 0 0 1 -.39-9.65 78.65 78.65 0 0 1 .39-9.65q1.72-11.92 13.73-11.93a12.77 12.77 0 0 1 9.42 3.53v-16.71h12.86zm-12.86-21.1a25.07 25.07 0 0 0 -.55-6.52 5 5 0 0 0 -9.57 0 24.62 24.62 0 0 0 -.55 6.52 24.53 24.53 0 0 0 .55 6.51 5 5 0 0 0 9.57 0 25 25 0 0 0 .55-6.51z"/><path d="m321.68 170.76h7.37v7.59h-7.37zm0 15.33h7.37v37.91h-7.37z"/><path d="m340.46 212.41a15.13 15.13 0 0 0 11.63 4.86 9.62 9.62 0 0 0 5.21-1.27 4 4 0 0 0 2-3.58 3.16 3.16 0 0 0 -1.2-2.84 6.14 6.14 0 0 0 -3.3-.92l-6.52-.58a12.24 12.24 0 0 1 -7.54-3.21 9.9 9.9 0 0 1 -3.05-7.56q.07-5.85 4-8.76a15.5 15.5 0 0 1 9.7-2.92 28.6 28.6 0 0 1 4.56.32 22.85 22.85 0 0 1 3.79 1 21.21 21.21 0 0 1 6.08 3.83l-4.57 5.5a23.1 23.1 0 0 0 -4.5-2.61 14.5 14.5 0 0 0 -5.39-.92c-2.31 0-3.93.42-4.85 1.28a4.17 4.17 0 0 0 -1.45 3.29 2.59 2.59 0 0 0 1.1 2.23 6.31 6.31 0 0 0 3.75 1.35l6.09.47c3.83.3 6.59 1.49 8.3 3.59a12.34 12.34 0 0 1 2.37 7.78 10 10 0 0 1 -4.35 8.52 18.49 18.49 0 0 1 -10.86 3.14q-9 0-16.16-6.79z"/><path d="m375.71 174.55h7.37v11.54h5.38v5.84h-5.38v22.07c-.05 1.92.82 2.86 2.62 2.81h2.76v7.19h-3.85a8.57 8.57 0 0 1 -6.36-2.48q-2.53-2.37-2.54-6.85v-22.74h-3.71v-5.84h3.7z"/><path d="m415.32 220.63h-.14a6.17 6.17 0 0 1 -3.18 2.84 14.74 14.74 0 0 1 -5.87.95q-6.15-.07-9.47-3.36a10.66 10.66 0 0 1 -3.5-8.21 10.94 10.94 0 0 1 3-7.92q3-3.21 8.91-3.29h10.21v-4q.07-5-7.53-4.88a13 13 0 0 0 -4.35.58 5.36 5.36 0 0 0 -2.61 2.35l-5.8-4.57q4.2-5.65 12.4-5.51 6.92-.08 11.06 2.7c2.75 1.89 4.15 5.16 4.2 9.78v25.91h-7.37zm0-12.71h-8.85c-4.3.09-6.43 1.62-6.38 4.56a4.11 4.11 0 0 0 1.67 3.29q1.59 1.5 5.27 1.5c3.1 0 5.28-.33 6.56-1.13s1.73-2.63 1.73-5.48z"/><path d="m433.43 186.09h7.37v4h.14a11.65 11.65 0 0 1 9.54-4.49 12.32 12.32 0 0 1 8.33 3.32q3.75 3.36 3.93 9.85v25.23h-7.37v-22.61a8.3 8.3 0 0 0 -2.05-6.06 6.85 6.85 0 0 0 -5.2-2.13 7 7 0 0 0 -5.24 2.13c-1.39 1.38-2.08 3.41-2.08 6.06v22.61h-7.37z"/><path d="m473.58 170.76h7.42v19.35a18.56 18.56 0 0 1 4.42-3.29 10.47 10.47 0 0 1 5.05-1.2q6.75.18 9.86 5a10 10 0 0 1 2.08 4.71 60.26 60.26 0 0 1 .53 9.71 61.31 61.31 0 0 1 -.53 9.64 10.27 10.27 0 0 1 -2.08 4.85 11.24 11.24 0 0 1 -4 3.51 12.54 12.54 0 0 1 -15.33-3.04v4h-7.37zm14.62 22.44a6.47 6.47 0 0 0 -3.92 1.07 6.14 6.14 0 0 0 -2.23 2.78 14.22 14.22 0 0 0 -.89 3.74 40.49 40.49 0 0 0 -.16 4.21 41 41 0 0 0 .21 4.1 14.39 14.39 0 0 0 .89 3.85 6.14 6.14 0 0 0 2.23 2.78 6.34 6.34 0 0 0 3.92 1.1 7.33 7.33 0 0 0 4.14-1 5.9 5.9 0 0 0 2.16-2.72 14.33 14.33 0 0 0 .95-3.88c.05-1.36.07-2.77.07-4.21s0-3-.07-4.43a14.25 14.25 0 0 0 -.95-3.74 5.42 5.42 0 0 0 -2.16-2.71 8 8 0 0 0 -4.19-.94z"/><path d="m512.39 186.09h7.37v22.59a8.24 8.24 0 0 0 2.08 6 6.92 6.92 0 0 0 5.24 2.16 6.8 6.8 0 0 0 5.2-2.16 8.31 8.31 0 0 0 2.05-6v-22.59h7.37v37.91h-7.37v-4h-.14a11.68 11.68 0 0 1 -9.51 4.49 12.25 12.25 0 0 1 -8.23-3.42q-4-3.28-4.06-9.7z"/><path d="m552.55 170.76h7.36v43.48c0 1.73.92 2.59 2.77 2.59h2.55v7.17h-3.29a10.37 10.37 0 0 1 -6.64-2.07c-1.84-1.41-2.75-3.77-2.75-7.09z"/><path d="m335.48 186.34h-1.29v-112.78h-39.69v83.38h-1.3v-84a.65.65 0 0 1 .65-.65h41a.65.65 0 0 1 .65.65z"/></g><path d="m291.16 58.28h42.2v1.29h-42.2z"/><path d="m330.16 62.43h-32l4.61-13.57v-5.86h2l9.32-27.43 9.4 27.43h2.05v6zm-30.16-1.29h28.39l-4.14-11.94v-4.9h-1.68l-8.49-24.73-8.4 24.73h-1.63v4.77z" transform="translate(-2.04 -2.86)"/><path d="m289.27 85.57h46.23v1.29h-46.23z"/><path d="m289.27 66.6h46.23v1.29h-46.23z"/><path d="m314.9 102.3v4.89h-2.75v-4.89a1.38 1.38 0 0 1 2.75 0z" transform="translate(-2.04 -2.86)"/><path d="m329.78 102.3v4.89h-2.78v-4.89a1.38 1.38 0 0 1 2.75 0z" transform="translate(-2.04 -2.86)"/><path d="m301 102.3v4.89h-2.74v-4.89a1.37 1.37 0 0 1 2.74 0z" transform="translate(-2.04 -2.86)"/><path d="m299.55 79.22v4.89h-2.75v-4.89a1.38 1.38 0 1 1 2.75 0z" transform="translate(-2.04 -2.86)"/><path d="m307.6 79.22v4.89h-2.75v-4.89a1.38 1.38 0 1 1 2.75 0z" transform="translate(-2.04 -2.86)"/><path d="m315.64 79.22v4.89h-2.75v-4.89a1.38 1.38 0 1 1 2.75 0z" transform="translate(-2.04 -2.86)"/><path d="m323.68 79.22v4.89h-2.74v-4.89a1.37 1.37 0 1 1 2.74 0z" transform="translate(-2.04 -2.86)"/><path d="m331.16 79.22v4.89h-2.75v-4.89a1.38 1.38 0 1 1 2.75 0z" transform="translate(-2.04 -2.86)"/><path d="m301.8 65.22v4.89h-2.75v-4.89a1.38 1.38 0 1 1 2.75 0z" transform="translate(-2.04 -2.86)"/><path d="m310.86 65.22v4.89h-2.75v-4.89a1.38 1.38 0 1 1 2.75 0z" transform="translate(-2.04 -2.86)"/><path d="m319.93 65.22v4.89h-2.75v-4.89a1.38 1.38 0 1 1 2.75 0z" transform="translate(-2.04 -2.86)"/><path d="m329 65.22v4.89h-2.75v-4.89a1.38 1.38 0 1 1 2.75 0z" transform="translate(-2.04 -2.86)"/><path d="m293.25 58.92h1.29v8.33h-1.29z"/><path d="m329.64 58.92h1.29v8.33h-1.29z"/><path d="m291.16 89.88h41.95v1.29h-41.95z"/><path d="m311.39 0h1.29v8.81h-1.29z"/><path d="m314.08 15.62a2.2 2.2 0 1 1 2.2-2.2 2.21 2.21 0 0 1 -2.2 2.2zm0-3.49a1.29 1.29 0 1 0 1.28 1.29 1.29 1.29 0 0 0 -1.28-1.29z" transform="translate(-2.04 -2.86)"/><path d="m50.83 157.51h-1.29v-49.51h1.62v-1.64h12.28v1.64h1.62v13.72h3.1v-31h15.52v27.63h2.62v-37.87h1.62v-1.62h12.28v1.62h1.62v33.77h2.89v-13.02h1.62v-2.93h12.28v2.93h1.62v9.93h2.42v-4.76h1.62v-1.65h14.37v2.62h2.36v16.21h-1.29v-14.91h-2.36v-2.62h-11.79v1.64h-1.62v4.77h-5v-9.93h-1.62v-2.94h-9.7v2.94h-1.62v13.01h-5.47v-33.77h-1.62v-1.62h-9.7v1.62h-1.62v37.88h-5.2v-27.63h-12.94v31h-5.68v-13.72h-1.62v-1.64h-9.7v1.64h-1.62z"/><path d="m504.11 156.43h-1.3v-43.13h-1.61v-1.64h-9.7v1.64h-1.62v13.72h-10.13v-46.2h-3.65l-12.93-11.17v65.17h-5.81v-25.89h-3.13v-5.22h-10.18v5.74h-2.74v29.21h-7.11v-13.04h-14.1v17.88h-1.29v-19.17h16.68v13.04h4.53v-29.21h2.74v-5.74h12.76v5.22h3.13v25.89h3.23v-66.71l14.7 12.71h4.46v46.19h7.55v-13.72h1.61v-1.64h12.29v1.64h1.62z"/><path d="m276.22 143.72h-1.29v-13.95h-12.54v10.37h-4.76v-32.86h-2.5v-5.57h-10.8v5.57h-1.93v24.98h-9.74v-9.11h-15.31v-1.29h16.6v9.11h7.16v-24.98h1.92v-5.57h13.39v5.57h2.51v32.86h2.16v-10.38h15.13z"/><path d="m286.41 137.21h-10.83v-1.3h9.53v-9.36h6.7v1.3h-5.4z"/><path d="m364.02 144.4h-8.85v-9.65h-2.45v-5.21h-9.82v5.21h-3.92v9.65h-6.19v-1.29h4.9v-9.65h3.91v-5.22h12.42v5.22h2.44v9.65h6.27v-19.56h20.86v15.39h2.09v-28.43h5.22v-7.31h15.72v7.05h3.57v25.66h9.26v1.3h-10.55v-25.67h-3.58v-7.04h-13.13v7.3h-5.21v28.43h-4.69v-15.39h-18.27z"/><path d="m238.72 124.28c-.31-.72-1.39-3.3-2.6-6.07-1.35-3.08-2.82-7.83-3-8.33v-.69h-.7v.38q-.21.33-.45.66h-2.37l-.1-.31v-.73h-.7v.59a31.57 31.57 0 0 1 -6.86 6.76 23.64 23.64 0 0 1 -14.66 4.55c-4.93-1.08-10.78-4-17.66-8.65a120.9 120.9 0 0 1 -16.17-13.17c-2.51-2.41-4.38-4.39-5.42-5.53v-1.66h-1.48v1.45h-5.15v-1.45h-1.48v2.15c-.27.9-1 3.17-2.1 6.08-3 8-6.73 15.2-12.56 21.07-1.09 1.1-2 1.88-2.52 2.33l-1.63.23a12.81 12.81 0 0 1 .41 1.62c.08.4.55 2-.07.31a8.37 8.37 0 0 1 .3.93c5.5-.87 11.6-1.83 18.17-2.66v13.76h1.48v-10.18h5.18v10.18h1.48v-14.69a230.89 230.89 0 0 1 26.94-1.21c12.05.22 23.49.83 33.79 1.81v14.1h.7v-11.78h2.92v11.77h.7v-13.65c3.62.39 7.09.84 10.36 1.33v-.58c-1.47-.27-3.11-.5-4.75-.72zm-78.8-2.28c-3.06.22-6 .48-8.87.77a42.59 42.59 0 0 0 6.83-8.46c.72-1.18 1.4-2.4 2-3.62zm0-12.14a46.53 46.53 0 0 1 -8.61 12.08c-.33.33-.65.63-.94.9-2.38.25-4.68.51-6.88.8a44.34 44.34 0 0 0 8.4-10 79.87 79.87 0 0 0 6.28-13.11c.79-2 1.37-3.79 1.75-5zm5.94-14.76c-.14.44-.36 1.13-.65 2-.83-.75-1.56-1.42-2.18-2zm-4.46 0h1c.72.67 1.6 1.49 2.63 2.43-.33 1-.75 2.17-1.26 3.49-.75 2-1.54 3.9-2.4 5.78zm5.18 30.22h-5.18v-1.32l5.18-.59zm0-3.75c-1.75.1-3.48.2-5.18.32v-11.42h5.18zm0-13.5h-5.18v-.36c1.09-2.32 2-4.56 2.76-6.52.48-1.26.89-2.41 1.22-3.38l1.2 1.09zm0-9.72-1.06-1c.36-1 .6-1.84.74-2.29h.32zm28.42 22.65c-9.44-.16-18.52 0-27 .43v-21.25c3.35 2.95 7.61 6.56 12.47 10.33 8.56 6.65 15.86 9.89 22.83 10.76q-4.05-.17-8.3-.27zm9.82 0c-7.33-.57-15-3.74-24.11-10.83-5-3.86-9.31-7.54-12.69-10.53v-5.3c1.09 1.18 2.85 3 5.17 5.26a122.58 122.58 0 0 0 16.22 13.21c6 4 11.31 6.84 15.89 8.21zm24 2.11c-4.77-.51-9.78-.94-15-1.28a26.55 26.55 0 0 0 15-7.32zm0-9.17a26 26 0 0 1 -3.05 2.62 24.22 24.22 0 0 1 -13.54 5 16.71 16.71 0 0 1 -2.72-.07 23.66 23.66 0 0 0 12.66-4.56 31.63 31.63 0 0 0 5.39-4.92c.53-.6 1-1.13 1.26-1.54zm2.62-3c-.35.46-.73.92-1.12 1.37-.18-.51-.33-1-.46-1.37zm-1.92.21c.14.43.31.94.5 1.49-.16.19-.33.37-.5.55zm0 2.62.65-.7c.43 1.23.94 2.62 1.43 3.8h-2.08zm2.92 11h-2.92v-.94c1 .1 2 .19 2.92.3zm0-1.31-2.92-.33v-5h2.62l.3.69zm0-6.6h-.44c-.53-1.26-1.09-2.81-1.55-4.14l.47-.55c.39-.46.72-.88 1-1.24h.51zm.7 6.68v-3.11c.57 1.36 1.07 2.6 1.34 3.27zm1.79.21c-.28-.68-1-2.48-1.79-4.32v-8.29c.55 1.72 1.62 4.93 2.62 7.22 1.1 2.51 2.1 4.87 2.5 5.82z" transform="translate(-2.04 -2.86)"/></g></svg>