<svg id="Layer_1" data-name="Layer 1" xmlns="http://www.w3.org/2000/svg" viewBox="0 0 563.19 222.14"><defs><style>.cls-1{fill:#2196f3;}</style></defs><title>fristlogo</title><path class="cls-1" d="M25.81,193.86H18.75v30.67H5.89V193.86H2V184H5.89v-3.69a11.79,11.79,0,0,1,3.68-9.06A13.35,13.35,0,0,1,19,167.81h6.82v10.83H21.34a2.29,2.29,0,0,0-2.59,2.58V184h7.06Z" transform="translate(-2.04 -2.86)"/><path class="cls-1" d="M65,185.78l-9.73,9.88a6.54,6.54,0,0,0-4.63-2.2,4.66,4.66,0,0,0-3.8,1.65,6.27,6.27,0,0,0-1.38,4.16v25.26H32.64V182.32H45.19v3.46a13.5,13.5,0,0,1,10-3.93A13.4,13.4,0,0,1,65,185.78Z" transform="translate(-2.04 -2.86)"/><path class="cls-1" d="M104.81,203.43a40.7,40.7,0,0,1-.7,8.63,16.33,16.33,0,0,1-3.92,7.53q-5,5.41-13.58,5.41T73,219.59a16.33,16.33,0,0,1-3.92-7.53,52.8,52.8,0,0,1,0-17.26A16.33,16.33,0,0,1,73,187.27q5-5.42,13.57-5.42t13.58,5.42a16.33,16.33,0,0,1,3.92,7.53A40.64,40.64,0,0,1,104.81,203.43Zm-12.86,0a25.66,25.66,0,0,0-.55-6.52,5,5,0,0,0-9.57,0,25.19,25.19,0,0,0-.55,6.52,25,25,0,0,0,.55,6.51,5,5,0,0,0,9.57,0A25.51,25.51,0,0,0,92,203.43Z" transform="translate(-2.04 -2.86)"/><path class="cls-1" d="M149.14,224.53H136.27V199.27a6.32,6.32,0,0,0-1.37-4.16,5.21,5.21,0,0,0-7.61,0,6.26,6.26,0,0,0-1.37,4.16v25.26H113.05V182.32H125.6v3.46a13.31,13.31,0,0,1,9.81-3.93q6.75,0,10.43,4.55,3.3,4.24,3.3,11.14Z" transform="translate(-2.04 -2.86)"/><path class="cls-1" d="M179,224.53h-6.43a13.35,13.35,0,0,1-9.42-3.41,11.79,11.79,0,0,1-3.68-9.06v-18.2h-3.85V184h3.85V171.89h12.86V184H179v9.89h-6.67v17.26a2.29,2.29,0,0,0,2.59,2.58H179Z" transform="translate(-2.04 -2.86)"/><path class="cls-1" d="M223,207.58H197.7a5.87,5.87,0,0,0,2.2,4.79,8,8,0,0,0,5.25,1.81,11.8,11.8,0,0,0,8.71-3.54l7.69,7.69a22.28,22.28,0,0,1-16.4,6.67q-20.09,0-20.08-21.57,0-9.42,4.63-15.22,5-6.36,14.28-6.36,8.78,0,13.88,5.57t5.1,14.44ZM210.25,199a6.73,6.73,0,0,0-1.68-4.78,6,6,0,0,0-4.59-1.81q-4.08,0-5.57,3.3a8,8,0,0,0-.71,3.29Z" transform="translate(-2.04 -2.86)"/><path class="cls-1" d="M266.9,224.53H254V199.27a6.32,6.32,0,0,0-1.37-4.16,5.21,5.21,0,0,0-7.61,0,6.27,6.27,0,0,0-1.38,4.16v25.26H230.81V182.32h12.55v3.46a13.3,13.3,0,0,1,9.81-3.93q6.75,0,10.43,4.55,3.3,4.24,3.3,11.14Z" transform="translate(-2.04 -2.86)"/><path class="cls-1" d="M311.14,224.53H298.67v-3.45a13.24,13.24,0,0,1-9.73,3.92q-12.07,0-13.81-11.92a78.76,78.76,0,0,1-.39-9.65,78.65,78.65,0,0,1,.39-9.65q1.72-11.92,13.73-11.93a12.77,12.77,0,0,1,9.42,3.53V168.67h12.86Zm-12.86-21.1a25.07,25.07,0,0,0-.55-6.52,5,5,0,0,0-9.57,0,24.62,24.62,0,0,0-.55,6.52,24.53,24.53,0,0,0,.55,6.51,5,5,0,0,0,9.57,0A25,25,0,0,0,298.28,203.43Z" transform="translate(-2.04 -2.86)"/><path class="cls-1" d="M321.68,170.76h7.37v7.59h-7.37Zm0,15.33h7.37V224h-7.37Z" transform="translate(-2.04 -2.86)"/><path class="cls-1" d="M340.46,212.41a15.13,15.13,0,0,0,11.63,4.86A9.62,9.62,0,0,0,357.3,216a4,4,0,0,0,2-3.58,3.16,3.16,0,0,0-1.2-2.84,6.14,6.14,0,0,0-3.3-.92l-6.52-.58a12.24,12.24,0,0,1-7.54-3.21,9.9,9.9,0,0,1-3.05-7.56q.07-5.85,4-8.76a15.5,15.5,0,0,1,9.7-2.92,28.6,28.6,0,0,1,4.56.32,22.85,22.85,0,0,1,3.79,1,21.21,21.21,0,0,1,6.08,3.83l-4.57,5.5a23.1,23.1,0,0,0-4.5-2.61,14.5,14.5,0,0,0-5.39-.92c-2.31,0-3.93.42-4.85,1.28a4.17,4.17,0,0,0-1.45,3.29,2.59,2.59,0,0,0,1.1,2.23,6.31,6.31,0,0,0,3.75,1.35l6.09.47c3.83.3,6.59,1.49,8.3,3.59a12.34,12.34,0,0,1,2.37,7.78,10,10,0,0,1-4.35,8.52,18.49,18.49,0,0,1-10.86,3.14q-9,0-16.16-6.79Z" transform="translate(-2.04 -2.86)"/><path class="cls-1" d="M375.71,174.55h7.37v11.54h5.38v5.84h-5.38V214c-.05,1.92.82,2.86,2.62,2.81h2.76V224h-3.85a8.57,8.57,0,0,1-6.36-2.48q-2.53-2.37-2.54-6.85V191.93H372v-5.84h3.7Z" transform="translate(-2.04 -2.86)"/><path class="cls-1" d="M415.32,220.63h-.14a6.17,6.17,0,0,1-3.18,2.84,14.74,14.74,0,0,1-5.87.95q-6.15-.07-9.47-3.36a10.66,10.66,0,0,1-3.5-8.21,10.94,10.94,0,0,1,3-7.92q3-3.21,8.91-3.29h10.21v-4q.07-5-7.53-4.88a13,13,0,0,0-4.35.58,5.36,5.36,0,0,0-2.61,2.35l-5.8-4.57q4.2-5.65,12.4-5.51,6.92-.08,11.06,2.7c2.75,1.89,4.15,5.16,4.2,9.78V224h-7.37Zm0-12.71h-8.85c-4.3.09-6.43,1.62-6.38,4.56a4.11,4.11,0,0,0,1.67,3.29q1.59,1.5,5.27,1.5c3.1,0,5.28-.33,6.56-1.13s1.73-2.63,1.73-5.48Z" transform="translate(-2.04 -2.86)"/><path class="cls-1" d="M433.43,186.09h7.37v4h.14a11.65,11.65,0,0,1,9.54-4.49,12.32,12.32,0,0,1,8.33,3.32q3.75,3.36,3.93,9.85V224h-7.37V201.39a8.3,8.3,0,0,0-2.05-6.06,6.85,6.85,0,0,0-5.2-2.13,7,7,0,0,0-5.24,2.13c-1.39,1.38-2.08,3.41-2.08,6.06V224h-7.37Z" transform="translate(-2.04 -2.86)"/><path class="cls-1" d="M473.58,170.76H481v19.35a18.56,18.56,0,0,1,4.42-3.29,10.47,10.47,0,0,1,5.05-1.2q6.75.18,9.86,5a10,10,0,0,1,2.08,4.71,60.26,60.26,0,0,1,.53,9.71,61.31,61.31,0,0,1-.53,9.64,10.27,10.27,0,0,1-2.08,4.85,11.24,11.24,0,0,1-4,3.51A12.54,12.54,0,0,1,481,220V224h-7.37ZM488.2,193.2a6.47,6.47,0,0,0-3.92,1.07,6.14,6.14,0,0,0-2.23,2.78,14.22,14.22,0,0,0-.89,3.74A40.49,40.49,0,0,0,481,205a41,41,0,0,0,.21,4.1,14.39,14.39,0,0,0,.89,3.85,6.14,6.14,0,0,0,2.23,2.78,6.34,6.34,0,0,0,3.92,1.1,7.33,7.33,0,0,0,4.14-1,5.9,5.9,0,0,0,2.16-2.72,14.33,14.33,0,0,0,.95-3.88c.05-1.36.07-2.77.07-4.21s0-3-.07-4.43a14.25,14.25,0,0,0-.95-3.74,5.42,5.42,0,0,0-2.16-2.71A8,8,0,0,0,488.2,193.2Z" transform="translate(-2.04 -2.86)"/><path class="cls-1" d="M512.39,186.09h7.37v22.59a8.24,8.24,0,0,0,2.08,6,6.92,6.92,0,0,0,5.24,2.16,6.8,6.8,0,0,0,5.2-2.16,8.31,8.31,0,0,0,2.05-6V186.09h7.37V224h-7.37v-4h-.14a11.68,11.68,0,0,1-9.51,4.49,12.25,12.25,0,0,1-8.23-3.42q-4-3.28-4.06-9.7Z" transform="translate(-2.04 -2.86)"/><path class="cls-1" d="M552.55,170.76h7.36v43.48c0,1.73.92,2.59,2.77,2.59h2.55V224h-3.29a10.37,10.37,0,0,1-6.64-2.07c-1.84-1.41-2.75-3.77-2.75-7.09Z" transform="translate(-2.04 -2.86)"/><path class="cls-1" d="M335.48,186.34h-1.29V73.56H294.5v83.38h-1.3v-84a.65.65,0,0,1,.65-.65h41a.65.65,0,0,1,.65.65Z" transform="translate(-2.04 -2.86)"/><rect class="cls-1" x="291.16" y="58.28" width="42.2" height="1.29"/><path class="cls-1" d="M330.16,62.43h-32l4.61-13.57V43h2l9.32-27.43L323.49,43h2.05v6ZM300,61.14h28.39L324.25,49.2V44.3h-1.68l-8.49-24.73-8.4,24.73h-1.63v4.77Z" transform="translate(-2.04 -2.86)"/><rect class="cls-1" x="289.27" y="85.57" width="46.23" height="1.29"/><rect class="cls-1" x="289.27" y="66.6" width="46.23" height="1.29"/><path class="cls-1" d="M314.9,102.3v4.89h-2.75V102.3a1.38,1.38,0,0,1,2.75,0Z" transform="translate(-2.04 -2.86)"/><path class="cls-1" d="M329.78,102.3v4.89H327V102.3a1.38,1.38,0,0,1,2.75,0Z" transform="translate(-2.04 -2.86)"/><path class="cls-1" d="M301,102.3v4.89h-2.74V102.3a1.37,1.37,0,0,1,2.74,0Z" transform="translate(-2.04 -2.86)"/><path class="cls-1" d="M299.55,79.22v4.89H296.8V79.22a1.38,1.38,0,1,1,2.75,0Z" transform="translate(-2.04 -2.86)"/><path class="cls-1" d="M307.6,79.22v4.89h-2.75V79.22a1.38,1.38,0,1,1,2.75,0Z" transform="translate(-2.04 -2.86)"/><path class="cls-1" d="M315.64,79.22v4.89h-2.75V79.22a1.38,1.38,0,1,1,2.75,0Z" transform="translate(-2.04 -2.86)"/><path class="cls-1" d="M323.68,79.22v4.89h-2.74V79.22a1.37,1.37,0,1,1,2.74,0Z" transform="translate(-2.04 -2.86)"/><path class="cls-1" d="M331.16,79.22v4.89h-2.75V79.22a1.38,1.38,0,1,1,2.75,0Z" transform="translate(-2.04 -2.86)"/><path class="cls-1" d="M301.8,65.22v4.89h-2.75V65.22a1.38,1.38,0,1,1,2.75,0Z" transform="translate(-2.04 -2.86)"/><path class="cls-1" d="M310.86,65.22v4.89h-2.75V65.22a1.38,1.38,0,1,1,2.75,0Z" transform="translate(-2.04 -2.86)"/><path class="cls-1" d="M319.93,65.22v4.89h-2.75V65.22a1.38,1.38,0,1,1,2.75,0Z" transform="translate(-2.04 -2.86)"/><path class="cls-1" d="M329,65.22v4.89h-2.75V65.22a1.38,1.38,0,1,1,2.75,0Z" transform="translate(-2.04 -2.86)"/><rect class="cls-1" x="293.25" y="58.92" width="1.29" height="8.33"/><rect class="cls-1" x="329.64" y="58.92" width="1.29" height="8.33"/><rect class="cls-1" x="291.16" y="89.88" width="41.95" height="1.29"/><rect class="cls-1" x="311.39" width="1.29" height="8.81"/><path class="cls-1" d="M314.08,15.62a2.2,2.2,0,1,1,2.2-2.2A2.21,2.21,0,0,1,314.08,15.62Zm0-3.49a1.29,1.29,0,1,0,1.28,1.29A1.29,1.29,0,0,0,314.08,12.13Z" transform="translate(-2.04 -2.86)"/><polygon class="cls-1" points="50.83 157.51 49.54 157.51 49.54 108 51.16 108 51.16 106.36 63.44 106.36 63.44 108 65.06 108 65.06 121.72 68.16 121.72 68.16 90.72 83.68 90.72 83.68 118.35 86.3 118.35 86.3 80.48 87.92 80.48 87.92 78.86 100.2 78.86 100.2 80.48 101.82 80.48 101.82 114.25 104.71 114.25 104.71 101.23 106.33 101.23 106.33 98.3 118.61 98.3 118.61 101.23 120.23 101.23 120.23 111.16 122.65 111.16 122.65 106.4 124.27 106.4 124.27 104.75 138.64 104.75 138.64 107.37 141 107.37 141 123.58 139.71 123.58 139.71 108.67 137.35 108.67 137.35 106.05 125.56 106.05 125.56 107.69 123.94 107.69 123.94 112.46 118.94 112.46 118.94 102.53 117.32 102.53 117.32 99.59 107.62 99.59 107.62 102.53 106 102.53 106 115.54 100.53 115.54 100.53 81.77 98.91 81.77 98.91 80.15 89.21 80.15 89.21 81.77 87.59 81.77 87.59 119.65 82.39 119.65 82.39 92.02 69.45 92.02 69.45 123.02 63.77 123.02 63.77 109.3 62.15 109.3 62.15 107.66 52.45 107.66 52.45 109.3 50.83 109.3 50.83 157.51"/><polygon class="cls-1" points="504.11 156.43 502.81 156.43 502.81 113.3 501.2 113.3 501.2 111.66 491.5 111.66 491.5 113.3 489.88 113.3 489.88 127.02 479.75 127.02 479.75 80.82 476.1 80.82 463.17 69.65 463.17 134.82 457.36 134.82 457.36 108.93 454.23 108.93 454.23 103.71 444.05 103.71 444.05 109.45 441.31 109.45 441.31 138.66 434.2 138.66 434.2 125.62 420.1 125.62 420.1 143.5 418.81 143.5 418.81 124.33 435.49 124.33 435.49 137.37 440.02 137.37 440.02 108.16 442.76 108.16 442.76 102.42 455.52 102.42 455.52 107.64 458.65 107.64 458.65 133.53 461.88 133.53 461.88 66.82 476.58 79.53 481.04 79.53 481.04 125.72 488.59 125.72 488.59 112 490.2 112 490.2 110.36 502.49 110.36 502.49 112 504.11 112 504.11 156.43"/><polygon class="cls-1" points="276.22 143.72 274.93 143.72 274.93 129.77 262.39 129.77 262.39 140.14 257.63 140.14 257.63 107.28 255.13 107.28 255.13 101.71 244.33 101.71 244.33 107.28 242.4 107.28 242.4 132.26 232.66 132.26 232.66 123.15 217.35 123.15 217.35 121.86 233.95 121.86 233.95 130.97 241.11 130.97 241.11 105.99 243.03 105.99 243.03 100.42 256.42 100.42 256.42 105.99 258.93 105.99 258.93 138.85 261.09 138.85 261.09 128.47 276.22 128.47 276.22 143.72"/><polygon class="cls-1" points="286.41 137.21 275.58 137.21 275.58 135.91 285.11 135.91 285.11 126.55 291.81 126.55 291.81 127.85 286.41 127.85 286.41 137.21"/><polygon class="cls-1" points="364.02 144.4 355.17 144.4 355.17 134.75 352.72 134.75 352.72 129.54 342.9 129.54 342.9 134.75 338.98 134.75 338.98 144.4 332.79 144.4 332.79 143.11 337.69 143.11 337.69 133.46 341.6 133.46 341.6 128.24 354.02 128.24 354.02 133.46 356.46 133.46 356.46 143.11 362.73 143.11 362.73 123.55 383.59 123.55 383.59 138.94 385.68 138.94 385.68 110.51 390.9 110.51 390.9 103.2 406.62 103.2 406.62 110.25 410.19 110.25 410.19 135.91 419.45 135.91 419.45 137.21 408.9 137.21 408.9 111.54 405.32 111.54 405.32 104.5 392.19 104.5 392.19 111.8 386.98 111.8 386.98 140.23 382.29 140.23 382.29 124.84 364.02 124.84 364.02 144.4"/><path class="cls-1" d="M238.72,124.28c-.31-.72-1.39-3.3-2.6-6.07-1.35-3.08-2.82-7.83-3-8.33v-.69h-.7v.38q-.21.33-.45.66h-2.37l-.1-.31v-.73h-.7v.59a31.57,31.57,0,0,1-6.86,6.76,23.64,23.64,0,0,1-14.66,4.55c-4.93-1.08-10.78-4-17.66-8.65a120.9,120.9,0,0,1-16.17-13.17c-2.51-2.41-4.38-4.39-5.42-5.53V92.08h-1.48v1.45H161.4V92.08h-1.48v2.15c-.27.9-1,3.17-2.1,6.08-3,8-6.73,15.2-12.56,21.07-1.09,1.1-2,1.88-2.52,2.33l-1.63.23a12.81,12.81,0,0,1,.41,1.62c.08.4.55,2-.07.31a8.37,8.37,0,0,1,.3.93c5.5-.87,11.6-1.83,18.17-2.66V137.9h1.48V127.72h5.18V137.9h1.48V123.21A230.89,230.89,0,0,1,195,122c12.05.22,23.49.83,33.79,1.81v14.1h.7V126.13h2.92V137.9h.7V124.25c3.62.39,7.09.84,10.36,1.33V125C242,124.73,240.36,124.5,238.72,124.28ZM159.92,122c-3.06.22-6,.48-8.87.77a42.59,42.59,0,0,0,6.83-8.46c.72-1.18,1.4-2.4,2-3.62Zm0-12.14a46.53,46.53,0,0,1-8.61,12.08c-.33.33-.65.63-.94.9-2.38.25-4.68.51-6.88.8a44.34,44.34,0,0,0,8.4-10,79.87,79.87,0,0,0,6.28-13.11c.79-2,1.37-3.79,1.75-5Zm5.94-14.76c-.14.44-.36,1.13-.65,2-.83-.75-1.56-1.42-2.18-2Zm-4.46,0h1c.72.67,1.6,1.49,2.63,2.43-.33,1-.75,2.17-1.26,3.49-.75,2-1.54,3.9-2.4,5.78Zm5.18,30.22H161.4V124l5.18-.59Zm0-3.75c-1.75.1-3.48.2-5.18.32V110.47h5.18Zm0-13.5H161.4v-.36c1.09-2.32,2-4.56,2.76-6.52.48-1.26.89-2.41,1.22-3.38l1.2,1.09Zm0-9.72-1.06-1c.36-1,.6-1.84.74-2.29h.32ZM195,121c-9.44-.16-18.52,0-27,.43V100.18c3.35,2.95,7.61,6.56,12.47,10.33,8.56,6.65,15.86,9.89,22.83,10.76Q199.25,121.1,195,121Zm9.82,0c-7.33-.57-15-3.74-24.11-10.83-5-3.86-9.31-7.54-12.69-10.53V94.34c1.09,1.18,2.85,3,5.17,5.26a122.58,122.58,0,0,0,16.22,13.21c6,4,11.31,6.84,15.89,8.21Zm24,2.11c-4.77-.51-9.78-.94-15-1.28a26.55,26.55,0,0,0,15-7.32Zm0-9.17a26,26,0,0,1-3.05,2.62,24.22,24.22,0,0,1-13.54,5,16.71,16.71,0,0,1-2.72-.07,23.66,23.66,0,0,0,12.66-4.56,31.63,31.63,0,0,0,5.39-4.92c.53-.6,1-1.13,1.26-1.54Zm2.62-3c-.35.46-.73.92-1.12,1.37-.18-.51-.33-1-.46-1.37Zm-1.92.21c.14.43.31.94.5,1.49-.16.19-.33.37-.5.55Zm0,2.62.65-.7c.43,1.23.94,2.62,1.43,3.8h-2.08Zm2.92,11h-2.92v-.94c1,.1,2,.19,2.92.3Zm0-1.31-2.92-.33v-5h2.62l.3.69Zm0-6.6H232c-.53-1.26-1.09-2.81-1.55-4.14l.47-.55c.39-.46.72-.88,1-1.24h.51Zm.7,6.68v-3.11c.57,1.36,1.07,2.6,1.34,3.27Zm1.79.21c-.28-.68-1-2.48-1.79-4.32v-8.29c.55,1.72,1.62,4.93,2.62,7.22,1.1,2.51,2.1,4.87,2.5,5.82Z" transform="translate(-2.04 -2.86)"/></svg>