<svg xmlns="http://www.w3.org/2000/svg" viewBox="0 0 499.4 223.96"><defs><style>.cls-1,.cls-2{fill:#2196f3;}.cls-2{font-size:61px;font-family:Santral-Bold, Santral;font-weight:700;}.cls-3{letter-spacing:-0.03em;}.cls-4{letter-spacing:-0.02em;}.cls-5,.cls-6{font-family:Santral-SemiBold, Santral;}.cls-6{letter-spacing:-0.02em;}</style></defs><title>Asset 2</title><g id="Layer_2" data-name="Layer 2"><g id="Layer_2-2" data-name="Layer 2"><path class="cls-1" d="M303.88,183.48h-1.29V70.7H262.9v83.38h-1.3v-84a.66.66,0,0,1,.19-.46.68.68,0,0,1,.46-.19h41a.65.65,0,0,1,.64.65Z"/><rect class="cls-1" x="261.61" y="58.28" width="42.2" height="1.29"/><path class="cls-1" d="M298.56,59.57h-32L271.16,46V40.14h2l9.32-27.43,9.42,27.43h2.05v6Zm-30.2-1.29h28.39l-4.1-11.94v-4.9H291l-8.49-24.73-8.4,24.73h-1.62v4.77Z"/><rect class="cls-1" x="259.71" y="85.57" width="46.23" height="1.29"/><rect class="cls-1" x="259.71" y="66.6" width="46.23" height="1.29"/><path class="cls-1" d="M283.31,99.44v4.89h-2.75V99.44a1.38,1.38,0,0,1,2.75,0Z"/><path class="cls-1" d="M298.18,99.44v4.89h-2.74V99.44a1.37,1.37,0,0,1,2.74,0Z"/><path class="cls-1" d="M269.41,99.44v4.89h-2.75V99.44a1.38,1.38,0,0,1,2.75,0Z"/><path class="cls-1" d="M268,76.36v4.89h-2.75V76.36a1.38,1.38,0,1,1,2.75,0Z"/><path class="cls-1" d="M276,76.36v4.89h-2.75V76.36a1.38,1.38,0,1,1,2.75,0Z"/><path class="cls-1" d="M284,76.36v4.89h-2.75V76.36a1.38,1.38,0,1,1,2.75,0Z"/><path class="cls-1" d="M292.09,76.36v4.89h-2.75V76.36a1.38,1.38,0,1,1,2.75,0Z"/><path class="cls-1" d="M299.56,76.36v4.89h-2.75V76.36A1.37,1.37,0,0,1,298.18,75,1.39,1.39,0,0,1,299.56,76.36Z"/><path class="cls-1" d="M270.2,62.36v4.89h-2.75V62.36a1.38,1.38,0,1,1,2.75,0Z"/><path class="cls-1" d="M279.26,62.36v4.89h-2.75V62.36a1.38,1.38,0,1,1,2.75,0Z"/><path class="cls-1" d="M288.33,62.36v4.89h-2.75V62.36a1.38,1.38,0,1,1,2.75,0Z"/><path class="cls-1" d="M297.4,62.36v4.89h-2.75V62.36a1.38,1.38,0,1,1,2.75,0Z"/><rect class="cls-1" x="263.69" y="58.92" width="1.29" height="8.33"/><rect class="cls-1" x="300.08" y="58.92" width="1.29" height="8.33"/><rect class="cls-1" x="261.61" y="89.88" width="41.95" height="1.29"/><rect class="cls-1" x="281.83" width="1.29" height="8.81"/><path class="cls-1" d="M282.48,12.76a2.2,2.2,0,1,1,2.2-2.2A2.2,2.2,0,0,1,282.48,12.76Zm0-3.49a1.29,1.29,0,1,0,1.29,1.29A1.29,1.29,0,0,0,282.48,9.27Z"/><polygon class="cls-1" points="21.28 157.51 19.98 157.51 19.98 108 21.6 108 21.6 106.36 33.89 106.36 33.89 108 35.51 108 35.51 121.72 38.6 121.72 38.6 90.72 54.13 90.72 54.13 118.35 56.74 118.35 56.74 80.48 58.36 80.48 58.36 78.86 70.65 78.86 70.65 80.48 72.26 80.48 72.26 114.25 75.16 114.25 75.16 101.23 76.78 101.23 76.78 98.3 89.06 98.3 89.06 101.23 90.68 101.23 90.68 111.16 93.09 111.16 93.09 106.4 94.71 106.4 94.71 104.75 109.09 104.75 109.09 107.37 111.45 107.37 111.45 123.58 110.15 123.58 110.15 108.67 107.79 108.67 107.79 106.05 96 106.05 96 107.69 94.39 107.69 94.39 112.46 89.38 112.46 89.38 102.53 87.77 102.53 87.77 99.59 78.07 99.59 78.07 102.53 76.45 102.53 76.45 115.54 70.97 115.54 70.97 81.77 69.35 81.77 69.35 80.15 59.66 80.15 59.66 81.77 58.04 81.77 58.04 119.65 52.83 119.65 52.83 92.02 39.9 92.02 39.9 123.02 34.21 123.02 34.21 109.3 32.59 109.3 32.59 107.66 22.89 107.66 22.89 109.3 21.28 109.3 21.28 157.51"/><polygon class="cls-1" points="474.55 156.43 473.26 156.43 473.26 113.3 471.64 113.3 471.64 111.66 461.94 111.66 461.94 113.3 460.33 113.3 460.33 127.02 450.19 127.02 450.19 80.82 446.55 80.82 433.62 69.65 433.62 134.82 427.8 134.82 427.8 108.93 424.67 108.93 424.67 103.71 414.5 103.71 414.5 109.45 411.76 109.45 411.76 138.66 404.64 138.66 404.64 125.62 390.55 125.62 390.55 143.5 389.25 143.5 389.25 124.33 405.94 124.33 405.94 137.37 410.47 137.37 410.47 108.16 413.2 108.16 413.2 102.42 425.97 102.42 425.97 107.64 429.1 107.64 429.1 133.53 432.32 133.53 432.32 66.82 447.03 79.53 451.49 79.53 451.49 125.72 459.03 125.72 459.03 112 460.65 112 460.65 110.36 472.94 110.36 472.94 112 474.55 112 474.55 156.43"/><polygon class="cls-1" points="246.67 143.72 245.37 143.72 245.37 129.77 232.83 129.77 232.83 140.14 228.08 140.14 228.08 107.28 225.57 107.28 225.57 101.71 214.77 101.71 214.77 107.28 212.85 107.28 212.85 132.26 203.1 132.26 203.1 123.15 187.8 123.15 187.8 121.86 204.4 121.86 204.4 130.97 211.56 130.97 211.56 105.99 213.48 105.99 213.48 100.42 226.87 100.42 226.87 105.99 229.38 105.99 229.38 138.85 231.54 138.85 231.54 128.47 246.67 128.47 246.67 143.72"/><polygon class="cls-1" points="256.85 137.21 246.02 137.21 246.02 135.91 255.56 135.91 255.56 126.55 262.25 126.55 262.25 127.85 256.85 127.85 256.85 137.21"/><polygon class="cls-1" points="334.47 144.4 325.61 144.4 325.61 134.75 323.17 134.75 323.17 129.54 313.34 129.54 313.34 134.75 309.43 134.75 309.43 144.4 303.24 144.4 303.24 143.11 308.13 143.11 308.13 133.46 312.05 133.46 312.05 128.24 324.46 128.24 324.46 133.46 326.9 133.46 326.9 143.11 333.18 143.11 333.18 123.55 354.03 123.55 354.03 138.94 356.13 138.94 356.13 110.51 361.35 110.51 361.35 103.2 377.06 103.2 377.06 110.25 380.64 110.25 380.64 135.91 389.9 135.91 389.9 137.21 379.34 137.21 379.34 111.54 375.77 111.54 375.77 104.5 362.64 104.5 362.64 111.8 357.42 111.8 357.42 140.23 352.74 140.23 352.74 124.84 334.47 124.84 334.47 144.4"/><path class="cls-1" d="M207.12,122.42c-.3-.72-1.39-3.3-2.6-6.07-1.35-3.08-2.82-7.83-3-8.33v-.69h-.7v.38q-.21.33-.45.66H198l-.1-.31v-.73h-.7v.59a31.57,31.57,0,0,1-6.86,6.76,23.61,23.61,0,0,1-14.66,4.55c-4.93-1.08-10.77-4-17.66-8.65a120.9,120.9,0,0,1-16.17-13.17c-2.51-2.41-4.37-4.39-5.42-5.53V90.22H135v1.45H129.8V90.22h-1.48v2.15c-.27.9-1,3.17-2.1,6.08-3,8-6.73,15.2-12.56,21.07-1.09,1.1-2,1.88-2.52,2.33l-1.63.23a12.84,12.84,0,0,1,.42,1.62c.07.4.55,2-.07.31q.17.46.3.93c5.49-.87,11.59-1.83,18.16-2.66V136h1.48V125.86H135V136h1.47V121.35a230.89,230.89,0,0,1,27-1.22c12.05.22,23.49.83,33.79,1.81V136h.7V124.27h2.92V136h.7V122.39c3.62.39,7.09.84,10.37,1.33v-.62C210.36,122.87,208.76,122.64,207.12,122.42Zm-78.8-2.31c-3.06.22-6,.48-8.87.77a42.59,42.59,0,0,0,6.83-8.46c.72-1.18,1.4-2.4,2-3.62Zm0-12.14a46.53,46.53,0,0,1-8.61,12.08c-.33.33-.65.63-.94.9-2.38.25-4.67.51-6.88.8a44.58,44.58,0,0,0,8.41-10,81.54,81.54,0,0,0,6.28-13.11c.78-2.05,1.37-3.79,1.74-5Zm5.94-14.76c-.14.44-.36,1.13-.65,2-.83-.75-1.56-1.42-2.18-2Zm-4.46,0h1l2.64,2.43c-.34,1-.76,2.17-1.27,3.49q-1.11,3-2.4,5.78ZM135,123.43H129.8v-1.34c1.7-.2,3.43-.4,5.19-.59Zm0-3.75c-1.76.1-3.49.2-5.19.32V108.61H135Zm0-13.5H129.8v-.36c1.09-2.32,2-4.56,2.76-6.52.48-1.26.89-2.41,1.22-3.38L135,97Zm0-9.72c-.37-.33-.73-.65-1.06-1,.35-1,.6-1.84.74-2.29H135Zm28.45,22.71c-9.44-.16-18.52,0-27,.43V98.32c3.35,3,7.62,6.56,12.48,10.33,8.55,6.65,15.85,9.89,22.82,10.76Q167.65,119.25,163.44,119.17Zm9.82,0c-7.33-.57-15-3.74-24.1-10.83-5-3.86-9.32-7.54-12.7-10.53V92.48c1.09,1.18,2.85,3,5.17,5.26A122.58,122.58,0,0,0,157.85,111c6,4,11.31,6.84,15.89,8.21Zm24,2.11c-4.77-.51-9.78-.94-15-1.28a26.55,26.55,0,0,0,15-7.32Zm0-9.17a25.25,25.25,0,0,1-3,2.62,24.19,24.19,0,0,1-13.54,5,16.73,16.73,0,0,1-2.72-.07A23.57,23.57,0,0,0,190.58,115a31.63,31.63,0,0,0,5.39-4.92c.53-.6.95-1.13,1.26-1.54Zm2.63-3c-.36.46-.73.92-1.13,1.37l-.46-1.37Zm-1.93.21c.14.43.31.94.5,1.49-.16.19-.33.37-.5.55Zm0,2.62c.23-.24.45-.47.65-.7.43,1.23.94,2.62,1.43,3.8h-2.08Zm2.92,11h-2.92V122l2.92.3Zm0-1.31-2.92-.33v-5h2.63c.09.23.19.46.29.69Zm0-6.6h-.42c-.53-1.26-1.09-2.81-1.55-4.13l.47-.56c.39-.46.72-.88,1-1.24h.51Zm.7,6.68v-3.1c.57,1.35,1.07,2.59,1.34,3.26Zm1.79.22c-.27-.69-1-2.49-1.79-4.33v-8.29c.55,1.72,1.62,4.93,2.62,7.22,1.1,2.51,2.1,4.87,2.5,5.82Q205,122.14,203.34,121.94Z"/><text class="cls-2" transform="translate(0 208.1)">f<tspan class="cls-3" x="27.51" y="0">r</tspan><tspan x="53.92" y="0">on</tspan><tspan class="cls-4" x="126.76" y="0">t</tspan><tspan x="150.55" y="0">end</tspan><tspan class="cls-5" x="261.32" y="0">is</tspan><tspan class="cls-6" x="306.09" y="0">t</tspan><tspan class="cls-5" x="329.64" y="0">anbul</tspan></text></g></g></svg>