<?xml version="1.0" encoding="UTF-8"?>
<svg width="489px" height="209px" viewBox="0 0 489 209" version="1.1" xmlns="http://www.w3.org/2000/svg" xmlns:xlink="http://www.w3.org/1999/xlink">
    <!-- Generator: Sketch 48.2 (47327) - http://www.bohemiancoding.com/sketch -->
    <title>Page 1</title>
    <desc>Created with Sketch.</desc>
    <defs>
        <polygon id="path-1" points="0 208.707 488.42 208.707 488.42 0 0 0"></polygon>
    </defs>
    <g id="Twitter-Tanitim-Copy-2" stroke="none" stroke-width="1" fill="none" fill-rule="evenodd">
        <g id="Page-1">
            <path d="M301.8086,183.4765 L300.5146,183.4765 L300.5146,70.6965 L260.8256,70.6955 L260.8256,154.0755 L259.5306,154.0755 L259.5306,70.0485 C259.5306,69.8765 259.5986,69.7125 259.7206,69.5905 C259.8416,69.4695 260.0056,69.4015 260.1776,69.4015 L301.1616,69.4025 C301.5186,69.4025 301.8086,69.6915 301.8086,70.0495 L301.8086,183.4765 Z" id="Fill-1" fill="#2196F3"></path>
            <polygon id="Fill-3" fill="#2196F3" points="301.7305 59.5708 259.5345 59.5708 259.5345 58.2758 301.7305 58.2768"></polygon>
            <path d="M266.2822,58.2758 L294.6732,58.2758 L290.5752,46.3358 L290.5752,41.4378 L288.8932,41.4378 L280.4072,16.7098 L272.0052,41.4378 L270.3832,41.4378 L270.3832,46.2108 L266.2822,58.2758 Z M296.4852,59.5698 L264.4752,59.5698 L269.0892,45.9968 L269.0892,40.1438 L271.0772,40.1438 L280.4002,12.7058 L289.8182,40.1428 L291.8692,40.1428 L291.8692,46.1198 L296.4852,59.5698 Z" id="Fill-5" fill="#2196F3"></path>
            <polygon id="Fill-7" fill="#2196F3" points="303.8682 86.8593 257.6362 86.8583 257.6362 85.5643 303.8682 85.5653"></polygon>
            <polygon id="Fill-9" fill="#2196F3" points="303.8682 67.8979 257.6362 67.8979 257.6362 66.6039 303.8682 66.6039"></polygon>
            <path d="M281.2324,99.4404 L281.2324,104.3344 L278.4824,104.3344 L278.4824,99.4404 C278.4824,98.6764 279.0984,98.0654 279.8574,98.0654 C280.6164,98.0654 281.2324,98.6764 281.2324,99.4404" id="Fill-11" fill="#2196F3"></path>
            <path d="M296.1094,99.4404 L296.1094,104.3344 L293.3614,104.3344 L293.3614,99.4404 C293.3614,98.6764 293.9764,98.0654 294.7344,98.0654 C295.4934,98.0654 296.1094,98.6764 296.1094,99.4404" id="Fill-13" fill="#2196F3"></path>
            <path d="M267.332,99.4404 L267.332,104.3344 L264.584,104.3334 L264.584,99.4404 C264.584,98.6764 265.199,98.0654 265.958,98.0654 C266.717,98.0654 267.332,98.6764 267.332,99.4404" id="Fill-15" fill="#2196F3"></path>
            <path d="M265.8809,76.3584 L265.8809,81.2514 L263.1319,81.2514 L263.1319,76.3584 C263.1319,75.5934 263.7479,74.9834 264.5069,74.9834 C265.2659,74.9834 265.8809,75.5934 265.8809,76.3584" id="Fill-17" fill="#2196F3"></path>
            <path d="M273.9248,76.3589 L273.9248,81.2519 L271.1758,81.2519 L271.1758,76.3589 C271.1758,75.5949 271.7918,74.9839 272.5508,74.9839 C273.3098,74.9839 273.9248,75.5949 273.9248,76.3589" id="Fill-19" fill="#2196F3"></path>
            <path d="M281.9687,76.3589 L281.9687,81.2519 L279.2207,81.2519 L279.2207,76.3589 C279.2207,75.5949 279.8357,74.9839 280.5947,74.9839 C281.3537,74.9839 281.9687,75.5949 281.9687,76.3589" id="Fill-21" fill="#2196F3"></path>
            <path d="M290.0127,76.3589 L290.0127,81.2519 L287.2647,81.2519 L287.2647,76.3589 C287.2647,75.5949 287.8797,74.9839 288.6387,74.9839 C289.3967,74.9839 290.0127,75.5949 290.0127,76.3589" id="Fill-23" fill="#2196F3"></path>
            <path d="M297.4844,76.3593 L297.4844,81.2523 L294.7344,81.2523 L294.7344,76.3593 C294.7344,75.5943 295.3504,74.9843 296.1094,74.9843 C296.8684,74.9843 297.4844,75.5953 297.4844,76.3593" id="Fill-25" fill="#2196F3"></path>
            <path d="M268.123,62.3574 L268.123,67.2514 L265.374,67.2504 L265.374,62.3574 C265.374,61.5934 265.99,60.9824 266.749,60.9824 C267.507,60.9824 268.123,61.5934 268.123,62.3574" id="Fill-27" fill="#2196F3"></path>
            <path d="M277.1895,62.3574 L277.1895,67.2514 L274.4405,67.2514 L274.4405,62.3574 C274.4405,61.5934 275.0565,60.9824 275.8145,60.9824 C276.5735,60.9824 277.1895,61.5934 277.1895,62.3574" id="Fill-29" fill="#2196F3"></path>
            <path d="M286.2549,62.3574 L286.2549,67.2514 L283.5059,67.2514 L283.5059,62.3574 C283.5059,61.5934 284.1219,60.9824 284.8799,60.9824 C285.6389,60.9824 286.2549,61.5934 286.2549,62.3574" id="Fill-31" fill="#2196F3"></path>
            <path d="M295.3213,62.3574 L295.3213,67.2514 L292.5723,67.2514 L292.5723,62.3574 C292.5723,61.5934 293.1883,60.9824 293.9463,60.9824 C294.7053,60.9824 295.3213,61.5934 295.3213,62.3574" id="Fill-33" fill="#2196F3"></path>
            <mask id="mask-2" fill="white">
                <use xlink:href="#path-1"></use>
            </mask>
            <g id="Clip-36"></g>
            <polygon id="Fill-35" fill="#2196F3" mask="url(#mask-2)" points="261.62 67.25 262.914 67.25 262.914 58.922 261.62 58.922"></polygon>
            <polygon id="Fill-37" fill="#2196F3" mask="url(#mask-2)" points="298.009 67.251 299.303 67.251 299.303 58.923 298.009 58.923"></polygon>
            <polygon id="Fill-38" fill="#2196F3" mask="url(#mask-2)" points="301.4795 91.1738 259.5345 91.1738 259.5345 89.8788 301.4795 89.8798"></polygon>
            <polygon id="Fill-39" fill="#2196F3" mask="url(#mask-2)" points="279.757 8.812 281.051 8.812 281.051 -0.001 279.757 -0.001"></polygon>
            <path d="M280.4033,9.2695 C279.6933,9.2695 279.1153,9.8475 279.1153,10.5585 C279.1153,11.2695 279.6933,11.8475 280.4033,11.8475 C281.1143,11.8475 281.6923,11.2695 281.6923,10.5585 C281.6923,9.8475 281.1143,9.2695 280.4033,9.2695 M280.4033,12.7615 C279.1893,12.7615 278.2013,11.7735 278.2013,10.5585 C278.2013,9.3435 279.1893,8.3555 280.4033,8.3555 C281.6183,8.3555 282.6063,9.3435 282.6063,10.5585 C282.6063,11.7735 281.6183,12.7615 280.4033,12.7615" id="Fill-40" fill="#2196F3" mask="url(#mask-2)"></path>
            <polygon id="Fill-41" fill="#2196F3" mask="url(#mask-2)" points="19.2026 157.5083 17.9086 157.5083 17.9086 108.0043 19.5256 108.0043 19.5256 106.3613 31.8116 106.3613 31.8116 108.0043 33.4306 108.0043 33.4306 121.7213 36.5276 121.7213 36.5276 90.7243 52.0506 90.7243 52.0506 118.3533 54.6676 118.3533 54.6676 80.4763 56.2866 80.4763 56.2866 78.8573 68.5716 78.8573 68.5716 80.4763 70.1896 80.4763 70.1896 114.2483 73.0806 114.2483 73.0806 101.2333 74.7006 101.2333 74.7006 98.2943 86.9846 98.2943 86.9846 101.2333 88.6036 101.2333 88.6036 111.1613 91.0186 111.1613 91.0186 106.3973 92.6376 106.3973 92.6376 104.7543 107.0116 104.7543 107.0116 107.3713 109.3716 107.3713 109.3716 123.5823 108.0776 123.5823 108.0776 108.6653 105.7176 108.6653 105.7176 106.0483 93.9316 106.0483 93.9316 107.6913 92.3126 107.6913 92.3126 112.4553 87.3096 112.4553 87.3096 102.5273 85.6906 102.5273 85.6906 99.5883 75.9946 99.5883 75.9946 102.5273 74.3746 102.5273 74.3746 115.5433 68.8956 115.5433 68.8956 81.7703 67.2776 81.7703 67.2776 80.1513 57.5806 80.1513 57.5806 81.7703 55.9616 81.7703 55.9616 119.6473 50.7566 119.6473 50.7566 92.0183 37.8216 92.0183 37.8216 123.0153 32.1366 123.0153 32.1366 109.2983 30.5176 109.2983 30.5176 107.6543 20.8196 107.6543 20.8196 109.2983 19.2026 109.2983"></polygon>
            <polygon id="Fill-42" fill="#2196F3" mask="url(#mask-2)" points="472.4795 156.4321 471.1855 156.4321 471.1855 113.2981 469.5685 113.2981 469.5685 111.6551 459.8705 111.6551 459.8705 113.2981 458.2515 113.2981 458.2515 127.0151 448.1215 127.0151 448.1215 80.8211 444.4745 80.8211 431.5415 69.6481 431.5415 134.8211 425.7285 134.8211 425.7285 108.9301 422.5975 108.9301 422.5975 103.7141 412.4235 103.7141 412.4235 109.4521 409.6855 109.4521 409.6855 138.6651 402.5685 138.6651 402.5685 125.6231 388.4735 125.6231 388.4735 143.4951 387.1795 143.4951 387.1795 124.3291 403.8625 124.3291 403.8625 137.3701 408.3915 137.3701 408.3915 108.1581 411.1295 108.1581 411.1295 102.4191 423.8925 102.4191 423.8925 107.6361 427.0225 107.6361 427.0225 133.5271 430.2485 133.5271 430.2485 66.8201 444.9565 79.5271 449.4155 79.5271 449.4155 125.7211 456.9575 125.7211 456.9575 112.0041 458.5765 112.0041 458.5765 110.3611 470.8625 110.3611 470.8625 112.0041 472.4795 112.0041"></polygon>
            <polygon id="Fill-43" fill="#2196F3" mask="url(#mask-2)" points="244.5942 143.7231 243.3002 143.7231 243.3002 129.7661 230.7592 129.7661 230.7592 140.1431 226.0062 140.1431 226.0062 107.2851 223.5002 107.2851 223.5002 101.7121 212.6972 101.7121 212.6972 107.2851 210.7752 107.2851 210.7752 132.2651 201.0272 132.2651 201.0272 123.1531 185.7252 123.1531 185.7252 121.8591 202.3212 121.8591 202.3212 130.9711 209.4812 130.9711 209.4812 105.9911 211.4032 105.9911 211.4032 100.4181 224.7942 100.4181 224.7942 105.9911 227.3002 105.9911 227.3002 138.8481 229.4652 138.8481 229.4652 128.4731 244.5942 128.4731"></polygon>
            <polygon id="Fill-44" fill="#2196F3" mask="url(#mask-2)" points="254.7783 137.205 243.9473 137.205 243.9473 135.911 253.4843 135.911 253.4843 126.551 260.1773 126.551 260.1773 127.845 254.7783 127.845"></polygon>
            <polygon id="Fill-45" fill="#2196F3" mask="url(#mask-2)" points="332.3955 144.4033 323.5375 144.4033 323.5375 134.7523 321.0935 134.7523 321.0935 129.5353 311.2675 129.5353 311.2675 134.7523 307.3555 134.7523 307.3555 144.4033 301.1615 144.4033 301.1615 143.1093 306.0615 143.1093 306.0615 133.4583 309.9735 133.4583 309.9735 128.2413 322.3875 128.2413 322.3875 133.4583 324.8315 133.4583 324.8315 143.1093 331.1005 143.1093 331.1005 123.5473 351.9575 123.5473 351.9575 138.9353 354.0535 138.9353 354.0535 110.5053 359.2705 110.5053 359.2705 103.2023 374.9895 103.2023 374.9895 110.2443 378.5615 110.2443 378.5615 135.9113 387.8265 135.9113 387.8265 137.2053 377.2675 137.2053 377.2675 111.5383 373.6955 111.5383 373.6955 104.4963 360.5645 104.4963 360.5645 111.7993 355.3485 111.7993 355.3485 140.2303 350.6635 140.2303 350.6635 124.8413 332.3955 124.8413"></polygon>
            <path d="M201.2637,121.9345 C200.9907,121.2525 200.2597,119.4475 199.4767,117.6065 L199.4767,109.3205 C200.0287,111.0385 201.0977,114.2475 202.0997,116.5415 C203.1977,119.0535 204.1937,121.4085 204.5967,122.3595 C203.5027,122.2145 202.3917,122.0725 201.2637,121.9345 Z M199.4767,121.7195 L199.4767,118.6145 C200.0457,119.9705 200.5507,121.2125 200.8197,121.8805 C200.3747,121.8255 199.9277,121.7715 199.4767,121.7195 Z M198.7807,115.0375 L198.3597,115.0375 C197.8267,113.7785 197.2637,112.2335 196.8037,110.9045 C196.9717,110.7145 197.1307,110.5285 197.2807,110.3485 C197.6647,109.8915 197.9957,109.4715 198.2667,109.1115 L198.7807,109.1115 L198.7807,115.0375 Z M198.7807,121.6375 C197.8167,121.5265 196.8427,121.4165 195.8577,121.3105 L195.8577,116.2915 L198.4807,116.2915 C198.5807,116.5165 198.6807,116.7475 198.7807,116.9785 L198.7807,121.6375 Z M198.7807,122.9525 L195.8577,122.9525 L195.8577,122.0095 C196.8427,122.1065 197.8167,122.2055 198.7807,122.3095 L198.7807,122.9525 Z M195.8577,111.9385 C196.0837,111.7025 196.3007,111.4685 196.5077,111.2385 C196.9357,112.4705 197.4447,113.8625 197.9347,115.0375 L195.8577,115.0375 L195.8577,111.9385 Z M195.8577,109.3225 C195.9987,109.7495 196.1687,110.2595 196.3587,110.8125 C196.1947,110.9975 196.0267,111.1775 195.8577,111.3565 L195.8577,109.3225 Z M197.7827,109.1115 C197.4287,109.5705 197.0517,110.0295 196.6577,110.4795 C196.4827,109.9695 196.3267,109.5025 196.1987,109.1115 L197.7827,109.1115 Z M195.1597,112.0715 C194.1507,113.0715 193.0987,113.9765 192.1067,114.6885 C188.2387,117.4615 184.4117,119.2925 178.5707,119.6695 C177.7017,119.7245 176.7937,119.7005 175.8487,119.5985 C180.9137,119.2625 184.8957,117.6245 188.5087,115.0415 C190.8347,113.3765 192.6557,111.5415 193.8967,110.1225 C194.4257,109.5175 194.8487,108.9875 195.1597,108.5785 L195.1597,112.0715 Z M195.1597,121.2375 C190.3887,120.7325 185.3737,120.2995 180.1687,119.9565 C185.2237,119.3685 188.7607,117.6015 192.3157,115.0495 C193.3607,114.3015 194.3167,113.4685 195.1597,112.6425 L195.1597,121.2375 Z M171.1857,119.1275 C163.8537,118.5605 156.2047,115.3895 147.0807,108.2995 C142.1127,104.4395 137.7677,100.7555 134.3897,97.7725 L134.3897,92.4805 C135.4727,93.6565 137.2407,95.5155 139.5537,97.7375 C143.5637,101.5935 149.2147,106.5495 155.7777,110.9505 C161.8147,114.9975 167.0887,117.7925 171.6677,119.1625 C171.5077,119.1515 171.3477,119.1405 171.1857,119.1275 Z M161.3667,119.1745 C151.9237,119.0085 142.8477,119.1765 134.3897,119.6025 L134.3897,98.3215 C137.7387,101.2705 142.0017,104.8775 146.8607,108.6545 C155.4197,115.3045 162.7147,118.5435 169.6847,119.4095 C166.9497,119.3035 164.1747,119.2245 161.3667,119.1745 Z M132.9117,96.4555 C132.5427,96.1255 132.1897,95.8075 131.8527,95.4995 C132.2027,94.4585 132.4517,93.6635 132.5917,93.2055 L132.9117,93.2055 L132.9117,96.4555 Z M132.9117,106.1785 L127.7277,106.1785 L127.7277,105.8175 C128.8147,103.5025 129.7387,101.2565 130.4847,99.3005 C130.9677,98.0355 131.3767,96.8895 131.7067,95.9245 C132.0907,96.2695 132.4917,96.6335 132.9117,97.0075 L132.9117,106.1785 Z M132.9117,119.6815 C131.1557,119.7755 129.4277,119.8815 127.7277,119.9985 L127.7277,108.6095 L132.9117,108.6095 L132.9117,119.6815 Z M132.9117,123.4275 L127.7277,123.4275 L127.7277,122.0935 C129.4277,121.8875 131.1557,121.6875 132.9117,121.5025 L132.9117,123.4275 Z M127.7277,93.2055 L128.7587,93.2055 C129.4757,93.8785 130.3617,94.6995 131.3927,95.6385 C131.0557,96.6255 130.6337,97.8135 130.1297,99.1325 C129.3817,101.0955 128.5877,103.0275 127.7277,104.9125 L127.7277,93.2055 Z M132.1847,93.2055 C132.0467,93.6505 131.8297,94.3395 131.5367,95.2125 C130.7097,94.4605 129.9807,93.7865 129.3587,93.2055 L132.1847,93.2055 Z M126.2507,107.9675 C123.9507,112.4395 121.1847,116.5595 117.6397,120.0515 C117.3047,120.3825 116.9897,120.6805 116.6977,120.9485 C114.3187,121.1955 112.0207,121.4645 109.8157,121.7515 C111.5637,120.2275 115.0997,116.8105 118.2217,111.7325 C120.9157,107.3475 123.0467,102.4325 124.5017,98.6175 C125.2847,96.5665 125.8727,94.8325 126.2507,93.6645 L126.2507,107.9675 Z M126.2507,120.1055 C123.1837,120.3305 120.2207,120.5885 117.3727,120.8785 C119.2237,119.1245 121.8167,116.3025 124.2037,112.4175 C124.9277,111.2405 125.6097,110.0235 126.2507,108.8025 L126.2507,120.1055 Z M205.0477,122.4205 C204.7417,121.6955 203.6557,119.1185 202.4467,116.3525 C201.0987,113.2675 199.6297,108.5205 199.4767,108.0215 L199.4767,107.3265 L198.7807,107.3265 L198.7807,107.7135 C198.6377,107.9315 198.4877,108.1505 198.3307,108.3715 L195.9557,108.3715 L195.8577,108.0615 L195.8577,107.3265 L195.1597,107.3265 L195.1597,107.9195 C193.3857,110.4285 190.5757,113.0515 188.3007,114.6785 C184.2427,117.5805 179.7117,119.2745 173.6397,119.2315 C168.7107,118.1515 162.8617,115.2005 155.9747,110.5805 C149.4367,106.1965 143.8037,101.2565 139.8047,97.4115 C137.2967,94.9985 135.4307,93.0185 134.3897,91.8795 L134.3897,90.2215 L132.9117,90.2215 L132.9117,91.6655 L127.7277,91.6625 L127.7277,90.2215 L126.2507,90.2215 L126.2507,92.3665 C125.9747,93.2695 125.2577,95.5385 124.1477,98.4485 C121.0937,106.4545 117.4147,113.6455 111.5877,119.5215 C110.4987,120.6205 109.6047,121.4015 109.0647,121.8505 C108.5127,121.9245 107.9757,122.0015 107.4347,122.0775 C107.6057,122.6075 107.7527,123.1455 107.8527,123.7015 C107.9237,124.0985 108.4017,125.7015 107.7817,124.0055 C107.8957,124.3175 107.9937,124.6295 108.0817,124.9415 C113.5777,124.0665 119.6737,123.1085 126.2507,122.2775 L126.2507,136.0355 L127.7277,136.0355 L127.7277,125.8585 L132.9117,125.8585 L132.9117,136.0355 L134.3897,136.0355 L134.3897,121.3505 C142.8477,120.5015 151.9237,119.9685 161.3657,120.1345 C173.4157,120.3455 184.8547,120.9575 195.1597,121.9435 L195.1597,136.0355 L195.8577,136.0355 L195.8577,124.2705 L198.7807,124.2705 L198.7807,136.0355 L199.4767,136.0355 L199.4767,122.3855 C203.0987,122.7805 206.5637,123.2255 209.8417,123.7185 L209.8417,123.1015 C208.2847,122.8685 206.6847,122.6415 205.0477,122.4205 Z" id="Fill-46" fill="#2196F3" mask="url(#mask-2)"></path>
            <path d="M0,178.0239 L5.551,178.0239 L5.551,174.2419 C5.551,172.2899 5.876,170.5419 6.527,168.9959 C7.177,167.4509 8.083,166.1399 9.241,165.0619 C10.4,163.9849 11.782,163.1609 13.389,162.5909 C14.995,162.0219 16.754,161.7369 18.666,161.7369 C19.357,161.7369 20.252,161.7779 21.35,161.8589 C22.448,161.9409 23.546,162.0829 24.644,162.2859 L24.156,169.5449 L19.398,169.5449 C17.974,169.5449 16.734,169.9519 15.677,170.7649 C14.619,171.5789 14.091,172.9609 14.091,174.9129 L14.091,178.0239 L22.57,178.0239 L22.57,185.0999 L14.091,185.0999 L14.091,208.0969 L5.551,208.0969 L5.551,184.9169 L0,183.2699 L0,178.0239 Z" id="Fill-47" fill="#2196F3" mask="url(#mask-2)"></path>
            <path d="M38.1851,208.0971 L29.6451,208.0971 L29.6451,177.9021 L34.2201,177.9021 L36.5381,181.9281 C37.4731,180.5051 38.6631,179.4071 40.1061,178.6341 C41.5501,177.8621 43.2071,177.4751 45.0781,177.4751 C46.5421,177.4751 47.9651,177.7291 49.3481,178.2381 C50.7301,178.7461 52.0111,179.4681 53.1911,180.4031 L49.2871,186.9911 C48.5951,186.4631 47.8731,186.0561 47.1221,185.7711 C46.3691,185.4871 45.5251,185.3441 44.5901,185.3441 C43.0041,185.3441 41.6101,185.8531 40.4121,186.8691 C39.2111,187.8861 38.4691,189.2081 38.1851,190.8341 L38.1851,208.0971 Z" id="Fill-48" fill="#2196F3" mask="url(#mask-2)"></path>
            <path d="M62.8291,193.0913 C62.8291,194.1893 63.0011,195.2163 63.3481,196.1723 C63.6931,197.1273 64.1911,197.9513 64.8421,198.6423 C65.4921,199.3343 66.2451,199.8833 67.0991,200.2893 C67.9531,200.6963 68.9081,200.8993 69.9661,200.8993 C71.0231,200.8993 71.9891,200.6963 72.8641,200.2893 C73.7381,199.8833 74.4801,199.3343 75.0901,198.6423 C75.7001,197.9513 76.1781,197.1273 76.5231,196.1723 C76.8691,195.2163 77.0421,194.1893 77.0421,193.0913 C77.0421,191.9933 76.8691,190.9663 76.5231,190.0103 C76.1781,189.0553 75.7001,188.2213 75.0901,187.5093 C74.4801,186.7993 73.7381,186.2393 72.8641,185.8323 C71.9891,185.4263 71.0231,185.2223 69.9661,185.2223 C68.9081,185.2223 67.9531,185.4263 67.0991,185.8323 C66.2451,186.2393 65.4921,186.7993 64.8421,187.5093 C64.1911,188.2213 63.6931,189.0553 63.3481,190.0103 C63.0011,190.9663 62.8291,191.9933 62.8291,193.0913 M54.5331,193.0913 C54.5331,190.9363 54.8991,188.9033 55.6311,186.9913 C56.3631,185.0803 57.4001,183.4233 58.7421,182.0193 C60.0841,180.6163 61.7101,179.5093 63.6221,178.6953 C65.5331,177.8823 67.6481,177.4753 69.9661,177.4753 C72.2841,177.4753 74.3891,177.8823 76.2801,178.6953 C78.1701,179.5093 79.7871,180.6163 81.1291,182.0193 C82.4711,183.4233 83.5171,185.0803 84.2701,186.9913 C85.0221,188.9033 85.3991,190.9363 85.3991,193.0913 C85.3991,195.2473 85.0221,197.2803 84.2701,199.1913 C83.5171,201.1033 82.4711,202.7593 81.1291,204.1623 C79.7871,205.5653 78.1701,206.6743 76.2801,207.4873 C74.3891,208.3003 72.2841,208.7073 69.9661,208.7073 C67.6481,208.7073 65.5431,208.3003 63.6531,207.4873 C61.7621,206.6743 60.1451,205.5653 58.8031,204.1623 C57.4611,202.7593 56.4131,201.1033 55.6621,199.1913 C54.9091,197.2803 54.5331,195.2473 54.5331,193.0913" id="Fill-49" fill="#2196F3" mask="url(#mask-2)"></path>
            <path d="M100.8315,208.0971 L92.2915,208.0971 L92.2915,177.9021 L96.8665,177.9021 L99.3065,181.8061 C100.2825,180.5461 101.5735,179.5091 103.1805,178.6951 C104.7865,177.8821 106.5445,177.4751 108.4565,177.4751 C110.2865,177.4751 111.9635,177.7801 113.4895,178.3901 C115.0145,179.0001 116.3455,179.8851 117.4845,181.0431 C118.6225,182.2021 119.5065,183.6261 120.1385,185.3131 C120.7685,187.0011 121.0835,188.9231 121.0835,191.0781 L121.0835,208.0971 L112.7265,208.0971 L112.7265,191.6271 C112.7265,189.7971 112.2585,188.3031 111.3235,187.1431 C110.3875,185.9851 108.9645,185.4051 107.0535,185.4051 C105.6705,185.4051 104.4195,185.7921 103.3025,186.5641 C102.1835,187.3371 101.3595,188.3131 100.8315,189.4921 L100.8315,208.0971 Z" id="Fill-50" fill="#2196F3" mask="url(#mask-2)"></path>
            <path d="M125.8413,178.0239 L131.0873,178.0239 L132.2463,169.2399 L139.2003,169.4229 L139.2003,178.0239 L146.7643,178.0239 L146.7643,185.0999 L139.2003,185.0999 L139.2003,196.8729 C139.2003,198.1749 139.5053,199.1509 140.1153,199.8009 C140.7253,200.4519 141.5183,200.7769 142.4943,200.7769 L146.7033,200.7769 L147.0083,207.9139 C145.8693,208.1169 144.7913,208.2589 143.7753,208.3409 C142.7583,208.4219 141.7823,208.4629 140.8473,208.4629 C139.1393,208.4629 137.6543,208.1889 136.3943,207.6399 C135.1333,207.0909 134.0853,206.3489 133.2523,205.4129 C132.4183,204.4779 131.7883,203.3599 131.3623,202.0579 C130.9343,200.7569 130.7213,199.3739 130.7213,197.9099 L130.7213,185.0999 L125.8413,185.0999 L125.8413,178.0239 Z" id="Fill-51" fill="#2196F3" mask="url(#mask-2)"></path>
            <path d="M166.4062,184.0019 C164.4942,184.0019 162.9692,184.6029 161.8312,185.8019 C160.6922,187.0019 160.0212,188.4759 159.8182,190.2239 L172.8112,190.2239 C172.7702,189.3699 172.5872,188.5679 172.2622,187.8149 C171.9362,187.0629 171.4992,186.4019 170.9502,185.8319 C170.4022,185.2629 169.7402,184.8159 168.9682,184.4899 C168.1952,184.1649 167.3412,184.0019 166.4062,184.0019 M167.5042,201.8749 C168.8862,201.8749 170.1982,201.6109 171.4382,201.0819 C172.6782,200.5539 173.7662,199.7399 174.7022,198.6419 L180.5582,202.9119 C178.8902,204.8639 176.9382,206.3189 174.7022,207.2729 C172.4652,208.2289 170.0052,208.7069 167.3212,208.7069 C164.8402,208.7069 162.6032,208.3109 160.6112,207.5179 C158.6182,206.7249 156.9212,205.6269 155.5172,204.2239 C154.1142,202.8209 153.0362,201.1639 152.2842,199.2519 C151.5312,197.3409 151.1562,195.2869 151.1562,193.0909 C151.1562,190.9359 151.5112,188.9029 152.2232,186.9909 C152.9342,185.0799 153.9412,183.4229 155.2432,182.0199 C156.5442,180.6169 158.1402,179.5089 160.0312,178.6949 C161.9232,177.8819 164.0272,177.4749 166.3452,177.4749 C168.5812,177.4749 170.6242,177.8819 172.4752,178.6949 C174.3252,179.5089 175.9112,180.6069 177.2342,181.9889 C178.5542,183.3719 179.5822,184.9779 180.3142,186.8079 C181.0462,188.6379 181.4122,190.5899 181.4122,192.6639 C181.4122,193.3149 181.4022,193.8639 181.3822,194.3109 C181.3612,194.7589 181.3302,195.1249 181.2902,195.4089 L159.7572,195.4089 C159.9192,197.3609 160.7222,198.9269 162.1662,200.1059 C163.6102,201.2859 165.3892,201.8749 167.5042,201.8749" id="Fill-52" fill="#2196F3" mask="url(#mask-2)"></path>
            <path d="M197.4546,208.0971 L188.9146,208.0971 L188.9146,177.9021 L193.4896,177.9021 L195.9296,181.8061 C196.9056,180.5461 198.1966,179.5091 199.8036,178.6951 C201.4096,177.8821 203.1676,177.4751 205.0796,177.4751 C206.9096,177.4751 208.5866,177.7801 210.1126,178.3901 C211.6376,179.0001 212.9686,179.8851 214.1076,181.0431 C215.2456,182.2021 216.1296,183.6261 216.7616,185.3131 C217.3916,187.0011 217.7066,188.9231 217.7066,191.0781 L217.7066,208.0971 L209.3496,208.0971 L209.3496,191.6271 C209.3496,189.7971 208.8816,188.3031 207.9466,187.1431 C207.0106,185.9851 205.5876,185.4051 203.6766,185.4051 C202.2936,185.4051 201.0426,185.7921 199.9256,186.5641 C198.8066,187.3371 197.9826,188.3131 197.4546,189.4921 L197.4546,208.0971 Z" id="Fill-53" fill="#2196F3" mask="url(#mask-2)"></path>
            <path d="M232.4072,193.0913 C232.4072,194.1893 232.5792,195.2163 232.9262,196.1723 C233.2702,197.1273 233.7592,197.9613 234.3892,198.6733 C235.0192,199.3843 235.7712,199.9333 236.6462,200.3203 C237.5202,200.7063 238.4662,200.8993 239.4832,200.8993 C241.5972,200.8993 243.3262,200.1883 244.6682,198.7643 C246.0102,197.3413 246.6812,195.4503 246.6812,193.0913 C246.6812,190.7733 246.0192,188.8823 244.6992,187.4183 C243.3762,185.9543 241.6382,185.2223 239.4832,185.2223 C238.4662,185.2223 237.5202,185.4263 236.6462,185.8323 C235.7712,186.2393 235.0192,186.7883 234.3892,187.4793 C233.7592,188.1713 233.2702,189.0043 232.9262,189.9803 C232.5792,190.9563 232.4072,191.9933 232.4072,193.0913 M223.9892,193.1523 C223.9892,190.9563 224.3652,188.9033 225.1172,186.9913 C225.8692,185.0803 226.8962,183.4233 228.1982,182.0193 C229.4992,180.6163 231.0542,179.5093 232.8652,178.6953 C234.6742,177.8823 236.6362,177.4753 238.7512,177.4753 C240.2552,177.4753 241.6792,177.7093 243.0212,178.1763 C244.3632,178.6443 245.5422,179.3463 246.5592,180.2813 L246.5592,162.0423 L255.0382,162.0423 L255.0382,208.0973 L249.4872,208.0973 L248.0842,204.2543 C247.0262,205.5563 245.6752,206.6233 244.0282,207.4563 C242.3812,208.2893 240.4992,208.7073 238.3852,208.7073 C236.3112,208.7073 234.3992,208.3103 232.6512,207.5173 C230.9022,206.7243 229.3872,205.6263 228.1062,204.2233 C226.8252,202.8203 225.8192,201.1743 225.0872,199.2823 C224.3552,197.3913 223.9892,195.3483 223.9892,193.1523" id="Fill-54" fill="#2196F3" mask="url(#mask-2)"></path>
            <path d="M264.126,208.097 L270.593,208.097 L270.593,178.207 L264.126,178.207 L264.126,208.097 Z M263.089,167.959 C263.089,166.78 263.506,165.763 264.34,164.909 C265.173,164.055 266.18,163.628 267.359,163.628 C268.538,163.628 269.556,164.055 270.409,164.909 C271.264,165.763 271.69,166.78 271.69,167.959 C271.69,169.139 271.264,170.145 270.409,170.978 C269.556,171.812 268.538,172.229 267.359,172.229 C266.18,172.229 265.173,171.812 264.34,170.978 C263.506,170.145 263.089,169.139 263.089,167.959 Z" id="Fill-55" fill="#2196F3" mask="url(#mask-2)"></path>
            <path d="M295.9678,185.039 C294.0968,183.657 292.0228,182.965 289.7458,182.965 C288.4038,182.965 287.3758,183.291 286.6648,183.941 C285.9528,184.592 285.5978,185.426 285.5978,186.442 C285.5978,187.134 285.8518,187.774 286.3608,188.364 C286.8678,188.954 287.7328,189.37 288.9528,189.614 L291.8808,190.285 C295.2148,191.017 297.5538,192.176 298.8958,193.762 C300.2378,195.348 300.9078,197.199 300.9078,199.313 C300.9078,200.615 300.6438,201.835 300.1148,202.973 C299.5868,204.112 298.8238,205.108 297.8278,205.962 C296.8308,206.816 295.6318,207.487 294.2298,207.975 C292.8258,208.463 291.2708,208.707 289.5628,208.707 C287.4888,208.707 285.4758,208.331 283.5238,207.579 C281.5718,206.827 279.9048,205.739 278.5218,204.315 L282.0598,200.167 C283.0358,201.225 284.1848,202.008 285.5068,202.516 C286.8268,203.024 288.1188,203.278 289.3798,203.278 C291.0878,203.278 292.3378,202.872 293.1308,202.058 C293.9238,201.245 294.3208,200.31 294.3208,199.252 C294.3208,198.439 294.0048,197.697 293.3748,197.026 C292.7438,196.354 291.7378,195.857 290.3558,195.531 L287.0008,194.738 C285.9438,194.494 284.9368,194.169 283.9818,193.762 C283.0258,193.356 282.1818,192.817 281.4498,192.145 C280.7178,191.475 280.1278,190.672 279.6808,189.736 C279.2338,188.801 279.0098,187.703 279.0098,186.442 C279.0098,185.304 279.2428,184.206 279.7108,183.148 C280.1788,182.091 280.8498,181.156 281.7248,180.342 C282.5988,179.529 283.6968,178.878 285.0188,178.39 C286.3398,177.902 287.8548,177.658 289.5628,177.658 C291.3928,177.658 293.1108,177.913 294.7168,178.421 C296.3228,178.93 297.8378,179.712 299.2618,180.769 L295.9678,185.039 Z" id="Fill-56" fill="#2196F3" mask="url(#mask-2)"></path>
            <path d="M305.6045,178.207 L311.0335,178.207 L312.1925,169.301 L317.2555,169.423 L317.2555,178.207 L325.4905,178.207 L325.4905,183.697 L317.2555,183.697 L317.2555,197.971 C317.2555,199.557 317.6215,200.716 318.3535,201.448 C319.0855,202.18 319.9795,202.546 321.0375,202.546 L325.4295,202.546 L325.6735,208.036 C324.0055,208.32 322.2775,208.463 320.4885,208.463 C318.8615,208.463 317.4485,208.198 316.2495,207.67 C315.0485,207.142 314.0425,206.419 313.2295,205.505 C312.4165,204.59 311.8055,203.522 311.3995,202.302 C310.9925,201.082 310.7905,199.761 310.7905,198.337 L310.7905,183.697 L305.6045,183.697 L305.6045,178.207 Z" id="Fill-57" fill="#2196F3" mask="url(#mask-2)"></path>
            <path d="M337.2031,193.1523 C337.2031,194.4943 337.4171,195.7443 337.8441,196.9033 C338.2701,198.0623 338.8811,199.0693 339.6741,199.9233 C340.4671,200.7773 341.3911,201.4483 342.4491,201.9363 C343.5071,202.4243 344.6851,202.6683 345.9871,202.6683 C347.2881,202.6683 348.4771,202.4243 349.5561,201.9363 C350.6331,201.4483 351.5691,200.7673 352.3621,199.8923 C353.1551,199.0183 353.7651,197.9813 354.1921,196.7813 C354.6191,195.5823 354.8321,194.2713 354.8321,192.8473 C354.8321,191.5873 354.6191,190.4073 354.1921,189.3093 C353.7651,188.2113 353.1551,187.2453 352.3621,186.4113 C351.5691,185.5783 350.6331,184.9173 349.5561,184.4293 C348.4771,183.9413 347.2881,183.6973 345.9871,183.6973 C344.7261,183.6973 343.5571,183.9413 342.4791,184.4293 C341.4021,184.9173 340.4761,185.5883 339.7041,186.4423 C338.9321,187.2963 338.3211,188.2933 337.8741,189.4313 C337.4271,190.5703 337.2031,191.8103 337.2031,193.1523 M330.6771,193.1523 C330.6771,190.9563 331.0521,188.9233 331.8051,187.0523 C332.5571,185.1823 333.6041,183.5443 334.9461,182.1413 C336.2881,180.7383 337.8741,179.6403 339.7041,178.8473 C341.5341,178.0543 343.5261,177.6583 345.6821,177.6583 C347.5131,177.6583 349.3621,178.0453 351.2331,178.8173 C353.1031,179.5903 354.7101,180.7493 356.0531,182.2943 L358.1261,178.0853 L361.2991,178.0853 L361.2991,208.0973 L355.7471,208.0973 L355.3821,203.8273 C354.2421,205.3733 352.7371,206.5723 350.8671,207.4263 C348.9961,208.2803 347.1251,208.7073 345.2561,208.7073 C343.2221,208.7073 341.3211,208.3103 339.5521,207.5173 C337.7831,206.7243 336.2371,205.6373 334.9161,204.2543 C333.5941,202.8723 332.5571,201.2253 331.8051,199.3133 C331.0521,197.4023 330.6771,195.3483 330.6771,193.1523" id="Fill-58" fill="#2196F3" mask="url(#mask-2)"></path>
            <path d="M377.4619,208.0971 L370.9959,208.0971 L370.9959,178.0851 L374.1079,178.0851 L376.4249,182.1721 C377.4829,180.8301 378.8349,179.7431 380.4819,178.9091 C382.1289,178.0761 383.8879,177.6581 385.7579,177.6581 C387.5469,177.6581 389.2249,177.9531 390.7909,178.5421 C392.3559,179.1331 393.7079,179.9971 394.8479,181.1351 C395.9849,182.2741 396.8799,183.6661 397.5309,185.3131 C398.1819,186.9601 398.5069,188.8211 398.5069,190.8951 L398.5069,208.0971 L392.0409,208.0971 L392.0409,191.4441 C392.0409,189.2081 391.4719,187.3681 390.3329,185.9241 C389.1939,184.4801 387.4449,183.7581 385.0869,183.7581 C383.4599,183.7581 381.9549,184.2161 380.5729,185.1311 C379.1909,186.0461 378.1529,187.2351 377.4619,188.6991 L377.4619,208.0971 Z" id="Fill-59" fill="#2196F3" mask="url(#mask-2)"></path>
            <path d="M431.3252,193.1523 C431.3252,191.8513 431.1322,190.6203 430.7462,189.4613 C430.3582,188.3023 429.8012,187.2963 429.0682,186.4423 C428.3362,185.5883 427.4612,184.9173 426.4452,184.4293 C425.4292,183.9413 424.3102,183.6973 423.0912,183.6973 C421.8292,183.6973 420.6502,183.9313 419.5532,184.3983 C418.4542,184.8663 417.4982,185.5173 416.6852,186.3503 C415.8712,187.1843 415.2302,188.1803 414.7632,189.3393 C414.2962,190.4983 414.0622,191.7703 414.0622,193.1523 C414.0622,194.5763 414.2852,195.8773 414.7332,197.0563 C415.1802,198.2363 415.8012,199.2423 416.5942,200.0753 C417.3872,200.9093 418.3112,201.5503 419.3692,201.9973 C420.4272,202.4453 421.5852,202.6683 422.8462,202.6683 C424.1062,202.6683 425.2562,202.4143 426.2932,201.9053 C427.3302,201.3973 428.2232,200.7163 428.9762,199.8623 C429.7282,199.0083 430.3082,198.0013 430.7162,196.8423 C431.1212,195.6833 431.3252,194.4543 431.3252,193.1523 M437.7912,193.1523 C437.7912,195.3083 437.4342,197.3303 436.7232,199.2213 C436.0122,201.1123 435.0152,202.7593 433.7342,204.1623 C432.4542,205.5653 430.9082,206.6743 429.0982,207.4873 C427.2892,208.3003 425.2862,208.7073 423.0912,208.7073 C421.1382,208.7073 419.2982,208.3103 417.5702,207.5173 C415.8412,206.7243 414.3262,205.5963 413.0252,204.1323 L411.7442,208.0973 L407.6572,208.0973 L407.6572,162.0423 L414.1232,162.0423 L414.1232,181.6843 C415.3032,180.3833 416.6852,179.3873 418.2712,178.6953 C419.8572,178.0043 421.5652,177.6583 423.3952,177.6583 C425.4702,177.6583 427.3802,178.0653 429.1292,178.8783 C430.8772,179.6923 432.3922,180.7993 433.6742,182.2023 C434.9552,183.6053 435.9612,185.2523 436.6932,187.1433 C437.4262,189.0343 437.7912,191.0383 437.7912,193.1523" id="Fill-60" fill="#2196F3" mask="url(#mask-2)"></path>
            <path d="M465.7295,178.207 L472.2555,178.207 L472.2555,208.097 L468.1085,208.097 L466.8275,204.315 C465.8915,205.576 464.6305,206.624 463.0445,207.457 C461.4585,208.29 459.7095,208.707 457.7995,208.707 C453.5695,208.707 450.4085,207.457 448.3135,204.956 C446.2185,202.455 445.1715,199.13 445.1715,194.982 L445.1715,178.207 L451.6385,178.207 L451.6385,194.738 C451.6385,197.3 452.1765,199.252 453.2545,200.594 C454.3325,201.936 456.1315,202.607 458.6535,202.607 C460.8085,202.607 462.5465,201.957 463.8695,200.655 C465.1895,199.354 465.8105,197.483 465.7295,195.043 L465.7295,178.207 Z" id="Fill-61" fill="#2196F3" mask="url(#mask-2)"></path>
            <polygon id="Fill-62" fill="#2196F3" mask="url(#mask-2)" points="481.954 208.097 488.42 208.097 488.42 162.042 481.954 162.042"></polygon>
        </g>
    </g>
</svg>