<svg height="372pt" preserveAspectRatio="xMidYMid meet" viewBox="0 0 372 372" width="372pt" xmlns="http://www.w3.org/2000/svg"><g transform="matrix(.1 0 0 -.1 0 372)"><path d="m1945 3495c-108-17-157-31-240-69-135-63-252-185-326-342-35-73-99-289-99-333 0-12-14-21-50-30-109-28-140-93-76-157 19-19 41-34 50-34 10 0 16-9 16-24 0-66-171-1110-227-1386-39-197-91-377-129-452-53-105-170-198-250-198-90 0-204-68-204-122 0-35 39-90 80-111 86-45 337 25 494 137 193 137 341 401 414 736 40 181 70 348 157 878l88 532h129c150 0 207 12 248 50 51 48 33 106-44 141-33 15-66 19-168 19h-126l14 63c70 307 144 443 256 466 27 6 60 11 73 11 76 0 185 69 185 117 0 41-28 80-73 102-49 24-77 25-192 6z"/><path d="m617 2960c-20-11-82-58-136-103s-178-145-274-220c-153-120-178-144-192-182-28-73 4-132 110-205 28-18 142-104 255-189 113-86 221-163 240-173 42-22 111-23 150-3 69 36 85 150 29 211-10 11-109 87-219 170l-200 149 32 28c18 16 110 86 203 157 200 151 226 184 205 274-20 90-119 131-203 86z"/><path d="m2288 2460c-141-24-249-81-353-185-156-156-230-336-229-555 1-265 102-402 331-446 128-24 298-12 374 27 69 35 109 105 77 137-17 17-75 14-138-8-61-22-181-27-227-9-78 29-115 101-121 232l-4 97h60c197 0 378 57 506 160 133 107 197 293 139 405-63 120-225 177-415 145zm114-148c46-39 48-153 5-238-51-101-219-225-350-260l-49-13 7 52c13 92 44 200 79 272 79 160 232 253 308 187z"/><path d="m2981 2397c-85-30-112-153-50-231 11-14 98-84 192-155 95-72 182-138 195-149l23-18-215-163c-228-173-236-182-236-263 0-53 22-92 64-112 81-38 110-25 381 178 133 100 264 197 291 216 30 21 59 53 74 82 23 43 23 50 11 85-7 21-21 46-30 57-23 26-513 415-564 448-53 33-92 41-136 25z"/><path d="m1917 926c-97-35-153-116-145-211 6-67 34-104 130-170 84-58 105-91 92-144-19-75-138-107-229-61-22 11-42 20-46 20-6 0-39-78-39-92 0-11 97-47 146-53 65-9 159 17 207 56 48 40 77 103 77 169 0 80-32 127-129 190-106 69-125 113-73 171 43 48 106 50 212 5 10-4 22 6 38 29 12 19 22 39 22 45s-24 22-52 35c-61 28-149 33-211 11z"/><path d="m2267 933c-3-5-8-27-12-50l-7-43h102c101 0 102 0 97-22-12-49-107-566-107-581 0-14 10-17 55-17h54l7 38c4 20 30 159 58 307l51 270 111 3 111 3 7 37c3 20 6 43 6 50 0 9-59 12-264 12-146 0-267-3-269-7z"/><path d="m1585 908c-8-21-165-668-165-678 0-6 24-10 54-10h54l86 345c47 190 86 347 86 350 0 12-111 4-115-7z"/></g></svg>