<?xml version="1.0" standalone="no"?>
<!DOCTYPE svg PUBLIC "-//W3C//DTD SVG 20010904//EN"
 "http://www.w3.org/TR/2001/REC-SVG-20010904/DTD/svg10.dtd">
<svg version="1.0" xmlns="http://www.w3.org/2000/svg"
 width="372.000000pt" height="372.000000pt" viewBox="0 0 372.000000 372.000000"
 preserveAspectRatio="xMidYMid meet">
<metadata>
Created by potrace 1.11, written by Peter Selinger 2001-2013
</metadata>
<g transform="translate(0.000000,372.000000) scale(0.100000,-0.100000)"
fill="#000000" stroke="none">
<path d="M1945 3495 c-108 -17 -157 -31 -240 -69 -135 -63 -252 -185 -326
-342 -35 -73 -99 -289 -99 -333 0 -12 -14 -21 -50 -30 -109 -28 -140 -93 -76
-157 19 -19 41 -34 50 -34 10 0 16 -9 16 -24 0 -66 -171 -1110 -227 -1386 -39
-197 -91 -377 -129 -452 -53 -105 -170 -198 -250 -198 -90 0 -204 -68 -204
-122 0 -35 39 -90 80 -111 86 -45 337 25 494 137 193 137 341 401 414 736 40
181 70 348 157 878 l88 532 129 0 c150 0 207 12 248 50 51 48 33 106 -44 141
-33 15 -66 19 -168 19 l-126 0 14 63 c70 307 144 443 256 466 27 6 60 11 73
11 76 0 185 69 185 117 0 41 -28 80 -73 102 -49 24 -77 25 -192 6z"/>
<path d="M617 2960 c-20 -11 -82 -58 -136 -103 -54 -45 -178 -145 -274 -220
-153 -120 -178 -144 -192 -182 -28 -73 4 -132 110 -205 28 -18 142 -104 255
-189 113 -86 221 -163 240 -173 42 -22 111 -23 150 -3 69 36 85 150 29 211
-10 11 -109 87 -219 170 l-200 149 32 28 c18 16 110 86 203 157 200 151 226
184 205 274 -20 90 -119 131 -203 86z"/>
<path d="M2288 2460 c-141 -24 -249 -81 -353 -185 -156 -156 -230 -336 -229
-555 1 -265 102 -402 331 -446 128 -24 298 -12 374 27 69 35 109 105 77 137
-17 17 -75 14 -138 -8 -61 -22 -181 -27 -227 -9 -78 29 -115 101 -121 232 l-4
97 60 0 c197 0 378 57 506 160 133 107 197 293 139 405 -63 120 -225 177 -415
145z m114 -148 c46 -39 48 -153 5 -238 -51 -101 -219 -225 -350 -260 l-49 -13
7 52 c13 92 44 200 79 272 79 160 232 253 308 187z"/>
<path d="M2981 2397 c-85 -30 -112 -153 -50 -231 11 -14 98 -84 192 -155 95
-72 182 -138 195 -149 l23 -18 -215 -163 c-228 -173 -236 -182 -236 -263 0
-53 22 -92 64 -112 81 -38 110 -25 381 178 133 100 264 197 291 216 30 21 59
53 74 82 23 43 23 50 11 85 -7 21 -21 46 -30 57 -23 26 -513 415 -564 448 -53
33 -92 41 -136 25z"/>
<path d="M1917 926 c-97 -35 -153 -116 -145 -211 6 -67 34 -104 130 -170 84
-58 105 -91 92 -144 -19 -75 -138 -107 -229 -61 -22 11 -42 20 -46 20 -6 0
-39 -78 -39 -92 0 -11 97 -47 146 -53 65 -9 159 17 207 56 48 40 77 103 77
169 0 80 -32 127 -129 190 -106 69 -125 113 -73 171 43 48 106 50 212 5 10 -4
22 6 38 29 12 19 22 39 22 45 0 6 -24 22 -52 35 -61 28 -149 33 -211 11z"/>
<path d="M2267 933 c-3 -5 -8 -27 -12 -50 l-7 -43 102 0 c101 0 102 0 97 -22
-12 -49 -107 -566 -107 -581 0 -14 10 -17 55 -17 l54 0 7 38 c4 20 30 159 58
307 l51 270 111 3 111 3 7 37 c3 20 6 43 6 50 0 9 -59 12 -264 12 -146 0 -267
-3 -269 -7z"/>
<path d="M1585 908 c-8 -21 -165 -668 -165 -678 0 -6 24 -10 54 -10 l54 0 86
345 c47 190 86 347 86 350 0 12 -111 4 -115 -7z"/>
</g>
</svg>
