<svg height="58" viewBox="0 0 181 58" width="181" xmlns="http://www.w3.org/2000/svg"><path d="m141.7901 24.8732026c-1.802441-.0753332-3.2423-1.5611685-3.2423-3.3830026v-6.959c0-1.87 1.517-3.385 3.386-3.385h8.648c1.87 0 3.386 1.515 3.386 3.385v6.959c0 1.8213199-1.438098 3.3068307-3.2407 3.3829385v15.2961615h-8.937zm-141.5328-13.4630026h5.118v12.43h.122l12.023-12.43h6.905l-13.445 13.282 14.339 15.477h-7.19l-12.632-14.42h-.122v14.42h-5.118zm39.5342-.7306c8.977 0 15.517 5.809 15.517 15.029 0 8.977-6.54 15.191-15.517 15.191-8.855 0-15.394-6.214-15.394-15.191 0-9.22 6.539-15.029 15.394-15.029zm.041 25.63c5.89 0 9.911-4.467 9.911-10.601 0-5.93-3.941-10.52-9.911-10.52-5.931 0-9.871 4.59-9.871 10.52 0 6.134 4.021 10.601 9.871 10.601zm19.3062-24.8994h5.119v24.209h12.225v4.55h-17.344zm33.1611-.0001h4.428l12.388 28.759h-5.849l-2.681-6.58h-12.47l-2.599 6.58h-5.727zm6.5 17.792-4.429-11.698-4.509 11.698zm16.543-1.5039-10.805-16.288h6.255l7.231 12.104 7.311-12.104h5.93l-10.804 16.288v12.471h-5.118zm26.5283-22.5019c0-2.519 1.787-4.672 4.387-4.672 2.599 0 4.386 2.153 4.386 4.672 0 2.599-1.787 4.63-4.386 4.63-2.6 0-4.387-2.031-4.387-4.63zm24.3135 22.4619h-.162v12.511h-8.815v-28.759h8.815v11.334h.204l3.979-11.334h9.75l-5.89 13.039 6.215 15.72h-10.075zm-165.7848 29.7186c-.085 0-.143-.057-.143-.142v-9.444c0-.087.058-.143.143-.143h3.462c1.875 0 3.091 1.145 3.091 2.904 0 1.76-1.216 2.904-3.091 2.904h-2.246c-.057 0-.086.03-.086.087v3.692c0 .085-.057.142-.143.142zm5.294-6.825c0-1.059-.701-1.717-1.903-1.717h-2.175c-.057 0-.086.029-.086.086v3.263c0 .056.029.085.086.085h2.175c1.202 0 1.903-.658 1.903-1.717zm3.0308-2.7608c0-.087.058-.144.143-.144h5.852c.086 0 .143.057.143.144v.901c0 .086-.057.143-.143.143h-4.636c-.057 0-.086.028-.086.086v2.861c0 .058.029.086.086.086h3.935c.085 0 .143.058.143.143v.902c0 .085-.058.143-.143.143h-3.935c-.057 0-.086.029-.086.086v2.962c0 .056.029.085.086.085h4.636c.086 0 .143.057.143.144v.901c0 .085-.057.143-.143.143h-5.852c-.085 0-.143-.058-.143-.143zm13.6898 9.5862c-.099 0-.142-.043-.186-.143l-1.946-3.978h-2.146c-.057 0-.086.029-.086.087v3.891c0 .085-.057.143-.143.143h-.987c-.086 0-.143-.058-.143-.143v-9.443c0-.087.057-.144.143-.144h3.52c1.817 0 3.047 1.117 3.047 2.804 0 1.316-.743 2.275-1.917 2.647l2.075 4.107c.057.086.014.172-.086.172zm-.2-6.926c0-1.015-.672-1.616-1.803-1.616h-2.275c-.057 0-.086.028-.086.086v3.062c0 .057.029.085.086.085h2.275c1.131 0 1.803-.6 1.803-1.617zm2.916 5.8672c-.058-.058-.072-.144-.014-.215l.629-.744c.057-.071.129-.071.2-.015.63.501 1.602 1.001 2.719 1.001 1.344 0 2.146-.672 2.146-1.658 0-.831-.472-1.389-2.032-1.589l-.486-.071c-1.889-.258-2.862-1.159-2.862-2.689 0-1.733 1.245-2.848 3.177-2.848 1.145 0 2.246.372 2.961.901.072.058.086.129.029.2l-.486.788c-.058.071-.129.071-.2.028-.788-.486-1.517-.73-2.347-.73-1.188 0-1.846.644-1.846 1.574 0 .816.543 1.359 2.046 1.559l.472.072c1.903.258 2.861 1.13 2.861 2.718 0 1.703-1.201 2.934-3.548 2.934-1.373 0-2.704-.558-3.419-1.216zm8.8397-1.06c-.186-.557-.258-1.144-.258-2.747 0-1.602.072-2.188.258-2.747.501-1.502 1.674-2.274 3.305-2.274 1.646 0 2.818.772 3.319 2.274.186.559.258 1.145.258 2.747 0 1.603-.072 2.19-.258 2.747-.501 1.503-1.673 2.276-3.319 2.276-1.631 0-2.804-.773-3.305-2.276zm5.38-.357c.114-.357.214-.987.214-2.39 0-1.402-.1-2.031-.214-2.388-.301-.93-.988-1.446-2.075-1.446-1.073 0-1.76.516-2.06 1.446-.115.357-.215.986-.215 2.388 0 1.403.1 2.033.215 2.39.3.931.987 1.444 2.06 1.444 1.087 0 1.774-.513 2.075-1.444zm3.5596-7.1104c0-.087.058-.144.143-.144h.916c.114 0 .185.029.243.144l4.406 7.297h.058v-7.297c0-.087.057-.144.143-.144h.901c.086 0 .143.057.143.144v9.443c0 .085-.057.143-.143.143h-.915c-.101 0-.187-.029-.244-.143l-4.421-7.269h-.043v7.269c0 .085-.057.143-.143.143h-.901c-.085 0-.143-.058-.143-.143zm9.3545 0c0-.087.058-.144.143-.144h5.852c.086 0 .143.057.143.144v.901c0 .086-.057.143-.143.143h-4.636c-.057 0-.086.028-.086.086v2.861c0 .058.029.086.086.086h3.935c.085 0 .143.058.143.143v.902c0 .085-.058.143-.143.143h-3.935c-.057 0-.086.029-.086.086v2.962c0 .056.029.085.086.085h4.636c.086 0 .143.057.143.144v.901c0 .085-.057.143-.143.143h-5.852c-.085 0-.143-.058-.143-.143zm8.0527 0c0-.087.057-.144.143-.144h.987c.086 0 .143.057.143.144v8.313c0 .056.029.085.086.085h4.636c.086 0 .143.057.143.144v.901c0 .085-.057.143-.143.143h-5.852c-.086 0-.143-.058-.143-.143zm12.9458 9.586c-.086 0-.144-.058-.144-.143v-3.836l-2.875-5.593c-.029-.086.014-.157.114-.157h1.016c.1 0 .158.042.215.143l2.174 4.163h.029l2.16-4.163c.044-.101.101-.143.201-.143h.987c.114 0 .143.071.114.157l-2.875 5.593v3.836c0 .085-.057.143-.144.143zm9.5264-11.1172c-.085 0-.143-.058-.143-.144v-1.029c0-.086.058-.143.143-.143h.801c.086 0 .143.057.143.143v1.029c0 .086-.057.144-.143.144zm-2.861 0c-.087 0-.144-.058-.144-.144v-1.029c0-.086.057-.143.144-.143h.8c.086 0 .144.057.144.143v1.029c0 .086-.058.144-.144.144zm-1.474 8.999c-.186-.558-.258-1.145-.258-2.747 0-1.603.072-2.189.258-2.747.501-1.502 1.674-2.275 3.305-2.275 1.646 0 2.818.773 3.319 2.275.186.558.258 1.144.258 2.747 0 1.602-.072 2.189-.258 2.747-.501 1.503-1.673 2.275-3.319 2.275-1.631 0-2.804-.772-3.305-2.275zm5.38-.357c.114-.358.214-.988.214-2.39s-.1-2.031-.214-2.389c-.301-.929-.988-1.445-2.075-1.445-1.074 0-1.761.516-2.06 1.445-.115.358-.215.987-.215 2.389s.1 2.032.215 2.39c.299.93.986 1.444 2.06 1.444 1.087 0 1.774-.514 2.075-1.444zm3.5595-7.1108c0-.087.058-.144.143-.144h.916c.114 0 .185.029.243.144l4.407 7.297h.057v-7.297c0-.087.056-.144.143-.144h.902c.085 0 .142.057.142.144v9.443c0 .085-.057.143-.142.143h-.916c-.101 0-.186-.029-.244-.143l-4.422-7.269h-.042v7.269c0 .085-.057.143-.143.143h-.901c-.085 0-.143-.058-.143-.143zm9.3544 0c0-.087.058-.144.143-.144h5.852c.085 0 .143.057.143.144v.901c0 .086-.058.143-.143.143h-4.636c-.057 0-.086.028-.086.086v2.861c0 .058.029.086.086.086h3.935c.085 0 .143.058.143.143v.902c0 .085-.058.143-.143.143h-3.935c-.057 0-.086.029-.086.086v2.962c0 .056.029.085.086.085h4.636c.085 0 .143.057.143.144v.901c0 .085-.058.143-.143.143h-5.852c-.085 0-.143-.058-.143-.143zm10.1983 9.586c-.085 0-.143-.058-.143-.143v-8.313c0-.058-.028-.086-.086-.086h-2.661c-.086 0-.142-.057-.142-.143v-.901c0-.087.056-.143.142-.143h6.768c.086 0 .143.056.143.143v.901c0 .086-.057.143-.143.143h-2.661c-.058 0-.086.028-.086.086v8.313c0 .085-.057.143-.143.143zm5.6924-11.1172c-.086 0-.143-.058-.143-.144v-1.029c0-.086.057-.143.143-.143h.987c.085 0 .143.057.143.143v1.029c0 .086-.058.144-.143.144zm-.157 1.531c0-.087.056-.143.142-.143h.988c.086 0 .142.056.142.143v9.444c0 .085-.056.142-.142.142h-.988c-.086 0-.142-.057-.142-.142zm3.6755.0002c0-.087.057-.144.144-.144h.929c.115 0 .186.043.229.144l2.904 6.553h.043l2.848-6.553c.043-.101.114-.144.229-.144h.93c.086 0 .142.057.142.144v9.443c0 .085-.056.143-.142.143h-.902c-.085 0-.143-.058-.143-.143v-6.768h-.043l-2.418 5.351c-.057.128-.128.172-.257.172h-.572c-.144 0-.215-.044-.273-.172l-2.418-5.351h-.042v6.768c0 .085-.057.143-.143.143h-.901c-.087 0-.144-.058-.144-.143zm16.0498 9.586c-.086 0-.144-.058-.144-.143v-3.836l-2.876-5.593c-.028-.086.015-.157.115-.157h1.016c.1 0 .157.042.214.143l2.175 4.163h.028l2.161-4.163c.043-.101.1-.143.201-.143h.987c.114 0 .143.071.114.157l-2.876 5.593v3.836c0 .085-.056.143-.143.143zm7.1229-9.5856c.028-.087.07-.144.171-.144h.931c.099 0 .156.057.185.144l3.334 9.443c.029.085-.014.143-.1.143h-1.002c-.1 0-.158-.043-.186-.143l-.744-2.118h-3.935l-.744 2.118c-.043.1-.1.143-.185.143h-1.002c-.086 0-.128-.058-.101-.143zm2.174 6.152-1.53-4.422h-.03l-1.544 4.422zm3.6318 3.4336c-.086 0-.143-.058-.143-.143v-.901c0-.058.014-.101.057-.158l4.75-7.325v-.015h-4.492c-.086 0-.144-.057-.144-.143v-.901c0-.087.058-.143.144-.143h5.808c.086 0 .144.056.144.143v.901c0 .057-.015.101-.058.158l-4.763 7.325v.015h4.677c.086 0 .144.056.144.143v.901c0 .085-.058.143-.144.143zm8.0245-9.586c0-.087.057-.144.144-.144h.987c.085 0 .142.057.142.144v9.443c0 .085-.057.143-.142.143h-.987c-.087 0-.144-.058-.144-.143zm3.6767 0c0-.087.057-.144.143-.144h.987c.086 0 .142.057.142.144v8.313c0 .056.03.085.087.085h4.636c.085 0 .143.057.143.144v.901c0 .085-.058.143-.143.143h-5.852c-.086 0-.143-.058-.143-.143zm7.6943 0c0-.087.058-.144.143-.144h.988c.085 0 .142.057.142.144v9.443c0 .085-.057.143-.142.143h-.988c-.085 0-.143-.058-.143-.143zm3.6768 0c0-.087.058-.144.143-.144h.929c.115 0 .187.043.23.144l2.904 6.553h.043l2.848-6.553c.043-.101.114-.144.228-.144h.931c.085 0 .142.057.142.144v9.443c0 .085-.057.143-.142.143h-.902c-.086 0-.143-.058-.143-.143v-6.768h-.044l-2.417 5.351c-.058.128-.129.172-.258.172h-.572c-.144 0-.214-.044-.272-.172l-2.419-5.351h-.042v6.768c0 .085-.057.143-.143.143h-.901c-.085 0-.143-.058-.143-.143zm10.7988 0c0-.087.058-.144.143-.144h.987c.086 0 .143.057.143.144v9.443c0 .085-.057.143-.143.143h-.987c-.085 0-.143-.058-.143-.143z" fill="#1a1919" fill-rule="evenodd"/></svg>