<?xml version="1.0" encoding="UTF-8"?>
<svg width="248px" height="74px" viewBox="0 0 248 74" version="1.1" xmlns="http://www.w3.org/2000/svg" xmlns:xlink="http://www.w3.org/1999/xlink">
    <!-- Generator: Sketch 49.2 (51160) - http://www.bohemiancoding.com/sketch -->
    <title>p'sano</title>
    <desc>Created with Sketch.</desc>
    <defs>
        <path d="M12.6897464,0.403966324 C5.82498976,0.403966324 0.260286012,5.88397535 0.260286012,12.6437388 L0.260286012,61.692398 C0.260286012,68.4526139 5.82498976,73.9321708 12.6897464,73.9321708 L27.4787661,73.9321708 L47.8210128,73.9321708 C65.7968153,73.9321708 80.368241,59.5825446 80.368241,41.8813104 L80.368241,31.9422912 L80.368241,12.6437388 C80.368241,5.88397535 74.803078,0.403966324 67.9383217,0.403966324 L12.6897464,0.403966324 Z" id="path-1"></path>
        <path d="M46.1142479,0.158493122 C37.5454157,0.158493122 30.4649122,5.76082204 27.647175,14.7425467 L18.6319821,41.7118975 L6.2315431,41.7118975 L14.8211043,16.0140734 C17.1044987,8.73637369 22.4566793,4.39124447 29.1368861,4.39124447 L31.023669,4.39124447 L31.023669,0.158493122 L29.1368861,0.158493122 C20.5680537,0.158493122 13.4875503,5.76082204 10.6698132,14.7425467 L0.239072358,45.9450966 L21.7942784,45.9450966 L31.7989267,16.0140734 C34.0823213,8.73637369 39.4340412,4.39124447 46.1142479,4.39124447 L46.8406776,4.39124447 C53.2901037,4.39124447 58.7394795,9.46391982 58.7394795,15.4683019 C58.7394795,21.6732629 53.9045981,26.5350618 47.7283319,26.5435685 L43.0159807,26.5435685 C46.2446092,23.7314349 48.2921555,19.7726886 48.2921555,15.4683019 C48.2921555,12.4873776 47.3225079,9.55346399 45.5407505,7.05249623 L41.8869511,9.35736233 C43.2145166,11.1764515 43.9386437,13.3102882 43.9386437,15.4683019 C43.9386437,21.3688128 38.2078165,26.5440163 31.6763966,26.5440163 L31.6763966,30.7772152 L31.6892945,30.7772152 L47.7112882,30.7767677 L47.7112882,30.7772152 C47.716355,30.7772152 47.7218831,30.7767677 47.7269499,30.7767677 L48.2912345,30.7767677 L48.2912345,30.763336 C56.6371169,30.4687357 63.0929921,23.8585876 63.0929921,15.4683019 C63.0929921,7.16935133 55.649504,0.158493122 46.8406776,0.158493122 L46.1142479,0.158493122 Z" id="path-3"></path>
    </defs>
    <g id="sosyal-medya-teşekkür" stroke="none" stroke-width="1" fill="none" fill-rule="evenodd">
        <g id="altın-pisano" transform="translate(-753.000000, -309.000000)">
            <g id="p'sano" transform="translate(753.000000, 309.000000)">
                <g id="pisano">
                    <g id="Group-3">
                        <g id="Fill-1-Clipped">
                            <g>
                                <mask id="mask-2" fill="white">
                                    <use xlink:href="#path-1"></use>
                                </mask>
                                <g id="path-1"></g>
                                <polygon id="Fill-1" fill="#00C392" fill-rule="nonzero" mask="url(#mask-2)" points="-1.9708755 77.5321304 84.1668094 77.5321304 84.1668094 -1.93795267 -1.9708755 -1.93795267"></polygon>
                            </g>
                        </g>
                    </g>
                    <g id="Group-6" transform="translate(9.000000, 13.000000)">
                        <g id="Fill-4-Clipped" transform="translate(0.380700, 0.357849)">
                            <g>
                                <mask id="mask-4" fill="white">
                                    <use xlink:href="#path-3"></use>
                                </mask>
                                <g id="path-3"></g>
                                <polygon id="Fill-4" fill="#FEFEFE" fill-rule="nonzero" mask="url(#mask-4)" points="-2.78641366 48.8848308 66.1175567 48.8848308 66.1175567 -2.78213632 -2.78641366 -2.78213632"></polygon>
                            </g>
                        </g>
                    </g>
                </g>
                <text id="Pisano" font-family="HelveticaNeue, Helvetica Neue" font-size="50" font-weight="normal" fill="#080808">
                    <tspan x="98" y="52">Pisano</tspan>
                </text>
            </g>
        </g>
    </g>
</svg>