<?xml version="1.0" encoding="utf-8"?>
<!-- Generator: Adobe Illustrator 22.1.0, SVG Export Plug-In . SVG Version: 6.00 Build 0)  -->
<svg version="1.1" id="Layer_1" xmlns="http://www.w3.org/2000/svg" xmlns:xlink="http://www.w3.org/1999/xlink" x="0px" y="0px"
	 viewBox="0 0 248 74" style="enable-background:new 0 0 248 74;" xml:space="preserve">
<style type="text/css">
	.st0{filter:url(#Adobe_OpacityMaskFilter);}
	.st1{fill:#FFFFFF;}
	.st2{mask:url(#mask-2_1_);fill:#00C392;}
	.st3{filter:url(#Adobe_OpacityMaskFilter_1_);}
	.st4{mask:url(#mask-4_1_);fill:#FEFEFE;}
	.st5{enable-background:new    ;}
	.st6{fill:#080808;}
</style>
<title>p&apos;sano</title>
<desc>Created with Sketch.</desc>
<g id="sosyal-medya-teşekkür">
	<g id="altın-pisano" transform="translate(-753.000000, -309.000000)">
		<g id="p_x27_sano" transform="translate(753.000000, 309.000000)">
			<g id="pisano">
				<g id="Group-3">
					<g id="Fill-1-Clipped">
						<g>
							<g id="path-1_1_">
							</g>
							<defs>
								<filter id="Adobe_OpacityMaskFilter" filterUnits="userSpaceOnUse" x="-2" y="-1.9" width="86.1" height="79.5">
									<feColorMatrix  type="matrix" values="1 0 0 0 0  0 1 0 0 0  0 0 1 0 0  0 0 0 1 0"/>
								</filter>
							</defs>
							<mask maskUnits="userSpaceOnUse" x="-2" y="-1.9" width="86.1" height="79.5" id="mask-2_1_">
								<g class="st0">
									<path id="path-1_2_" class="st1" d="M12.7,0.4C5.8,0.4,0.3,5.9,0.3,12.6v49c0,6.8,5.6,12.2,12.4,12.2h14.8h20.3
										c18,0,32.5-14.3,32.5-32.1v-9.9V12.6c0-6.8-5.6-12.2-12.4-12.2H12.7z"/>
								</g>
							</mask>
							<polygon id="Fill-1" class="st2" points="-2,77.5 84.2,77.5 84.2,-1.9 -2,-1.9 							"/>
						</g>
					</g>
				</g>
				<g id="Group-6" transform="translate(9.000000, 13.000000)">
					<g id="Fill-4-Clipped" transform="translate(0.380700, 0.357849)">
						<g>
							<g id="path-3_1_">
							</g>
							<defs>
								<filter id="Adobe_OpacityMaskFilter_1_" filterUnits="userSpaceOnUse" x="-2.8" y="-2.8" width="68.9" height="51.7">
									<feColorMatrix  type="matrix" values="1 0 0 0 0  0 1 0 0 0  0 0 1 0 0  0 0 0 1 0"/>
								</filter>
							</defs>
							<mask maskUnits="userSpaceOnUse" x="-2.8" y="-2.8" width="68.9" height="51.7" id="mask-4_1_">
								<g class="st3">
									<path id="path-3_2_" class="st1" d="M46.1,0.2c-8.6,0-15.6,5.6-18.5,14.6l-9,27H6.2L14.8,16c2.3-7.3,7.6-11.6,14.3-11.6H31
										V0.2h-1.9c-8.6,0-15.6,5.6-18.5,14.6L0.2,45.9h21.6l10-29.9c2.3-7.3,7.6-11.6,14.3-11.6h0.7c6.4,0,11.9,5.1,11.9,11.1
										c0,6.2-4.8,11.1-11,11.1H43c3.2-2.8,5.3-6.8,5.3-11.1c0-3-1-5.9-2.8-8.4l-3.7,2.3c1.3,1.8,2.1,4,2.1,6.1
										c0,5.9-5.7,11.1-12.3,11.1v4.2h0l16,0v0c0,0,0,0,0,0h0.6v0c8.3-0.3,14.8-6.9,14.8-15.3c0-8.3-7.4-15.3-16.3-15.3H46.1z"/>
								</g>
							</mask>
							<polygon id="Fill-4" class="st4" points="-2.8,48.9 66.1,48.9 66.1,-2.8 -2.8,-2.8 							"/>
						</g>
					</g>
				</g>
			</g>
			<g class="st5">
				<path class="st6" d="M117.5,16.3c3.6,0,6.3,0.9,8.2,2.8c1.9,1.8,2.8,4.4,2.8,7.8c0,3.3-0.9,5.9-2.8,7.8
					c-1.8,1.9-4.6,2.8-8.2,2.8h-10.9V52h-4.8V16.3H117.5z M116,33.4c2.7,0,4.7-0.5,5.9-1.7c1.2-1.1,1.9-2.8,1.9-4.9
					c0-2.1-0.6-3.8-1.9-4.9c-1.2-1.1-3.2-1.7-5.9-1.7h-9.3v13.1H116z"/>
				<path class="st6" d="M133.8,21.5v-5.2h4.2v5.2H133.8z M138.1,26.2V52h-4.2V26.2H138.1z"/>
				<path class="st6" d="M147.9,46.2c0.4,0.7,0.9,1.2,1.6,1.6c0.7,0.4,1.4,0.7,2.2,0.8c0.8,0.2,1.7,0.2,2.5,0.2c0.7,0,1.4,0,2.1-0.1
					c0.7-0.1,1.4-0.3,2-0.5c0.6-0.3,1.1-0.7,1.5-1.2c0.4-0.5,0.6-1.2,0.6-2c0-1.1-0.4-1.9-1.2-2.5c-0.8-0.6-1.9-1-3.1-1.4
					s-2.6-0.7-4.1-1c-1.5-0.3-2.8-0.7-4.1-1.2c-1.2-0.5-2.3-1.2-3.1-2.2c-0.8-0.9-1.2-2.2-1.2-3.9c0-1.3,0.3-2.4,0.9-3.4
					c0.6-0.9,1.3-1.7,2.2-2.3c0.9-0.6,1.9-1,3.1-1.3c1.2-0.3,2.3-0.4,3.4-0.4c1.5,0,2.8,0.1,4,0.4c1.2,0.2,2.3,0.7,3.3,1.3
					c0.9,0.6,1.7,1.5,2.3,2.5c0.6,1.1,0.9,2.4,1,3.9h-4.2c-0.1-0.8-0.3-1.5-0.7-2.1c-0.4-0.5-0.8-1-1.4-1.3
					c-0.6-0.3-1.2-0.6-1.9-0.7c-0.7-0.2-1.4-0.2-2.1-0.2c-0.6,0-1.3,0-1.9,0.2c-0.7,0.1-1.2,0.3-1.8,0.5s-1,0.6-1.3,1
					c-0.3,0.4-0.5,1-0.5,1.6c0,0.7,0.3,1.3,0.8,1.8c0.5,0.5,1.2,0.9,2,1.2c0.8,0.3,1.7,0.6,2.7,0.8c1,0.2,2,0.4,3,0.7
					c1.1,0.2,2.1,0.5,3.1,0.9c1,0.3,1.9,0.8,2.7,1.3c0.8,0.5,1.4,1.2,1.9,2.1c0.5,0.8,0.7,1.9,0.7,3.1c0,1.6-0.3,2.9-1,3.9
					c-0.6,1-1.5,1.9-2.5,2.5c-1.1,0.6-2.2,1.1-3.6,1.3s-2.6,0.4-3.9,0.4c-1.4,0-2.8-0.1-4.1-0.5c-1.3-0.3-2.4-0.8-3.4-1.5
					c-1-0.7-1.8-1.6-2.4-2.7c-0.6-1.1-0.9-2.5-1-4.1h4.2C147.3,44.8,147.5,45.6,147.9,46.2z"/>
				<path class="st6" d="M192.6,51.9c-0.7,0.4-1.8,0.6-3.1,0.6c-1.1,0-2-0.3-2.6-0.9s-1-1.6-1-3c-1.2,1.4-2.5,2.4-4.1,3
					s-3.2,0.9-5,0.9c-1.2,0-2.3-0.1-3.3-0.4c-1-0.3-2-0.7-2.7-1.2c-0.8-0.6-1.4-1.3-1.8-2.2c-0.5-0.9-0.7-2-0.7-3.3
					c0-1.5,0.2-2.7,0.8-3.6c0.5-0.9,1.2-1.7,2-2.3c0.8-0.6,1.8-1,2.8-1.3c1-0.3,2.1-0.6,3.2-0.8c1.2-0.2,2.3-0.4,3.3-0.5
					c1-0.1,2-0.3,2.8-0.5c0.8-0.2,1.4-0.5,1.9-1c0.5-0.4,0.7-1,0.7-1.8c0-0.9-0.2-1.7-0.5-2.2c-0.4-0.6-0.8-1-1.4-1.3
					s-1.2-0.5-1.9-0.6c-0.7-0.1-1.4-0.2-2-0.2c-1.8,0-3.3,0.3-4.5,1c-1.2,0.7-1.9,2-2,3.9h-4.2c0.1-1.6,0.4-3,1-4
					c0.6-1.1,1.4-2,2.4-2.7c1-0.7,2.1-1.2,3.4-1.5c1.3-0.3,2.7-0.5,4.1-0.5c1.2,0,2.3,0.1,3.5,0.2c1.1,0.2,2.2,0.5,3.1,1
					c0.9,0.5,1.7,1.2,2.2,2.2c0.6,0.9,0.8,2.1,0.8,3.6v13.3c0,1,0.1,1.7,0.2,2.2c0.1,0.5,0.5,0.7,1.2,0.7c0.4,0,0.8-0.1,1.3-0.2
					V51.9z M185.7,38.7c-0.5,0.4-1.2,0.7-2.1,0.9c-0.9,0.2-1.8,0.3-2.7,0.4c-1,0.1-1.9,0.2-2.9,0.4c-1,0.1-1.8,0.4-2.6,0.7
					c-0.8,0.3-1.4,0.8-1.9,1.4c-0.5,0.6-0.7,1.5-0.7,2.5c0,0.7,0.1,1.3,0.4,1.8c0.3,0.5,0.6,0.9,1.1,1.2c0.4,0.3,1,0.5,1.6,0.6
					c0.6,0.1,1.2,0.2,1.9,0.2c1.4,0,2.6-0.2,3.6-0.6c1-0.4,1.8-0.9,2.5-1.4c0.6-0.6,1.1-1.2,1.4-1.9s0.5-1.3,0.5-1.9V38.7z"/>
				<path class="st6" d="M200.5,26.2v4.1h0.1c1.8-3.1,4.6-4.7,8.4-4.7c1.7,0,3.1,0.2,4.2,0.7c1.1,0.5,2,1.1,2.8,2
					c0.7,0.8,1.2,1.8,1.5,3c0.3,1.2,0.4,2.4,0.4,3.8v17h-4.2V34.5c0-1.6-0.5-2.9-1.4-3.8c-0.9-0.9-2.2-1.4-3.9-1.4
					c-1.3,0-2.4,0.2-3.4,0.6c-1,0.4-1.7,1-2.4,1.7c-0.6,0.7-1.1,1.6-1.4,2.6c-0.3,1-0.5,2.1-0.5,3.2V52h-4.2V26.2H200.5z"/>
				<path class="st6" d="M223.7,33.8c0.5-1.7,1.3-3.1,2.4-4.3c1.1-1.2,2.4-2.2,4-2.9c1.6-0.7,3.4-1,5.4-1c2.1,0,3.9,0.4,5.4,1
					c1.5,0.7,2.9,1.7,3.9,2.9c1.1,1.2,1.9,2.7,2.4,4.3c0.5,1.6,0.8,3.4,0.8,5.3c0,1.9-0.3,3.7-0.8,5.3s-1.3,3.1-2.4,4.3
					c-1.1,1.2-2.4,2.2-3.9,2.9c-1.6,0.7-3.4,1-5.4,1c-2,0-3.8-0.3-5.4-1c-1.6-0.7-2.9-1.6-4-2.9c-1.1-1.2-1.9-2.6-2.4-4.3
					s-0.8-3.4-0.8-5.3C222.9,37.2,223.2,35.4,223.7,33.8z M228.1,43.3c0.4,1.2,1,2.2,1.7,3c0.7,0.8,1.6,1.4,2.6,1.9
					c1,0.4,2,0.6,3.1,0.6c1.1,0,2.1-0.2,3.1-0.6c1-0.4,1.8-1.1,2.6-1.9c0.7-0.8,1.3-1.8,1.7-3c0.4-1.2,0.6-2.6,0.6-4.2
					c0-1.6-0.2-3-0.6-4.2c-0.4-1.2-1-2.2-1.7-3.1c-0.7-0.8-1.6-1.5-2.6-1.9c-1-0.4-2-0.7-3.1-0.7c-1.1,0-2.1,0.2-3.1,0.7
					c-1,0.4-1.8,1.1-2.6,1.9c-0.7,0.8-1.3,1.9-1.7,3.1c-0.4,1.2-0.6,2.6-0.6,4.2C227.4,40.7,227.7,42.1,228.1,43.3z"/>
			</g>
		</g>
	</g>
</g>
</svg>
