<?xml version="1.0" encoding="UTF-8"?>
<svg width="478px" height="514px" viewBox="0 0 478 514" version="1.1" xmlns="http://www.w3.org/2000/svg" xmlns:xlink="http://www.w3.org/1999/xlink">
    <!-- Generator: Sketch 50.2 (55047) - http://www.bohemiancoding.com/sketch -->
    <title>protein</title>
    <desc>Created with Sketch.</desc>
    <defs>
        <path d="M161,322 C249.9339,322 322,249.9019 322,161 C322,72.0981 249.9339,0 161,0 C72.0661,0 0,72.0981 0,161 C0,249.9019 72.0661,322 161,322 Z" id="path-1"></path>
        <path d="M15.0333,29.2333 C22.9371,29.2333 29.3444,22.826 29.3444,14.9222 C29.3444,7.0184 22.9371,0.6111 15.0333,0.6111 C7.1295,0.6111 0.7222,7.0184 0.7222,14.9222 C0.7222,22.826 7.1295,29.2333 15.0333,29.2333 Z" id="path-3"></path>
        <path d="M57.7889,115.3556 C87.9924,115.3556 113.2073,89.7207 112.7436,59.2794 C113.2073,26.5016 87.9924,0.8667 57.7889,0.8667 C25.7593,0.8667 0.5444,26.5016 0.5444,59.2794 C0.5444,89.7207 25.7593,115.3556 57.7889,115.3556 Z M56,86.7333 C40.1982,86.7333 27.3778,73.9245 27.3778,58.1111 C27.3778,42.2977 40.1982,29.4889 56,29.4889 C71.8018,29.4889 84.6222,42.2977 84.6222,58.1111 C84.6222,73.9245 71.8018,86.7333 56,86.7333 Z" id="path-5"></path>
        <path d="M0.5444,14.2174 C0.5444,6.8072 6.5497,0.8 13.9611,0.8 C21.3709,0.8 27.3778,6.8007 27.3778,14.2174 L27.3778,94.7159 C27.3778,102.1262 21.3726,108.1333 13.9611,108.1333 C6.5513,108.1333 0.5444,102.1326 0.5444,94.7159 L0.5444,14.2174 Z" id="path-7"></path>
        <path d="M73.76146,62.30943 C73.76146,67.46166 72.79516,72.26497 70.86253,76.7195 C68.92991,81.17403 66.29943,85.06497 62.97102,88.39245 C59.64262,91.71993 55.75058,94.34968 51.29481,96.28176 C46.83904,98.21385 42.03439,99.17987 36.88073,99.17987 C29.79444,99.17987 23.3793,97.32832 17.63511,93.62516 C11.89092,89.92199 7.462055,85.17236 4.348383,79.3761 L4.348383,125.906918 C4.348383,127.302313 3.650501,128 2.254717,128 C1.717877,128 1.207887,127.785327 0.7247305,127.355975 C0.2415744,126.926623 0,126.443609 0,125.906918 L0,28.33711 C0,27.8004 0.2415744,27.2906 0.7247305,26.8075 C1.207887,26.3245 1.717877,26.083 2.254717,26.083 C2.791557,26.083 3.274706,26.3245 3.704178,26.8075 C4.13365,27.2906 4.348383,27.8004 4.348383,28.33711 L4.348383,45.24277 C7.462055,39.44651 11.89092,34.69687 17.63511,30.99371 C23.3793,27.2905 29.79444,25.439 36.88073,25.439 C42.03439,25.439 46.83904,26.405 51.29481,28.33711 C55.75058,30.26919 59.64262,32.89894 62.97102,36.22642 C66.29943,39.5539 68.92991,43.44484 70.86253,47.89937 C72.79516,52.3539 73.76146,57.15721 73.76146,62.30943 Z M69.41307,62.30943 C69.41307,57.80124 68.55414,53.53461 66.83625,49.50943 C65.11837,45.48426 62.80999,41.96899 59.91105,38.96352 C57.01211,35.95806 53.57639,33.56982 49.60377,31.79874 C45.63116,30.02766 41.39018,29.14214 36.88073,29.14214 C32.37127,29.14214 28.1303,30.02766 24.15768,31.79874 C20.18507,33.56982 16.74934,35.95806 13.8504,38.96352 C10.95147,41.96899 8.64309,45.48426 6.925202,49.50943 C5.207314,53.53461 4.348383,57.80124 4.348383,62.30943 C4.348383,66.81763 5.207314,71.08426 6.925202,75.10943 C8.64309,79.13461 10.95147,82.64988 13.8504,85.65535 C16.74934,88.66081 20.18507,91.04905 24.15768,92.82013 C28.1303,94.5912 32.37127,95.47673 36.88073,95.47673 C41.39018,95.47673 45.63116,94.5912 49.60377,92.82013 C53.57639,91.04905 57.01211,88.66081 59.91105,85.65535 C62.80999,82.64988 65.11837,79.13461 66.83625,75.10943 C68.55414,71.08426 69.41307,66.81763 69.41307,62.30943 Z M133.0283,27.3711 C133.0283,28.55179 132.4378,29.14214 131.2567,29.14214 C127.3915,29.14214 123.7142,29.86666 120.2247,31.31572 C116.7353,32.76479 113.6485,34.75051 110.9643,37.27296 C108.2801,39.7954 106.1596,42.77399 104.6028,46.20881 C103.0459,49.64362 102.2675,53.29306 102.2675,57.15723 L102.2675,96.28176 C102.2675,96.81845 102.0259,97.3283 101.5428,97.81132 C101.0596,98.29434 100.5496,98.53585 100.0128,98.53585 C99.47596,98.53585 98.99281,98.29434 98.56334,97.81132 C98.13387,97.3283 97.91914,96.81845 97.91914,96.28176 L97.91914,28.33711 C97.91914,27.8004 98.13387,27.2906 98.56334,26.8075 C98.99281,26.3245 99.47596,26.083 100.0128,26.083 C100.5496,26.083 101.0596,26.3245 101.5428,26.8075 C102.0259,27.2906 102.2675,27.8004 102.2675,28.33711 L102.2675,42.18365 C104.9517,37.13876 108.8706,33.08681 114.0243,30.02767 C119.1779,26.9685 124.922,25.439 131.2567,25.439 C131.7936,25.439 132.223,25.6268 132.5451,26.0025 C132.8673,26.3782 133.0283,26.8344 133.0283,27.3711 Z M218.8686,62.30943 C218.8686,67.46166 217.9023,72.26497 215.9697,76.7195 C214.0371,81.17403 211.4066,85.06497 208.0782,88.39245 C204.7498,91.71993 200.8577,94.34968 196.402,96.28176 C191.9462,98.21385 187.1415,99.17987 181.9879,99.17987 C176.8342,99.17987 172.0296,98.21385 167.5738,96.28176 C163.118,94.34968 159.226,91.71993 155.8976,88.39245 C152.5692,85.06497 149.9387,81.17403 148.0061,76.7195 C146.0734,72.26497 145.1071,67.46166 145.1071,62.30943 C145.1071,57.15721 146.0734,52.3539 148.0061,47.89937 C149.9387,43.44484 152.5692,39.5539 155.8976,36.22642 C159.226,32.89894 163.118,30.26919 167.5738,28.33711 C172.0296,26.405 176.8342,25.439 181.9879,25.439 C187.1415,25.439 191.9462,26.405 196.402,28.33711 C200.8577,30.26919 204.7498,32.89894 208.0782,36.22642 C211.4066,39.5539 214.0371,43.44484 215.9697,47.89937 C217.9023,52.3539 218.8686,57.15721 218.8686,62.30943 Z M214.5202,62.30943 C214.5202,57.80124 213.6613,53.53461 211.9434,49.50943 C210.2255,45.48426 207.9171,41.96899 205.0182,38.96352 C202.1193,35.95806 198.6835,33.56982 194.7109,31.79874 C190.7383,30.02766 186.4973,29.14214 181.9879,29.14214 C177.4784,29.14214 173.2374,30.02766 169.2648,31.79874 C165.2922,33.56982 161.8565,35.95806 158.9575,38.96352 C156.0586,41.96899 153.7502,45.48426 152.0323,49.50943 C150.3145,53.53461 149.4555,57.80124 149.4555,62.30943 C149.4555,66.81763 150.3145,71.08426 152.0323,75.10943 C153.7502,79.13461 156.0586,82.64988 158.9575,85.65535 C161.8565,88.66081 165.2922,91.04905 169.2648,92.82013 C173.2374,94.5912 177.4784,95.47673 181.9879,95.47673 C186.4973,95.47673 190.7383,94.5912 194.7109,92.82013 C198.6835,91.04905 202.1193,88.66081 205.0182,85.65535 C207.9171,82.64988 210.2255,79.13461 211.9434,75.10943 C213.6613,71.08426 214.5202,66.81763 214.5202,62.30943 Z M268.1503,29.30314 C268.1503,29.83983 267.9892,30.29601 267.6671,30.6717 C267.345,31.04738 266.9155,31.23522 266.3787,31.23522 L251.4009,31.23522 L251.4009,96.44277 C251.4009,97.83816 250.7031,98.53585 249.3073,98.53585 C248.7704,98.53585 248.2604,98.32118 247.7773,97.89182 C247.2941,97.46247 247.0526,96.97946 247.0526,96.44277 L247.0526,31.23522 L233.5243,31.23522 C232.9874,31.23522 232.558,31.04738 232.2358,30.6717 C231.9137,30.29601 231.7527,29.83983 231.7527,29.30314 C231.7527,28.12243 232.3432,27.5321 233.5243,27.5321 L247.0526,27.5321 L247.0526,3.5421 C247.0526,3.0054 247.2941,2.4956 247.7773,2.0126 C248.2604,1.5296 248.7704,1.2881 249.3073,1.2881 C249.8441,1.2881 250.3273,1.5296 250.7567,2.0126 C251.1862,2.4956 251.4009,3.0054 251.4009,3.5421 L251.4009,27.5321 L266.3787,27.5321 C267.5598,27.5321 268.1503,28.12243 268.1503,29.30314 Z M351.8969,61.02138 C351.8969,61.66541 351.709,62.14843 351.3332,62.47044 C350.9574,62.79245 350.5011,62.95346 349.9643,62.95346 L285.5438,62.95346 C285.6512,67.46166 286.5638,71.67461 288.2817,75.59245 C289.9996,79.51029 292.3079,82.94506 295.2069,85.89686 C298.1058,88.84865 301.4879,91.18322 305.3531,92.90063 C309.2183,94.61804 313.4056,95.47673 317.9151,95.47673 C323.713,95.47673 328.9739,94.10819 333.6981,91.37107 C338.4223,88.63395 342.3412,84.85034 345.4549,80.02013 C345.8843,79.3761 346.3138,79.05409 346.7433,79.05409 C347.2801,79.05409 347.8169,79.21509 348.3538,79.53711 C348.998,80.0738 349.3201,80.66415 349.3201,81.30818 C349.3201,81.73753 349.159,82.11321 348.8369,82.43522 C345.6159,87.48011 341.2675,91.53206 335.7918,94.59119 C330.316,97.65033 324.3572,99.17987 317.9151,99.17987 C312.7614,99.17987 307.9568,98.24068 303.501,96.36226 C299.0452,94.48385 295.1532,91.88094 291.8248,88.55346 C288.4964,85.22598 285.8659,81.3082 283.9333,76.8 C282.0007,72.2918 281.0344,67.46166 281.0344,62.30943 C281.0344,57.15721 281.9201,52.32707 283.6917,47.81887 C285.4633,43.31067 287.9327,39.39289 291.1001,36.06541 C294.2674,32.73793 298.0252,30.13502 302.3737,28.2566 C306.7221,26.3782 311.473,25.439 316.6267,25.439 C321.5656,25.439 326.1824,26.405 330.4771,28.33711 C334.7718,30.26919 338.476,32.8721 341.5896,36.14591 C344.7033,39.41972 347.1727,43.20333 348.998,47.49686 C350.8232,51.79038 351.7895,56.29851 351.8969,61.02138 Z M347.3875,59.25031 C347.0654,55.06413 346.0722,51.14635 344.408,47.49686 C342.7438,43.84736 340.5696,40.6541 337.8854,37.91698 C335.2012,35.17986 332.0608,33.03313 328.4639,31.47673 C324.8671,29.92033 320.9214,29.14214 316.6267,29.14214 C312.332,29.14214 308.3594,29.92033 304.7089,31.47673 C301.0584,33.03313 297.8642,35.17986 295.1263,37.91698 C292.3885,40.6541 290.1875,43.84736 288.5232,47.49686 C286.859,51.14635 285.8659,55.06413 285.5438,59.25031 L347.3875,59.25031 Z M381.5303,3.2201 C381.5303,5.2595 380.5103,6.2792 378.4704,6.2792 C377.6114,6.2792 376.8598,5.9841 376.2156,5.3937 C375.5714,4.8034 375.2493,4.0788 375.2493,3.2201 C375.2493,2.3614 375.5714,1.6101 376.2156,0.966 C376.8598,0.322 377.6114,0 378.4704,0 C379.3293,0 380.054,0.322 380.6445,0.966 C381.2351,1.6101 381.5303,2.3614 381.5303,3.2201 Z M380.564,96.28176 C380.564,96.81845 380.3493,97.3283 379.9198,97.81132 C379.4903,98.29434 379.0072,98.53585 378.4704,98.53585 C377.9335,98.53585 377.4235,98.29434 376.9404,97.81132 C376.4572,97.3283 376.2156,96.81845 376.2156,96.28176 L376.2156,28.33711 C376.2156,27.8004 376.4572,27.2906 376.9404,26.8075 C377.4235,26.3245 377.9335,26.083 378.4704,26.083 C379.0072,26.083 379.4903,26.3245 379.9198,26.8075 C380.3493,27.2906 380.564,27.8004 380.564,28.33711 L380.564,96.28176 Z M478,96.28176 C478,96.81845 477.7584,97.3283 477.2753,97.81132 C476.7921,98.29434 476.2821,98.53585 475.7453,98.53585 C475.2084,98.53585 474.7253,98.29434 474.2958,97.81132 C473.8664,97.3283 473.6516,96.81845 473.6516,96.28176 L473.6516,57.31824 C473.6516,53.45407 472.9269,49.80463 471.4774,46.36981 C470.028,42.93499 468.0148,39.92957 465.438,37.35346 C462.8612,34.77735 459.8549,32.76479 456.4191,31.31572 C452.9834,29.86666 449.3329,29.14214 445.4677,29.14214 C441.6024,29.14214 437.9519,29.86666 434.5162,31.31572 C431.0804,32.76479 428.0741,34.77735 425.4973,37.35346 C422.9205,39.92957 420.9074,42.93499 419.4579,46.36981 C418.0084,49.80463 417.2837,53.45407 417.2837,57.31824 L417.2837,96.28176 C417.2837,96.81845 417.0421,97.3283 416.559,97.81132 C416.0758,98.29434 415.5658,98.53585 415.029,98.53585 C414.4921,98.53585 414.009,98.29434 413.5795,97.81132 C413.15,97.3283 412.9353,96.81845 412.9353,96.28176 L412.9353,57.96226 C412.9353,53.45407 413.7674,49.21428 415.4316,45.24277 C417.0958,41.27126 419.3773,37.83649 422.2763,34.93836 C425.1752,32.04024 428.6109,29.7325 432.5836,28.01509 C436.5562,26.2977 440.8508,25.439 445.4677,25.439 C450.0845,25.439 454.3791,26.2977 458.3518,28.01509 C462.3244,29.7325 465.7601,32.04024 468.659,34.93836 C471.558,37.83649 473.8395,41.27126 475.5037,45.24277 C477.1679,49.21428 478,53.45407 478,57.96226 L478,96.28176 Z" id="path-9"></path>
    </defs>
    <g id="protein" stroke="none" stroke-width="1" fill="none" fill-rule="evenodd">
        <g id="Group-3" transform="translate(76.000000, 0.000000)">
            <mask id="mask-2" fill="white">
                <use xlink:href="#path-1"></use>
            </mask>
            <g id="Clip-2"></g>
            <polygon id="Fill-1" fill="#1B1D1C" mask="url(#mask-2)" points="-5 327 327 327 327 -5 -5 -5"></polygon>
        </g>
        <g id="Group-6" transform="translate(281.000000, 62.000000)">
            <mask id="mask-4" fill="white">
                <use xlink:href="#path-3"></use>
            </mask>
            <g id="Clip-5"></g>
            <polygon id="Fill-4" fill="#FFFFFF" mask="url(#mask-4)" points="-4.2778 34.2333 34.34442 34.2333 34.34442 -4.38892 -4.2778 -4.38892"></polygon>
        </g>
        <g id="Group-9" transform="translate(181.000000, 85.000000)">
            <mask id="mask-6" fill="white">
                <use xlink:href="#path-5"></use>
            </mask>
            <g id="Clip-8"></g>
            <polygon id="Fill-7" fill="#FFFFFF" mask="url(#mask-6)" points="-4.4556 120.3556 117.7498 120.3556 117.7498 -4.1333 -4.4556 -4.1333"></polygon>
        </g>
        <g id="Group-12" transform="translate(181.000000, 128.000000)">
            <mask id="mask-8" fill="white">
                <use xlink:href="#path-7"></use>
            </mask>
            <g id="Clip-11"></g>
            <polygon id="Fill-10" fill="#FFFFFF" mask="url(#mask-8)" points="-4.4556 113.1333 32.37773 113.1333 32.37773 -4.2 -4.4556 -4.2"></polygon>
        </g>
        <g id="Group-15" transform="translate(0.000000, 386.000000)">
            <mask id="mask-10" fill="white">
                <use xlink:href="#path-9"></use>
            </mask>
            <g id="Clip-14"></g>
            <polygon id="Fill-13" fill="#1B1D1C" mask="url(#mask-10)" points="-5 133 483 133 483 -5 -5 -5"></polygon>
        </g>
    </g>
</svg>