<?xml version="1.0" encoding="UTF-8"?>
<svg width="362px" height="94px" viewBox="0 0 362 94" version="1.1" xmlns="http://www.w3.org/2000/svg" xmlns:xlink="http://www.w3.org/1999/xlink">
    <!-- Generator: Sketch 49.2 (51160) - http://www.bohemiancoding.com/sketch -->
    <title>Page 1</title>
    <desc>Created with Sketch.</desc>
    <defs>
        <polygon id="path-1" points="0.5627 0.417639373 38.757 0.417639373 38.757 66.3911 0.5627 66.3911"></polygon>
    </defs>
    <g id="sosyal-medya-teşekkür" stroke="none" stroke-width="1" fill="none" fill-rule="evenodd">
        <g id="bronz-robotistan" transform="translate(-705.000000, -305.000000)">
            <g id="Page-1" transform="translate(705.000000, 305.000000)">
                <g id="Group-3" transform="translate(323.000000, 3.365000)">
                    <mask id="mask-2" fill="white">
                        <use xlink:href="#path-1"></use>
                    </mask>
                    <g id="Clip-2"></g>
                    <path d="M5.2087,20.1951 C3.1507,19.6431 1.5207,18.2921 0.5627,16.5651 L0.5627,25.3101 L27.0037,32.3941 C30.0287,33.2051 33.1687,31.3921 33.9797,28.3661 L37.4447,15.4321 C38.2567,12.4061 36.4427,9.2671 33.4177,8.4561 L4.1417,0.6111 C2.9127,0.2821 1.6657,0.3851 0.5627,0.8261 L0.5627,9.2451 C2.2027,6.2851 5.6987,4.7031 9.1147,5.6191 C13.1407,6.6971 15.5287,10.8351 14.4497,14.8601 C13.3717,18.8851 9.2337,21.2741 5.2087,20.1951 Z M0.5627,55.5691 L2.7627,55.5691 C3.8187,55.5691 4.6847,56.4331 4.6847,57.4901 L4.6847,64.4691 C4.6847,65.5261 3.8187,66.3911 2.7627,66.3911 L0.5627,66.3911 L0.5627,64.7411 L1.7517,64.7411 C2.3977,64.7411 2.3987,63.7631 1.7517,63.7631 L0.5627,63.7631 L0.5627,62.5591 L1.7517,62.5591 C2.3977,62.5591 2.3987,61.5821 1.7517,61.5821 L0.5627,61.5821 L0.5627,60.3781 L1.7517,60.3781 C2.3977,60.3781 2.3987,59.4001 1.7517,59.4001 L0.5627,59.4001 L0.5627,58.1951 L1.7517,58.1951 C2.3977,58.1951 2.3987,57.2181 1.7517,57.2181 L0.5627,57.2181 L0.5627,55.5691 Z M8.2567,55.5691 L11.1557,55.5691 L0.5627,52.7301 L0.5627,26.8831 L4.9257,28.0521 C5.0567,28.0821 5.1897,28.1151 5.3277,28.1521 L18.6187,31.7141 C18.7567,31.7511 18.8897,31.7881 19.0187,31.8281 L36.5487,36.5261 C38.1017,36.8211 38.9897,38.8951 38.7047,39.9591 C38.4197,41.0241 38.2617,40.9651 37.8697,41.3121 C38.2747,41.6251 38.4777,42.1631 38.3367,42.6861 L37.0937,47.3251 C36.9897,47.7141 36.7177,48.0151 36.3767,48.1731 C36.5737,48.7501 36.5637,49.5571 36.4377,50.0251 C36.3127,50.4921 36.2357,50.6061 36.0807,50.8591 L36.5217,50.9781 C36.9707,51.0981 37.2387,51.5631 37.1187,52.0111 L35.7697,57.0481 C35.6487,57.4961 35.1847,57.7641 34.7357,57.6441 L33.4787,57.3071 C33.4837,57.3681 33.4867,57.4281 33.4867,57.4901 L33.4867,64.4691 C33.4867,65.5261 32.6217,66.3911 31.5647,66.3911 L8.2567,66.3911 C7.2007,66.3911 6.3367,65.5271 6.3367,64.4691 L6.3367,57.4901 C6.3367,56.4331 7.2007,55.5691 8.2567,55.5691 Z M26.1477,55.5691 L27.5397,55.5691 C27.3607,55.3631 27.2827,55.0751 27.3577,54.7941 L28.7077,49.7571 C28.8277,49.3091 29.2927,49.0411 29.7407,49.1611 L30.1837,49.2791 C30.1757,48.9821 30.1657,48.8451 30.2917,48.3781 C30.4167,47.9101 30.8117,47.2061 31.2707,46.8041 C31.0547,46.4981 30.9697,46.1011 31.0727,45.7121 L32.3167,41.0721 C32.4567,40.5491 32.8997,40.1841 33.4077,40.1161 L23.2497,37.3951 L26.3067,53.0681 C26.4937,54.0261 26.4107,54.8611 26.1477,55.5691 Z M31.3207,55.5691 L31.5647,55.5691 C31.7087,55.5691 31.8497,55.5851 31.9837,55.6151 L32.8597,52.3431 C32.7547,52.3261 32.6467,52.3031 32.5407,52.2751 C32.4347,52.2461 32.3307,52.2131 32.2297,52.1741 L31.3207,55.5691 Z M9.2677,57.2181 L17.3127,57.2181 L20.9597,58.1951 L9.2677,58.1951 C8.6217,58.1951 8.6207,57.2181 9.2677,57.2181 Z M24.9927,57.2181 L30.5547,57.2181 C31.2017,57.2181 31.2007,58.1951 30.5547,58.1951 L23.1377,58.1951 C23.7987,58.0191 24.4477,57.6901 24.9927,57.2181 Z M9.2677,59.4001 L30.5547,59.4001 C31.2017,59.4001 31.2007,60.3781 30.5547,60.3781 L9.2677,60.3781 C8.6217,60.3781 8.6207,59.4001 9.2677,59.4001 Z M9.2677,61.5821 L30.5547,61.5821 C31.2017,61.5821 31.2007,62.5591 30.5547,62.5591 L9.2677,62.5591 C8.6217,62.5591 8.6207,61.5821 9.2677,61.5821 Z M9.2677,63.7631 L30.5547,63.7631 C31.2017,63.7631 31.2007,64.7411 30.5547,64.7411 L9.2677,64.7411 C8.6217,64.7411 8.6207,63.7631 9.2677,63.7631 Z M4.3597,18.3601 C3.7557,18.1981 3.2107,17.9251 2.7407,17.5701 C2.7587,17.5601 2.7757,17.5501 2.7927,17.5411 C3.6317,17.0561 3.9187,15.9841 3.4357,15.1451 C2.9507,14.3061 1.8777,14.0191 1.0397,14.5041 C1.0047,14.5241 0.9697,14.5451 0.9367,14.5681 C0.8337,13.9341 0.8607,13.2681 1.0387,12.6071 C1.7097,10.1011 4.2847,8.6141 6.7907,9.2861 C9.2967,9.9571 10.7837,12.5331 10.1117,15.0381 C9.4407,17.5441 6.8647,19.0311 4.3597,18.3601 Z M21.8517,23.0481 C21.2467,22.8851 20.7017,22.6121 20.2317,22.2571 C20.2497,22.2481 20.2677,22.2381 20.2847,22.2281 C21.1237,21.7441 21.4107,20.6711 20.9267,19.8331 C20.4417,18.9941 19.3697,18.7071 18.5307,19.1911 C18.4957,19.2121 18.4617,19.2331 18.4287,19.2551 C18.3257,18.6211 18.3527,17.9551 18.5297,17.2941 C19.2007,14.7891 21.7767,13.3011 24.2827,13.9731 C26.7877,14.6451 28.2747,17.2201 27.6047,19.7261 C26.9327,22.2321 24.3557,23.7191 21.8517,23.0481 Z M36.4677,37.6181 C37.3657,37.8591 37.8977,38.7811 37.6577,39.6791 C37.4177,40.5761 36.4947,41.1091 35.5977,40.8681 C34.6997,40.6281 34.1677,39.7061 34.4067,38.8081 C34.6477,37.9101 35.5707,37.3781 36.4677,37.6181 Z M26.6067,10.3051 C22.5807,9.2271 18.4437,11.6151 17.3657,15.6411 C16.2867,19.6661 18.6757,23.8031 22.7007,24.8821 C26.7267,25.9601 30.8627,23.5711 31.9417,19.5471 C33.0207,15.5211 30.6317,11.3841 26.6067,10.3051 Z" id="Fill-1" fill="#FF4500" mask="url(#mask-2)"></path>
                </g>
                <path d="M6.6852,0.0001 L314.2052,0.0001 C317.8812,0.0001 320.8892,3.0081 320.8892,6.6851 L320.8892,66.8521 C320.8892,70.5291 317.8812,73.5381 314.2052,73.5381 L6.6852,73.5381 C3.0082,73.5381 0.0002,70.5291 0.0002,66.8521 L0.0002,6.6851 C0.0002,3.0081 3.0082,0.0001 6.6852,0.0001" id="Fill-4" fill="#0A4770"></path>
                <path d="M20.0554,50.9224 L26.0484,50.9224 L26.0484,43.1164 C26.0484,38.0694 28.4924,35.6654 32.4744,35.6654 L32.7894,35.6654 L32.7894,29.3964 C29.2414,29.2394 27.2704,31.1314 26.0484,34.0484 L26.0484,29.7904 L20.0554,29.7904 L20.0554,50.9224 Z M45.0174,51.3954 C51.6014,51.3954 56.4894,46.4664 56.4894,40.3954 L56.4894,40.3174 C56.4894,34.2454 51.6404,29.3964 45.0964,29.3964 C38.5124,29.3964 33.6234,34.3244 33.6234,40.3954 L33.6234,40.4744 C33.6234,46.5464 38.4724,51.3954 45.0174,51.3954 Z M45.0964,46.2314 C41.7844,46.2314 39.5374,43.5104 39.5374,40.3954 L39.5374,40.3174 C39.5374,37.2024 41.5874,34.5604 45.0174,34.5604 C48.3284,34.5604 50.5764,37.2814 50.5764,40.3954 L50.5764,40.4744 C50.5764,43.5894 48.5264,46.2314 45.0964,46.2314 Z M72.1074,51.3164 C77.1144,51.3164 81.7274,47.4524 81.7274,40.3954 L81.7274,40.3174 C81.7274,33.2594 77.0354,29.3964 72.1074,29.3964 C68.9934,29.3964 66.9824,30.8554 65.5234,32.8264 L65.5234,22.1424 L59.5314,22.1424 L59.5314,50.9224 L65.5234,50.9224 L65.5234,48.1624 C66.9434,49.8574 68.9134,51.3164 72.1074,51.3164 Z M70.5704,46.2314 C67.7704,46.2314 65.4454,43.9044 65.4454,40.3954 L65.4454,40.3174 C65.4454,36.8084 67.7704,34.4824 70.5704,34.4824 C73.3694,34.4824 75.7344,36.8084 75.7344,40.3174 L75.7344,40.3954 C75.7344,43.9434 73.3694,46.2314 70.5704,46.2314 Z M95.2164,51.3954 C101.7994,51.3954 106.6884,46.4664 106.6884,40.3954 L106.6884,40.3174 C106.6884,34.2454 101.8394,29.3964 95.2944,29.3964 C88.7114,29.3964 83.8224,34.3244 83.8224,40.3954 L83.8224,40.4744 C83.8224,46.5464 88.6714,51.3954 95.2164,51.3954 Z M95.2944,46.2314 C91.9834,46.2314 89.7364,43.5104 89.7364,40.3954 L89.7364,40.3174 C89.7364,37.2024 91.7864,34.5604 95.2164,34.5604 C98.5274,34.5604 100.7744,37.2814 100.7744,40.3954 L100.7744,40.4744 C100.7744,43.5894 98.7244,46.2314 95.2944,46.2314 Z M116.8664,51.2764 C118.8764,51.2764 120.3344,50.8034 121.5964,50.0544 L121.5964,45.2454 C120.7294,45.7174 119.7434,45.9944 118.6394,45.9944 C117.2994,45.9944 116.7084,45.3234 116.7084,43.9434 L116.7084,34.9164 L121.6754,34.9164 L121.6754,29.7904 L116.7084,29.7904 L116.7084,24.3894 L110.7164,24.3894 L110.7164,29.7904 L108.1924,29.7904 L108.1924,34.9164 L110.7164,34.9164 L110.7164,44.9294 C110.7164,49.8184 113.1994,51.2764 116.8664,51.2764 Z M124.9144,27.4644 L131.2224,27.4644 L131.2224,22.1424 L124.9144,22.1424 L124.9144,27.4644 Z M125.0724,50.9224 L131.0644,50.9224 L131.0644,29.7904 L125.0724,29.7904 L125.0724,50.9224 Z M142.8194,51.3164 C147.3924,51.3164 150.9014,49.1874 150.9014,44.4954 L150.9014,44.4174 C150.9014,40.5534 147.4714,39.1344 144.5144,38.1484 C142.2274,37.3594 140.2174,36.8084 140.2174,35.6254 L140.2174,35.5464 C140.2174,34.7184 140.9664,34.0884 142.4254,34.0884 C143.9624,34.0884 146.0514,34.8374 148.1414,36.0594 L150.4284,31.9204 C148.1414,30.3824 145.2244,29.4754 142.5434,29.4754 C138.2854,29.4754 134.8164,31.8804 134.8164,36.1774 L134.8164,36.2564 C134.8164,40.3564 138.1674,41.7364 141.1234,42.6034 C143.4504,43.3134 145.4994,43.7474 145.4994,45.0474 L145.4994,45.1264 C145.4994,46.0724 144.7114,46.7034 142.9764,46.7034 C141.0064,46.7034 138.6004,45.8364 136.3144,44.1804 L133.7524,48.1224 C136.5514,50.3304 139.8624,51.3164 142.8194,51.3164 Z M160.6454,51.2764 C162.6554,51.2764 164.1144,50.8034 165.3754,50.0544 L165.3754,45.2454 C164.5084,45.7174 163.5224,45.9944 162.4194,45.9944 C161.0784,45.9944 160.4874,45.3234 160.4874,43.9434 L160.4874,34.9164 L165.4544,34.9164 L165.4544,29.7904 L160.4874,29.7904 L160.4874,24.3894 L154.4944,24.3894 L154.4944,29.7904 L151.9724,29.7904 L151.9724,34.9164 L154.4944,34.9164 L154.4944,44.9294 C154.4944,49.8184 156.9784,51.2764 160.6454,51.2764 Z M174.5674,51.3164 C177.4854,51.3164 179.4954,50.2514 180.9544,48.6354 L180.9544,50.9224 L186.7494,50.9224 L186.7494,38.6614 C186.7494,35.8224 186.0394,33.4964 184.4634,31.9204 C182.9644,30.4214 180.5994,29.5544 177.3274,29.5544 C173.7404,29.5544 171.4534,30.2244 169.1274,31.2494 L170.6254,35.8224 C172.5574,35.1124 174.1734,34.6794 176.4604,34.6794 C179.4564,34.6794 180.9934,36.0594 180.9934,38.5434 L180.9934,38.8974 C179.4954,38.3854 177.9584,38.0304 175.8294,38.0304 C170.8224,38.0304 167.3144,40.1594 167.3144,44.7724 L167.3144,44.8514 C167.3144,49.0294 170.5864,51.3164 174.5674,51.3164 Z M176.3814,47.1764 C174.4504,47.1764 173.1094,46.2314 173.1094,44.6144 L173.1094,44.5354 C173.1094,42.6434 174.6864,41.6184 177.2484,41.6184 C178.7074,41.6184 180.0474,41.9334 181.0734,42.4064 L181.0734,43.4714 C181.0734,45.6394 179.1804,47.1764 176.3814,47.1764 Z M190.6194,50.9224 L196.6124,50.9224 L196.6124,39.1344 C196.6124,36.2964 198.0714,34.8374 200.3574,34.8374 C202.6434,34.8374 203.9844,36.2964 203.9844,39.1344 L203.9844,50.9224 L209.9764,50.9224 L209.9764,37.2424 C209.9764,32.3934 207.3344,29.3964 202.8014,29.3964 C199.7654,29.3964 197.9924,31.0134 196.6124,32.7874 L196.6124,29.7904 L190.6194,29.7904 L190.6194,50.9224 Z M213.6494,50.9224 L220.0364,50.9224 L220.0364,44.6144 L213.6494,44.6144 L213.6494,50.9224 Z M233.0524,51.3954 C237.2704,51.3954 239.6354,49.7784 241.6854,47.5314 L238.1764,43.9834 C236.7184,45.3624 235.3384,46.2314 233.3274,46.2314 C230.0554,46.2314 227.9664,43.6284 227.9664,40.3954 L227.9664,40.3174 C227.9664,37.2024 230.0954,34.5604 233.0914,34.5604 C235.2204,34.5604 236.5614,35.4674 237.9014,36.8874 L241.5684,32.9444 C239.5964,30.7364 237.1134,29.3964 233.1304,29.3964 C226.6654,29.3964 222.0524,34.3644 222.0524,40.3954 L222.0524,40.4744 C222.0524,46.5064 226.7044,51.3954 233.0524,51.3954 Z M254.0714,51.3954 C260.6554,51.3954 265.5434,46.4664 265.5434,40.3954 L265.5434,40.3174 C265.5434,34.2454 260.6944,29.3964 254.1504,29.3964 C247.5664,29.3964 242.6774,34.3244 242.6774,40.3954 L242.6774,40.4744 C242.6774,46.5464 247.5274,51.3954 254.0714,51.3954 Z M254.1504,46.2314 C250.8384,46.2314 248.5904,43.5104 248.5904,40.3954 L248.5904,40.3174 C248.5904,37.2024 250.6414,34.5604 254.0714,34.5604 C257.3824,34.5604 259.6294,37.2814 259.6294,40.3954 L259.6294,40.4744 C259.6294,43.5894 257.5794,46.2314 254.1504,46.2314 Z M268.5854,50.9224 L274.5764,50.9224 L274.5764,39.1344 C274.5764,36.2964 275.9574,34.8374 278.2044,34.8374 C280.4514,34.8374 281.7134,36.2964 281.7134,39.1344 L281.7134,50.9224 L287.7054,50.9224 L287.7054,39.1344 C287.7054,36.2964 289.0854,34.8374 291.3324,34.8374 C293.5794,34.8374 294.8414,36.2964 294.8414,39.1344 L294.8414,50.9224 L300.8334,50.9224 L300.8334,37.1634 C300.8334,32.0774 298.1534,29.3964 293.6984,29.3964 C290.8204,29.3964 288.6124,30.5794 286.7594,32.7474 C285.6554,30.6184 283.5664,29.3964 280.8064,29.3964 C277.7714,29.3964 275.9574,31.0134 274.5764,32.7874 L274.5764,29.7904 L268.5854,29.7904 L268.5854,50.9224 Z" id="Fill-6" fill="#FFFFFF"></path>
                <path d="M32.9216,79.4478 C32.9216,79.3618 32.8926,79.3028 32.7906,79.3028 L31.3106,79.3028 C31.1656,79.3028 31.0936,79.3898 31.0356,79.5798 L29.9616,82.7578 C29.9466,82.8008 29.9326,82.8438 29.9326,82.8738 C29.9326,82.9748 30.0046,83.0328 30.1066,83.0328 L31.8336,83.0328 C31.9786,83.0328 32.0796,82.9608 32.1236,82.7578 L32.9076,79.5798 C32.9216,79.5358 32.9216,79.4768 32.9216,79.4478 Z M29.7296,79.4478 C29.7296,79.3618 29.6996,79.3028 29.5986,79.3028 L28.1326,79.3028 C27.9876,79.3028 27.9296,79.3898 27.8576,79.5798 L26.7686,82.7578 C26.7546,82.8008 26.7396,82.8438 26.7396,82.8738 C26.7396,82.9748 26.8126,83.0328 26.9146,83.0328 L28.6406,83.0328 C28.7866,83.0328 28.8876,82.9608 28.9306,82.7578 L29.7146,79.5798 C29.7296,79.5358 29.7296,79.4768 29.7296,79.4478 Z M43.8366,81.4228 L43.8366,79.9268 C43.8366,79.7668 43.6916,79.6518 43.5316,79.6518 L36.3346,79.6518 C36.1746,79.6518 36.0446,79.7668 36.0446,79.9268 L36.0446,81.4228 C36.0446,81.5818 36.1746,81.6978 36.3346,81.6978 L38.6986,81.6978 L38.6986,90.1428 C38.6986,90.3028 38.8296,90.4338 38.9896,90.4338 L40.8906,90.4338 C41.0496,90.4338 41.1806,90.3028 41.1806,90.1428 L41.1806,81.6978 L43.5316,81.6978 C43.6916,81.6978 43.8366,81.5818 43.8366,81.4228 Z M54.3296,90.1428 L54.3296,82.4238 C54.3296,82.2638 54.1846,82.1188 54.0256,82.1188 L52.2696,82.1188 C52.1096,82.1188 51.9796,82.2638 51.9796,82.4238 L51.9796,88.1408 C51.4856,88.4018 51.0356,88.6048 50.6156,88.6048 C49.7296,88.6048 49.5416,88.2708 49.5416,87.2558 L49.5416,82.4238 C49.5416,82.2638 49.4106,82.1188 49.2516,82.1188 L47.4946,82.1188 C47.3356,82.1188 47.1906,82.2638 47.1906,82.4238 L47.1906,87.2558 C47.1906,89.0848 47.6546,90.5508 49.7586,90.5508 C50.6886,90.5508 51.3266,90.3608 52.1246,89.7958 L52.1246,90.1428 C52.1246,90.3028 52.2546,90.4338 52.4146,90.4338 L54.0396,90.4338 C54.1996,90.4338 54.3296,90.3028 54.3296,90.1428 Z M53.3286,80.8848 L53.3286,79.5358 C53.3286,79.3758 53.1696,79.2458 53.0096,79.2458 L51.6456,79.2458 C51.4856,79.2458 51.3406,79.3758 51.3406,79.5358 L51.3406,80.8848 C51.3406,81.0448 51.4856,81.1758 51.6456,81.1758 L53.0096,81.1758 C53.1696,81.1758 53.3286,81.0448 53.3286,80.8848 Z M50.1796,80.8848 L50.1796,79.5358 C50.1796,79.3758 50.0346,79.2458 49.8756,79.2458 L48.5116,79.2458 C48.3516,79.2458 48.1916,79.3758 48.1916,79.5358 L48.1916,80.8848 C48.1916,81.0448 48.3516,81.1758 48.5116,81.1758 L49.8756,81.1758 C50.0346,81.1758 50.1796,81.0448 50.1796,80.8848 Z M63.0396,83.6718 L63.0396,82.2928 C63.0396,82.1338 62.9086,82.0028 62.7486,82.0028 C62.0516,82.0028 61.3266,82.2498 60.7896,82.6988 L60.7896,82.4088 C60.7896,82.2498 60.6586,82.1188 60.4996,82.1188 L58.7726,82.1188 C58.6126,82.1188 58.4826,82.2498 58.4826,82.4088 L58.4826,90.1288 C58.4826,90.2888 58.6276,90.4338 58.7876,90.4338 L60.5426,90.4338 C60.7026,90.4338 60.8336,90.2888 60.8336,90.1288 L60.8336,84.4548 C61.3706,84.1648 61.9946,83.9468 62.7056,83.9468 L62.8216,83.9468 C62.9516,83.9468 63.0396,83.8018 63.0396,83.6718 Z M73.8666,82.2788 C73.8666,82.1908 73.7796,82.1188 73.6496,82.1188 L71.5736,82.1188 C71.4576,82.1188 71.3126,82.1618 71.1966,82.3368 L68.9906,85.6598 L68.9906,79.5938 C68.9906,79.4338 68.8596,79.3028 68.7006,79.3028 L66.9446,79.3028 C66.7856,79.3028 66.6396,79.4338 66.6396,79.5938 L66.6396,90.1288 C66.6396,90.2888 66.7856,90.4338 66.9446,90.4338 L68.7006,90.4338 C68.8596,90.4338 68.9906,90.2888 68.9906,90.1288 L68.9906,86.8208 L71.0806,90.2298 C71.1966,90.4048 71.2836,90.4338 71.4426,90.4338 L73.6346,90.4338 C73.7506,90.4338 73.8236,90.3458 73.8236,90.2458 C73.8236,90.2018 73.8236,90.1578 73.7946,90.1288 L71.1096,86.0938 L73.8086,82.4238 C73.8526,82.3648 73.8666,82.3218 73.8666,82.2788 Z M80.0506,80.8848 L80.0506,79.5358 C80.0506,79.3758 79.9206,79.2458 79.7606,79.2458 L77.8736,79.2458 C77.7146,79.2458 77.5836,79.3758 77.5836,79.5358 L77.5836,80.8848 C77.5836,81.0448 77.7146,81.1758 77.8736,81.1758 L79.7606,81.1758 C79.9206,81.1758 80.0506,81.0448 80.0506,80.8848 Z M79.9926,90.1428 L79.9926,82.4088 C79.9926,82.2498 79.8616,82.1188 79.7026,82.1188 L77.9316,82.1188 C77.7726,82.1188 77.6416,82.2498 77.6416,82.4088 L77.6416,90.1428 C77.6416,90.3028 77.7726,90.4338 77.9316,90.4338 L79.7026,90.4338 C79.8616,90.4338 79.9926,90.3028 79.9926,90.1428 Z M91.6046,82.3798 C91.6046,82.2348 91.4736,82.1188 91.3286,82.1188 L89.3986,82.1188 C89.2386,82.1188 89.1226,82.2498 89.0936,82.3938 L87.7436,88.1268 L87.6856,88.1268 L87.6276,88.1268 L87.6126,88.1268 C87.5256,88.1268 87.4826,88.0528 87.4396,87.8498 L86.1326,82.3938 C86.1036,82.2498 86.0026,82.1188 85.8576,82.1188 L83.9276,82.1188 C83.7236,82.1188 83.6366,82.2058 83.6366,82.3508 C83.6366,82.3798 83.6366,82.4088 83.6516,82.4518 L85.5676,88.9828 C85.9296,90.2458 86.3796,90.3328 86.9166,90.3328 L87.1346,90.3328 L87.0036,90.7818 C86.8296,91.3628 86.5676,91.5368 86.0466,91.5368 C85.5676,91.5368 84.7106,91.4498 84.2316,91.4208 L84.2026,91.4208 C84.0436,91.4208 83.9126,91.5368 83.9126,91.6968 L83.9126,92.8718 C83.9126,93.0318 84.0576,93.0748 84.2176,93.1338 C84.5806,93.2488 85.4366,93.3648 85.9736,93.3648 C88.1066,93.3648 88.7016,92.5668 89.1516,90.9998 L91.5896,82.4518 C91.5896,82.4238 91.6046,82.4088 91.6046,82.3798 Z M101.9526,86.6608 L101.9526,85.8188 C101.9526,83.6278 100.7486,82.0028 98.3686,82.0028 C96.0616,82.0028 94.6966,83.4828 94.6966,85.8188 L94.6966,86.8348 C94.6966,89.6358 96.5836,90.5638 98.3386,90.5638 C99.6026,90.5638 100.3856,90.4478 101.3146,90.2168 C101.5616,90.1578 101.6186,90.0568 101.6186,89.8238 L101.6186,88.7208 C101.6186,88.5618 101.5026,88.4888 101.3426,88.4888 L101.2996,88.4888 C100.7196,88.5478 99.4276,88.6198 98.5136,88.6198 C97.3676,88.6198 97.0186,87.8648 97.0186,87.0378 L97.0186,87.0098 L101.6476,87.0098 C101.8366,87.0098 101.9526,86.8788 101.9526,86.6608 Z M99.6596,85.5578 L97.0186,85.5578 L97.0186,85.4998 C97.0186,84.4398 97.5556,83.8888 98.3536,83.8888 C99.1666,83.8888 99.6596,84.4268 99.6596,85.4998 L99.6596,85.5578 Z M108.3546,79.4628 C108.3546,79.3618 108.2816,79.3028 108.1806,79.3028 L106.4536,79.3028 C106.3086,79.3028 106.2066,79.3758 106.1636,79.5798 L105.3796,82.7578 C105.3656,82.8008 105.3656,82.8588 105.3656,82.8878 C105.3656,82.9748 105.3936,83.0328 105.4956,83.0328 L106.9616,83.0328 C107.1066,83.0328 107.1646,82.9458 107.2366,82.7578 L108.3256,79.5798 C108.3396,79.5358 108.3546,79.4918 108.3546,79.4628 Z M119.1096,90.1288 L119.1096,85.2968 C119.1096,83.4688 118.6446,82.0028 116.5406,82.0028 C115.6116,82.0028 114.9736,82.1908 114.1746,82.7578 L114.1746,82.4088 C114.1746,82.2498 114.0446,82.1188 113.8846,82.1188 L112.2596,82.1188 C112.0996,82.1188 111.9696,82.2498 111.9696,82.4088 L111.9696,90.1288 C111.9696,90.2888 112.1146,90.4338 112.2746,90.4338 L114.0296,90.4338 C114.1896,90.4338 114.3206,90.2888 114.3206,90.1288 L114.3206,84.4118 C114.8146,84.1498 115.2636,83.9468 115.6846,83.9468 C116.5696,83.9468 116.7586,84.2808 116.7586,85.2968 L116.7586,90.1288 C116.7586,90.2888 116.8896,90.4338 117.0486,90.4338 L118.8046,90.4338 C118.9646,90.4338 119.1096,90.2888 119.1096,90.1288 Z M125.7286,80.8848 L125.7286,79.5358 C125.7286,79.3758 125.5976,79.2458 125.4386,79.2458 L123.5516,79.2458 C123.3926,79.2458 123.2616,79.3758 123.2616,79.5358 L123.2616,80.8848 C123.2616,81.0448 123.3926,81.1758 123.5516,81.1758 L125.4386,81.1758 C125.5976,81.1758 125.7286,81.0448 125.7286,80.8848 Z M125.6706,90.1428 L125.6706,82.4088 C125.6706,82.2498 125.5396,82.1188 125.3806,82.1188 L123.6096,82.1188 C123.4506,82.1188 123.3196,82.2498 123.3196,82.4088 L123.3196,90.1428 C123.3196,90.3028 123.4506,90.4338 123.6096,90.4338 L125.3806,90.4338 C125.5396,90.4338 125.6706,90.3028 125.6706,90.1428 Z M137.0206,90.1288 L137.0206,85.2968 C137.0206,83.4688 136.5566,82.0028 134.4516,82.0028 C133.5236,82.0028 132.8846,82.1908 132.0866,82.7578 L132.0866,82.4088 C132.0866,82.2498 131.9556,82.1188 131.7966,82.1188 L130.1716,82.1188 C130.0116,82.1188 129.8806,82.2498 129.8806,82.4088 L129.8806,90.1288 C129.8806,90.2888 130.0256,90.4338 130.1856,90.4338 L131.9416,90.4338 C132.1016,90.4338 132.2316,90.2888 132.2316,90.1288 L132.2316,84.4118 C132.7256,84.1498 133.1746,83.9468 133.5956,83.9468 C134.4816,83.9468 134.6696,84.2808 134.6696,85.2968 L134.6696,90.1288 C134.6696,90.2888 134.7996,90.4338 134.9606,90.4338 L136.7156,90.4338 C136.8756,90.4338 137.0206,90.2888 137.0206,90.1288 Z M163.4346,90.2298 L163.4346,80.1598 C163.4346,79.8548 163.2166,79.6518 162.9116,79.6518 L161.5476,79.6518 C161.2426,79.6518 161.0406,79.7968 160.9096,80.0438 L158.6886,84.1788 C158.6316,84.2958 158.5876,84.3678 158.5286,84.3678 C158.4716,84.3678 158.4276,84.2958 158.3696,84.1788 L156.1496,80.0438 C156.0186,79.7968 155.8166,79.6518 155.5106,79.6518 L154.1476,79.6518 C153.8416,79.6518 153.6246,79.8408 153.6246,80.1448 L153.6246,90.2298 C153.6246,90.3898 153.7546,90.4338 153.8716,90.4338 L155.7866,90.4338 C155.9176,90.4338 156.0186,90.3028 156.0186,90.1428 L156.0186,84.0928 C156.0186,83.9908 156.0626,83.9758 156.0916,83.9758 C156.1346,83.9758 156.1636,84.0058 156.2076,84.0778 L157.5136,86.4718 C157.6146,86.6458 157.7606,86.7188 157.9486,86.7188 L159.1096,86.7188 C159.2986,86.7188 159.4436,86.6458 159.5456,86.4718 L160.8516,84.0778 C160.8956,84.0058 160.9236,83.9758 160.9676,83.9758 C160.9966,83.9758 161.0406,83.9908 161.0406,84.0928 L161.0406,90.1428 C161.0406,90.3028 161.1416,90.4338 161.2726,90.4338 L163.1876,90.4338 C163.3036,90.4338 163.4346,90.3898 163.4346,90.2298 Z M174.1456,90.1428 L174.1456,84.9628 C174.1456,82.8438 172.8396,82.0028 170.7506,82.0028 C169.7926,82.0028 168.7766,82.1768 168.2396,82.3068 C168.0656,82.3508 167.9636,82.4678 167.9636,82.6268 L167.9636,83.8018 C167.9636,83.9908 168.0806,84.0628 168.2256,84.0628 L168.2976,84.0628 C168.7476,84.0188 169.7776,83.9618 170.7066,83.9618 C171.3886,83.9618 171.7956,84.1348 171.7956,84.9628 L171.7956,85.4858 L171.0116,85.4858 C168.5296,85.4858 167.4416,86.2398 167.4416,87.9378 L167.4416,88.0678 C167.4416,89.9548 168.6606,90.5638 169.9226,90.5638 C170.7936,90.5638 171.3746,90.3178 171.9406,89.9108 L171.9406,90.1428 C171.9406,90.3028 172.0706,90.4338 172.2306,90.4338 L173.8556,90.4338 C174.0156,90.4338 174.1456,90.3028 174.1456,90.1428 Z M171.8386,88.4738 C171.4906,88.6488 171.0836,88.7948 170.6486,88.7948 C170.0396,88.7948 169.7346,88.6778 169.7346,88.0678 L169.7346,87.9378 C169.7346,87.2258 169.9956,86.8788 171.0116,86.8788 L171.8386,86.8788 L171.8386,88.4738 Z M185.5256,82.2788 C185.5256,82.1908 185.4386,82.1188 185.3076,82.1188 L183.2326,82.1188 C183.1156,82.1188 182.9706,82.1618 182.8556,82.3368 L180.6496,85.6598 L180.6496,79.5938 C180.6496,79.4338 180.5186,79.3028 180.3586,79.3028 L178.6026,79.3028 C178.4426,79.3028 178.2986,79.4338 178.2986,79.5938 L178.2986,90.1288 C178.2986,90.2888 178.4426,90.4338 178.6026,90.4338 L180.3586,90.4338 C180.5186,90.4338 180.6496,90.2888 180.6496,90.1288 L180.6496,86.8208 L182.7386,90.2298 C182.8556,90.4048 182.9426,90.4338 183.1016,90.4338 L185.2926,90.4338 C185.4086,90.4338 185.4816,90.3458 185.4816,90.2458 C185.4816,90.2018 185.4816,90.1578 185.4526,90.1288 L182.7676,86.0938 L185.4666,82.4238 C185.5106,82.3648 185.5256,82.3218 185.5256,82.2788 Z M195.6996,86.6608 L195.6996,85.8188 C195.6996,83.6278 194.4946,82.0028 192.1146,82.0028 C189.8076,82.0028 188.4426,83.4828 188.4426,85.8188 L188.4426,86.8348 C188.4426,89.6358 190.3306,90.5638 192.0856,90.5638 C193.3496,90.5638 194.1326,90.4478 195.0616,90.2168 C195.3086,90.1578 195.3656,90.0568 195.3656,89.8238 L195.3656,88.7208 C195.3656,88.5618 195.2496,88.4888 195.0906,88.4888 L195.0466,88.4888 C194.4656,88.5478 193.1746,88.6198 192.2606,88.6198 C191.1136,88.6198 190.7656,87.8648 190.7656,87.0378 L190.7656,87.0098 L195.3956,87.0098 C195.5836,87.0098 195.6996,86.8788 195.6996,86.6608 Z M193.4056,85.5578 L190.7656,85.5578 L190.7656,85.4998 C190.7656,84.4398 191.3026,83.8888 192.1006,83.8888 C192.9126,83.8888 193.4056,84.4268 193.4056,85.4998 L193.4056,85.5578 Z M204.1916,83.6718 L204.1916,82.2928 C204.1916,82.1338 204.0606,82.0028 203.9006,82.0028 C203.2036,82.0028 202.4786,82.2498 201.9416,82.6988 L201.9416,82.4088 C201.9416,82.2498 201.8116,82.1188 201.6506,82.1188 L199.9246,82.1188 C199.7646,82.1188 199.6346,82.2498 199.6346,82.4088 L199.6346,90.1288 C199.6346,90.2888 199.7786,90.4338 199.9386,90.4338 L201.6936,90.4338 C201.8546,90.4338 201.9846,90.2888 201.9846,90.1288 L201.9846,84.4548 C202.5226,84.1648 203.1456,83.9468 203.8576,83.9468 L203.9726,83.9468 C204.1036,83.9468 204.1916,83.8018 204.1916,83.6718 Z M230.0536,90.2298 L230.0536,80.1598 C230.0536,79.8548 229.8356,79.6518 229.5306,79.6518 L228.1666,79.6518 C227.8616,79.6518 227.6586,79.7968 227.5276,80.0438 L225.3076,84.1788 C225.2496,84.2958 225.2066,84.3678 225.1486,84.3678 C225.0906,84.3678 225.0466,84.2958 224.9876,84.1788 L222.7686,80.0438 C222.6376,79.7968 222.4346,79.6518 222.1296,79.6518 L220.7656,79.6518 C220.4606,79.6518 220.2426,79.8408 220.2426,80.1448 L220.2426,90.2298 C220.2426,90.3898 220.3736,90.4338 220.4896,90.4338 L222.4046,90.4338 C222.5356,90.4338 222.6376,90.3028 222.6376,90.1428 L222.6376,84.0928 C222.6376,83.9908 222.6816,83.9758 222.7096,83.9758 C222.7536,83.9758 222.7826,84.0058 222.8256,84.0778 L224.1326,86.4718 C224.2336,86.6458 224.3796,86.7188 224.5676,86.7188 L225.7296,86.7188 C225.9176,86.7188 226.0626,86.6458 226.1636,86.4718 L227.4696,84.0778 C227.5136,84.0058 227.5426,83.9758 227.5856,83.9758 C227.6146,83.9758 227.6586,83.9908 227.6586,84.0928 L227.6586,90.1428 C227.6586,90.3028 227.7606,90.4338 227.8906,90.4338 L229.8066,90.4338 C229.9226,90.4338 230.0536,90.3898 230.0536,90.2298 Z M240.7646,90.1428 L240.7646,84.9628 C240.7646,82.8438 239.4586,82.0028 237.3686,82.0028 C236.4106,82.0028 235.3956,82.1768 234.8586,82.3068 C234.6846,82.3508 234.5826,82.4678 234.5826,82.6268 L234.5826,83.8018 C234.5826,83.9908 234.6986,84.0628 234.8446,84.0628 L234.9166,84.0628 C235.3656,84.0188 236.3966,83.9618 237.3246,83.9618 C238.0076,83.9618 238.4136,84.1348 238.4136,84.9628 L238.4136,85.4858 L237.6296,85.4858 C235.1496,85.4858 234.0606,86.2398 234.0606,87.9378 L234.0606,88.0678 C234.0606,89.9548 235.2786,90.5638 236.5416,90.5638 C237.4126,90.5638 237.9926,90.3178 238.5586,89.9108 L238.5586,90.1428 C238.5586,90.3028 238.6896,90.4338 238.8496,90.4338 L240.4746,90.4338 C240.6336,90.4338 240.7646,90.3028 240.7646,90.1428 Z M238.4576,88.4738 C238.1086,88.6488 237.7026,88.7948 237.2676,88.7948 C236.6576,88.7948 236.3536,88.6778 236.3536,88.0678 L236.3536,87.9378 C236.3536,87.2258 236.6136,86.8788 237.6296,86.8788 L238.4576,86.8788 L238.4576,88.4738 Z M249.4736,83.6718 L249.4736,82.2928 C249.4736,82.1338 249.3436,82.0028 249.1836,82.0028 C248.4866,82.0028 247.7616,82.2498 247.2246,82.6988 L247.2246,82.4088 C247.2246,82.2498 247.0936,82.1188 246.9346,82.1188 L245.2066,82.1188 C245.0476,82.1188 244.9166,82.2498 244.9166,82.4088 L244.9166,90.1288 C244.9166,90.2888 245.0616,90.4338 245.2216,90.4338 L246.9776,90.4338 C247.1366,90.4338 247.2676,90.2888 247.2676,90.1288 L247.2676,84.4548 C247.8046,84.1648 248.4286,83.9468 249.1396,83.9468 L249.2556,83.9468 C249.3866,83.9468 249.4736,83.8018 249.4736,83.6718 Z M260.3016,82.2788 C260.3016,82.1908 260.2136,82.1188 260.0836,82.1188 L258.0086,82.1188 C257.8926,82.1188 257.7466,82.1618 257.6306,82.3368 L255.4256,85.6598 L255.4256,79.5938 C255.4256,79.4338 255.2946,79.3028 255.1346,79.3028 L253.3786,79.3028 C253.2196,79.3028 253.0736,79.4338 253.0736,79.5938 L253.0736,90.1288 C253.0736,90.2888 253.2196,90.4338 253.3786,90.4338 L255.1346,90.4338 C255.2946,90.4338 255.4256,90.2888 255.4256,90.1288 L255.4256,86.8208 L257.5146,90.2298 C257.6306,90.4048 257.7186,90.4338 257.8776,90.4338 L260.0686,90.4338 C260.1856,90.4338 260.2576,90.3458 260.2576,90.2458 C260.2576,90.2018 260.2576,90.1578 260.2286,90.1288 L257.5436,86.0938 L260.2426,82.4238 C260.2866,82.3648 260.3016,82.3218 260.3016,82.2788 Z M270.4756,86.6608 L270.4756,85.8188 C270.4756,83.6278 269.2716,82.0028 266.8916,82.0028 C264.5846,82.0028 263.2206,83.4828 263.2206,85.8188 L263.2206,86.8348 C263.2206,89.6358 265.1066,90.5638 266.8616,90.5638 C268.1246,90.5638 268.9086,90.4478 269.8366,90.2168 C270.0836,90.1578 270.1426,90.0568 270.1426,89.8238 L270.1426,88.7208 C270.1426,88.5618 270.0256,88.4888 269.8656,88.4888 L269.8226,88.4888 C269.2416,88.5478 267.9506,88.6198 267.0366,88.6198 C265.8906,88.6198 265.5416,87.8648 265.5416,87.0378 L265.5416,87.0098 L270.1706,87.0098 C270.3596,87.0098 270.4756,86.8788 270.4756,86.6608 Z M268.1836,85.5578 L265.5416,85.5578 L265.5416,85.4998 C265.5416,84.4398 266.0786,83.8888 266.8766,83.8888 C267.6906,83.8888 268.1836,84.4268 268.1836,85.4998 L268.1836,85.5578 Z M279.0106,90.1578 L279.0106,89.0258 C279.0106,88.8668 278.8946,88.7798 278.7056,88.7798 L277.9946,88.7798 C277.5596,88.7798 277.5156,88.6778 277.5156,88.0968 L277.5156,83.8748 L278.7056,83.8748 C278.8646,83.8748 278.9956,83.7448 278.9956,83.5848 L278.9956,82.4088 C278.9956,82.2498 278.8646,82.1188 278.7056,82.1188 L277.5156,82.1188 L277.5156,80.5808 C277.5156,80.4348 277.3996,80.3338 277.2546,80.3338 L277.2106,80.3338 L275.4406,80.6378 C275.2806,80.6678 275.1506,80.7688 275.1506,80.9278 L275.1506,82.1188 L273.9886,82.1188 C273.8296,82.1188 273.6846,82.2638 273.6846,82.4238 L273.6846,83.3818 C273.6846,83.5408 273.8296,83.6568 273.9886,83.6858 L275.1506,83.8748 L275.1506,88.0838 C275.1506,90.1428 275.9916,90.5638 277.5886,90.5638 C278.0096,90.5638 278.2996,90.5208 278.7346,90.4478 C278.9086,90.4198 279.0106,90.3028 279.0106,90.1578 Z M285.2086,80.8848 L285.2086,79.5358 C285.2086,79.3758 285.0786,79.2458 284.9186,79.2458 L283.0316,79.2458 C282.8716,79.2458 282.7416,79.3758 282.7416,79.5358 L282.7416,80.8848 C282.7416,81.0448 282.8716,81.1758 283.0316,81.1758 L284.9186,81.1758 C285.0786,81.1758 285.2086,81.0448 285.2086,80.8848 Z M285.1506,90.1428 L285.1506,82.4088 C285.1506,82.2498 285.0206,82.1188 284.8606,82.1188 L283.0906,82.1188 C282.9306,82.1188 282.7996,82.2498 282.7996,82.4088 L282.7996,90.1428 C282.7996,90.3028 282.9306,90.4338 283.0906,90.4338 L284.8606,90.4338 C285.0206,90.4338 285.1506,90.3028 285.1506,90.1428 Z M295.0206,79.4628 C295.0206,79.3618 294.9476,79.3028 294.8466,79.3028 L293.1196,79.3028 C292.9746,79.3028 292.8726,79.3758 292.8296,79.5798 L292.0456,82.7578 C292.0306,82.8008 292.0306,82.8588 292.0306,82.8878 C292.0306,82.9748 292.0606,83.0328 292.1616,83.0328 L293.6276,83.0328 C293.7736,83.0328 293.8306,82.9458 293.9026,82.7578 L294.9916,79.5798 C295.0066,79.5358 295.0206,79.4918 295.0206,79.4628 Z M291.8276,79.4628 C291.8276,79.3618 291.7556,79.3028 291.6536,79.3028 L289.9426,79.3028 C289.7966,79.3028 289.6946,79.3758 289.6506,79.5798 L288.8536,82.7578 C288.8386,82.8008 288.8386,82.8588 288.8386,82.8878 C288.8386,82.9748 288.8676,83.0328 288.9696,83.0328 L290.4496,83.0328 C290.5946,83.0328 290.6666,82.9458 290.7256,82.7578 L291.7986,79.5798 C291.8146,79.5358 291.8276,79.4918 291.8276,79.4628 Z" id="Fill-8" fill="#FF4500"></path>
            </g>
        </g>
    </g>
</svg>