<?xml version="1.0" encoding="utf-8"?>
<!-- Generator: Adobe Illustrator 16.0.0, SVG Export Plug-In . SVG Version: 6.00 Build 0)  -->
<!DOCTYPE svg PUBLIC "-//W3C//DTD SVG 1.1//EN" "http://www.w3.org/Graphics/SVG/1.1/DTD/svg11.dtd">
<svg version="1.1" id="Layer_1" xmlns="http://www.w3.org/2000/svg" xmlns:xlink="http://www.w3.org/1999/xlink" x="0px" y="0px"
	 width="612px" height="81px" viewBox="0 -1.017 612 81" enable-background="new 0 -1.017 612 81" xml:space="preserve">
<g>
	<g>
		<g>
			<path fill="#EC0044" d="M40.62,32.276c-4.048-1.283-7.009-1.776-10.364-3.06c-3.356-1.283-4.937-3.751-4.937-6.12
				c0-3.061,2.566-6.021,7.107-6.021c4.738,0,11.845,1.679,18.36,3.851l4.146-15.893c-6.515-3.159-14.609-5.034-22.308-5.034
				c-5.528,0-10.858,0.987-15.104,3.455C9.526,8.093,6.269,15.891,6.269,24.774c0,10.76,5.331,17.473,16.09,21.025
				c4.047,1.281,8.095,2.27,11.154,3.355c3.652,1.381,4.738,3.947,4.738,6.219c0,3.555-2.073,6.221-7.7,6.221
				c-6.515,0-14.214-2.074-21.42-4.838L4.886,73.536c6.811,2.961,15.893,5.43,26.354,5.43c15.498,0,26.258-9.771,26.258-23.984
				C57.598,42.642,53.058,36.226,40.62,32.276z M105.078,32.079H85.04V1.381H66.481v76.401h18.656V47.28h19.939v30.502h18.655V1.381
				h-18.655L105.078,32.079L105.078,32.079z M153.544,47.38h22.802V31.685h-22.802V16.877h25.961V1.38h-44.716v76.402h46.394V62.187
				h-27.639V47.38L153.544,47.38z M243.271,25.366c0-14.115-9.18-23.985-27.639-23.985h-24.973v76.401h18.557V50.243h1.086
				l15.004,27.539h21.914l-18.064-30.008C238.632,43.728,243.271,35.436,243.271,25.366z M214.744,35.534h-5.528V16.482h6.219
				c6.021,0,9.18,4.146,9.18,8.983C224.517,30.895,220.963,35.534,214.744,35.534z M278.115,1.381h-24.381v76.401h18.459V50.144
				h6.12c17.176,0,27.936-8.688,27.936-25.171C306.347,10.265,296.574,1.381,278.115,1.381z M278.313,35.336h-6.12V16.482h5.626
				c7.602,0,9.575,4.936,9.575,8.884C287.493,30.697,284.729,35.336,278.313,35.336z M347.903,1.381h-21.025l-26.85,76.302h20.436
				l16.582-53.204l16.091,53.204h20.927L347.903,1.381z"/>
		</g>
	</g>
	<path fill="#5F6063" d="M391.236,1.381h17.669c15.104,0,21.618,9.87,21.618,19.643c0,5.331-2.172,10.365-6.417,14.017
		c-2.171,1.777-5.429,3.356-8.686,4.146c3.75,0.592,7.204,1.875,9.673,3.652c5.43,3.752,7.996,9.377,7.996,15.199
		c0,9.871-7.603,19.742-22.704,19.742h-19.051V1.379L391.236,1.381L391.236,1.381z M393.507,38.396h14.214
		c13.522,0,20.434-8.688,20.434-17.373s-5.726-17.471-19.348-17.471h-15.397v34.844H393.507z M393.507,40.669V75.61h16.879
		c13.521,0,20.434-8.785,20.434-17.471c0-8.689-6.91-17.373-20.434-17.373h-16.879V40.669z"/>
	<path fill="#5F6063" d="M445.922,1.381V75.61h34.151v2.271h-36.325v-76.5L445.922,1.381L445.922,1.381z"/>
	<path fill="#5F6063" d="M511.761,78.966c-21.617,0-32.376-19.645-32.376-39.287c0-19.644,10.855-39.286,32.376-39.286
		c21.618,0,32.377,19.643,32.377,39.286C544.236,59.226,533.379,78.966,511.761,78.966z M511.761,2.565
		c-20.038,0-30.205,18.558-30.205,37.016c0,18.559,10.167,37.018,30.205,37.018s30.205-18.559,30.205-37.018
		S531.799,2.565,511.761,2.565z"/>
	<path fill="#5F6063" d="M607.016,72.946c-6.712,3.852-14.411,6.021-22.209,6.021c-22.21,0-33.364-19.645-33.364-39.287
		c0-19.644,11.058-39.386,33.364-39.386c6.416,0,13.521,1.58,20.334,5.331l-1.086,2.073c-6.517-3.455-13.229-5.034-19.248-5.034
		c-20.631,0-31.094,18.656-31.094,37.115c0,18.559,10.362,37.02,31.094,37.02c7.896,0,15.396-2.471,20.038-5.035V39.388h2.27V72.95
		h-0.099V72.946L607.016,72.946z"/>
</g>
</svg>
