<?xml version="1.0" encoding="utf-8"?>
<svg version="1.1" id="Layer_1" xmlns="http://www.w3.org/2000/svg" xmlns:xlink="http://www.w3.org/1999/xlink" x="0px" y="0px"
	 viewBox="0 0 750 500" style="enable-background:new 0 0 750 500;" xml:space="preserve">
<style type="text/css">
	.st0{fill:#231F20;}
	.st1{fill:#1FB2DE;}
	.st2{fill:#D1A21E;}
	.st3{fill:#CE1B22;}
	.st4{fill:#69A63D;}
	.st5{fill:#034693;}
</style>
<polygon class="st0" points="704,257.1 727.6,222.7 713.6,222.7 696.7,247.9 680.5,222.7 665.6,222.7 689.2,257.1 663.9,294.1
	678.2,294.1 696.3,266.8 714.1,294.1 729.3,294.1 "/>
<path class="st0" d="M641.6,264.3c0,2.4-0.1,4.8-0.4,7.3c-0.2,2.5-0.9,4.7-2,6.7c-1.1,2-2.8,3.6-5,4.8c-2.2,1.3-5.4,1.9-9.5,1.9
	s-7.2-0.6-9.4-1.9c-2.2-1.3-3.9-2.9-5-4.8c-1.1-2-1.8-4.2-2-6.7c-0.2-2.5-0.4-4.9-0.4-7.3v-41.6h-12.5v45.7c0,4.6,0.7,8.6,2.1,12
	c1.4,3.4,3.4,6.2,5.9,8.5c2.6,2.3,5.7,4,9.2,5.2c3.6,1.1,7.6,1.7,12,1.7c4.4,0,8.4-0.6,12-1.7c3.6-1.1,6.7-2.8,9.2-5.2
	c2.6-2.3,4.6-5.1,6-8.5c1.4-3.4,2.1-7.4,2.1-12v-45.7h-12.5V264.3z"/>
<path class="st0" d="M573.5,232.3c-2.7-3.5-6.1-6.2-10.2-8.2c-4.1-2-8.9-3-14.4-3c-5,0-9.5,0.9-13.7,2.7c-4.1,1.8-7.2,4.7-9.1,8.6
	h-0.3v-9.7h-11.7v108.5c0,3.2,2.6,5.9,5.9,5.9c3.2,0,5.9-2.6,5.9-5.9c0,0,0,0,0,0v-46.7h0.3c1.3,2.1,2.9,3.9,4.8,5.3
	c1.9,1.4,3.9,2.6,6,3.4c2.1,0.8,4.3,1.4,6.4,1.8c2.2,0.4,4.1,0.6,5.9,0.6c5.4,0,10.2-1,14.3-2.9c4.1-1.9,7.5-4.6,10.2-7.9
	c2.7-3.4,4.7-7.3,6.1-11.8c1.3-4.5,2-9.3,2-14.4c0-5.1-0.7-9.8-2.1-14.4C578.3,239.7,576.2,235.8,573.5,232.3z M568.2,268
	c-0.7,3.3-1.9,6.3-3.6,8.8c-1.7,2.6-3.8,4.6-6.6,6.2c-2.7,1.6-6.1,2.3-10.1,2.3c-4,0-7.5-0.8-10.3-2.3c-2.9-1.5-5.2-3.5-7-6
	c-1.8-2.5-3.1-5.4-3.9-8.6c-0.8-3.3-1.2-6.6-1.2-10.1c0-3.3,0.4-6.6,1.2-9.8c0.8-3.2,2-6.1,3.8-8.6c1.7-2.5,4-4.6,6.8-6.1
	c2.8-1.6,6.1-2.3,10.1-2.3c3.8,0,7.1,0.7,9.9,2.2c2.8,1.5,5.1,3.5,6.9,5.9c1.8,2.5,3.1,5.3,4,8.5c0.9,3.2,1.3,6.4,1.3,9.7
	C569.3,261.3,568.9,264.7,568.2,268z"/>
<path class="st0" d="M489.5,225.9c-2.1-1.7-4.6-2.9-7.5-3.7c-2.9-0.8-6.1-1.2-9.7-1.2c-4.7,0-9,1.1-12.9,3.2c-3.9,2.1-7.1,5.1-9.5,9
	c-1.5-4.4-4-7.5-7.6-9.4c-3.6-1.8-7.6-2.8-12-2.8c-10,0-17.7,4-23,12.1H407v-10.5h-11v71.3h11.7v-44.4c0-1.4,0.3-3.1,1-5.2
	c0.7-2.1,1.8-4.1,3.3-6c1.5-1.9,3.5-3.6,5.9-5c2.4-1.4,5.4-2.1,8.8-2.1c2.7,0,4.9,0.4,6.6,1.2c1.7,0.8,3.1,1.9,4.1,3.3
	c1,1.4,1.7,3.1,2.1,5c0.4,1.9,0.6,4,0.6,6.3v46.8h11.7v-44.4c0-5.5,1.7-9.9,5-13.2s7.9-5,13.7-5c2.9,0,5.2,0.4,7,1.2
	c1.8,0.8,3.2,2,4.2,3.4c1,1.4,1.7,3.1,2.1,5c0.4,1.9,0.6,4,0.6,6.2v46.8H496v-52.3c0-3.7-0.6-6.8-1.7-9.5
	C493.1,229.7,491.5,227.6,489.5,225.9z"/>
<rect x="366" y="222.7" class="st0" width="11.7" height="71.3"/>
<circle class="st0" cx="371.9" cy="202.7" r="8"/>
<path class="st0" d="M341.5,246.9c-3-2.1-6.4-3.8-10.1-5c-3.8-1.2-7.6-2.3-11.5-3.2c-3.9-0.9-7.8-1.8-11.5-2.6
	c-3.8-0.8-7.2-1.8-10.1-3c-3-1.2-5.4-2.7-7.2-4.6c-1.8-1.9-2.7-4.3-2.7-7.4c0-3.2,0.6-5.9,1.9-8.1c1.2-2.2,2.9-3.9,5-5.2
	c2.1-1.3,4.4-2.2,7.1-2.8c2.7-0.6,5.4-0.8,8.1-0.8c6.8,0,12.4,1.6,16.8,4.8c4.4,3.2,6.9,8.3,7.7,15.4l11.7-6.7
	c-0.5-2.7-1.3-5.1-2.4-7.3c-1.9-3.9-4.5-7.2-7.7-9.7c-3.3-2.6-7.1-4.5-11.4-5.7c-4.3-1.2-9-1.8-14.1-1.8c-4.5,0-8.9,0.6-13.2,1.7
	c-4.3,1.2-8.1,2.9-11.5,5.2c-3.4,2.3-6.1,5.3-8.1,9c-2,3.6-3,7.9-3,12.9c0,4.5,0.9,8.3,2.7,11.2c1.8,3,4.2,5.4,7.2,7.3
	c3,1.9,6.4,3.4,10.1,4.6c3.8,1.2,7.6,2.2,11.5,3c3.9,0.9,7.8,1.7,11.5,2.6c3.8,0.8,7.2,1.9,10.1,3.2c3,1.3,5.4,3.1,7.2,5.2
	c1.8,2.1,2.7,4.9,2.7,8.3c0,3.6-0.7,6.5-2.2,8.8c-1.5,2.3-3.4,4.1-5.8,5.5c-2.4,1.3-5.1,2.3-8.1,2.8c-3,0.6-6,0.8-8.9,0.8
	c-3.7,0-7.3-0.5-10.8-1.4c-3.5-0.9-6.6-2.3-9.2-4.3c-2.6-1.9-4.7-4.4-6.3-7.4c-1.6-3-2.4-6.6-2.4-10.7h0l-11.9,6.9
	c0.5,3.2,1.4,6.1,2.7,8.7c2.2,4.4,5.1,8,8.8,10.8c3.7,2.8,8,4.9,13,6.3c4.9,1.4,10.1,2.1,15.7,2.1c4.5,0,9-0.5,13.6-1.6
	c4.6-1.1,8.7-2.8,12.4-5.1c3.7-2.3,6.7-5.4,9-9.1c2.3-3.7,3.5-8.2,3.5-13.5c0-4.9-0.9-8.9-2.7-12.1
	C346.9,251.7,344.5,249,341.5,246.9z"/>
<path class="st1" d="M261.8,143.9c-6.8,9.7-14.3,18.7-22,27.5c-7.7,8.8-15.7,17.3-24,25.5c-8.3,8.2-16.7,16.3-25.5,24
	c-8.8,7.7-17.8,15.2-27.5,22L261.8,143.9z"/>
<path class="st2" d="M49.7,356.1c6.8-9.7,14.3-18.7,22-27.5c7.7-8.8,15.7-17.3,24-25.5c8.3-8.2,16.7-16.3,25.5-24
	c8.8-7.7,17.8-15.2,27.5-22L49.7,356.1z"/>
<path class="st0" d="M205.1,384.2c-0.7,1.5-1.5,3-2.3,4.5c-0.9,1.5-1.7,2.9-2.6,4.3c-1.7,2.9-3.5,5.6-5.3,8.4
	c-1.9,2.7-3.7,5.5-5.6,8.2l-2.8,4.1l-2.9,4c-1.9,2.7-3.9,5.3-5.9,7.9c-2,2.6-4,5.2-6,7.7l-3,3.8l-3.1,3.8l-0.8,0.9l-0.8,1
	c-0.6,0.7-1.2,1.4-1.9,2.1c-1.3,1.4-2.6,2.7-4,4l0.9-0.9l0,0l-0.9,0.8c-7.7,7.3-17,13.2-27.1,17.1c-2.5,0.9-5.1,1.7-7.7,2.6
	c-2.6,0.7-5.2,1.3-7.9,1.9c-2.7,0.4-5.4,0.8-8.1,1.1c-2.7,0.2-5.4,0.3-8.1,0.4c-2.7-0.1-5.4-0.2-8.1-0.4c-2.7-0.4-5.4-0.7-8.1-1.1
	c-1.3-0.3-2.6-0.6-4-0.9c-1.3-0.3-2.6-0.6-3.9-1c-2.6-0.9-5.1-1.7-7.7-2.6c-2.5-1.1-5-2.1-7.4-3.3c-2.4-1.3-4.7-2.6-7-4
	c-2.2-1.5-4.4-3-6.6-4.6l-6.1-5.2l-0.8-0.7l-0.2-0.2l0,0l1,0.9c-1.3-1.3-2.6-2.7-3.8-4c-1.3-1.3-2.5-2.7-3.7-4.3l-1.8-2.4
	c-0.6-0.8-1.2-1.6-1.7-2.4l-1.5-2.5l-0.7-1.3l-0.6-1.3c-0.8-1.8-1.7-3.5-2.4-5.3l-1-2.7c-0.3-0.9-0.5-1.9-0.8-2.8
	c-1-3.7-1.5-7.5-1.7-11.2c-0.1-0.9,0-1.9,0-2.8l0-2.8c0.2-1.8,0.4-3.7,0.7-5.5l0.5-2.7c0.1-0.4,0.2-0.9,0.3-1.3l0.4-1.3l0.8-2.6
	c0.2-0.9,0.6-1.7,1-2.5c0.4-0.8,0.7-1.6,1.1-2.4l1.2-2.3c0.8-1.6,1.8-3,2.8-4.4c0.2-0.4,0.5-0.7,0.7-1l0.8-1l1.7-1.9
	c1.1-1.2,2.4-2.4,3.6-3.5c-3.5,5.3-6,11.3-7.2,17.6c-1.3,6.2-1.4,12.7-0.2,19c1.2,6.3,3.5,12.3,6.9,17.7l0.6,1l0.7,1l1.4,1.9
	c0.4,0.7,1,1.2,1.5,1.8l1.6,1.8c1.1,1.2,2.2,2.3,3.4,3.3l3.6,3.2l0,0l0,0l0,0c7.1,5.8,15.2,10.4,23.8,13.4
	c8.6,3.1,17.8,4.6,26.9,4.7c9.1,0,18.3-1.6,26.9-4.7c8.6-3.1,16.7-7.6,23.8-13.4l0,0l0,0l0,0c2.5-2.1,4.9-4.3,7.2-6.6l6.9-6.9
	l13.8-13.8l13.8-13.8l6.9-6.9l3.4-3.4L205.1,384.2z"/>
<path class="st3" d="M162.8,257.1c2.8,1.2,5.5,2.6,8.1,4.1c1.3,0.7,2.6,1.5,3.9,2.2l3.8,2.3c5,3.2,9.7,6.6,14.3,10.1
	c4.6,3.5,9,7.3,13.3,11.1l1.6,1.5l0.8,0.7l0.9,0.9c1.2,1.1,2.4,2.3,3.4,3.6c2.2,2.5,4.2,5.2,6,8l-1.4-1.7l0,0l0.9,1l0.4,0.7l2.3,4
	c0.7,1.3,1.3,2.7,2,4.1c0.6,1.4,1.1,2.8,1.7,4.2c0.5,1.4,0.9,2.9,1.3,4.4c1.6,5.8,2.2,11.9,2,17.9c-0.3,6-1.5,11.8-3.6,17.2
	c-2.2,5.4-5.1,10.4-9.2,14.4c4.2-9.7,6-20.5,5.1-31c-0.8-10.6-4.3-20.9-10-29.8l0,0l0,0l0,0c-1.5-2.4-3.3-4.8-5.1-7
	c-1.8-2.2-3.9-4.2-5.9-6.3l-12.2-12.2L162.8,257.1z"/>
<path class="st4" d="M148.7,242.9c-2.8-1.2-5.5-2.6-8.1-4.1c-1.3-0.7-2.6-1.5-3.9-2.2l-3.8-2.3c-5-3.2-9.7-6.6-14.3-10.1
	c-4.6-3.5-9-7.3-13.3-11.1l-1.6-1.5l-0.8-0.7l-0.9-0.9c-1.2-1.1-2.4-2.3-3.4-3.6c-2.2-2.5-4.2-5.2-6-8l1.4,1.7l0,0l-0.9-1l-0.4-0.7
	l-2.3-4c-0.7-1.3-1.3-2.7-2-4.1c-0.6-1.4-1.1-2.8-1.7-4.2c-0.5-1.4-0.9-2.9-1.3-4.4c-1.6-5.8-2.2-11.9-2-17.9
	c0.3-6,1.5-11.8,3.6-17.2c2.2-5.4,5.1-10.4,9.2-14.4c-4.2,9.7-6,20.5-5.1,31c0.8,10.6,4.3,20.9,10,29.8l0,0l0,0l0,0
	c1.5,2.4,3.3,4.8,5.1,7c1.8,2.2,3.9,4.2,5.9,6.3l12.2,12.2L148.7,242.9z"/>
<path class="st5" d="M106.4,115.8c0.7-1.5,1.5-3,2.3-4.5c0.9-1.5,1.7-2.9,2.6-4.3c1.7-2.9,3.5-5.6,5.3-8.4c1.9-2.7,3.7-5.5,5.6-8.2
	l2.8-4.1l2.9-4c1.9-2.7,3.9-5.3,5.9-7.9c2-2.6,4-5.2,6-7.7l3-3.8L146,59l0.8-0.9l0.8-1c0.6-0.7,1.2-1.4,1.9-2.1c1.3-1.4,2.6-2.7,4-4
	l-0.9,0.9l0,0l0.9-0.8c7.7-7.3,17-13.2,27.1-17.1c2.5-0.9,5.1-1.7,7.7-2.6c2.6-0.7,5.2-1.3,7.9-1.9c2.7-0.4,5.4-0.8,8.1-1.1
	c2.7-0.2,5.4-0.3,8.1-0.4c2.7,0.1,5.4,0.2,8.1,0.4c2.7,0.4,5.4,0.7,8.1,1.1c1.3,0.3,2.6,0.6,4,0.9c1.3,0.3,2.6,0.6,3.9,1
	c2.6,0.9,5.1,1.7,7.7,2.6c2.5,1.1,5,2.1,7.4,3.3c2.4,1.3,4.7,2.6,7,4c2.2,1.5,4.4,3,6.6,4.6l6.1,5.2l0.8,0.7l0.2,0.2l0,0l-1-0.9
	c1.3,1.3,2.6,2.7,3.8,4c1.3,1.3,2.5,2.7,3.7,4.3l1.8,2.4c0.6,0.8,1.2,1.6,1.7,2.4l1.5,2.5l0.7,1.3l0.6,1.3c0.8,1.8,1.7,3.5,2.4,5.3
	l1,2.7c0.3,0.9,0.5,1.9,0.8,2.8c1,3.7,1.5,7.5,1.7,11.2c0.1,0.9,0,1.9,0,2.8l0,2.8c-0.2,1.8-0.4,3.7-0.7,5.5l-0.5,2.7
	c-0.1,0.4-0.2,0.9-0.3,1.3l-0.4,1.3l-0.8,2.6c-0.2,0.9-0.6,1.7-1,2.5c-0.4,0.8-0.7,1.6-1.1,2.4l-1.2,2.3c-0.8,1.6-1.8,3-2.8,4.4
	c-0.2,0.4-0.5,0.7-0.7,1l-0.8,1l-1.7,1.9c-1.1,1.2-2.4,2.4-3.6,3.5c3.5-5.3,6-11.3,7.2-17.6c1.3-6.2,1.4-12.7,0.2-19
	c-1.2-6.3-3.5-12.3-6.9-17.7l-0.6-1l-0.7-1l-1.4-1.9c-0.4-0.7-1-1.2-1.5-1.8l-1.6-1.8c-1.1-1.2-2.2-2.3-3.4-3.3l-3.6-3.2l0,0l0,0
	l0,0c-7.1-5.8-15.2-10.4-23.8-13.4c-8.6-3.1-17.8-4.7-26.9-4.7c-9.1,0-18.3,1.6-26.9,4.7c-8.6,3.1-16.7,7.6-23.8,13.4l0,0l0,0l0,0
	c-2.5,2.1-4.9,4.3-7.2,6.6l-6.9,6.9l-13.8,13.8L120,101.9l-6.9,6.9l-3.4,3.4L106.4,115.8z"/>
</svg>
