<?xml version="1.0" encoding="UTF-8"?>
<svg width="500px" height="127px" viewBox="0 0 500 127" version="1.1" xmlns="http://www.w3.org/2000/svg" xmlns:xlink="http://www.w3.org/1999/xlink">
    <!-- Generator: Sketch 47.1 (45422) - http://www.bohemiancoding.com/sketch -->
    <title>toolabs_logo_2</title>
    <desc>Created with Sketch.</desc>
    <defs></defs>
    <g id="Page-1" stroke="none" stroke-width="1" fill="none" fill-rule="evenodd">
        <g id="toolabs_logo_2">
            <g id="toolabs" transform="translate(138.519924, 19.924099)" fill="#4C5765">
                <polygon id="Fill-8" points="10.7677419 0.291306787 18.4290323 0.291306787 18.4290323 26.6608159 30.5779886 26.6608159 30.5779886 33.2822581 18.4290323 33.2822581 18.4290323 86.0677933 10.7677419 86.0677933 10.7677419 33.2822581 0.314231499 33.2822581 0.314231499 26.6608159 10.7677419 26.6608159"></polygon>
                <path d="M64.6232448,32.6255218 C58.252277,32.6255218 52.7788425,34.978463 48.2019924,39.6852941 C43.6251423,44.3911765 41.337666,50.0828273 41.337666,56.7592979 C41.337666,61.0657495 42.3813093,65.0780835 44.4676471,68.7991461 C46.5539848,72.5211575 49.3737192,75.3940228 52.9259013,77.4186907 C56.4771347,79.4433586 60.3756167,80.4556926 64.6232448,80.4556926 C68.8699241,80.4556926 72.7693548,79.4433586 76.3205882,77.4186907 C79.8718216,75.3940228 82.691556,72.5211575 84.7788425,68.7991461 C86.8651803,65.0780835 87.9088235,61.0657495 87.9088235,56.7592979 C87.9088235,50.0828273 85.6118596,44.3911765 81.0160342,39.6852941 C76.4211575,34.978463 70.9572106,32.6255218 64.6232448,32.6255218 Z M64.6498102,25.1283681 C73.8243833,25.1283681 81.4259013,28.4490512 87.4562619,35.0885199 C92.9391841,41.1444972 95.6801708,48.3143264 95.6801708,56.5961101 C95.6801708,64.9139469 92.7835863,72.1833966 86.9904175,78.4035104 C81.1981973,84.6245731 73.7503795,87.73463 64.6498102,87.73463 C55.5122391,87.73463 48.0482922,84.6245731 42.2560721,78.4035104 C36.4619545,72.1833966 33.5663188,64.9139469 33.5663188,56.5961101 C33.5663188,48.3503795 36.3063567,41.1995256 41.7902277,35.1425996 C47.8196395,28.466129 55.4401328,25.1283681 64.6498102,25.1283681 Z" id="Fill-9"></path>
                <path d="M132.406262,32.6255218 C126.036243,32.6255218 120.56186,34.978463 115.985009,39.6852941 C111.409108,44.3911765 109.120683,50.0828273 109.120683,56.7592979 C109.120683,61.0657495 110.164326,65.0780835 112.251613,68.7991461 C114.337951,72.5211575 117.156736,75.3940228 120.708918,77.4186907 C124.260152,79.4433586 128.158634,80.4556926 132.406262,80.4556926 C136.652941,80.4556926 140.552372,79.4433586 144.103605,77.4186907 C147.654839,75.3940228 150.474573,72.5211575 152.56186,68.7991461 C154.648197,65.0780835 155.691841,61.0657495 155.691841,56.7592979 C155.691841,50.0828273 153.394877,44.3911765 148.799051,39.6852941 C144.204175,34.978463 138.740228,32.6255218 132.406262,32.6255218 M132.433776,25.1283681 C141.6074,25.1283681 149.208918,28.4490512 155.239279,35.0885199 C160.722201,41.1444972 163.463188,48.3143264 163.463188,56.5961101 C163.463188,64.9139469 160.566603,72.1833966 154.773435,78.4035104 C148.981214,84.6245731 141.533397,87.73463 132.433776,87.73463 C123.296205,87.73463 115.831309,84.6245731 110.039089,78.4035104 C104.24592,72.1833966 101.350285,64.9139469 101.350285,56.5961101 C101.350285,48.3503795 104.090323,41.1995256 109.573245,35.1425996 C115.602657,28.466129 123.22315,25.1283681 132.433776,25.1283681" id="Fill-11"></path>
                <polygon id="Fill-13" points="170.88425 86.0718468 178.545541 86.0718468 178.545541 0.288092886 170.88425 0.288092886"></polygon>
                <path d="M217.571063,32.5162239 C213.307306,32.5162239 209.370873,33.564611 205.764611,35.6594877 C202.155503,37.7553131 199.286433,40.6983871 197.153605,44.4887097 C195.021727,48.2780835 193.956262,52.2866224 193.956262,56.5133776 C193.956262,60.7050285 195.031214,64.7145161 197.18112,68.5399431 C199.331025,72.3663188 202.21907,75.3454459 205.845256,77.4773245 C209.470493,79.609203 213.361385,80.6746679 217.516034,80.6746679 C221.706736,80.6746679 225.679222,79.6186907 229.432543,77.5038899 C233.185863,75.390038 236.07296,72.5304554 238.096679,68.922296 C240.11945,65.3141366 241.129886,61.251518 241.129886,56.7315939 C241.129886,49.8454459 238.861385,44.0873814 234.324383,39.4583491 C229.787381,34.8302657 224.202941,32.5162239 217.571063,32.5162239 L217.571063,32.5162239 Z M248.189658,26.6604364 L248.189658,86.0668088 L240.637476,86.0668088 L240.637476,75.9687856 C237.42685,79.8729602 233.824383,82.8093928 229.829127,84.7790323 C225.83482,86.7496205 221.464801,87.7344402 216.721917,87.7344402 C208.294972,87.7344402 201.098577,84.678463 195.133681,78.5674573 C189.167837,72.4574004 186.185863,65.023814 186.185863,56.2666983 C186.185863,47.6936433 189.1963,40.361575 195.216224,34.2676471 C201.235199,28.1756167 208.477135,25.1281784 216.94203,25.1281784 C221.830076,25.1281784 226.253226,26.1689753 230.212429,28.247723 C234.170683,30.3264706 237.646015,33.4460152 240.637476,37.605408 L240.637476,26.6604364 L248.189658,26.6604364 Z" id="Fill-15"></path>
                <path d="M290.962429,80.3464896 C295.220493,80.3464896 299.153131,79.2990512 302.756546,77.2003795 C306.359962,75.1026565 309.225237,72.1567362 311.354269,68.3616698 C313.483302,64.5675522 314.548767,60.5552182 314.548767,56.3218216 C314.548767,52.0903226 313.475712,48.0590133 311.328653,44.2278937 C309.179696,40.3967742 306.296395,37.413852 302.674004,35.2800759 C299.051613,33.145351 295.18444,32.0789374 291.071537,32.0789374 C286.885579,32.0789374 282.909298,33.145351 279.141746,35.2800759 C275.374194,37.413852 272.481404,40.2867173 270.46148,43.8996205 C268.440607,47.511575 267.430171,51.5798861 267.430171,56.1026565 C267.430171,62.9982922 269.695825,68.7639469 274.227135,73.3967742 C278.760342,78.0305503 284.33814,80.3464896 290.962429,80.3464896 L290.962429,80.3464896 Z M260.316319,86.0636239 L260.316319,0.289424773 L267.977609,0.289424773 L267.977609,36.8939279 C271.18444,32.954649 274.774573,30.0077799 278.748008,28.056167 C282.719545,26.1045541 287.075332,25.1282732 291.813472,25.1282732 C300.232827,25.1282732 307.422581,28.1842505 313.381784,34.2952562 C319.340038,40.4062619 322.321063,47.8218216 322.321063,56.5409867 C322.321063,65.1510436 319.313472,72.5020873 313.299241,78.5950664 C307.285009,84.6880455 300.050664,87.7345351 291.595256,87.7345351 C286.748008,87.7345351 282.356167,86.6946869 278.419734,84.6149905 C274.483302,82.5362429 271.003226,79.4166983 267.977609,75.2573055 L267.977609,86.0636239 L260.316319,86.0636239 Z" id="Fill-16"></path>
                <path d="M360.606926,33.1731499 L355.681879,38.262334 C351.583207,34.2860531 347.579412,32.2974383 343.66575,32.2974383 C341.178083,32.2974383 339.046205,33.1181214 337.27296,34.7604364 C335.498767,36.4018027 334.612619,38.3173624 334.612619,40.506167 C334.612619,42.4407021 335.343169,44.2822581 336.805218,46.0336812 C338.267268,47.8211575 341.338425,49.9188805 346.018691,52.3268501 C351.722676,55.2822581 355.597438,58.1285579 357.645825,60.8648008 C359.656262,63.6370968 360.661954,66.7556926 360.661954,70.2224858 C360.661954,75.1114801 358.943738,79.2518975 355.509203,82.6456357 C352.073719,86.038425 347.779602,87.7348197 342.629696,87.7348197 C339.194213,87.7348197 335.914326,86.9862429 332.790987,85.4909867 C329.666698,83.9947818 327.081309,81.9340607 325.03482,79.306926 L329.850759,73.8334915 C333.763472,78.2490512 337.914326,80.4558824 342.302372,80.4558824 C345.373529,80.4558824 347.98833,79.4710626 350.146774,77.5014231 C352.304269,75.5308349 353.383017,73.2139469 353.383017,70.550759 C353.383017,68.3619545 352.670493,66.4103416 351.244497,64.6949715 C349.818501,63.0175522 346.600285,60.9018027 341.591746,58.3467742 C336.216983,55.5744782 332.560436,52.8391841 330.623055,50.1380455 C328.685674,47.4378558 327.716983,44.3553131 327.716983,40.8894687 C327.716983,36.3657495 329.259677,32.607685 332.348861,29.6162239 C335.437097,26.6247628 339.337476,25.1285579 344.052846,25.1285579 C349.532922,25.1285579 355.052846,27.8097723 360.606926,33.1731499" id="Fill-17"></path>
            </g>
            <g id="logo_">
                <polygon id="Fill-11" fill="#4C5765" points="36.809816 27.3799721 107.263012 27.3799721 107.263012 20.2373707 36.809816 20.2373707"></polygon>
                <polygon id="Fill-12" fill="#4C5765" points="0 27.3799721 13.8531565 27.3799721 13.8531565 20.2373707 0 20.2373707"></polygon>
                <polygon id="Fill-13" fill="#4C5765" points="21.769246 105.948588 28.8937265 105.948588 28.8937265 0 21.769246 0"></polygon>
                <polygon id="Fill-14" fill="#4C5765" points="100.138532 126.185958 107.263012 126.185958 107.263012 20.2682466 100.138532 20.2682466"></polygon>
                <polygon id="Fill-15" fill="#4C5765" points="21.8216319 105.966841 92.2239882 105.966841 92.2239882 98.8242395 21.8216319 98.8242395"></polygon>
                <polygon id="Fill-16" fill="#4C5765" points="115.179102 105.948588 129.032258 105.948588 129.032258 98.8059862 115.179102 98.8059862"></polygon>
                <polygon id="Fill-17" fill="#6FCAD5" points="36.809816 90.8697624 92.2224421 90.8697624 92.2224421 35.3161959 36.809816 35.3161959"></polygon>
            </g>
        </g>
    </g>
</svg>