<svg xmlns="http://www.w3.org/2000/svg" width="56" height="60" viewBox="0 0 56 60">
    <g fill="#FF6E5F" fill-rule="evenodd">
        <path d="M54.756 3.999h-6.972V1A.995.995 0 0 0 46.794 0h-6.972a1 1 0 0 0-.997 1.001V4H16.927V1A1 1 0 0 0 15.93 0H8.96a1 1 0 0 0-.997 1.001V4H.997A1 1 0 0 0 0 5v53.999A1 1 0 0 0 .997 60h53.759a1 1 0 0 0 .996-1.001V5c0-.551-.448-1.001-.996-1.001zM40.819 7.997h4.978V2.003h-4.978v5.994zm-30.863 0h4.977V2.003H9.956v5.994zM1.994 6.002h5.968V9A1 1 0 0 0 8.959 10h6.971a1 1 0 0 0 .997-1.001V6h21.898V9A1 1 0 0 0 39.822 10h6.972c.548 0 .99-.449.99-1.001V6h5.975V15H1.994V6.001zm0 51.997h51.765V17.003H1.994v40.995z"/>
        <path d="M35.841 22.997H8.96v29.005h37.835V22.997H35.84zm-6.971 9.005h6.971V25H28.87v7.002zm0 9h6.971v-7.003H28.87V41zm-8.959 0h6.971v-7.003h-6.97V41zm0-9h6.971V25h-6.97v7.002zm-8.959 0h6.966V25h-6.966v7.002zm0 9h6.966v-7.003h-6.966V41zm0 8.998h6.966v-7.002h-6.966V50zm8.96 0h6.97v-7.002h-6.97V50zm8.958 0h6.971v-7.002H28.87V50zm8.959 0H44.8v-7.002h-6.971V50zm0-8.999H44.8V34h-6.971V41zm0-8.998H44.8V25h-6.971v7.002z"/>
    </g>
</svg>
