<svg xmlns="http://www.w3.org/2000/svg" width="49" height="50" viewBox="0 0 49 50">
    <g fill="#FFF" fill-rule="evenodd">
        <path d="M2.141 45.69l10.707.776a2.67 2.67 0 0 1 2.056 1.379c.171.258.428.43.685.43h14.304c.257 0 .514-.172.685-.43a2.67 2.67 0 0 1 2.056-1.38l11.478-.775c.428-.087.428-.259.428-.345 0-.259-.257-.517-.514-.517H2.227c-.257 0-.514.258-.514.517 0 .086 0 .258.428.345zM29.808 50H15.589a2.468 2.468 0 0 1-2.227-1.38.644.644 0 0 0-.6-.43l-10.878-.776C.685 47.155 0 46.379 0 45.344a2.219 2.219 0 0 1 2.227-2.24H43.94c1.285 0 2.227 1.034 2.227 2.24 0 1.035-.685 1.811-1.884 2.07h-.086l-11.649.776a.644.644 0 0 0-.6.43c-.342.863-1.198 1.38-2.14 1.38zM23.127 15.517a.775.775 0 0 1-.6-.258c-1.285-1.38-1.97-2.759-1.97-4.138 0-1.38.685-2.673 1.97-3.966.942-.862 1.456-1.81 1.456-2.758 0-.949-.514-1.897-1.456-2.931a.837.837 0 0 1 0-1.207.824.824 0 0 1 1.2 0c1.37 1.293 1.97 2.758 1.97 4.138 0 1.379-.686 2.758-1.97 3.965-.943.862-1.457 1.81-1.457 2.759 0 .948.514 1.896 1.456 2.93a.837.837 0 0 1 0 1.208.775.775 0 0 1-.6.258M32.548 15.517a.775.775 0 0 1-.6-.258c-1.284-1.38-1.97-2.759-1.97-4.138 0-1.38.686-2.673 1.97-3.966.943-.948 1.457-1.81 1.457-2.758 0-.949-.514-1.897-1.456-2.931a.837.837 0 0 1 0-1.207.824.824 0 0 1 1.2 0c1.37 1.293 1.97 2.672 1.97 4.138 0 1.379-.686 2.758-2.057 3.965-.942.862-1.456 1.81-1.456 2.759 0 .948.514 1.896 1.456 2.93a.837.837 0 0 1 0 1.208c-.085.172-.342.258-.514.258M14.561 15.517a.775.775 0 0 1-.6-.258c-1.284-1.38-1.97-2.759-1.97-4.138 0-1.38.686-2.673 1.97-3.966.943-.948 1.457-1.81 1.457-2.758 0-.949-.514-1.897-1.456-2.931a.837.837 0 0 1 0-1.207.824.824 0 0 1 1.199 0c1.37 1.293 1.97 2.672 1.97 4.138 0 1.379-.685 2.758-2.056 3.965-.942.862-1.456 1.81-1.456 2.759 0 .948.514 1.896 1.456 2.93a.837.837 0 0 1 0 1.208c-.086.172-.343.258-.514.258"/>
        <path d="M3.426 20.69c.086 11.638 2.57 22.413 19.7 22.413 17.131 0 19.615-10.775 19.7-22.413h-39.4zm19.7 24.138C4.455 44.828 1.8 32.672 1.714 20.69c0-.431.171-.862.514-1.207.343-.345.77-.517 1.2-.517h39.4c.428 0 .856.172 1.2.517.342.345.513.776.513 1.207-.086 11.982-2.741 24.138-21.413 24.138z"/>
        <path d="M44.54 22.586c-.171 4.483-.685 9.655-3.255 13.88 4.283-1.466 5.825-5.518 5.825-8.88 0-2.414-1.114-4.483-2.57-5zm-7.195 16.38l1.37-1.638c3.512-4.397 4.112-10.69 4.198-15.776v-.604l.685-.258h.171c2.827 0 5.14 3.103 5.14 6.896 0 4.914-2.913 10.259-9.423 11.12l-2.14.26zM17.987 40.517h-.171c-6.767-1.207-10.45-5.086-11.82-12.758-.086-.431.257-.949.685-1.035.428-.086.942.259 1.028.69 1.285 6.896 4.368 10.345 10.45 11.38.428.085.77.516.685 1.034-.086.43-.428.69-.857.69"/>
    </g>
</svg>
