<svg enable-background="new 0 0 62 62" height="62" viewBox="0 0 62 62" width="62" xmlns="http://www.w3.org/2000/svg"><g fill="#2196f3"><path d="m31 59.934h8.268v-20.666h10.332v-8.268h-10.332v-7.233c0-1.757 1.342-3.1 3.1-3.1h8.266v-8.267h-9.3c-5.787.517-10.334 5.477-10.334 11.367v7.233h-8.267v8.268h8.267zm10.333 2.066h-12.4v-20.667h-8.266v-12.4h8.266v-5.166c0-6.924 5.374-12.814 12.297-13.434h11.47v12.4h-10.333c-.62 0-1.034.414-1.034 1.034v5.166h10.334v12.4h-10.334z"/><path d="m5.167 2.067c-1.757 0-3.1 1.343-3.1 3.1v51.666c0 1.757 1.343 3.101 3.1 3.101h51.666c1.757 0 3.101-1.344 3.101-3.101v-51.666c0-1.757-1.344-3.1-3.101-3.1zm51.666 59.933h-51.666c-2.894 0-5.167-2.273-5.167-5.167v-51.666c0-2.894 2.273-5.167 5.167-5.167h51.666c2.894 0 5.167 2.273 5.167 5.167v51.666c0 2.894-2.273 5.167-5.167 5.167z"/></g></svg>