<svg xmlns="http://www.w3.org/2000/svg" width="62" height="62" viewBox="0 0 62 62">
    <g fill="#FF6E5F" fill-rule="evenodd">
        <path d="M31 59.933h8.267V39.267H49.6V31H39.267v-7.233c0-1.757 1.343-3.1 3.1-3.1h8.266V12.4h-9.3C35.547 12.917 31 17.877 31 23.767V31h-8.267v8.267H31v20.666zM41.333 62h-12.4V41.333h-8.266v-12.4h8.266v-5.166c0-6.924 5.374-12.814 12.297-13.434H52.7v12.4H42.367c-.62 0-1.034.414-1.034 1.034v5.166h10.334v12.4H41.333V62z"/>
        <path d="M5.167 2.067c-1.757 0-3.1 1.343-3.1 3.1v51.666c0 1.757 1.343 3.1 3.1 3.1h51.666c1.757 0 3.1-1.343 3.1-3.1V5.167c0-1.757-1.343-3.1-3.1-3.1H5.167zM56.833 62H5.167C2.273 62 0 59.727 0 56.833V5.167C0 2.273 2.273 0 5.167 0h51.666C59.727 0 62 2.273 62 5.167v51.666C62 59.727 59.727 62 56.833 62z"/>
    </g>
</svg>
