<?xml version="1.0" encoding="UTF-8"?>
<svg width="48px" height="48px" viewBox="0 0 48 48" version="1.1" xmlns="http://www.w3.org/2000/svg" xmlns:xlink="http://www.w3.org/1999/xlink">
    <!-- Generator: Sketch 49.2 (51160) - http://www.bohemiancoding.com/sketch -->
    <title>facebook-konusmaci</title>
    <desc>Created with Sketch.</desc>
    <defs>
        <linearGradient x1="22.398966%" y1="25.9912853%" x2="111.248784%" y2="100%" id="linearGradient-1">
            <stop stop-color="#5A84FF" offset="0%"></stop>
            <stop stop-color="#1ACBFE" offset="100%"></stop>
        </linearGradient>
    </defs>
    <g id="web" stroke="none" stroke-width="1" fill="none" fill-rule="evenodd">
        <g id="konuşmacı" transform="translate(-1021.000000, -680.000000)">
            <g id="konuşmacı-copy-2" transform="translate(889.000000, 206.000000)">
                <g id="facebook-konusmaci" transform="translate(132.000000, 474.000000)">
                    <circle id="Oval-2" fill="url(#linearGradient-1)" cx="24" cy="24" r="24"></circle>
                    <path d="M30.4728011,11.0053878 L27.1148377,11 C23.342281,11 20.9042891,13.5012989 20.9042891,17.3727222 L20.9042891,20.3109738 L17.5280071,20.3109738 C17.2362562,20.3109738 17,20.5474995 17,20.8392503 L17,25.0964421 C17,25.388193 17.2365256,25.6244492 17.5280071,25.6244492 L20.9042891,25.6244492 L20.9042891,36.3666994 C20.9042891,36.6584502 21.1405453,36.8947065 21.4322962,36.8947065 L25.8373838,36.8947065 C26.1291347,36.8947065 26.3653909,36.6581808 26.3653909,36.3666994 L26.3653909,25.6244492 L30.313052,25.6244492 C30.6048029,25.6244492 30.8410591,25.388193 30.8410591,25.0964421 L30.8426754,20.8392503 C30.8426754,20.6991668 30.7869114,20.5650099 30.6880448,20.4658739 C30.5891782,20.3667379 30.4544825,20.3109738 30.314399,20.3109738 L26.3653909,20.3109738 L26.3653909,17.8201813 C26.3653909,16.623006 26.6506764,16.0152591 28.210183,16.0152591 L30.4722623,16.0144509 C30.7637438,16.0144509 31,15.7779253 31,15.4864438 L31,11.5333949 C31,11.2421828 30.7640132,11.0059266 30.4728011,11.0053878 Z" id="Shape" fill="#FFFFFF" fill-rule="nonzero"></path>
                </g>
            </g>
        </g>
    </g>
</svg>