<svg xmlns="http://www.w3.org/2000/svg" xmlns:xlink="http://www.w3.org/1999/xlink" width="62" height="62" viewBox="0 0 62 62">
    <defs>
        <path id="a" d="M.007 62H62V0H.007z"/>
    </defs>
    <g fill="none" fill-rule="evenodd">
        <g>
            <mask id="b" fill="#fff">
                <use xlink:href="#a"/>
            </mask>
            <path fill="#FF6E5F" d="M17.67 2.067c-8.577 0-15.603 7.026-15.603 15.603v26.66c0 8.577 7.026 15.603 15.603 15.603h26.66c8.577 0 15.603-7.026 15.603-15.603V17.67c0-8.577-7.026-15.603-15.603-15.603H17.67zM44.33 62H17.67C7.957 62 0 54.043 0 44.33V17.67C0 7.957 7.957 0 17.67 0h26.66C54.043 0 62 7.957 62 17.67v26.66C62 54.043 54.043 62 44.33 62z" mask="url(#b)"/>
        </g>
        <path fill="#FF6E5F" d="M17.67 8.267c-5.167 0-9.403 4.236-9.403 9.403v26.66c0 5.167 4.236 9.403 9.403 9.403h26.66c5.167 0 9.403-4.236 9.403-9.403V17.67c0-5.167-4.236-9.403-9.403-9.403H17.67zM44.33 55.8H17.67c-6.303 0-11.47-5.167-11.47-11.47V17.67c0-6.303 5.167-11.47 11.47-11.47h26.66c6.303 0 11.47 5.167 11.47 11.47v26.66c0 6.303-5.167 11.47-11.47 11.47z"/>
        <path fill="#FF6E5F" d="M31 16.533c-7.957 0-14.467 6.51-14.467 14.467 0 7.957 6.51 14.467 14.467 14.467 7.957 0 14.467-6.51 14.467-14.467 0-7.957-6.51-14.467-14.467-14.467zm0 31c-9.093 0-16.533-7.44-16.533-16.533S21.907 14.467 31 14.467 47.533 21.907 47.533 31 40.093 47.533 31 47.533z"/>
        <path fill="#FF6E5F" d="M31 21.7a9.261 9.261 0 0 0-9.3 9.3c0 5.167 4.133 9.3 9.3 9.3 5.167 0 9.3-4.133 9.3-9.3 0-5.167-4.133-9.3-9.3-9.3zm0 20.667A11.334 11.334 0 0 1 19.633 31 11.334 11.334 0 0 1 31 19.633 11.334 11.334 0 0 1 42.367 31 11.334 11.334 0 0 1 31 42.367zM50.633 14.467c0-1.757-1.343-3.1-3.1-3.1-1.756 0-3.1 1.343-3.1 3.1 0 1.756 1.344 3.1 3.1 3.1 1.757 0 3.1-1.344 3.1-3.1"/>
    </g>
</svg>
