<svg enable-background="new 0 0 62 62" height="62" viewBox="0 0 62 62" width="62" xmlns="http://www.w3.org/2000/svg" xmlns:xlink="http://www.w3.org/1999/xlink"><mask id="a" height="62" maskUnits="userSpaceOnUse" width="62" x="0" y="0"><path d="m.007 62h61.993v-62h-61.993z" fill="#fff"/></mask><g fill="#2196f3"><path d="m17.67 2.067c-8.577 0-15.603 7.026-15.603 15.603v26.66c0 8.577 7.026 15.604 15.603 15.604h26.66c8.577 0 15.604-7.026 15.604-15.604v-26.66c0-8.577-7.026-15.603-15.604-15.603zm26.66 59.933h-26.66c-9.713 0-17.67-7.957-17.67-17.67v-26.66c0-9.713 7.957-17.67 17.67-17.67h26.66c9.713 0 17.67 7.957 17.67 17.67v26.66c0 9.713-7.957 17.67-17.67 17.67z" mask="url(#a)"/><path d="m17.67 8.267c-5.167 0-9.403 4.236-9.403 9.403v26.66c0 5.167 4.236 9.402 9.403 9.402h26.66c5.167 0 9.402-4.235 9.402-9.402v-26.66c0-5.167-4.235-9.403-9.402-9.403zm26.66 47.533h-26.66c-6.303 0-11.47-5.167-11.47-11.47v-26.66c0-6.303 5.167-11.47 11.47-11.47h26.66c6.303 0 11.47 5.167 11.47 11.47v26.66c0 6.303-5.167 11.47-11.47 11.47z"/><path d="m31 16.533c-7.957 0-14.467 6.51-14.467 14.467s6.51 14.467 14.467 14.467 14.467-6.51 14.467-14.467-6.51-14.467-14.467-14.467zm0 31c-9.093 0-16.533-7.44-16.533-16.533s7.44-16.533 16.533-16.533 16.533 7.44 16.533 16.533-7.44 16.533-16.533 16.533z"/><path d="m31 21.7c-5.115-.022-9.278 4.107-9.3 9.222v.078c0 5.167 4.133 9.3 9.3 9.3s9.3-4.133 9.3-9.3-4.133-9.3-9.3-9.3zm0 20.667c-6.26.018-11.349-5.041-11.367-11.301 0-.022 0-.044 0-.066-.018-6.26 5.042-11.349 11.301-11.367h.066c6.26-.018 11.349 5.042 11.367 11.301v.066c.018 6.26-5.041 11.349-11.301 11.367-.022 0-.044 0-.066 0zm19.633-27.9c0-1.757-1.343-3.1-3.1-3.1-1.756 0-3.1 1.343-3.1 3.1 0 1.756 1.344 3.1 3.1 3.1 1.757 0 3.1-1.344 3.1-3.1"/></g></svg>