<?xml version="1.0" encoding="utf-8"?>
<!-- Generator: Adobe Illustrator 16.0.0, SVG Export Plug-In . SVG Version: 6.00 Build 0)  -->
<!DOCTYPE svg PUBLIC "-//W3C//DTD SVG 1.1//EN" "http://www.w3.org/Graphics/SVG/1.1/DTD/svg11.dtd">
<svg version="1.1" id="Layer_1" xmlns="http://www.w3.org/2000/svg" xmlns:xlink="http://www.w3.org/1999/xlink" x="0px" y="0px"
	 width="42px" height="60px" viewBox="0 0 42 60" enable-background="new 0 0 42 60" xml:space="preserve">
<g>
	<path fill="#2196F3" d="M21.05,13.358c-4.2,0-7.615,3.426-7.615,7.634c0,4.212,3.415,7.638,7.615,7.638
		c4.195,0,7.61-3.426,7.61-7.638C28.66,16.784,25.245,13.358,21.05,13.358z M21.05,26.446c-3,0-5.438-2.445-5.438-5.454
		c0-3.006,2.437-5.455,5.438-5.455c2.996,0,5.437,2.45,5.437,5.455C26.486,24.002,24.046,26.446,21.05,26.446z"/>
	<path fill="#2196F3" d="M35.605,6.391c-3.94-3.947-9.176-6.126-14.746-6.126c-5.576,0-10.811,2.179-14.752,6.126
		c-7.286,7.314-8.194,21.067-1.96,29.403L20.86,60l16.68-24.172C43.801,27.459,42.893,13.706,35.605,6.391L35.605,6.391z
		 M35.775,34.553L20.86,56.168L5.911,34.52C0.26,26.958,1.067,14.535,7.647,7.935c3.532-3.536,8.22-5.486,13.212-5.486
		c4.987,0,9.676,1.95,13.208,5.486C40.645,14.535,41.458,26.958,35.775,34.553L35.775,34.553z"/>
</g>
</svg>
