<svg enable-background="new 0 0 42 60" height="60" viewBox="0 0 42 60" width="42" xmlns="http://www.w3.org/2000/svg"><g fill="#2196f3"><path d="m21.05 13.358c-4.2 0-7.615 3.426-7.615 7.634 0 4.212 3.415 7.638 7.615 7.638 4.195 0 7.61-3.426 7.61-7.638 0-4.208-3.415-7.634-7.61-7.634zm0 13.088c-3 0-5.438-2.445-5.438-5.454 0-3.006 2.437-5.455 5.438-5.455 2.996 0 5.437 2.45 5.437 5.455-.001 3.01-2.441 5.454-5.437 5.454z"/><path d="m35.605 6.391c-3.94-3.947-9.176-6.126-14.746-6.126-5.576 0-10.811 2.179-14.752 6.126-7.286 7.314-8.194 21.067-1.96 29.403l16.713 24.206 16.68-24.172c6.261-8.369 5.353-22.122-1.935-29.437zm.17 28.162-14.915 21.615-14.949-21.648c-5.651-7.562-4.844-19.985 1.736-26.585 3.532-3.536 8.22-5.486 13.212-5.486 4.987 0 9.676 1.95 13.208 5.486 6.578 6.6 7.391 19.023 1.708 26.618z"/></g></svg>