<svg xmlns="http://www.w3.org/2000/svg" width="42" height="60" viewBox="0 0 42 60">
    <g fill="#FF6E5F" fill-rule="evenodd">
        <path d="M21.05 13.358c-4.2 0-7.615 3.426-7.615 7.634 0 4.212 3.415 7.638 7.615 7.638 4.195 0 7.61-3.426 7.61-7.638 0-4.208-3.415-7.634-7.61-7.634zm0 13.088c-3 0-5.438-2.445-5.438-5.454 0-3.006 2.437-5.455 5.438-5.455 2.996 0 5.437 2.45 5.437 5.455 0 3.01-2.441 5.454-5.437 5.454z"/>
        <path d="M35.605 6.391C31.665 2.444 26.43.265 20.86.265c-5.576 0-10.811 2.179-14.752 6.126-7.286 7.314-8.194 21.067-1.96 29.403L20.86 60l16.68-24.172c6.261-8.369 5.353-22.122-1.934-29.436zm.17 28.162L20.86 56.168 5.911 34.52C.26 26.958 1.067 14.535 7.647 7.935c3.532-3.536 8.22-5.486 13.212-5.486 4.987 0 9.676 1.95 13.207 5.486 6.579 6.6 7.392 19.023 1.71 26.618z"/>
    </g>
</svg>
