<?xml version="1.0" encoding="utf-8"?>
<!-- Generator: Adobe Illustrator 16.0.0, SVG Export Plug-In . SVG Version: 6.00 Build 0)  -->
<!DOCTYPE svg PUBLIC "-//W3C//DTD SVG 1.1//EN" "http://www.w3.org/Graphics/SVG/1.1/DTD/svg11.dtd">
<svg version="1.1" id="Layer_1" xmlns="http://www.w3.org/2000/svg" xmlns:xlink="http://www.w3.org/1999/xlink" x="0px" y="0px"
	 width="69px" height="69px" viewBox="0 0 69 69" enable-background="new 0 0 69 69" xml:space="preserve">
<path fill="#2196F3" d="M29.76,1.847c2.288-2.29,5.785-2.528,7.791-0.522l29.809,29.809c2.002,2.002,1.768,5.502-0.521,7.792
	c-2.294,2.293-5.79,2.523-7.792,0.521l-1.651-1.65l-15.787,8.936c0.688,0.371,1.229,0.936,1.563,1.66
	c0.46,1.01,0.479,2.199,0.034,3.348c-0.264,0.687-0.669,1.31-1.19,1.828c-0.346,0.346-0.732,0.641-1.164,0.881l-15.225,8.508
	c-1.079,0.604-2.28,0.775-3.377,0.486c-1.072-0.268-1.964-1.009-2.423-2.014c-0.316-0.69-0.399-1.447-0.306-2.199l-3.575,2.026
	c1.33,1.63,1.085,4.211-0.649,5.945c-1.834,1.834-4.627,2.021-6.231,0.417l-7.999-7.998c-1.604-1.605-1.416-4.396,0.418-6.232
	c1.733-1.732,4.314-1.979,5.944-0.647l23.458-41.455l-1.648-1.647C27.232,7.633,27.465,4.14,29.76,1.847L29.76,1.847z
	 M41.137,49.525c-0.479-1.047-1.779-1.389-2.9-0.764L23.013,57.27c-0.216,0.116-0.412,0.27-0.578,0.436
	c-0.703,0.703-0.966,1.747-0.582,2.592c0.231,0.5,0.662,0.858,1.212,1.002c0.551,0.145,1.148,0.059,1.69-0.242l15.228-8.504
	c0.535-0.3,0.955-0.783,1.17-1.354C41.375,50.623,41.372,50.027,41.137,49.525z M14.053,62.63l-7.998-7.998
	c-0.803-0.803-2.203-0.709-3.12,0.209c-0.919,0.917-1.007,2.313-0.205,3.115l7.998,7.998c0.803,0.803,2.194,0.71,3.111-0.208
	C14.757,64.828,14.855,63.432,14.053,62.63z M14.453,59.71l41.42-23.437L32.41,12.812L8.975,54.232L14.453,59.71L14.453,59.71z
	 M65.695,32.798L35.886,2.99c-1.203-1.203-3.3-1.06-4.671,0.313c-1.377,1.377-1.521,3.473-0.318,4.676l29.809,29.809
	c1.203,1.203,3.3,1.06,4.676-0.318C66.754,36.098,66.898,34.002,65.695,32.798z"/>
</svg>
