<svg enable-background="new 0 0 69 69" height="69" viewBox="0 0 69 69" width="69" xmlns="http://www.w3.org/2000/svg"><path d="m29.76 1.847c2.288-2.29 5.785-2.528 7.791-.522l29.809 29.809c2.002 2.002 1.768 5.502-.521 7.792-2.294 2.293-5.79 2.523-7.792.521l-1.651-1.65-15.787 8.936c.688.371 1.229.936 1.563 1.66.46 1.01.479 2.199.034 3.348-.264.687-.669 1.31-1.19 1.828-.346.346-.732.641-1.164.881l-15.225 8.508c-1.079.604-2.28.775-3.377.486-1.072-.268-1.964-1.009-2.423-2.014-.316-.69-.399-1.447-.306-2.199l-3.575 2.026c1.33 1.63 1.085 4.211-.649 5.945-1.834 1.834-4.627 2.021-6.231.417l-7.999-7.998c-1.604-1.605-1.416-4.396.418-6.232 1.733-1.732 4.314-1.979 5.944-.647l23.458-41.455-1.648-1.647c-2.007-2.007-1.774-5.5.521-7.793zm11.377 47.678c-.479-1.047-1.779-1.389-2.9-.764l-15.224 8.509c-.216.116-.412.27-.578.436-.703.703-.966 1.747-.582 2.592.231.5.662.858 1.212 1.002.551.145 1.148.059 1.69-.242l15.228-8.504c.535-.3.955-.783 1.17-1.354.222-.577.219-1.173-.016-1.675zm-27.084 13.105-7.998-7.998c-.803-.803-2.203-.709-3.12.209-.919.917-1.007 2.313-.205 3.115l7.998 7.998c.803.803 2.194.71 3.111-.208.918-.918 1.016-2.314.214-3.116zm.4-2.92 41.42-23.437-23.463-23.461-23.435 41.42zm51.242-26.912-29.809-29.808c-1.203-1.203-3.3-1.06-4.671.313-1.377 1.377-1.521 3.473-.318 4.676l29.809 29.809c1.203 1.203 3.3 1.06 4.676-.318 1.372-1.372 1.516-3.468.313-4.672z" fill="#2196f3"/></svg>