<svg xmlns="http://www.w3.org/2000/svg" width="23" height="23" viewBox="0 0 23 23">
    <g fill="#9B9B9B" fill-rule="evenodd">
        <path d="M11.5 0C5.159 0 0 5.159 0 11.5S5.159 23 11.5 23 23 17.841 23 11.5 17.841 0 11.5 0zm0 22.232C5.581 22.232.768 17.42.768 11.5S5.58.768 11.5.768 22.232 5.58 22.232 11.5 17.42 22.232 11.5 22.232z"/>
        <path d="M11.5 2.3a.383.383 0 0 0-.384.384V11.5h-5.75a.384.384 0 0 0 0 .768H11.5a.385.385 0 0 0 .384-.384v-9.2A.383.383 0 0 0 11.5 2.3z"/>
    </g>
</svg>
