<?xml version="1.0" encoding="utf-8"?>
<!-- Generator: Adobe Illustrator 16.0.0, SVG Export Plug-In . SVG Version: 6.00 Build 0)  -->
<!DOCTYPE svg PUBLIC "-//W3C//DTD SVG 1.1//EN" "http://www.w3.org/Graphics/SVG/1.1/DTD/svg11.dtd">
<svg version="1.1" id="Layer_1" xmlns="http://www.w3.org/2000/svg" xmlns:xlink="http://www.w3.org/1999/xlink" x="0px" y="0px"
	 width="62px" height="51px" viewBox="0 0 62 51" enable-background="new 0 0 62 51" xml:space="preserve">
<g>
	<defs>
		<filter id="Adobe_OpacityMaskFilter" filterUnits="userSpaceOnUse" x="0" y="0.051" width="61.911" height="50.446">
			<feColorMatrix  type="matrix" values="1 0 0 0 0  0 1 0 0 0  0 0 1 0 0  0 0 0 1 0"/>
		</filter>
	</defs>
	<mask maskUnits="userSpaceOnUse" x="0" y="0.051" width="61.911" height="50.446" id="b">
		<g filter="url(#Adobe_OpacityMaskFilter)">
			<path id="a" fill="#FFFFFF" d="M30.96,50.496H0.006V0.051h61.905v50.445H30.96L30.96,50.496z"/>
		</g>
	</mask>
	<path mask="url(#b)" fill="#2196F3" d="M3.655,45.137c3.468,1.682,9.878,3.258,19.441,3.258c17.339,0,31.525-15.553,31.525-34.679
		V11.93l0.63-0.21c1.998-0.736,3.153-2.312,3.89-3.678l-4.1,1.366c-0.525,0.21-1.154,0-1.365-0.526
		c-0.21-0.525-0.105-1.155,0.315-1.47c1.681-1.367,2.942-2.838,3.888-4.414c-2.102,0.84-3.993,1.576-5.57,2.101
		c-0.629,0.21-1.26,0.105-1.891-0.21c-1.156-0.63-5.15-2.837-7.566-2.732c-6.305,0.105-11.35,5.465-11.35,11.98v2.942l-1.26-0.21
		c-11.56-2.102-17.97-5.15-24.695-11.77c-3.153,7.987,3.363,13.556,5.57,15.133l2.626,1.891h-3.257c-2.102,0-4.414-0.21-6.515-1.156
		c2.311,4.834,7.04,8.407,11.033,9.563l-0.315,2.102c-0.84,0-1.681,0-2.522,0.104c-2.207,0.105-4.203,0.105-6.095-0.525
		c2.102,3.993,5.78,5.675,11.77,5.675h3.152l-2.627,1.892C15.11,42.299,10.907,44.611,3.655,45.137z M23.096,50.497
		c-10.403,0-18.81-1.787-22.593-4.835c-0.42-0.42-0.63-0.946-0.42-1.576c0.21-0.525,0.735-0.945,1.366-0.945
		c6.2-0.105,10.193-1.576,13.24-3.363c-5.885-0.735-9.562-3.573-11.454-8.932c-0.21-0.525,0-1.051,0.42-1.367
		c0.42-0.314,1.051-0.314,1.472-0.104c1.576,1.05,3.152,1.261,5.044,1.261c-3.994-2.417-7.672-6.41-9.143-11.35
		C0.923,18.76,1.133,18.13,1.554,17.92c0.525-0.316,1.05-0.21,1.47,0.105c1.157,0.946,2.418,1.576,4.31,1.891
		c-4.1-4.203-6.622-10.403-3.049-17.234l0.63-1.26l1.051,1.05c6.515,6.83,12.505,9.983,23.434,12.085v-0.42
		c0-7.671,5.991-13.977,13.45-14.082c2.943,0,7.043,2.102,8.724,3.048c0.104,0,0.21,0.105,0.21,0
		c2.102-0.63,4.624-1.681,7.566-2.943c0.42-0.21,0.945-0.105,1.26,0.21c0.316,0.316,0.42,0.736,0.211,1.262
		c-0.594,1.654-1.483,3.185-2.627,4.518l2.102-0.735c0.42-0.105,0.946,0,1.262,0.315c0.314,0.315,0.42,0.84,0.314,1.261
		c-0.945,3.047-2.837,5.254-5.148,6.41v0.315C56.723,33.998,41.59,50.496,23.096,50.497L23.096,50.497z"/>
</g>
</svg>
