<?xml version="1.0" encoding="UTF-8"?>
<svg width="48px" height="48px" viewBox="0 0 48 48" version="1.1" xmlns="http://www.w3.org/2000/svg" xmlns:xlink="http://www.w3.org/1999/xlink">
    <!-- Generator: Sketch 49.2 (51160) - http://www.bohemiancoding.com/sketch -->
    <title>twitter</title>
    <desc>Created with Sketch.</desc>
    <defs>
        <linearGradient x1="22.398966%" y1="25.9912853%" x2="111.248784%" y2="100%" id="linearGradient-1">
            <stop stop-color="#5A84FF" offset="0%"></stop>
            <stop stop-color="#1ACBFE" offset="100%"></stop>
        </linearGradient>
    </defs>
    <g id="web" stroke="none" stroke-width="1" fill="none" fill-rule="evenodd">
        <g id="konuşmacı" transform="translate(-324.000000, -680.000000)">
            <g transform="translate(250.000000, 206.000000)" id="twitter">
                <g transform="translate(74.000000, 474.000000)">
                    <circle id="Oval-2" fill="url(#linearGradient-1)" cx="24" cy="24" r="24"></circle>
                    <path d="M36.6342003,18.2102892 C36.1231763,18.4353334 35.5926938,18.6128738 35.0483604,18.7414069 C35.6481533,18.1753714 36.0991195,17.4673817 36.353538,16.6771374 C36.4261569,16.4515363 36.1794209,16.2564535 35.9742935,16.3772456 C35.2170381,16.8233242 34.4013511,17.1579668 33.5498314,17.3719843 C33.5004281,17.3844032 33.4494547,17.3906962 33.398313,17.3906962 C33.2432057,17.3906962 33.0924164,17.3335024 32.9738148,17.2296958 C32.0678449,16.4367227 30.9026339,16 29.6928982,16 C29.1694252,16 28.6409054,16.0810293 28.1219746,16.2408602 C26.5141527,16.7361134 25.2735751,18.0532428 24.8843489,19.6782835 C24.7383261,20.2878129 24.6987922,20.8978993 24.7667568,21.4915571 C24.7745514,21.5597776 24.7420832,21.6073927 24.7220639,21.6297245 C24.686904,21.6688747 24.6370521,21.6913179 24.5852936,21.6913179 C24.5795178,21.6913179 24.5735737,21.6910394 24.5676856,21.6904825 C21.0482201,21.3657529 17.8745215,19.6818476 15.6311861,16.9490171 C15.5167903,16.8096244 15.2974195,16.8267213 15.2062393,16.9820414 C14.766937,17.7305179 14.5347808,18.586588 14.5347808,19.4576945 C14.5347808,20.7927005 15.0748524,22.0507983 16.0129541,22.9679605 C15.6184567,22.8750692 15.2366327,22.728771 14.8819496,22.5331313 C14.7103559,22.4384579 14.4992283,22.560141 14.4968171,22.7550568 C14.4722556,24.738297 15.6414481,26.5030087 17.3929376,27.2976525 C17.3576656,27.2984879 17.3223935,27.2988777 17.2870654,27.2988777 C17.0094313,27.2988777 16.7283204,27.2722578 16.4516395,27.2197419 C16.2584003,27.1830977 16.0960592,27.3651491 16.156061,27.5512101 C16.7245633,29.3138613 18.2527567,30.6131142 20.0815195,30.9081053 C18.5637563,31.9199409 16.796285,32.453676 14.9566994,32.453676 L14.3832063,32.4533419 C14.2065097,32.4533419 14.0570661,32.5677296 14.0120368,32.7376961 C13.9676804,32.9051009 14.0493837,33.0816946 14.2000609,33.1687384 C16.2729802,34.3668022 18.6374406,35 21.0388554,35 C23.1408783,35 25.1071404,34.5857204 26.8830792,33.7687449 C28.5111446,33.0197671 29.9498402,31.9491226 31.1591833,30.5865499 C32.2857577,29.3172584 33.1667176,27.851993 33.7775015,26.2315189 C34.3597425,24.6868392 34.6674896,23.0386314 34.6674896,21.4650485 L34.6674896,21.3900895 C34.6674335,21.1374229 34.7825023,20.8996814 34.9832557,20.7378456 C35.7450533,20.1235825 36.4084368,19.4005006 36.9549011,18.5887043 C37.0991856,18.3743526 36.8716277,18.105703 36.6342003,18.2102892 Z" id="Shape" fill="#FFFFFF" fill-rule="nonzero"></path>
                </g>
            </g>
        </g>
    </g>
</svg>